<?xml version="1.0" standalone="no"?>
<!DOCTYPE svg PUBLIC "-//W3C//DTD SVG 1.1//EN" "http://www.w3.org/Graphics/SVG/1.1/DTD/svg11.dtd" >
<svg xmlns="http://www.w3.org/2000/svg">
<metadata>Generated by IcoMoon</metadata>
<defs>
<font id="icomoon" horiz-adv-x="512">
<font-face units-per-em="512" ascent="480" descent="-32" />
<missing-glyph horiz-adv-x="512" />
<glyph unicode="&#x20;" d="" horiz-adv-x="256" />
<glyph unicode="&#xe600;" d="M278.944 321.472c0-0.288 0 0.32 0 2.976 0 17.856 3.744 28.64 27.136 28.64 21.6 0 41.408-0.16 41.408-0.16l1.536 60.608c0 0-19.392 2.496-45.696 2.496-64.864-0.032-92.992-40.032-92.992-83.552 0-28.8 0-55.392 0-55.392h-47.648v-64.864h47.648v-180.224h68.608v180.192h67.328l3.040 64.864h-70.368c0 27.488 0 39.52 0 44.416z" />
<glyph unicode="&#xe601;" d="M497.28 169.664c3.68 16.64 5.664 33.92 5.664 51.68 0 132.992-109.344 240.8-244.192 240.8-14.24 0-28.192-1.216-41.76-3.52-21.856 13.504-47.68 21.376-75.392 21.376-78.208 0-141.6-62.528-141.6-139.648 0-25.792 7.104-49.92 19.456-70.624-3.232-15.648-4.928-31.84-4.928-48.416 0-132.992 109.312-240.768 244.192-240.768 15.264 0 30.208 1.408 44.704 4.032 19.936-10.56 42.752-16.576 66.976-16.576 78.208 0 141.6 62.528 141.6 139.616 0 22.304-5.312 43.328-14.72 62.048zM383.968 105.28c-11.296-16-28-28.64-49.6-37.632-21.408-8.896-47.104-13.408-76.32-13.408-35.072 0-64.48 6.176-87.424 18.336-16.416 8.864-29.92 20.864-40.192 35.68-10.368 14.944-15.648 29.792-15.648 44.128 0 8.96 3.424 16.704 10.176 23.072 6.688 6.272 15.264 9.472 25.504 9.472 8.384 0 15.616-2.528 21.504-7.488 5.6-4.8 10.432-11.84 14.304-20.96 4.32-9.888 9.056-18.272 14.016-24.864 4.8-6.336 11.68-11.68 20.48-15.84 8.864-4.192 20.8-6.304 35.456-6.304 20.192 0 36.736 4.32 49.184 12.8 12.16 8.32 18.080 18.272 18.080 30.464 0 9.632-3.104 17.216-9.44 23.168-6.624 6.208-15.392 11.072-26.016 14.368-11.104 3.456-26.176 7.2-44.8 11.104-25.344 5.44-46.88 11.872-64 19.168-17.536 7.424-31.648 17.76-41.952 30.688-10.496 13.12-15.808 29.6-15.808 48.928 0 18.432 5.568 35.072 16.576 49.408 10.912 14.24 26.88 25.312 47.392 32.896 20.256 7.488 44.384 11.296 71.648 11.296 21.824 0 40.992-2.528 56.992-7.488 16.096-5.024 29.664-11.776 40.32-20.096 10.752-8.384 18.72-17.376 23.744-26.688 5.056-9.408 7.648-18.784 7.648-27.872 0-8.736-3.36-16.64-10.016-23.552-6.688-6.944-15.136-10.496-25.088-10.496-9.056 0-16.128 2.208-21.024 6.56-4.576 4.032-9.312 10.336-14.56 19.392-6.080 11.584-13.472 20.704-21.92 27.136-8.224 6.24-21.92 9.408-40.768 9.408-17.504 0-31.744-3.52-42.304-10.432-10.208-6.688-15.136-14.336-15.136-23.392 0-5.568 1.6-10.208 4.864-14.208 3.456-4.256 8.352-7.968 14.56-11.072 6.4-3.232 13.024-5.792 19.648-7.616 6.784-1.888 18.176-4.672 33.792-8.288 19.744-4.256 37.92-8.992 53.984-14.144 16.256-5.216 30.304-11.616 41.76-19.072 11.712-7.616 20.96-17.408 27.52-29.088 6.592-11.712 9.92-26.176 9.92-43.008 0.032-20.096-5.728-38.432-17.056-54.464z" />
<glyph unicode="&#xe602;" d="M128 96v256l245.344-128-245.344-128z" />
<glyph unicode="&#xe603;" d="M353.216 293.952c-43.712 0-63.264-24.064-74.176-40.928v35.072h-82.336c1.088-23.232 0-247.616 0-247.616h82.336v138.272c0 7.392 0.544 14.816 2.72 20.128 5.952 14.752 19.488 30.080 42.208 30.080 29.792 0 41.696-22.72 41.696-56v-132.448h82.336v141.952c0 76.064-40.608 111.488-94.784 111.488zM68.832 288.096h82.336v-247.616h-82.336v247.616zM110.528 407.52c-28.128 0-46.528-18.496-46.528-42.784 0-23.808 17.856-42.816 45.472-42.816h0.544c28.704 0 46.592 19.040 46.592 42.816-0.544 24.288-17.888 42.784-46.080 42.784z" />
<glyph unicode="&#xe604;" d="M182.336 220.608c0-2.304-0.16-4.576-0.352-6.816l179.84-89.408c15.904 13.152 36.48 21.12 58.976 21.12 50.336 0 91.168-39.744 91.168-88.768 0.032-48.992-40.8-88.736-91.136-88.736-50.368 0-91.168 39.744-91.168 88.736 0 2.336 0.16 4.576 0.352 6.848l-179.84 89.408c-15.936-13.152-36.48-21.12-58.976-21.12-50.368-0.032-91.2 39.68-91.2 88.736 0 49.024 40.832 88.736 91.168 88.736 21.984 0 42.112-7.552 57.856-20.16l181.056 93.76c-0.288 2.752-0.448 5.504-0.448 8.352 0.032 48.96 40.832 88.704 91.2 88.704 50.336 0 91.168-39.744 91.168-88.736 0-49.024-40.832-88.768-91.168-88.768-21.952 0-42.112 7.584-57.856 20.16l-181.024-93.76c0.256-2.72 0.384-5.504 0.384-8.288z" />
<glyph unicode="&#xe605;" d="M341.376 122.4h-64.032c-35.2 0-63.68 30.24-63.68 67.552v22.784h106.464c23.52 0 42.56 20.224 42.56 45.184 0 24.928-19.040 45.12-42.56 45.12h-106.464v67.776c0 24.928-19.072 45.184-42.592 45.184s-42.56-20.256-42.56-45.184l-0.512-180.992c0-87.168 66.592-157.824 148.736-157.824h64.672c23.52 0 42.592 20.288 42.592 45.184 0 24.96-19.072 45.216-42.624 45.216z" />
<glyph unicode="&#xe606;" d="M412.64 244.288c19.616 4.096 32.192 10.304 33.568 19.808-12.896-4.096-26.144-4.288-40.224-1.792-6.528 1.152-4.8 0.576-6.24 6.88-10.4 46.016-46.528 67.648-80.544 68.32 41.568 8.896 42.944 26.848 3.648 12.736 14.4 8.864 15.904 17.152-4.992 7.264-3.776-1.856-8.576-5.408-11.904-8.096 7.552 14.816 0.896 10.528-12-2.912-17.28-18.048-32.288-42.848-44.576-81.184-26.72 27.52-71.84 46.112-117.12 63.424-10.112 3.872-12.704 7.36-10.176-6.144 2.656-14.336 13.056-27.296 30.496-37.888-5.92-0.32-12.512-1.024-17.6-2.304-5.248-1.312-5.024-1.056-3.456-6.176 4.704-15.584 18.272-27.168 40.48-33.504-7.68-0.608-15.104-2.368-20.544-6.304-4.96-3.584-4.928-3.936-1.888-8.608 8-12.288 21.632-19.040 43.072-19.328-22.656-11.52-15.264-32.928 13.28-32.928-43.552-43.328-102.304-36.448-141.92-5.408 60.384-85.344 180.832-92.16 263.616-45.184 35.232 20 63.104 51.872 75.264 96.384 19.488 0.224 35.264 6.080 45.12 17.408-12.672-0.608-24.672 0.096-35.392 2.464-8.736 1.984-7.232 1.536 0.032 3.072z" />
<glyph unicode="&#xe607;" d="M256 352c-12.992 0-25.28-2.496-37.088-6.112 21.824-10.176 37.088-32.192 37.088-57.888 0-35.328-28.672-64-64-64-25.696 0-47.712 15.264-57.888 37.088-3.584-11.808-6.112-24.096-6.112-37.088 0-70.688 57.312-128 128-128s128 57.312 128 128-57.312 128-128 128zM480 32h-55.232c53.344 46.944 87.232 115.488 87.232 192 0 141.152-114.848 256-256 256s-256-114.848-256-256c0-76.512 33.888-145.056 87.232-192h-55.232c-17.664 0-32-14.304-32-32s14.336-32 32-32h448c17.664 0 32 14.304 32 32s-14.336 32-32 32zM256 32c-105.888 0-192 86.112-192 192s86.112 192 192 192 192-86.112 192-192-86.112-192-192-192z" />
<glyph unicode="&#xe608;" d="M96-32c-4.32 0-8.64 0.864-12.736 2.656-11.712 5.056-19.264 16.608-19.264 29.344v448c0 17.696 14.336 32 32 32h320c17.664 0 32-14.304 32-32v-448c0-12.736-7.552-24.288-19.264-29.344-11.648-5.088-25.28-2.752-34.592 5.952l-138.176 128.928-138.144-128.928c-6.016-5.632-13.856-8.608-21.824-8.608zM255.968 181.312c7.84 0 15.68-2.88 21.824-8.608l106.208-99.072v342.368h-256v-342.368l106.144 99.104c6.144 5.696 13.984 8.576 21.824 8.576z" />
<glyph unicode="&#xe609;" d="M480 352h-128v64c0 17.696-14.336 32-32 32h-128c-17.664 0-32-14.304-32-32v-64h-128c-17.664 0-32-14.304-32-32v-320c0-17.696 14.336-32 32-32h448c17.664 0 32 14.304 32 32v320c0 17.696-14.336 32-32 32zM224 384h64v-32h-64v32zM448 288v-64h-64c0 17.696-14.336 32-32 32s-32-14.304-32-32h-128c0 17.696-14.336 32-32 32s-32-14.304-32-32h-64v64h384zM64 32v128h64v-32c0-17.696 14.336-32 32-32s32 14.304 32 32v32h128v-32c0-17.696 14.336-32 32-32s32 14.304 32 32v32h64v-128h-384z" />
<glyph unicode="&#xe60a;" d="M224 480h-224v-224l288-288 224 224-288 288zM177.952 302.048c-18.752-18.752-49.152-18.752-67.872 0-18.752 18.72-18.752 49.152 0 67.872 18.752 18.752 49.152 18.752 67.872 0 18.72-18.688 18.72-49.12 0-67.872z" />
<glyph unicode="&#xe60b;" d="M256-32c-17.664 0-32 14.304-32 32v168.576l-145.984-84.288c-15.36-8.8-34.88-3.584-43.712 11.712-2.912 5.024-4.288 10.528-4.288 15.968 0 11.072 5.728 21.824 16 27.744l145.984 84.288-145.984 84.288c-10.272 5.952-16 16.704-16 27.744 0 5.44 1.376 10.944 4.288 15.968 8.832 15.264 28.352 20.576 43.712 11.712l145.984-84.288v168.576c0 17.696 14.336 32 32 32s32-14.304 32-32v-168.576l145.984 84.288c15.328 8.864 34.88 3.648 43.744-11.712 2.912-5.024 4.288-10.528 4.288-15.968 0-11.072-5.728-21.824-16-27.744l-146.016-84.288 145.984-84.288c10.272-5.952 16-16.704 16-27.744 0-5.44-1.376-10.944-4.288-15.968-8.864-15.264-28.416-20.544-43.712-11.712l-145.984 84.288v-168.576c0-17.696-14.336-32-32-32z" />
<glyph unicode="&#xe60c;" d="M170.912 179.36c0 40.192 19.648 52.832 44.352 65.472l74.912 38.72c11.648 5.92 23.264 14.88 23.264 39.424v10.432c0 34.208-24.736 48.352-58.912 48.352s-58.176-14.144-58.176-48.352v-26.816c0-15.616-5.12-22.336-20.384-22.336h-74.88c-15.264 0-21.088 6.72-21.088 22.336v46.176c0 63.968 43.648 127.232 174.528 127.232 130.912 0 176.736-63.264 177.472-127.232v-25.312c0-76.64-37.824-108.672-70.56-123.552l-42.88-19.328c-22.56-10.432-27.648-15.648-27.648-37.216v-16.384c0-15.616-5.088-21.568-20.352-21.568h-78.56c-15.264 0-21.088 5.952-21.088 21.568v48.384zM290.912-10.432c0-15.616-5.088-21.568-20.352-21.568h-78.56c-15.264 0-21.088 5.952-21.088 21.568v61.76c0 15.648 5.824 22.336 21.088 22.336h78.56c15.264 0 20.352-6.688 20.352-22.336v-61.76z" />
<glyph unicode="&#xe60d;" d="M416 256.032c0 34.944 50.304 83.776 33.92 112.032-16.864 29.12-84.896 9.664-113.984 26.528-28.288 16.352-45.024 85.408-79.968 85.408-34.912 0-51.68-69.056-79.904-85.44-29.12-16.864-97.152 2.56-113.984-26.496-16.384-28.256 33.92-77.088 33.92-112.032s-50.304-83.776-33.92-112.032c14.272-24.608 64.96-14.688 97.92-21.184v-154.816l81.952 68.32c4.384-2.528 8.96-4.288 14.048-4.288 5.056 0 9.664 1.76 14.016 4.288l81.952-68.32v154.816c32.96 6.528 83.68-3.424 97.984 21.184 16.352 28.256-33.952 77.088-33.952 112.032zM255.968 160.032c-52.928 0-96 43.104-96 96s43.072 96 96 96 96-43.104 96-96-43.072-96-96-96z" />
<glyph unicode="&#xe60e;" d="M256 480l60.416-195.488h195.552l-158.144-120.96 60.384-195.552-158.208 120.864-158.24-120.864 60.416 195.552-158.176 120.96h195.552z" />
<glyph unicode="&#xe60f;" d="M411.168 332.64l-155.168-121.376-155.168 121.376c-6.88 5.408-16.992 4.224-22.432-2.752s-4.224-17.024 2.752-22.496l164.992-129.056c2.88-2.272 6.4-3.392 9.856-3.392s6.976 1.12 9.856 3.392l164.992 129.056c6.976 5.44 8.192 15.488 2.752 22.464-5.472 7.008-15.552 8.16-22.432 2.784zM416 416h-320c-53.024 0-96-42.976-96-96v-192c0-53.024 42.976-96 96-96h320c53.024 0 96 42.976 96 96v192c0 53.024-42.976 96-96 96zM448 128c0-1.952-0.288-3.648-0.64-5.504l-74.976 79.744c-6.048 6.432-16.096 6.72-22.464 0.672-6.432-6.048-6.656-16.192-0.608-22.624l77.664-82.24c-3.2-1.088-6.432-2.048-9.984-2.048h-321.984c-3.52 0-6.816 0.96-9.984 2.016l77.632 82.24c6.080 6.432 5.792 16.576-0.64 22.624s-16.608 5.76-22.656-0.64l-74.752-79.744c-0.32 1.856-0.608 3.552-0.608 5.504v192c0 17.632 13.344 32 31.008 32h321.984c17.664 0 31.008-14.368 31.008-32v-192z" />
<glyph unicode="&#xe610;" d="M499.264 473.6c-8.032 5.984-18.4 7.936-28.064 5.216l-215.2-61.312-215.2 61.28c-9.664 2.72-20.064 0.8-28.064-5.184-8.032-6.048-12.736-15.488-12.736-25.504v-384.352c0-14.24 9.472-26.784 23.2-30.72l224-63.84c2.88-0.768 5.856-1.184 8.8-1.184s5.92 0.416 8.8 1.216l224 63.84c13.728 3.936 23.2 16.448 23.2 30.688v384.352c0 10.016-4.736 19.456-12.736 25.504zM64 405.76l160-45.568v-317.952l-160 45.568v317.952zM448 87.808l-160-45.568v317.952l160 45.568v-317.952z" />
<glyph unicode="&#xe611;" d="M256 480c-141.152 0-256-114.848-256-256s114.848-256 256-256c141.152 0 256 114.848 256 256s-114.848 256-256 256zM436.576 288.64c-25.408 11.168-57.088 19.424-91.264 24.672-5.248 34.176-13.504 65.856-24.672 91.264 53.888-19.36 96.576-62.048 115.936-115.936zM233.056 414.496c7.552 0.896 15.168 1.504 22.944 1.504s15.392-0.576 22.944-1.504c13.056-18.816 25.728-52.288 33.472-97.184-18.656 1.728-37.6 2.688-56.416 2.688s-37.76-0.96-56.416-2.72c7.744 44.928 20.416 78.4 33.472 97.216zM65.504 201.056c-0.896 7.552-1.504 15.168-1.504 22.944s0.608 15.392 1.504 22.944c18.816 13.056 52.288 25.696 97.216 33.44-1.76-18.624-2.72-37.6-2.72-56.384s0.96-37.76 2.72-56.384c-44.928 7.712-78.4 20.384-97.216 33.44zM75.424 159.328c25.408-11.168 57.088-19.424 91.264-24.672 5.248-34.176 13.504-65.824 24.672-91.264-53.888 19.392-96.576 62.080-115.936 115.936zM166.688 313.312c-34.144-5.248-65.856-13.472-91.264-24.672 19.36 53.888 62.048 96.576 115.936 115.936-11.168-25.408-19.424-57.088-24.672-91.264zM278.944 33.504c-7.552-0.896-15.168-1.504-22.944-1.504s-15.392 0.608-22.944 1.504c-13.056 18.816-25.728 52.288-33.472 97.216 18.656-1.76 37.6-2.72 56.416-2.72s37.76 0.96 56.416 2.688c-7.744-44.896-20.416-78.368-33.472-97.184zM316.832 163.136c-18.848-1.952-39.104-3.136-60.832-3.136s-41.984 1.184-60.832 3.136c-1.984 18.88-3.168 39.136-3.168 60.864s1.184 41.984 3.168 60.832c18.848 1.984 39.104 3.168 60.832 3.168s42.016-1.184 60.832-3.168c1.984-18.848 3.168-39.104 3.168-60.832s-1.184-41.984-3.168-60.864zM320.672 43.424c11.168 25.408 19.424 57.088 24.672 91.264 34.144 5.248 65.856 13.472 91.264 24.672-19.392-53.888-62.080-96.576-115.936-115.936zM349.28 167.616c1.76 18.624 2.72 37.6 2.72 56.384s-0.96 37.76-2.72 56.384c44.928-7.744 78.4-20.384 97.216-33.472 0.896-7.52 1.504-15.136 1.504-22.912s-0.608-15.392-1.504-22.944c-18.816-13.056-52.288-25.728-97.216-33.44z" />
<glyph unicode="&#xe612;" d="M430.432 99.040c-60.16 27.072-112.288 49.856-112.288 49.856s0 28.48 0 48.416c0 19.936 30.72 41.312 30.72 123.936 0 79.392-34.624 123.104-89.568 126.432 0 0.064 0 0.224 0 0.32-1.12 0-2.176-0.096-3.296-0.16-1.152 0.064-2.208 0.16-3.36 0.16 0-0.096 0-0.256 0-0.32-54.912-3.296-89.568-47.040-89.568-126.432 0-82.624 30.752-104 30.752-123.936s0-48.416 0-48.416-52.128-22.784-112.288-49.856c-60.192-27.072-81.536-65.504-81.536-86.912 0-21.344 0-44.128 0-44.128h512c0 0 0 22.784 0 44.128 0 21.408-21.408 59.84-81.568 86.912z" />
<glyph unicode="&#xe613;" d="M7.040 108.864c-4.736-3.552-7.040-8.256-7.040-12.864 0-4.672 2.304-9.376 7.040-12.928l144-109.696c6.88-5.248 17.184-6.816 26.144-3.968 8.992 2.816 14.816 9.472 14.816 16.896v77.696h128c17.696 0 32 14.304 32 32s-14.304 32-32 32h-128v77.76c0 7.36-5.824 14.048-14.816 16.864-8.96 2.816-19.264 1.248-26.144-4l-144-109.76zM334.816 478.592c-8.96-2.816-14.816-9.472-14.816-16.896v-77.696h-128c-17.696 0-32-14.304-32-32s14.304-32 32-32h128v-77.76c0-7.392 5.856-14.048 14.816-16.864s19.264-1.248 26.144 4l144 109.76c4.736 3.552 7.040 8.224 7.040 12.864 0 4.672-2.304 9.376-7.040 12.928l-144 109.696c-6.88 5.248-17.184 6.816-26.144 3.968z" />
<glyph unicode="&#xe614;" d="M502.592 38.432c20.352 25.856 4.224 39.008-15.712 54.624-27.776 21.728-58.272 43.264-83.2 62.4-24.896 19.104-31.584 16.64-41.536 4.96-9.984-11.648-28.128-30.912-35.616-33.12-11.808-3.456-42.144 8.608-100.416 66.816-58.24 58.208-70.304 88.576-66.784 100.352 2.176 7.552 21.504 25.632 33.12 35.648 11.648 9.984 14.112 16.64-4.992 41.536-19.104 24.96-40.704 55.456-62.368 83.232-15.648 19.968-28.768 36.032-54.656 15.712-46.976-37.056-73.504-88.096-70.144-100.576 3.296-12.448 39.104-98.144 171.36-230.4s217.92-168 230.4-171.328c12.48-3.36 63.52 23.136 100.544 70.144z" />
<glyph unicode="&#xe615;" d="M480 224h-64v128c0 0.672-0.352 1.28-0.384 1.952-0.192 2.912-0.768 5.76-1.728 8.512-0.352 0.992-0.608 1.952-1.024 2.88-1.568 3.36-3.52 6.56-6.24 9.28l-96 96c-6.304 6.304-14.784 9.28-23.36 9.088-0.48 0.032-0.928 0.288-1.408 0.288h-157.856c-17.696 0-32-14.336-32-32v-224h-64c-17.696 0-32-12.192-32-29.856v-164.288c0-17.696 14.304-29.856 32-29.856h64.448c1.152-32 14.624-32 31.552-32h256c16.928 0 30.4 0 31.552 32h64.448c17.696 0 32 12.16 32 29.824v164.32c0 17.664-14.304 29.856-32 29.856zM160 416h96v-64c0-17.664 14.304-32 32-32h64v-96h-192v192zM448 64h-32.448c-1.152 0-14.624 32-31.552 32h-256c-16.928 0-30.4-32-31.552-32h-32.448v96h384v-96z" />
<glyph unicode="&#xe616;" d="M450.752 373.536l51.872 51.776c12.512 12.544 12.512 32.768 0 45.28s-32.736 12.544-45.248 0l-51.872-51.808-54.976 55.008c-5.216 5.216-14.080 5.824-22.432 1.44-8.352-4.32-14.496-12.736-15.68-21.312l-24.192-179.424c-0.832-5.856 0.832-10.784 4.096-14.080 3.36-3.328 8.288-5.024 14.144-4.224l179.36 24.32c8.576 1.12 16.96 7.296 21.312 15.648s3.776 17.184-1.44 22.4l-54.944 54.976zM205.536 191.808l-179.36-24.32c-8.576-1.12-16.96-7.328-21.312-15.648-4.352-8.352-3.776-17.184 1.44-22.4l54.944-54.976-51.872-51.808c-12.512-12.544-12.512-32.736 0-45.248s32.736-12.544 45.248 0l51.872 51.808 54.976-54.976c5.216-5.216 14.080-5.824 22.432-1.44 8.352 4.32 14.496 12.736 15.68 21.28l24.224 179.424c0.832 5.856-0.864 10.784-4.128 14.048-3.36 3.36-8.288 5.056-14.144 4.256z" />
<glyph unicode="&#xe617;" d="M479.968 416h-128.064c-17.696 0-32.032-14.304-32.032-32s14.336-32 32.032-32h96.064v-128h-338.976l73.408 73.376c12.512 12.512 12.512 32.736 0 45.248s-32.768 12.512-45.28 0l-128.032-127.968c-2.976-2.976-5.024-6.496-6.656-10.432-3.232-7.808-3.232-16.64 0-24.448 1.632-3.936 3.68-7.456 6.656-10.432l128.064-127.968c6.24-6.24 14.432-9.376 22.624-9.376s16.384 3.136 22.624 9.376c12.512 12.512 12.512 32.736 0 45.248l-73.408 73.376h370.976c17.696 0 32.032 14.304 32.032 32v192c0 17.696-14.336 32-32.032 32z" />
<glyph unicode="&#xe618;" d="M507.68 475.584c-3.328 3.328-8.256 5.024-14.144 4.224l-179.36-24.32c-8.576-1.12-16.96-7.328-21.312-15.648-4.352-8.352-3.776-17.184 1.44-22.4l54.944-54.976-61.248-61.184c-12.512-12.544-12.48-32.768 0-45.248 12.512-12.512 32.736-12.544 45.248 0l61.248 61.184 54.976-54.976c5.216-5.216 14.080-5.824 22.432-1.44 8.352 4.32 14.496 12.736 15.68 21.28l24.224 179.424c0.832 5.856-0.864 10.784-4.128 14.080zM178.752 191.968l-61.248-61.184-54.976 54.976c-5.216 5.216-14.080 5.824-22.432 1.44-8.352-4.32-14.496-12.736-15.68-21.28l-24.224-179.424c-0.832-5.856 0.864-10.784 4.128-14.048 3.328-3.328 8.256-5.024 14.144-4.224l179.36 24.32c8.576 1.12 16.96 7.328 21.312 15.648 4.352 8.352 3.776 17.184-1.44 22.4l-54.944 54.976 61.248 61.184c12.512 12.544 12.512 32.736 0 45.248-12.48 12.48-32.736 12.512-45.248-0.032z" />
<glyph unicode="&#xe619;" d="M146.304 288h77.696v-128c0-17.696 14.336-32 32-32s32 14.304 32 32v128h77.728c7.392 0 14.080 5.856 16.864 14.816 2.848 8.96 1.248 19.296-3.968 26.176l-109.76 144c-3.52 4.704-8.224 7.008-12.864 7.008-4.672 0-9.344-2.304-12.96-7.040l-109.664-144c-5.248-6.88-6.816-17.184-3.968-26.144 2.816-8.96 9.472-14.816 16.896-14.816zM480 96c-17.664 0-32-14.304-32-32v-32h-384v32c0 17.696-14.336 32-32 32s-32-14.304-32-32v-64c0-17.696 14.336-32 32-32h448c17.664 0 32 14.304 32 32v64c0 17.696-14.336 32-32 32z" />
<glyph unicode="&#xe61a;" d="M480 416h-64v64h-64v-64h-192v64h-64v-64h-64c-17.664 0-32-14.304-32-32v-384c0-17.696 14.336-32 32-32h448c17.664 0 32 14.304 32 32v384c0 17.696-14.336 32-32 32zM448 32h-384v256h384v-256zM128 160h256v-64h-256v64z" />
<glyph unicode="&#xe61b;" d="M243.104 135.040c3.552-4.736 8.256-7.040 12.896-7.040 4.672 0 9.376 2.304 12.96 7.040l109.664 144c5.248 6.88 6.816 17.184 3.968 26.144-2.816 8.992-9.472 14.816-16.896 14.816h-77.696v128c0 17.696-14.336 32-32 32s-32-14.304-32-32v-128h-77.728c-7.392 0-14.080-5.824-16.864-14.816-2.848-8.96-1.28-19.264 3.936-26.144l109.76-144zM480 96c-17.664 0-32-14.304-32-32v-32h-384v32c0 17.696-14.336 32-32 32s-32-14.304-32-32v-64c0-17.696 14.336-32 32-32h448c17.664 0 32 14.304 32 32v64c0 17.696-14.336 32-32 32z" />
<glyph unicode="&#xe61c;" d="M384 192c-17.664 0-32-14.304-32-32v-128h-288v288h128c17.664 0 32 14.304 32 32s-14.336 32-32 32h-160c-17.664 0-32-14.304-32-32v-352c0-17.696 14.336-32 32-32h352c17.664 0 32 14.304 32 32v160c0 17.696-14.336 32-32 32zM177.376 190.624l-40-40c-12.512-12.512-12.512-32.736 0-45.248 6.24-6.24 14.432-9.376 22.624-9.376s16.384 3.136 22.624 9.376l40 40c12.512 12.512 12.512 32.736 0 45.248s-32.736 12.512-45.248 0zM502.624 470.624c-12.512 12.512-32.736 12.512-45.248 0l-200-200c-12.512-12.512-12.512-32.736 0-45.248 6.24-6.24 14.432-9.376 22.624-9.376s16.384 3.136 22.624 9.376l200 200c12.512 12.512 12.512 32.736 0 45.248z" />
<glyph unicode="&#xe61d;" d="M480 320h-64v64c0 17.696-14.336 32-32 32h-352c-17.664 0-32-14.304-32-32v-256c0-17.696 14.336-32 32-32h64v-64c0-17.696 14.336-32 32-32h352c17.664 0 32 14.304 32 32v256c0 17.696-14.336 32-32 32zM64 160v192h288v-32h-224c-17.664 0-32-14.304-32-32v-128h-32zM448 64h-288v192h288v-192z" />
<glyph unicode="&#xe61e;" d="M256 352c-17.696 0-32-14.336-32-32v-320c0-17.664 14.304-32 32-32s32 14.336 32 32v320c0 17.664-14.304 32-32 32zM288 448c0-17.673-14.327-32-32-32s-32 14.327-32 32c0 17.673 14.327 32 32 32s32-14.327 32-32z" />
<glyph unicode="&#xe61f;" d="M64 443.424c0 14.816 11.68 28.128 29.632 33.792 17.92 5.664 38.56 2.528 52.32-7.936l288-219.36c9.376-7.168 14.048-16.544 14.048-25.92 0-9.248-4.672-18.624-14.048-25.76l-288-219.488c-13.76-10.432-34.368-13.632-52.32-7.936-17.952 5.6-29.632 18.976-29.632 33.728v438.88z" />
<glyph unicode="&#xe620;" d="M254.88 224c17.76 0 32.16 14.304 32.16 32v192c0 17.696-14.4 32-32.16 32s-32.16-14.304-32.16-32v-192c0-17.696 14.4-32 32.16-32zM367.392 384c-15.456 8.768-35.072 3.52-43.904-11.808s-3.52-34.88 11.872-43.68c49.568-28.32 80.32-81.024 80.32-137.6 0-87.648-71.648-158.912-159.68-158.912s-159.68 71.264-159.68 158.912c0 56.384 29.344 107.328 78.496 136.352 15.264 9.024 20.32 28.64 11.264 43.84-9.056 15.232-28.8 20.224-44.064 11.232-67.872-40.064-110.016-113.408-110.016-191.424 0-122.912 100.48-222.912 224-222.912s224 100 224 222.912c0 79.392-43.136 153.408-112.608 193.088z" />
<glyph unicode="&#xe621;" d="M64 480c-17.664 0-32-14.304-32-32v-448c0-17.696 14.336-32 32-32s32 14.304 32 32v448c0 17.696-14.336 32-32 32zM478.24 350.72c-0.32-0.352-40.032-21.664-87.392-10.368-7.232 1.728-14.528 4.256-21.76 7.488-33.248 14.976-46.336 27.872-61.408 42.848-12.096 11.872-25.76 25.408-52.288 41.632-9.536 5.824-19.936 10.144-30.784 12.704-48.288 11.488-95.584-28.416-96-28.64l-0.608-0.384v-192c0.384 0.288 55.008 23.072 102.464 11.712 10.56-2.528 20.736-6.72 30.048-12.352 26.304-16.256 39.936-29.632 51.84-41.44 15.328-15.104 28.64-27.872 62.208-42.976 7.264-3.264 14.816-5.664 22.144-7.328l0.064-0.064c48.448-11.488 82.848 28.128 83.232 28.448v192l-1.76-1.28z" />
<glyph unicode="&#xe622;" d="M32 352h448c17.664 0 32 14.304 32 32s-14.336 32-32 32h-448c-17.664 0-32-14.304-32-32s14.336-32 32-32zM480 256h-448c-17.664 0-32-14.304-32-32s14.336-32 32-32h448c17.664 0 32 14.304 32 32s-14.336 32-32 32zM480 96h-448c-17.664 0-32-14.304-32-32s14.336-32 32-32h448c17.664 0 32 14.304 32 32s-14.336 32-32 32z" />
<glyph unicode="&#xe623;" d="M256 480c-88.224 0-160-71.776-160-160 0-52.608 49.984-123.712 105.728-198.112 7.488-10.048 16.352-21.856 21.536-29.344 0.16-1.088 0.512-1.92 0.736-2.912v-89.632c0-17.696 14.336-32 32-32s32 14.304 32 32v89.632c0.224 0.992 0.608 1.824 0.736 2.912 5.184 7.488 14.016 19.328 21.536 29.344 55.744 74.4 105.728 145.504 105.728 198.112 0 88.224-71.776 160-160 160zM256 256c-35.328 0-64 28.672-64 64s28.672 64 64 64 64-28.64 64-64-28.672-64-64-64z" />
<glyph unicode="&#xe624;" d="M350.336-32c-11.136 0-21.6 6.048-27.232 16.224l-77.888 140.32-148.48-7.168c-12.736-0.928-25.344 7.232-30.4 19.712s-1.92 26.848 7.872 35.936l321.408 298.656c9.824 9.088 24.128 10.912 35.84 4.544 11.68-6.4 18.144-19.616 16.192-32.992l-66.336-448c-1.984-13.504-12.128-24.224-25.248-26.688-1.92-0.352-3.84-0.544-5.728-0.544z" />
<glyph unicode="&#xe625;" d="M256 480c-141.152 0-256-114.848-256-256s114.848-256 256-256c141.152 0 256 114.848 256 256s-114.848 256-256 256zM374.624 150.624c12.512-12.512 12.512-32.736 0-45.248-6.24-6.24-14.432-9.376-22.624-9.376s-16.384 3.136-22.624 9.376l-73.376 73.376-73.376-73.376c-6.24-6.24-14.432-9.376-22.624-9.376s-16.384 3.136-22.624 9.376c-12.512 12.512-12.512 32.736 0 45.248l73.376 73.376-73.376 73.376c-12.512 12.512-12.512 32.736 0 45.248s32.736 12.512 45.248 0l73.376-73.376 73.376 73.376c12.512 12.512 32.736 12.512 45.248 0s12.512-32.736 0-45.248l-73.376-73.376 73.376-73.376z" />
<glyph unicode="&#xe626;" d="M256 480c-141.152 0-256-114.848-256-256s114.848-256 256-256 256 114.848 256 256-114.848 256-256 256zM256 32c-105.888 0-192 86.112-192 192s86.112 192 192 192 192-86.112 192-192-86.112-192-192-192zM384 224c0-70.692-57.308-128-128-128s-128 57.308-128 128c0 70.692 57.308 128 128 128s128-57.308 128-128z" />
<glyph unicode="&#xe627;" d="M502.624 22.624l-154.464 154.4c53.28 74.976 46.816 179.616-20.352 246.784-74.88 74.912-196.736 74.912-271.648 0-74.912-74.848-74.912-196.768 0-271.68 67.168-67.136 171.808-73.6 246.752-20.32l154.432-154.4c12.512-12.544 32.736-12.512 45.248-0.032 12.544 12.48 12.544 32.736 0.032 45.248zM101.44 197.408c-49.888 49.952-49.888 131.232 0.032 181.152s131.168 49.92 181.088 0c49.792-49.792 49.888-130.688 0.384-180.704-0.16-0.128-0.352-0.16-0.512-0.32-0.128-0.16-0.192-0.352-0.32-0.48-49.952-49.504-130.848-49.44-180.672 0.352z" />
<glyph unicode="&#xe628;" d="M96 480h32v-512h-32v512zM256 480h32v-512h-32v512zM416 480h32v-512h-32v512z" />
<glyph unicode="&#xe629;" d="M256.608 480c-141.152 0.32-256.288-114.24-256.608-255.392s114.24-256.288 255.392-256.608 256.288 114.24 256.608 255.392c0.32 141.152-114.24 256.288-255.392 256.608zM255.552 32c-105.888 0.256-191.808 86.592-191.552 192.448s86.592 191.808 192.448 191.552c105.888-0.256 191.808-86.592 191.552-192.448s-86.592-191.808-192.448-191.552zM256.288 352l-0.288-128 128-0.288c0.16 70.688-57.024 128.128-127.712 128.288z" />
<glyph unicode="&#xe62a;" d="M256 480c-141.152 0-256-114.848-256-256s114.848-256 256-256 256 114.848 256 256-114.848 256-256 256zM256 32c-105.888 0-192 86.112-192 192s86.112 192 192 192 192-86.112 192-192-86.112-192-192-192zM256 352v-256c70.688 0 128 57.312 128 128s-57.312 128-128 128z" />
<glyph unicode="&#xe62b;" d="M256 480c-141.152 0-256-114.848-256-256s114.848-256 256-256 256 114.848 256 256-114.848 256-256 256zM256 32c-105.888 0-192 86.112-192 192s86.112 192 192 192 192-86.112 192-192-86.112-192-192-192zM256 352v-128h-128c0-70.688 57.312-128 128-128s128 57.312 128 128-57.312 128-128 128z" />
<glyph unicode="&#xe62c;" d="M256 480c-141.152 0-256-114.848-256-256s114.848-256 256-256 256 114.848 256 256-114.848 256-256 256zM256 32c-105.888 0-192 86.112-192 192s86.112 192 192 192 192-86.112 192-192-86.112-192-192-192zM259.232 134.336c-26.304 0-39.68 19.328-42.624 44.48h49.312l7.136 32.288h-59.808c-0.416 6.080-0.416 12.192-0.416 17.952l0.416 5.344h64.768l7.104 32.32h-68.928c7.104 32.576 22.56 49.088 45.536 49.088 19.232 0 35.104-17.568 36.8-46.944h53.056c0 55.872-42.624 83.136-89.856 83.136-55.168 0-89.408-31.872-101.12-85.312h-25.088l-7.52-32.32h28.832c0-3.232-0.416-6.784-0.416-10.368 0-4.32 0-8.608 0.416-12.896h-21.312l-7.52-32.288h33.024c10.016-48.768 40.96-82.816 98.208-82.816 56.832 0 92.768 32.256 92.768 84.96h-53.92c-0.832-28.672-15.424-46.624-38.848-46.624z" />
<glyph unicode="&#xe62d;" d="M352 224c0-52.992-43.008-96-96-96s-96 43.008-96 96c0 52.992 43.008 96 96 96s96-43.008 96-96z" />
<glyph unicode="&#xe62e;" d="M256 480c-141.152 0-256-114.848-256-256s114.848-256 256-256c141.152 0 256 114.848 256 256s-114.848 256-256 256zM256 32c-105.856 0-192 86.112-192 192s86.144 192 192 192c105.856 0 192-86.112 192-192s-86.144-192-192-192zM352 224c0-53.019-42.981-96-96-96s-96 42.981-96 96c0 53.019 42.981 96 96 96s96-42.981 96-96z" />
<glyph unicode="&#xe62f;" d="M256 480c-141.152 0-256-114.848-256-256s114.848-256 256-256 256 114.848 256 256-114.848 256-256 256zM256 32c-105.888 0-192 86.112-192 192s86.112 192 192 192 192-86.112 192-192-86.112-192-192-192zM352 256h-64v64c0 17.696-14.336 32-32 32s-32-14.304-32-32v-96c0-17.696 14.304-32 32-32h96c17.696 0 32 14.304 32 32s-14.304 32-32 32z" />
<glyph unicode="&#xe630;" d="M256 480c-141.152 0-256-114.848-256-256s114.848-256 256-256 256 114.848 256 256-114.848 256-256 256zM256 32c-105.888 0-192 86.112-192 192s86.112 192 192 192c57.696 0 109.408-25.696 144.64-66.112l-144.64-144.64-50.752 50.752c-12.512 12.512-32.736 12.512-45.248 0s-12.512-32.736 0-45.248l73.376-73.376c6.24-6.24 14.432-9.376 22.624-9.376s16.384 3.136 22.624 9.376l156.16 156.16c8.416-21.6 13.216-44.992 13.216-69.536 0-105.888-86.112-192-192-192z" />
<glyph unicode="&#xe631;" d="M256 344c-50.368 0-88-42.24-88-80h48c0 11.264 16.512 32 40 32 23.2 0 40-19.136 40-32 0-20.352-6.848-24.672-21.856-34.24-16.8-10.688-42.144-26.88-42.144-69.76h48c0 16.576 5.408 20.032 19.936 29.248 17.536 11.2 44.064 28.096 44.064 74.752 0 37.856-36.128 80-88 80zM256 480c-141.152 0-256-114.848-256-256s114.848-256 256-256 256 114.848 256 256-114.848 256-256 256zM256 32c-105.888 0-192 86.112-192 192s86.112 192 192 192 192-86.112 192-192-86.112-192-192-192zM224 128h64v-32h-64v32z" />
<glyph unicode="&#xe632;" d="M224 352h64v-64h-64v64zM224 256h64v-160h-64v160zM256 480c-141.152 0-256-114.848-256-256s114.848-256 256-256 256 114.848 256 256-114.848 256-256 256zM256 32c-105.888 0-192 86.112-192 192s86.112 192 192 192 192-86.112 192-192-86.112-192-192-192z" />
<glyph unicode="&#xe633;" d="M256 480c-141.152 0-256-114.848-256-256s114.848-256 256-256 256 114.848 256 256c0 141.152-114.848 256-256 256zM256 32c-105.888 0-192 86.112-192 192s86.112 192 192 192 192-86.112 192-192c0-105.888-86.112-192-192-192zM342.624 310.624c-12.512 12.512-32.736 12.512-45.248 0l-41.376-41.376-41.376 41.376c-12.512 12.512-32.736 12.512-45.248 0s-12.512-32.736 0-45.248l41.376-41.376-41.376-41.376c-12.512-12.512-12.512-32.736 0-45.248 6.24-6.24 14.432-9.376 22.624-9.376s16.384 3.136 22.624 9.376l41.376 41.376 41.376-41.376c6.24-6.24 14.432-9.376 22.624-9.376s16.384 3.136 22.624 9.376c12.512 12.512 12.512 32.736 0 45.248l-41.376 41.376 41.376 41.376c12.512 12.512 12.512 32.736 0 45.248z" />
<glyph unicode="&#xe634;" d="M221.44 315.968c-4.928 3.904-12.352 5.088-18.784 3.008-6.464-2.208-10.656-7.232-10.656-12.8v-165.632c0-5.536 4.192-10.592 10.656-12.768 6.464-2.112 13.856-0.928 18.816 3.008l103.488 82.848c3.392 2.688 5.056 6.176 5.056 9.728 0 3.52-1.664 7.072-5.056 9.824l-103.52 82.784zM256 480c-141.152 0-256-114.848-256-256s114.848-256 256-256 256 114.848 256 256c0 141.152-114.848 256-256 256zM256 32c-105.888 0-192 86.112-192 192s86.112 192 192 192 192-86.112 192-192c0-105.888-86.112-192-192-192z" />
<glyph unicode="&#xe635;" d="M512 224c0 141.152-114.848 256-256 256s-256-114.848-256-256 114.848-256 256-256 256 114.848 256 256zM64 224c0 105.856 86.112 192 192 192s192-86.144 192-192-86.112-192-192-192-192 86.144-192 192zM374.624 233.376c12.512 12.512 12.512 32.736 0 45.248s-32.736 12.512-45.248 0l-73.376-73.376-73.376 73.376c-12.512 12.512-32.736 12.512-45.248 0-6.24-6.24-9.376-14.432-9.376-22.624s3.136-16.384 9.376-22.624l96-96c12.512-12.512 32.736-12.512 45.248 0l96 96z" />
<glyph unicode="&#xe636;" d="M352 256h-192c-17.664 0-32-14.304-32-32s14.336-32 32-32h192c17.664 0 32 14.304 32 32s-14.336 32-32 32zM256 480c-141.152 0-256-114.848-256-256s114.848-256 256-256 256 114.848 256 256-114.848 256-256 256zM256 32c-105.888 0-192 86.112-192 192s86.112 192 192 192 192-86.112 192-192-86.112-192-192-192z" />
<glyph unicode="&#xe637;" d="M352 256h-64v64c0 17.696-14.336 32-32 32s-32-14.304-32-32v-64h-64c-17.664 0-32-14.304-32-32s14.336-32 32-32h64v-64c0-17.696 14.336-32 32-32s32 14.304 32 32v64h64c17.664 0 32 14.304 32 32s-14.336 32-32 32zM256 480c-141.152 0-256-114.848-256-256s114.848-256 256-256 256 114.848 256 256-114.848 256-256 256zM256 32c-105.888 0-192 86.112-192 192s86.112 192 192 192 192-86.112 192-192-86.112-192-192-192z" />
<glyph unicode="&#xe638;" d="M256-32c141.152 0 256 114.848 256 256s-114.848 256-256 256-256-114.848-256-256 114.848-256 256-256zM256 416c105.856 0 192-86.112 192-192s-86.144-192-192-192-192 86.112-192 192 86.144 192 192 192zM265.376 105.376c12.512-12.512 32.736-12.512 45.248 0s12.512 32.736 0 45.248l-73.376 73.376 73.376 73.376c12.512 12.512 12.512 32.736 0 45.248-6.24 6.24-14.432 9.376-22.624 9.376s-16.384-3.136-22.624-9.376l-96-96c-12.512-12.512-12.512-32.736 0-45.248l96-96z" />
<glyph unicode="&#xe639;" d="M256 480c-141.152 0-256-114.848-256-256s114.848-256 256-256 256 114.848 256 256-114.848 256-256 256zM256 32c-105.856 0-192 86.112-192 192s86.144 192 192 192 192-86.112 192-192-86.144-192-192-192zM246.624 342.624c-12.512 12.512-32.736 12.512-45.248 0s-12.512-32.736 0-45.248l73.376-73.376-73.376-73.376c-12.512-12.512-12.512-32.736 0-45.248 6.24-6.24 14.432-9.376 22.624-9.376s16.384 3.136 22.624 9.376l96 96c12.512 12.512 12.512 32.736 0 45.248l-96 96z" />
<glyph unicode="&#xe63a;" d="M0 224c0-141.152 114.848-256 256-256s256 114.848 256 256-114.848 256-256 256c-141.152 0-256-114.848-256-256zM448 224c0-105.856-86.112-192-192-192s-192 86.144-192 192 86.112 192 192 192 192-86.144 192-192zM137.376 214.624c-12.512-12.512-12.512-32.736 0-45.248s32.736-12.512 45.248 0l73.376 73.376 73.376-73.376c12.512-12.512 32.736-12.512 45.248 0 6.24 6.24 9.376 14.432 9.376 22.624s-3.136 16.384-9.376 22.624l-96 96c-12.512 12.512-32.736 12.512-45.248 0l-96-96z" />
<glyph unicode="&#xe63b;" d="M75.456 164.16l152.864-184.608c15.296-15.392 40.032-15.392 55.328 0l152.864 184.608c7.68 7.68 11.488 17.76 11.488 27.84 0 10.048-3.808 20.16-11.456 27.84-15.296 15.392-40.032 15.392-55.328 0l-93.92-125.248v353.888c0 17.408-13.984 31.52-31.296 31.52v0 0 0 0c-17.312 0-31.296-14.112-31.296-31.52v-353.888l-93.92 125.248c-15.296 15.392-40.032 15.392-55.328 0-7.648-7.68-11.456-17.792-11.456-27.84 0-10.080 3.808-20.16 11.456-27.84z" />
<glyph unicode="&#xe63c;" d="M196.16 404.544l-184.608-152.864c-15.392-15.296-15.392-40.032 0-55.328l184.608-152.864c7.68-7.68 17.76-11.488 27.84-11.488 10.048 0 20.16 3.808 27.84 11.456 15.392 15.296 15.392 40.032 0 55.328l-125.248 93.92h353.888c17.408 0 31.52 13.984 31.52 31.296v0 0 0 0c0 17.312-14.112 31.296-31.52 31.296h-353.888l125.248 93.92c15.392 15.296 15.392 40.032 0 55.328-7.68 7.648-17.792 11.456-27.84 11.456-10.080 0-20.16-3.808-27.84-11.456z" />
<glyph unicode="&#xe63d;" d="M315.84 43.456l184.608 152.864c15.392 15.296 15.392 40.032 0 55.328l-184.608 152.896c-7.68 7.648-17.76 11.456-27.84 11.456-10.048 0-20.16-3.808-27.84-11.456-15.392-15.296-15.392-40.032 0-55.328l125.248-93.92h-353.888c-17.408 0-31.52-13.984-31.52-31.296v0 0 0 0c0-17.312 14.112-31.296 31.52-31.296h353.888l-125.248-93.92c-15.392-15.296-15.392-40.032 0-55.328 7.68-7.648 17.792-11.456 27.84-11.456 10.080 0 20.16 3.808 27.84 11.456z" />
<glyph unicode="&#xe63e;" d="M436.544 283.84l-152.864 184.608c-15.296 15.392-40.032 15.392-55.328 0l-152.896-184.608c-7.648-7.68-11.456-17.76-11.456-27.84 0-10.048 3.808-20.16 11.456-27.84 15.296-15.392 40.032-15.392 55.328 0l93.92 125.248v-353.888c0-17.408 13.984-31.52 31.296-31.52v0 0 0 0c17.312 0 31.296 14.112 31.296 31.52v353.888l93.92-125.248c15.296-15.392 40.032-15.392 55.328 0 7.648 7.68 11.456 17.792 11.456 27.84 0 10.080-3.808 20.16-11.456 27.84z" />
<glyph unicode="&#xe63f;" d="M255.744 96l-256 256h512l-256-256z" />
<glyph unicode="&#xe640;" d="M384 224l-256-256v512l256-256z" />
<glyph unicode="&#xe641;" d="M255.744 352l256-256h-512l256 256z" />
<glyph unicode="&#xe642;" d="M127.744 224l256 256v-512l-256 256z" />
<glyph unicode="&#xe643;" d="M502.624 374.464c-12.512 12.48-32.736 12.48-45.248 0l-265.376-265.12-137.376 137.248c-12.512 12.512-32.736 12.512-45.248 0-12.512-12.48-12.512-32.704 0-45.184l160-159.84c6.24-6.272 14.432-9.408 22.624-9.408s16.384 3.136 22.624 9.376l288 287.712c12.512 12.512 12.512 32.736 0 45.216z" />
<glyph unicode="&#xe644;" d="M300.992 224l201.376 201.376c12.512 12.512 12.512 32.736 0 45.248s-32.736 12.512-45.248 0l-201.376-201.376-201.376 201.376c-12.512 12.512-32.736 12.512-45.248 0s-12.512-32.736 0-45.248l201.376-201.376-201.376-201.376c-12.512-12.512-12.512-32.736 0-45.248 6.24-6.24 14.432-9.376 22.624-9.376s16.384 3.136 22.624 9.376l201.376 201.376 201.376-201.376c6.24-6.24 14.432-9.376 22.624-9.376s16.384 3.136 22.624 9.376c12.512 12.512 12.512 32.736 0 45.248l-201.376 201.376z" />
<glyph unicode="&#xe645;" d="M479.744 256h-192v192c0 17.696-14.336 32-32 32s-32-14.304-32-32v-192h-192c-17.664 0-32-14.304-32-32s14.336-32 32-32h192v-192c0-17.696 14.336-32 32-32s32 14.304 32 32v192h192c17.664 0 32 14.304 32 32s-14.336 32-32 32z" />
<glyph unicode="&#xe646;" d="M502.624 342.624c-12.512 12.512-32.736 12.512-45.248 0l-201.376-201.376-201.376 201.376c-12.512 12.512-32.736 12.512-45.248 0s-12.512-32.736 0-45.248l224-224c6.24-6.24 14.432-9.376 22.624-9.376s16.384 3.136 22.624 9.376l224 224c12.512 12.512 12.512 32.736 0 45.248z" />
<glyph unicode="&#xe647;" d="M502.624 150.624l-224 224c-12.512 12.512-32.736 12.512-45.248 0l-224-224c-12.512-12.512-12.512-32.736 0-45.248 6.24-6.24 14.432-9.376 22.624-9.376s16.384 3.136 22.624 9.376l201.376 201.376 201.376-201.376c6.24-6.24 14.432-9.376 22.624-9.376s16.384 3.136 22.624 9.376c12.512 12.512 12.512 32.736 0 45.248z" />
<glyph unicode="&#xe648;" d="M479.744 256h-448c-17.664 0-32-14.304-32-32s14.336-32 32-32h448c17.664 0 32 14.304 32 32s-14.336 32-32 32z" />
<glyph unicode="&#xe649;" d="M105.376 246.624l224 224c12.512 12.512 32.736 12.512 45.248 0s12.512-32.768 0-45.248l-201.376-201.376 201.376-201.376c12.512-12.512 12.512-32.768 0-45.248-6.24-6.24-14.432-9.376-22.624-9.376s-16.384 3.136-22.624 9.376l-224 224c-12.512 12.512-12.512 32.736 0 45.248z" />
<glyph unicode="&#xe64a;" d="M406.624 246.624l-224 224c-12.512 12.512-32.736 12.512-45.248 0s-12.512-32.768 0-45.248l201.376-201.376-201.376-201.376c-12.512-12.512-12.512-32.768 0-45.248 6.24-6.24 14.432-9.376 22.624-9.376s16.384 3.136 22.624 9.376l224 224c12.512 12.512 12.512 32.736 0 45.248z" />
</font>
</defs>
</svg>
