<?xml version="1.0" standalone="no"?>
<!DOCTYPE svg PUBLIC "-//W3C//DTD SVG 1.1//EN" "http://www.w3.org/Graphics/SVG/1.1/DTD/svg11.dtd" >
<svg xmlns="http://www.w3.org/2000/svg">
<metadata></metadata>
<defs>
<font id="vm_circular_yell_ttblack" horiz-adv-x="1202" >
<font-face units-per-em="2048" ascent="1657" descent="-391" />
<missing-glyph horiz-adv-x="503" />
<glyph unicode="&#xd;" horiz-adv-x="503" />
<glyph unicode=" "  horiz-adv-x="503" />
<glyph unicode="&#x09;" horiz-adv-x="503" />
<glyph unicode="&#xa0;" horiz-adv-x="503" />
<glyph unicode="!" horiz-adv-x="706" d="M168 1452h373l-72 -997h-229zM176 156q0 74 51.5 126t124.5 52q74 0 126 -52.5t52 -125.5q0 -37 -14 -69t-37.5 -55.5t-56.5 -37.5t-70 -14t-68.5 14t-56 37.5t-38 55.5t-13.5 69z" />
<glyph unicode="&#x22;" horiz-adv-x="851" d="M63 1182q0 72 48.5 121t119.5 49q72 0 119 -49.5t47 -120.5q0 -14 -2 -33t-6 -29l-102 -370h-111l-102 370q-2 10 -6.5 28t-4.5 34zM454 1182q0 72 48.5 121t119.5 49q72 0 119 -49.5t47 -120.5q0 -14 -2 -33t-6 -29l-102 -370h-111l-102 370q-2 10 -6.5 28t-4.5 34z" />
<glyph unicode="#" horiz-adv-x="1523" d="M76 319v218h293l57 266h-250v215h295l68 311h233l-67 -311h258l67 311h236l-68 -311h252v-215h-297l-57 -266h250v-218h-297l-68 -319h-236l68 319h-258l-68 -319h-233l68 319h-246zM602 537h258l58 266h-259z" />
<glyph unicode="$" horiz-adv-x="1220" d="M84 408l283 63q4 -45 21.5 -86t50 -71.5t81.5 -49t115 -18.5q78 0 127 34.5t49 94.5q0 88 -127 117l-182 43q-174 41 -272.5 141t-98.5 248q0 86 31 157.5t83 126t122.5 90t150.5 50.5v221h236v-228q84 -18 146.5 -56t105.5 -85t68.5 -102.5t35.5 -106.5l-285 -76 q-4 25 -14 53.5t-33.5 55.5t-61.5 44t-100 17q-86 0 -129 -42t-43 -91q0 -88 121 -116l178 -39q102 -23 175 -64t119 -93t67.5 -115.5t21.5 -133.5q0 -72 -24.5 -137.5t-72.5 -120.5t-117.5 -94t-157.5 -55v-224h-236v220q-109 18 -187.5 63t-132 105.5t-81 128t-33.5 131.5 z" />
<glyph unicode="%" horiz-adv-x="1785" d="M80 1016q0 72 27.5 133t74.5 107.5t109.5 73t134.5 26.5q70 0 133.5 -26.5t110.5 -73t74.5 -107.5t27.5 -133q0 -74 -27.5 -136.5t-74.5 -107.5t-110.5 -70.5t-135.5 -25.5t-134.5 26.5t-109.5 72.5t-73.5 107.5t-26.5 133.5zM299 0l930 1329h264l-932 -1329h-262z M301 1016q0 -61 36 -98t89 -37t88 38t35 97t-35 95t-88 36t-89 -36t-36 -95zM1016 315q0 72 27.5 133t74.5 107.5t109.5 73t134.5 26.5q70 0 133.5 -26.5t110.5 -73t74.5 -107.5t27.5 -133q0 -74 -27.5 -136.5t-74.5 -107.5t-110.5 -70.5t-135.5 -25.5t-134.5 26.5 t-109.5 72.5t-73.5 107.5t-26.5 133.5zM1237 315q0 -61 36 -98t89 -37t88 38t35 97t-35 95t-88 36t-89 -36t-36 -95z" />
<glyph unicode="&#x26;" horiz-adv-x="1488" d="M135 371q0 133 65.5 222t182.5 173l-21 22q-27 29 -53 63t-47.5 73t-36 83t-14.5 93q0 92 36 163.5t94 121t132 75t150 25.5q90 0 165.5 -27.5t131 -77t87 -118t31.5 -150.5q0 -55 -17 -103t-45 -90t-66 -78t-76 -65l-48 -35l195 -204l387 395v-381l-205 -207l326 -344 h-393l-131 141q-76 -78 -170.5 -124t-210.5 -46q-109 0 -192 34t-140 90.5t-87 128t-30 147.5zM436 387q0 -57 42 -103t114 -46q53 0 100 24.5t92 71.5l-225 241l-10 -8q-51 -37 -82 -79t-31 -101zM500 1110q0 -43 23.5 -78t49.5 -63l35 -37l58 41q45 33 64.5 68.5 t19.5 70.5q0 53 -37 88t-90 35q-47 0 -85 -29.5t-38 -95.5z" />
<glyph unicode="'" horiz-adv-x="460" d="M63 1182q0 72 48.5 121t119.5 49q72 0 119 -49.5t47 -120.5q0 -14 -2 -33t-6 -29l-102 -370h-111l-102 370q-2 10 -6.5 28t-4.5 34z" />
<glyph unicode="(" horiz-adv-x="702" d="M76 664q0 180 34.5 330.5t96 278.5t143.5 233.5t176 195.5l176 -166q-84 -88 -151.5 -182t-115.5 -200.5t-73.5 -227.5t-25.5 -262q0 -139 25.5 -260t73.5 -228.5t115.5 -202t151.5 -182.5l-176 -166q-94 90 -176 196.5t-143.5 233.5t-96 278t-34.5 331z" />
<glyph unicode=")" horiz-adv-x="702" d="M0 -209q84 88 151.5 182.5t115.5 202t75 228t27 260.5q0 141 -27 262t-75 227.5t-115.5 200.5t-151.5 182l178 166q94 -90 176 -195.5t142.5 -233.5t95.5 -278.5t35 -330.5t-35 -331t-95.5 -278t-142.5 -233.5t-176 -196.5z" />
<glyph unicode="*" horiz-adv-x="948" d="M41 1051l76 225l233 -76v252h246v-252l233 76l78 -225l-235 -78l143 -199l-192 -141l-150 201l-147 -201l-193 141l143 199z" />
<glyph unicode="+" horiz-adv-x="1226" d="M94 483v254h389v400h262v-400h388v-254h-388v-399h-262v399h-389z" />
<glyph unicode="," horiz-adv-x="657" d="M117 180q0 82 58 136.5t147 54.5q53 0 95 -21.5t69.5 -56.5t42 -81t14.5 -97q0 -119 -38 -205t-95.5 -143.5t-126 -87t-129.5 -35.5v145q33 6 68.5 24.5t65 46t49 65.5t21.5 85q-18 -14 -57 -14q-86 0 -135 53t-49 131z" />
<glyph unicode="-" horiz-adv-x="798" d="M92 477v281h615v-281h-615z" />
<glyph unicode="." horiz-adv-x="669" d="M125 193q0 43 16.5 80.5t45 66.5t66.5 45t81 16t81 -16t67.5 -45t46 -66.5t16.5 -80.5t-16.5 -81t-46 -67t-67.5 -46t-81 -17t-81 17t-66.5 46t-45 67t-16.5 81z" />
<glyph unicode="/" horiz-adv-x="1013" d="M0 -29l735 1510h279l-738 -1510h-276z" />
<glyph unicode="0" horiz-adv-x="1286" d="M76 664q0 123 23.5 243.5t93.5 225.5q66 100 177 163.5t273 63.5q164 0 275.5 -63.5t177.5 -163.5q70 -104 93 -225.5t23 -243.5q0 -123 -23.5 -244t-92.5 -225q-66 -98 -177.5 -163t-275.5 -65q-162 0 -273.5 64.5t-176.5 163.5q-70 104 -93.5 225t-23.5 244zM399 664 q0 -80 10.5 -155t39.5 -134q29 -55 74.5 -89t119.5 -34q76 0 121 33.5t74 89.5q29 59 40 134t11 155t-11.5 154.5t-39.5 133.5q-29 55 -74 89t-121 34q-74 0 -120 -33.5t-74 -89.5q-29 -59 -39.5 -133.5t-10.5 -154.5z" />
<glyph unicode="1" horiz-adv-x="854" d="M70 864v215q74 0 137 20.5t110.5 54.5t77 79t37.5 96h277v-1329h-322v864h-317z" />
<glyph unicode="2" horiz-adv-x="1128" d="M63 0q0 92 14.5 175t50.5 157t96.5 137t152.5 117l217 127q78 47 111.5 93t33.5 112q0 63 -44 110t-134 47q-94 0 -140 -56t-46 -140q0 -43 12 -82l-303 2q-4 12 -8 46t-4 64q0 88 32.5 170t96 144.5t156 99.5t212.5 37q115 0 206 -35t155.5 -94.5t98.5 -139t34 -167.5 q0 -129 -66.5 -233.5t-195.5 -180.5l-252 -150q-29 -18 -52.5 -39.5t-37.5 -50.5h614v-270h-1010z" />
<glyph unicode="3" horiz-adv-x="1120" d="M16 397l312 58q4 -88 61 -148.5t152 -60.5q94 0 146 54t52 128q0 47 -16 82t-44 56.5t-62.5 31.5t-69.5 10q-33 0 -64.5 -9t-54.5 -21l-139 213l327 268h-555v270h959v-250l-328 -254q76 -6 144.5 -37.5t119 -85t80 -125t29.5 -157.5q0 -88 -36 -169t-102.5 -143.5 t-163.5 -99.5t-220 -37q-117 0 -210 35t-161 93.5t-107.5 135t-48.5 162.5z" />
<glyph unicode="4" horiz-adv-x="1245" d="M63 276v328l553 725h385v-782h213v-271h-213v-276h-323v276h-615zM344 547h334v438z" />
<glyph unicode="5" horiz-adv-x="1140" d="M53 379l299 61q2 -39 17.5 -74.5t43 -63.5t66.5 -44t88 -16q82 0 140.5 50t58.5 142q0 49 -17.5 86t-46 61.5t-66.5 37t-77 12.5q-68 0 -115 -28t-71 -58q-2 0 -47 14t-97.5 31.5t-97.5 32t-47 16.5l149 690h773v-270h-549l-54 -250q39 35 103.5 53.5t122.5 18.5 q102 0 186 -29t144.5 -86t94 -140t33.5 -190q0 -92 -34.5 -177t-101 -149.5t-163 -103.5t-221.5 -39q-111 0 -203 35t-158.5 92.5t-106.5 132t-46 152.5z" />
<glyph unicode="6" horiz-adv-x="1196" d="M76 580q0 176 54 320t154.5 246.5t242 158t313.5 55.5q94 0 164.5 -16.5t111.5 -38.5l-86 -263q-47 16 -100 29.5t-109 13.5q-82 0 -153.5 -20.5t-129 -62t-95 -105t-52.5 -149.5q35 57 117 98t199 41q100 0 183 -33t140 -91t89 -140t32 -179q0 -102 -39 -189 t-107.5 -150.5t-165 -99.5t-212.5 -36q-119 0 -219.5 42t-174 121t-115.5 191.5t-42 256.5zM416 432q0 -86 60.5 -139t146.5 -53t147 52t61 140q0 90 -61 142.5t-147 52.5t-146.5 -52.5t-60.5 -142.5z" />
<glyph unicode="7" horiz-adv-x="1052" d="M10 1059v270h1032v-258q-23 -20 -66.5 -61t-97 -105.5t-109.5 -152.5t-106.5 -201t-88 -250t-52.5 -301h-336q10 129 36 242.5t60.5 212t76.5 181.5t85 150q98 158 218 273h-652z" />
<glyph unicode="8" horiz-adv-x="1173" d="M74 360q0 102 60.5 192.5t164.5 131.5q-51 18 -89 51t-62.5 73t-37 84t-12.5 83q0 84 36 154.5t100.5 122t153.5 80t198 28.5t198.5 -28.5t154.5 -80t100.5 -122t35.5 -154.5q0 -39 -12 -83t-38 -84t-63.5 -73t-89.5 -51q104 -41 166 -131t62 -193q0 -88 -38 -159.5 t-105.5 -122.5t-162.5 -80t-208 -29t-207 29t-161.5 80t-105.5 122.5t-38 159.5zM389 397q0 -31 12.5 -60.5t37 -53t61.5 -38t86 -14.5t86 14.5t62.5 38t37.5 53.5t12 60q0 31 -11 61.5t-35.5 54.5t-62.5 39t-89 15t-88 -15t-61.5 -39t-36 -54.5t-11.5 -61.5zM416 950 q0 -59 42 -106t128 -49q88 2 129 49t41 106q0 53 -43 98.5t-127 45.5t-127 -45t-43 -99z" />
<glyph unicode="9" horiz-adv-x="1198" d="M63 891q0 100 38 186t105.5 149.5t164 98.5t213.5 35q113 0 212 -40t170.5 -120t113.5 -199.5t42 -279.5q0 -176 -46 -316.5t-136 -236.5t-222 -147.5t-304 -51.5q-90 0 -173 19.5t-137 50.5l70 260q33 -16 97.5 -34.5t136.5 -18.5q76 0 145.5 18.5t124.5 57t90 101 t43 150.5q-41 -61 -120 -95t-169 -34q-96 0 -180 33t-145.5 91.5t-97.5 140.5t-36 182zM371 901q0 -84 56 -136t142 -52t142.5 53t56.5 135q0 84 -56.5 136.5t-142.5 52.5t-142 -52.5t-56 -136.5z" />
<glyph unicode=":" horiz-adv-x="659" d="M126 188q0 42 16 78.5t43.5 64.5t64.5 43.5t79 15.5t79 -15.5t65.5 -43.5t44.5 -64.5t16 -78.5t-16 -79t-44.5 -65t-65.5 -45t-79 -17t-79 17t-64.5 45t-43.5 65t-16 79zM126 817q0 42 16 78.5t43.5 64.5t64.5 43.5t79 15.5t79 -15.5t65.5 -43.5t44.5 -64.5t16 -78.5 t-16 -79t-44.5 -65t-65.5 -45t-79 -17t-79 17t-64.5 45t-43.5 65t-16 79z" />
<glyph unicode=";" horiz-adv-x="661" d="M126 817q0 42 16 78.5t43.5 64.5t64.5 43.5t79 15.5t79 -15.5t65.5 -43.5t44.5 -64.5t16 -78.5t-16 -79t-44.5 -65t-65.5 -45t-79 -17t-79 17t-64.5 45t-43.5 65t-16 79zM131 169q0 78 55 129.5t140 51.5q50 0 90 -20t66 -53.5t40 -77t14 -92.5q0 -113 -36 -194.5 t-91 -136t-120 -83t-123 -33.5v138q32 5 65.5 22.5t61.5 44t46.5 62.5t20.5 81q-17 -14 -54 -14q-82 0 -128.5 50.5t-46.5 124.5z" />
<glyph unicode="&#x3c;" horiz-adv-x="1034" d="M72 500v221l899 459v-283l-590 -281l590 -284v-287z" />
<glyph unicode="=" horiz-adv-x="1243" d="M115 283v249h1013v-249h-1013zM115 694v250h1013v-250h-1013z" />
<glyph unicode="&#x3e;" horiz-adv-x="1034" d="M63 45v281l590 282l-590 285v287l900 -457v-221z" />
<glyph unicode="?" horiz-adv-x="1101" d="M63 1040q0 90 33 170t94.5 140.5t149.5 96.5t201 36q125 0 218 -34t155.5 -91.5t93 -130t30.5 -148.5q0 -123 -53 -211t-145 -157l-78 -58q-53 -41 -87 -85t-34 -113h-244q-8 39 -8 90q0 72 34 147.5t122 141.5l104 77q41 31 57.5 67t16.5 77q0 59 -45 108t-137 49 q-45 0 -80 -16t-59.5 -44t-37 -61.5t-12.5 -70.5q0 -35 2 -52.5t4 -23.5l-286 10q-4 23 -6.5 44.5t-2.5 41.5zM350 156q0 74 51.5 126t124.5 52q74 0 126.5 -52.5t52.5 -125.5q0 -37 -14.5 -69t-38 -55.5t-56.5 -37.5t-70 -14t-68.5 14t-56 37.5t-38 55.5t-13.5 69z" />
<glyph unicode="@" horiz-adv-x="1693" d="M74 676q0 180 64.5 328.5t175 255t258 166t313.5 59.5q160 0 295 -51.5t233 -141.5t153.5 -214t55.5 -267q0 -117 -37 -213t-97.5 -163.5t-137 -105.5t-156.5 -40h-8q-86 0 -131 38t-58 81q-35 -61 -99 -92t-136 -31q-66 0 -122 25.5t-97 72.5t-65.5 111.5t-24.5 142.5 q0 100 32.5 184t88 144.5t128 94.5t152.5 34q53 0 108.5 -27t77.5 -82l17 82h211l-107 -498q-2 -8 -2 -24q0 -23 15.5 -41.5t42.5 -18.5q37 0 70.5 23.5t61 65.5t44 101.5t16.5 133.5q0 106 -39 193.5t-108.5 149.5t-166 96t-208.5 34q-125 0 -232.5 -43t-185.5 -122 t-123 -189.5t-45 -245.5q0 -125 41 -231.5t118 -184.5t188.5 -122t252.5 -44q86 0 178 23.5t176 83.5l105 -150q-41 -35 -95.5 -63.5t-116 -49t-126 -31.5t-121.5 -11q-180 0 -331.5 55t-262 156.5t-172 245t-61.5 317.5zM686 655q0 -76 31 -123t98 -47q76 0 127 73t53 190 q0 66 -30.5 104.5t-90.5 38.5q-43 0 -77.5 -18.5t-59 -50t-38 -74.5t-13.5 -93z" />
<glyph unicode="A" horiz-adv-x="1503" d="M20 0l547 1452h375l541 -1452h-353l-104 295h-561l-105 -295h-340zM571 590h353l-174 502z" />
<glyph unicode="B" horiz-adv-x="1263" d="M158 0v1452h542q106 0 191.5 -29.5t143 -82t88 -123t30.5 -154.5q0 -113 -61.5 -198t-151.5 -113q49 -12 95 -40t83 -71t58.5 -101.5t21.5 -127.5q0 -90 -32.5 -165t-92 -130.5t-143.5 -86t-187 -30.5h-585zM473 264h203q94 0 147.5 46t53.5 124q0 76 -52.5 123 t-148.5 47h-203v-340zM473 870h176q86 0 136.5 42t50.5 116q0 72 -47.5 114t-143.5 42h-172v-314z" />
<glyph unicode="C" horiz-adv-x="1581" d="M74 723q0 170 60.5 310.5t162.5 239.5t238.5 154.5t287.5 55.5q164 0 283 -47t201 -120t128 -159t64 -164l-305 -96q-8 37 -31.5 84t-66.5 89t-109.5 69.5t-163.5 27.5q-74 0 -147.5 -26.5t-133 -80.5t-96 -138t-36.5 -199q0 -102 34.5 -182t93 -135.5t133 -84 t156.5 -28.5q94 0 162 27.5t113 69.5t70.5 89t35.5 86l310 -88q-18 -76 -64.5 -164t-129.5 -164.5t-206 -128t-291 -51.5q-158 0 -295 54.5t-238 152.5t-160.5 237.5t-59.5 309.5z" />
<glyph unicode="D" horiz-adv-x="1486" d="M158 0v1452h526q164 0 298 -50t230.5 -144.5t148.5 -229.5t52 -303t-52 -302t-148.5 -228.5t-231.5 -144.5t-299 -50h-524zM481 305h189q84 0 157.5 24.5t129 76t87 131t31.5 188.5t-31.5 188.5t-87 132t-129 77t-157.5 24.5h-189v-842z" />
<glyph unicode="E" horiz-adv-x="1193" d="M158 0v1452h919v-305h-596v-277h541v-284h-541v-279h598v-307h-921z" />
<glyph unicode="F" horiz-adv-x="1163" d="M158 0v1452h936v-307h-613v-307h539v-295h-537v-543h-325z" />
<glyph unicode="G" horiz-adv-x="1613" d="M74 725q0 172 60.5 311.5t163.5 238.5t240.5 153.5t290.5 54.5q156 0 272 -42t196.5 -106.5t130 -144.5t73.5 -156l-311 -108q-8 33 -31.5 77t-66.5 83.5t-107.5 66.5t-155.5 27q-74 0 -149.5 -26t-138 -81t-101.5 -141t-39 -207q0 -115 35 -201t95.5 -143t139.5 -87 t167 -30q90 0 154.5 25.5t107.5 62.5t66.5 78t29.5 72h-436v274h739v-776h-262l-20 147q-47 -70 -149.5 -124t-258.5 -54q-152 0 -286 53.5t-233.5 152.5t-157.5 238.5t-58 311.5z" />
<glyph unicode="H" horiz-adv-x="1542" d="M158 0v1452h323v-569h580v569h325v-1452h-325v578h-580v-578h-323z" />
<glyph unicode="I" horiz-adv-x="641" d="M158 0v1452h327v-1452h-327z" />
<glyph unicode="J" horiz-adv-x="1163" d="M41 449v96l307 53v-133q0 -98 52.5 -143.5t123.5 -45.5q80 0 125 52.5t45 134.5v989h324v-997q0 -98 -36 -187.5t-101.5 -155t-155.5 -104.5t-199 -39t-197.5 34t-152 97.5t-99.5 151.5t-36 197z" />
<glyph unicode="K" horiz-adv-x="1460" d="M158 0v1452h323v-610l531 610h426l-566 -629l568 -823h-404l-391 571l-164 -182v-389h-323z" />
<glyph unicode="L" horiz-adv-x="1159" d="M158 0v1452h323v-1143h627v-309h-950z" />
<glyph unicode="M" horiz-adv-x="1959" d="M158 0v1452h422l399 -981l379 981h444v-1452h-317v963l-379 -963h-262l-379 950v-950h-307z" />
<glyph unicode="N" horiz-adv-x="1574" d="M158 0v1452h393l545 -883v883h323v-1452h-342l-598 954v-954h-321z" />
<glyph unicode="O" horiz-adv-x="1656" d="M74 725q0 172 60.5 312.5t163.5 239.5t240.5 152.5t290.5 53.5q154 0 290 -53.5t239.5 -152.5t164 -239.5t60.5 -312.5t-60.5 -311.5t-164 -238.5t-239.5 -152.5t-290 -53.5t-291 53.5t-240 152.5t-163.5 238.5t-60.5 311.5zM410 727q0 -115 36.5 -196.5t97 -136 t135.5 -80t150 -25.5q76 0 151 25.5t134.5 80t96 136t36.5 196.5q0 113 -36.5 197t-96 137t-134.5 79.5t-151 26.5t-150.5 -26.5t-135 -79.5t-97 -137t-36.5 -197z" />
<glyph unicode="P" horiz-adv-x="1255" d="M158 0v1452h547q111 0 201.5 -35t157 -96t102.5 -147.5t36 -186.5q0 -102 -36 -188t-102.5 -147.5t-157.5 -95.5t-201 -34h-224v-522h-323zM483 801h189q92 0 149.5 49t57.5 135q0 88 -57.5 137t-149.5 49h-189v-370z" />
<glyph unicode="Q" horiz-adv-x="1656" d="M74 725q0 172 60.5 312.5t163.5 239.5t240.5 152.5t290.5 53.5q154 0 290 -53.5t239.5 -152.5t164 -239.5t60.5 -312.5q0 -147 -43 -268t-121 -215l178 -195l-213 -180l-178 196q-170 -94 -377 -94q-154 0 -291 53.5t-240 152.5t-163.5 238.5t-60.5 311.5zM410 727 q0 -115 36.5 -196.5t97 -136t135.5 -80t150 -25.5q74 0 148 24l-213 234l215 180l213 -233q27 47 41 104t14 129q0 113 -36.5 197t-96 137t-134.5 79.5t-151 26.5t-150.5 -26.5t-135 -79.5t-97 -137t-36.5 -197z" />
<glyph unicode="R" horiz-adv-x="1286" d="M158 0v1452h575q106 0 193.5 -35t149 -96t95 -144t33.5 -180q0 -147 -75.5 -254.5t-210.5 -154.5l294 -588h-356l-260 541h-115v-541h-323zM481 819h191q100 0 152.5 49.5t52.5 126.5q0 82 -52.5 129t-152.5 47h-191v-352z" />
<glyph unicode="S" horiz-adv-x="1247" d="M53 434l297 72q4 -49 23.5 -95t56.5 -80t92.5 -54.5t128.5 -20.5q96 0 150.5 42t54.5 110q0 55 -42 93t-114 52l-198 37q-186 35 -291 149.5t-105 276.5q0 102 42 188t114 147.5t166 96.5t199 35q135 0 231 -37t158.5 -93.5t95.5 -125t45 -131.5l-291 -82q-4 25 -17 56.5 t-41 59t-73 47t-110 19.5q-90 0 -144.5 -48t-54.5 -108q0 -53 34 -89t109 -50l195 -37q104 -18 182 -60t131 -99.5t80 -128t27 -148.5q0 -86 -35 -168t-103.5 -146.5t-169 -104.5t-229.5 -40q-152 0 -260 44t-180 112t-109 149.5t-45 159.5z" />
<glyph unicode="T" horiz-adv-x="1296" d="M39 1143v309h1218v-309h-448v-1143h-324v1143h-446z" />
<glyph unicode="U" horiz-adv-x="1441" d="M145 524v928h324v-901q0 -133 67.5 -198.5t184.5 -65.5t184.5 65.5t67.5 198.5v901h323v-928q0 -137 -45 -240.5t-122.5 -174t-183 -106.5t-224.5 -36q-121 0 -225.5 36t-182 106.5t-123 174t-45.5 240.5z" />
<glyph unicode="V" horiz-adv-x="1437" d="M20 1452h357l350 -1022l346 1022h344l-530 -1452h-334z" />
<glyph unicode="W" horiz-adv-x="2127" d="M23 1452h344l239 -930l301 930h332l301 -932l236 932h331l-395 -1452h-334l-309 963l-311 -963h-340z" />
<glyph unicode="X" horiz-adv-x="1423" d="M39 0l469 727l-469 725h389l287 -471l286 471h379l-467 -729l471 -723h-393l-286 471l-285 -471h-381z" />
<glyph unicode="Y" horiz-adv-x="1378" d="M20 1452h379l297 -539l301 539h361l-510 -846v-606h-324v606z" />
<glyph unicode="Z" horiz-adv-x="1318" d="M74 0v311l700 832h-670v309h1115v-299l-717 -844h725v-309h-1153z" />
<glyph unicode="[" horiz-adv-x="677" d="M158 -350v2036h510v-234h-252v-1565h252v-237h-510z" />
<glyph unicode="\" horiz-adv-x="1017" d="M0 1481h283l735 -1510h-281z" />
<glyph unicode="]" horiz-adv-x="677" d="M10 -113h254v1565h-254v234h512v-2036h-512v237z" />
<glyph unicode="^" horiz-adv-x="1095" d="M25 717l407 735h230l409 -735h-283l-237 444l-240 -444h-286z" />
<glyph unicode="_" horiz-adv-x="1050" d="M4 0h1045v-254h-1045v254z" />
<glyph unicode="`" horiz-adv-x="630" d="M43 1448h354l191 -309h-254z" />
<glyph unicode="a" horiz-adv-x="1284" d="M63 512q0 113 35 211t99.5 171t156.5 114t205 41q68 0 118 -16.5t84 -40t53.5 -48t27.5 -43.5v117h301v-836q0 -72 3 -119t5 -63h-299q-4 16 -6 52t-2 69v10q-35 -74 -106.5 -117t-168.5 -43q-113 0 -206 40t-159.5 113t-103.5 172t-37 216zM377 510q0 -63 18.5 -113.5 t50 -85.5t73.5 -53t91 -18q47 0 89 18t74 52t50.5 84t18.5 116q0 133 -67.5 200.5t-164.5 67.5q-100 0 -166.5 -67.5t-66.5 -200.5z" />
<glyph unicode="b" horiz-adv-x="1273" d="M137 0v1483h305v-561q33 47 112 83.5t183 36.5q111 0 199 -39.5t148.5 -110.5t93 -168t32.5 -212q0 -117 -35.5 -215t-100 -169t-154 -111t-195.5 -40q-102 0 -177 39t-110 99v-115h-301zM438 510q0 -63 19.5 -110.5t51.5 -79t74 -48t87 -16.5t87 15.5t73.5 47t50 80 t18.5 111.5t-18.5 111.5t-50 79t-73.5 46t-87 15.5t-87 -15.5t-74 -46t-51.5 -79t-19.5 -111.5z" />
<glyph unicode="c" horiz-adv-x="1148" d="M63 508q0 119 42 218t115 171t170 112t210 40q104 0 188 -30t145.5 -79t100.5 -113.5t56 -132.5l-279 -84q-8 29 -24.5 56.5t-41 49t-59.5 34t-80 12.5q-49 0 -91 -16.5t-73.5 -49t-50 -80t-18.5 -108.5t19.5 -107.5t51 -79t74.5 -49t92 -16.5q90 0 142.5 47t68.5 105 l275 -84q-16 -68 -56.5 -131.5t-101.5 -112.5t-143 -80t-185 -31q-115 0 -214 40t-172.5 112t-117 170t-43.5 217z" />
<glyph unicode="d" horiz-adv-x="1282" d="M63 512q0 113 37 210t102.5 169t156 111.5t198.5 39.5q66 0 113 -11t79.5 -26.5t52 -34t29.5 -32.5v545h308v-1301q0 -70 3 -118t5 -64h-299q-2 10 -5 39t-3 59q-35 -53 -108 -87t-165 -34q-109 0 -201 40t-159.5 111t-105.5 169t-38 215zM377 510q0 -63 18.5 -110.5 t50 -79t73.5 -48t87 -16.5t87 16.5t74 48t50.5 78.5t18.5 111q0 63 -18.5 110.5t-50.5 79t-74 47t-87 15.5t-87 -15.5t-73.5 -47t-50 -79t-18.5 -110.5z" />
<glyph unicode="e" horiz-adv-x="1144" d="M63 512q0 123 42 222.5t113 169t163 107.5t190 38q238 0 374 -137.5t136 -385.5q0 -33 -2 -62.5t-4 -33.5h-708q2 -43 21.5 -79t51 -62.5t72.5 -41t86 -14.5q86 0 134 37t71 97l260 -74q-18 -66 -57 -125t-98.5 -103.5t-138.5 -70t-175 -25.5q-104 0 -200.5 37 t-170 106.5t-117 170t-43.5 229.5zM373 631h407q-2 29 -13 59.5t-35.5 55t-62.5 41t-94 16.5q-49 0 -85.5 -16.5t-62.5 -41t-39 -55.5t-15 -59z" />
<glyph unicode="f" horiz-adv-x="743" d="M23 756v262h161v88q0 88 26 159.5t76 124t122.5 81t164.5 28.5q47 0 86 -6t62 -16v-254q-12 4 -33.5 7t-58.5 3q-20 0 -44 -5t-43.5 -20.5t-32.5 -42t-13 -69.5v-78h221v-262h-221v-756h-312v756h-161z" />
<glyph unicode="g" horiz-adv-x="1243" d="M66 -57l274 77q16 -74 73.5 -122t145.5 -48q117 0 184.5 60.5t67.5 200.5v47q-29 -41 -95.5 -78t-176.5 -37q-102 0 -188.5 38t-150 104.5t-99 156.5t-35.5 197q0 100 34.5 190t97 158.5t149.5 108.5t192 40q61 0 109 -12t83 -30.5t57.5 -41t32.5 -43.5v109h297v-891 q0 -111 -31.5 -209t-98 -174t-169 -120t-246.5 -44q-111 0 -199.5 31t-153 82t-104.5 116.5t-50 133.5zM377 539q0 -104 62.5 -165t156.5 -61q96 0 156.5 60.5t60.5 165.5q0 51 -17.5 93t-47 71.5t-69.5 45t-83 15.5t-83 -15.5t-70.5 -45t-48 -71.5t-17.5 -93z" />
<glyph unicode="h" horiz-adv-x="1218" d="M137 0v1483h312v-531q47 47 119.5 69.5t140.5 22.5q100 0 172.5 -31.5t120 -87t70 -129t22.5 -157.5v-639h-312v586q0 76 -40 126t-126 50q-74 0 -118.5 -46t-48.5 -118v-598h-312z" />
<glyph unicode="i" horiz-adv-x="583" d="M111 1329q0 37 14 71t38.5 58.5t57.5 38.5t70 14q78 0 131 -53t53 -129t-53 -129t-131 -53q-37 0 -70 14.5t-57.5 39t-38.5 58t-14 70.5zM137 0v1018h312v-1018h-312z" />
<glyph unicode="j" horiz-adv-x="585" d="M-59 -133q10 -4 33.5 -8t58.5 -4q53 0 78.5 28.5t25.5 75.5v1059h312v-1092q0 -78 -24 -141.5t-67 -108.5t-105.5 -70.5t-139.5 -25.5q-82 0 -122 12.5t-50 16.5v258zM111 1329q0 78 53 130t127 52q78 0 131 -52t53 -130q0 -76 -53 -129t-131 -53q-37 0 -70 14.5 t-57.5 39t-38.5 58t-14 70.5z" />
<glyph unicode="k" horiz-adv-x="1179" d="M137 0v1483h312v-807l309 342h403l-397 -428l405 -590h-381l-239 358l-100 -108v-250h-312z" />
<glyph unicode="l" horiz-adv-x="585" d="M137 0v1483h312v-1483h-312z" />
<glyph unicode="m" horiz-adv-x="1845" d="M137 0v1018h297v-117q18 33 51 60.5t73 47t84 30t85 10.5q111 0 186.5 -42t114.5 -118q59 86 135 123t180 37q72 0 140.5 -21.5t121 -69t84 -121t31.5 -178.5v-659h-301v590q0 72 -39 122t-123 50t-127 -53.5t-43 -120.5v-588h-307v590q0 72 -39 122t-125 50 q-82 0 -124.5 -53.5t-42.5 -122.5v-586h-312z" />
<glyph unicode="n" horiz-adv-x="1218" d="M137 0v1018h301v-117q20 37 53 63.5t71 44t80 26.5t81 9q96 0 165.5 -31.5t116 -87t68 -129t21.5 -157.5v-639h-312v586q0 76 -40 126t-126 50q-78 0 -122.5 -50t-44.5 -128v-584h-312z" />
<glyph unicode="o" horiz-adv-x="1208" d="M63 510q0 119 42 217t115 170t171 112t213 40t213 -40t171 -112t115 -170t42 -217t-42 -218t-115 -171t-171 -112t-213 -40t-213 40t-171 112t-115 171t-42 218zM375 510q0 -63 19.5 -111.5t51 -80t73.5 -47t85 -15.5q45 0 86 15.5t73 47t51.5 78.5t19.5 113 q0 63 -19.5 111.5t-51.5 79t-73 46t-86 15.5q-43 0 -85 -15.5t-73.5 -46t-51 -79t-19.5 -111.5z" />
<glyph unicode="p" horiz-adv-x="1273" d="M137 -389v1407h301v-105q33 49 111 89t188 40q111 0 199 -39.5t148.5 -110.5t93 -168t32.5 -212q0 -117 -35.5 -215t-100 -169t-154 -111t-195.5 -40q-98 0 -170 30t-106 73v-469h-312zM444 510q0 -63 18.5 -110.5t50.5 -79t74 -48t87 -16.5t87 15.5t74.5 47t51 80 t18.5 111.5t-18.5 110.5t-51 79t-74.5 47t-87 15.5t-87 -15.5t-74 -47t-50.5 -79t-18.5 -110.5z" />
<glyph unicode="q" horiz-adv-x="1273" d="M63 512q0 113 36 210t100.5 169t155.5 111.5t200 39.5q68 0 118 -13t85 -32.5t55.5 -41t28.5 -37.5v100h297v-1407h-305v471q-35 -47 -102.5 -76t-164.5 -29q-109 0 -201 40t-159.5 111t-105.5 169t-38 215zM379 510q0 -63 18.5 -110.5t50 -79t73.5 -48t87 -16.5t87 15.5 t74 47t50.5 79.5t18.5 112q0 63 -18.5 110.5t-50.5 79t-74 47t-87 15.5t-87 -15.5t-73.5 -47t-50 -79t-18.5 -110.5z" />
<glyph unicode="r" horiz-adv-x="825" d="M137 0v1018h301v-137q20 43 52 71.5t69 45t75 23.5t68 7q47 0 82 -10v-307q-27 6 -51 8t-47 2q-47 0 -90 -14.5t-76 -47t-52 -86t-19 -129.5v-444h-312z" />
<glyph unicode="s" horiz-adv-x="954" d="M53 289l264 47q4 -53 42 -95t118 -42q59 0 89 26.5t30 61.5q0 29 -21.5 50t-78.5 34l-117 26q-82 18 -139.5 49t-94 72t-53 90t-16.5 103q0 70 28.5 131t81 107t124 73t157.5 27q111 0 186.5 -31t123.5 -77t70.5 -98t26.5 -98l-258 -47q-6 51 -39.5 88t-105.5 37 q-45 0 -78 -23.5t-33 -64.5q0 -33 23 -51t57 -25l135 -26q160 -33 237 -120t77 -200q0 -66 -24.5 -127t-76 -109t-127 -78t-178.5 -30q-121 0 -201.5 34t-130 83t-73 104.5t-25.5 98.5z" />
<glyph unicode="t" horiz-adv-x="782" d="M23 745v273h51q80 0 118.5 47t38.5 119v131h279v-297h199v-273h-199v-380q0 -63 30.5 -85t82.5 -22q25 0 46 3t36 7v-258q-10 -4 -49.5 -16t-112.5 -12q-160 0 -250 87t-90 240v436h-180z" />
<glyph unicode="u" horiz-adv-x="1220" d="M127 375v643h311v-578q0 -74 40 -125t124 -51q78 0 124 48t46 126v580h311v-836q0 -70 4.5 -120t6.5 -62h-299q-4 14 -6.5 48t-2.5 54q-41 -66 -117.5 -95.5t-154.5 -29.5q-92 0 -165 32t-122 86.5t-74.5 126t-25.5 153.5z" />
<glyph unicode="v" horiz-adv-x="1159" d="M20 1018h338l236 -633l217 633h328l-387 -1018h-314z" />
<glyph unicode="w" horiz-adv-x="1742" d="M23 1018h323l170 -602l201 602h330l198 -604l170 604h305l-315 -1018h-309l-222 657l-217 -657h-315z" />
<glyph unicode="x" horiz-adv-x="1130" d="M23 1018h366l182 -279l179 279h348l-353 -498q86 -123 181.5 -260t183.5 -260h-365l-188 287q-20 -31 -45 -68t-49.5 -75t-48 -75.5t-43.5 -68.5h-342l350 508z" />
<glyph unicode="y" horiz-adv-x="1183" d="M12 1018h348l248 -545l226 545h329l-626 -1409h-328l231 528z" />
<glyph unicode="z" horiz-adv-x="1001" d="M74 0v274l448 478h-436v266h834v-256l-469 -494h477v-268h-854z" />
<glyph unicode="{" horiz-adv-x="788" d="M92 551v254q86 0 141.5 41t55.5 139v297q0 205 111.5 304.5t295.5 99.5h82v-234h-76q-57 0 -106 -36t-49 -130v-348q0 -94 -52.5 -162.5t-150.5 -97.5q98 -29 150.5 -97.5t52.5 -164.5v-348q0 -47 13 -80t35.5 -52.5t50.5 -27.5t56 -8h76v-232h-82q-184 0 -295.5 97.5 t-111.5 304.5v299q0 98 -55.5 140t-141.5 42z" />
<glyph unicode="|" horiz-adv-x="571" d="M158 -332v2018h258v-2018h-258z" />
<glyph unicode="}" horiz-adv-x="788" d="M10 -100h76q29 0 56.5 8t50 27.5t37 52t14.5 80.5v348q0 96 51 164.5t149 97.5q-98 29 -149 97.5t-51 162.5v348q0 47 -14.5 79t-37 51.5t-50 27.5t-56.5 8h-76v234h82q186 0 298 -98.5t112 -305.5v-297q0 -98 54 -139t140 -41v-254q-86 0 -140 -42t-54 -140v-299 q0 -207 -111.5 -304.5t-298.5 -97.5h-82v232z" />
<glyph unicode="~" horiz-adv-x="1206" d="M45 582q57 111 149.5 168t202.5 57q113 0 224 -59l98 -54q53 -29 104 -28q49 0 94.5 25.5t79.5 76.5l164 -133q-57 -111 -148 -168t-202 -57q-115 0 -227 61l-97 53q-47 27 -100 27q-106 0 -174 -102z" />
<glyph unicode="&#xa1;" horiz-adv-x="645" d="M135 -422l72 997h229l72 -997h-373zM145 872q0 74 51.5 125.5t125.5 51.5t126 -51.5t52 -125.5q0 -37 -14.5 -68.5t-38 -55t-56.5 -38t-69 -14.5q-37 0 -69 14.5t-56.5 38t-38 55t-13.5 68.5z" />
<glyph unicode="&#xa2;" horiz-adv-x="1132" d="M76 653q0 92 28.5 173t81 143.5t123 106.5t154.5 63v190h235v-186q150 -29 238 -119t117 -199l-265 -77q-16 53 -62 97t-134 44q-92 0 -156.5 -60.5t-64.5 -175.5q0 -111 66.5 -171t158.5 -60q88 0 136 43t65 96l262 -76q-29 -109 -120 -199.5t-241 -119.5v-166h-235v172 q-84 20 -154.5 63.5t-123 105.5t-81 141t-28.5 171z" />
<glyph unicode="&#xa3;" horiz-adv-x="1212" d="M115 0v242q98 35 155.5 96t57.5 154q0 16 -2 33.5t-7 33.5h-198v225h117q-12 37 -19.5 79t-7.5 93q0 76 29.5 148t88 129t141.5 92t192 35q123 0 205.5 -38t134 -96.5t75 -128t23.5 -132.5l-271 -39q-2 82 -43 131t-120 49q-61 0 -109.5 -39t-48.5 -121q0 -47 9 -84 t26 -78h360v-225h-289q2 -10 2 -18.5v-18.5q0 -72 -28.5 -140.5t-98.5 -115.5h269q66 0 108.5 41t42.5 111l271 -17q0 -86 -28 -159.5t-78 -128t-119.5 -84t-155.5 -29.5h-684z" />
<glyph unicode="&#xa4;" horiz-adv-x="1206" d="M63 156l148 145q-25 41 -39 95.5t-14 111.5q0 111 51 207l-146 147l187 185l151 -152q94 47 203 47q53 0 106.5 -12t94.5 -35l151 152l187 -185l-146 -147q25 -41 39.5 -95.5t14.5 -111.5q0 -59 -14.5 -110.5t-39.5 -98.5l146 -143l-187 -187l-149 152q-94 -47 -203 -47 t-203 47l-151 -152zM414 508q0 -82 52 -134t138 -52t138.5 52t52.5 134t-52.5 134t-138.5 52t-138 -52t-52 -134z" />
<glyph unicode="&#xa5;" horiz-adv-x="1292" d="M43 1329h346l264 -483l265 483h331l-305 -510h221v-217h-372v-129h372v-217h-372v-256h-299v256h-353v217h353v129h-353v217h201z" />
<glyph unicode="&#xa6;" horiz-adv-x="571" d="M158 -334v815h258v-815h-258zM158 870v816h258v-816h-258z" />
<glyph unicode="&#xa7;" horiz-adv-x="1136" d="M119 -37l293 45q0 -90 45 -127t110 -37q59 0 94 33t35 84q0 31 -19.5 59.5t-53.5 45.5l-207 104q-57 29 -110.5 62.5t-93.5 76.5t-63.5 97.5t-23.5 125.5q0 98 44 161t105 98q-74 59 -109.5 132.5t-35.5 157.5q0 92 38 166t99.5 126t141 81t163.5 29q100 0 181.5 -28 t138.5 -79t90 -121.5t37 -156.5l-293 -45q0 92 -44 128t-110 36q-59 0 -95 -34t-36 -83q0 -31 19.5 -58.5t54.5 -44.5l207 -106q57 -31 110.5 -63.5t93.5 -75.5t63.5 -98.5t23.5 -127.5q0 -96 -45 -158.5t-105 -99.5q74 -57 111 -131t37 -155q0 -92 -38 -167t-99.5 -127.5 t-141.5 -81t-164 -28.5q-203 0 -320.5 105.5t-127.5 279.5zM406 596q0 -39 13 -64.5t54 -48.5l209 -110q20 18 35.5 40.5t15.5 51.5q0 35 -14 62.5t-55 50.5l-209 110q-23 -20 -36 -42.5t-13 -49.5z" />
<glyph unicode="&#xa8;" horiz-adv-x="856" d="M45 1294q0 66 45 112t111 46t111.5 -46t45.5 -112t-46 -110.5t-111 -44.5q-66 0 -111 44.5t-45 110.5zM498 1294q0 66 45 112t110 46q66 0 112 -46t46 -112t-46 -110.5t-112 -44.5t-110.5 44.5t-44.5 110.5z" />
<glyph unicode="&#xa9;" horiz-adv-x="1665" d="M74 725q0 156 59.5 295t162.5 241.5t240.5 163t294.5 60.5q156 0 295.5 -60.5t241.5 -163t162.5 -241.5t60.5 -295q0 -158 -60.5 -295t-162.5 -240.5t-241.5 -163t-295.5 -59.5q-158 0 -295 59.5t-240 163t-162.5 240.5t-59.5 295zM256 725q0 -123 44 -230.5t122 -187.5 t182.5 -126t226.5 -46q123 0 228.5 46t183.5 126t122 187.5t44 230.5t-44 231.5t-122 188.5t-183.5 126t-228.5 46t-227 -46t-182 -126t-122 -188.5t-44 -231.5zM444 719q0 88 31 160.5t84 125t125 82t154 29.5q76 0 138 -21.5t107 -58.5t74 -84t39 -96l-203 -61 q-6 20 -18 40.5t-30.5 36t-44 24.5t-58.5 9q-35 0 -66 -12t-54.5 -35.5t-36.5 -58.5t-13 -80t14 -79t36.5 -57.5t54.5 -35.5t69 -12q66 0 103.5 34.5t49.5 75.5l203 -61q-12 -49 -42 -96.5t-75 -83t-105 -58t-134 -22.5q-84 0 -158 29.5t-127 81.5t-85 124t-32 160z" />
<glyph unicode="&#xaa;" horiz-adv-x="864" d="M102 813q0 94 62.5 147.5t150.5 67.5l166 25q51 8 51 49q0 29 -25.5 50.5t-74.5 21.5q-55 0 -85 -32t-34 -69l-196 41q4 37 23.5 78t57.5 77t96 59.5t140 23.5q88 0 148.5 -22.5t98.5 -61.5t55.5 -89.5t17.5 -105.5v-348q0 -41 3 -70.5t5 -40.5h-205q-2 8 -4 28t-2 50 q-29 -47 -79 -72.5t-120 -25.5q-59 0 -105 18.5t-79 48t-49.5 69.5t-16.5 83zM328 827q0 -29 18.5 -50t63.5 -21t83.5 28.5t38.5 108.5v31l-126 -21q-35 -4 -56.5 -22.5t-21.5 -53.5z" />
<glyph unicode="&#xab;" horiz-adv-x="1126" d="M53 608l287 410h289l-285 -412l283 -397h-291zM518 608l287 410h291l-285 -412l283 -397h-293z" />
<glyph unicode="&#xac;" horiz-adv-x="1226" d="M92 664v256h1030v-656h-266v400h-764z" />
<glyph unicode="&#xad;" horiz-adv-x="798" d="M92 477v281h615v-281h-615z" />
<glyph unicode="&#xae;" horiz-adv-x="1665" d="M74 725q0 156 59.5 295t162.5 241.5t240.5 163t294.5 60.5q156 0 295.5 -60.5t241.5 -163t162.5 -241.5t60.5 -295q0 -158 -60.5 -295t-162.5 -240.5t-241.5 -163t-295.5 -59.5q-158 0 -295 59.5t-240 163t-162.5 240.5t-59.5 295zM256 725q0 -123 44 -230.5t122 -187.5 t182.5 -126t226.5 -46q123 0 228.5 46t183.5 126t122 187.5t44 230.5t-44 231.5t-122 188.5t-183.5 126t-228.5 46t-227 -46t-182 -126t-122 -188.5t-44 -231.5zM549 322v815h342q59 0 110.5 -20.5t89 -57.5t59 -86t21.5 -105q0 -78 -39.5 -140t-105.5 -95l156 -311h-234 l-125 274h-61v-274h-213zM762 768h88q49 0 77.5 26.5t28.5 71.5q0 47 -28.5 73t-77.5 26h-88v-197z" />
<glyph unicode="&#xaf;" horiz-adv-x="675" d="M45 1182v215h586v-215h-586z" />
<glyph unicode="&#xb0;" horiz-adv-x="765" d="M37 1020q0 72 27.5 133t74.5 107.5t109.5 73t134.5 26.5q70 0 133.5 -26.5t110.5 -73t74.5 -107.5t27.5 -133q0 -74 -27.5 -136.5t-74.5 -107.5t-110.5 -70.5t-135.5 -25.5t-134.5 26.5t-109.5 72.5t-73.5 107.5t-26.5 133.5zM258 1020q0 -61 36 -98t89 -37t88 38t35 97 t-35 95t-88 36t-89 -36t-36 -95z" />
<glyph unicode="&#xb1;" horiz-adv-x="1239" d="M125 82v254h989v-254h-989zM125 643v254h362v240h263v-240h364v-254h-364v-237h-263v237h-362z" />
<glyph unicode="&#xb2;" horiz-adv-x="811" d="M98 696v27q0 104 40 188t147 144l123 69q74 41 73 93q0 20 -16 44.5t-64 24.5q-47 0 -69.5 -28.5t-22.5 -69.5q0 -14 2 -22.5t4 -12.5h-204q-4 12 -6.5 27.5t-2.5 27.5q0 51 18.5 99.5t57.5 84.5t95.5 57.5t134.5 21.5q72 0 128 -20.5t95 -55.5t59.5 -82t20.5 -98 q0 -74 -45 -130.5t-127 -103.5l-138 -80q-10 -6 -10 -10h326v-195h-619z" />
<glyph unicode="&#xb3;" horiz-adv-x="841" d="M96 926l211 37q2 -39 31 -67t76 -28q45 0 70.5 21.5t25.5 54.5q0 43 -28.5 62.5t-65.5 19.5q-33 0 -60 -12l-71 153l161 97h-323v188h596v-190l-174 -105q98 -16 149 -73.5t51 -145.5q0 -51 -22.5 -98t-65.5 -83t-104 -57.5t-139 -21.5q-72 0 -129.5 21.5t-97.5 56.5 t-63.5 79t-27.5 91z" />
<glyph unicode="&#xb4;" horiz-adv-x="626" d="M45 1139l188 309h349l-289 -309h-248z" />
<glyph unicode="&#xb5;" horiz-adv-x="1241" d="M139 -389v1407h312v-578q0 -74 39.5 -125t123.5 -51q78 0 124 48t46 126v580h312v-836q0 -70 4 -119t6 -63h-299q-4 14 -6 48t-2 54q-41 -66 -118 -95.5t-155 -29.5q-39 0 -75 7v-373h-312z" />
<glyph unicode="&#xb6;" horiz-adv-x="1404" d="M45 1016q0 106 40 187t107.5 136.5t157.5 84t193 28.5h839v-229h-198v-1614h-240v1614h-201v-1614h-235v987h-37q-86 0 -164 33t-136 89t-92 133t-34 165z" />
<glyph unicode="&#xb7;" horiz-adv-x="600" d="M117 659q0 39 15 73t41 59.5t60.5 40t75.5 14.5q39 0 75 -14.5t61.5 -40t41 -59.5t15.5 -73q0 -82 -56.5 -135t-136.5 -53t-136 53t-56 135z" />
<glyph unicode="&#xb8;" horiz-adv-x="612" d="M43 -369l96 121q23 -23 62 -50.5t94 -27.5q78 0 78 54q0 20 -18.5 35.5t-53.5 15.5q-12 0 -27.5 -2t-27.5 -6l-76 100l98 154h185l-82 -125q92 -4 145 -53.5t53 -127.5q0 -35 -14 -70.5t-46 -64t-84 -47t-128 -18.5q-90 0 -157.5 37.5t-96.5 74.5z" />
<glyph unicode="&#xb9;" horiz-adv-x="628" d="M66 1133v151q53 0 93 16.5t66.5 41t41 54.5t20.5 56h207v-754h-236v435h-192z" />
<glyph unicode="&#xba;" horiz-adv-x="987" d="M113 973q0 82 29.5 151.5t80.5 120.5t121 79t150 28t149.5 -28t120.5 -79t80.5 -120.5t29.5 -151.5q0 -84 -29.5 -153.5t-80.5 -120t-121 -78t-149 -27.5q-80 0 -150 27.5t-121 78t-80.5 120t-29.5 153.5zM340 973q0 -86 47.5 -128t106.5 -42t107 41t48 129t-48 129 t-107 41t-106.5 -41t-47.5 -129z" />
<glyph unicode="&#xbb;" horiz-adv-x="1126" d="M33 209l284 397l-284 412h289l286 -410l-282 -399h-293zM498 1018h290l287 -410l-284 -399h-291l282 397z" />
<glyph unicode="&#xbc;" horiz-adv-x="1683" d="M86 1010v151q53 0 93 16.5t66.5 41t41 54.5t20.5 56h207v-754h-236v435h-192zM215 0l930 1329h264l-932 -1329h-262zM903 148v229l336 381h248v-436h121v-174h-121v-146h-227v146h-357zM1073 322h187v209z" />
<glyph unicode="&#xbd;" horiz-adv-x="1738" d="M86 1010v151q53 0 93 16.5t66.5 41t41 54.5t20.5 56h207v-754h-236v435h-192zM213 0l930 1329h264l-932 -1329h-262zM1028 2v27q0 104 40 188t147 144l123 69q74 41 73 93q0 20 -16 44.5t-64 24.5q-47 0 -69.5 -28.5t-22.5 -69.5q0 -14 2 -22.5t4 -12.5h-204 q-4 12 -6.5 27.5t-2.5 27.5q0 51 18.5 99.5t57.5 84.5t95.5 57.5t134.5 21.5q72 0 128 -20.5t95 -55.5t59.5 -82t20.5 -98q0 -74 -45 -130.5t-127 -103.5l-138 -80q-10 -6 -10 -10h326v-195h-619z" />
<glyph unicode="&#xbe;" horiz-adv-x="1845" d="M96 803l211 37q2 -39 31 -67t76 -28q45 0 70.5 21.5t25.5 54.5q0 43 -28.5 62.5t-65.5 19.5q-33 0 -60 -12l-71 153l161 97h-323v188h596v-190l-174 -105q98 -16 149 -73.5t51 -145.5q0 -51 -22.5 -98t-65.5 -83t-104 -57.5t-139 -21.5q-72 0 -129.5 21.5t-97.5 56.5 t-63.5 79t-27.5 91zM381 0l930 1329h264l-932 -1329h-262zM1065 148v229l336 381h248v-436h121v-174h-121v-146h-227v146h-357zM1235 322h187v209z" />
<glyph unicode="&#xbf;" horiz-adv-x="1021" d="M23 -47q0 123 52 212t142 157l78 57q55 41 88 87t33 112h243q4 -23 6.5 -44.5t2.5 -46.5q0 -72 -32 -147.5t-120 -140.5l-102 -78q-41 -33 -58.5 -69t-17.5 -75q0 -59 45 -106t137 -47q94 0 141.5 57.5t47.5 134.5q0 37 -11 78l293 -24q4 -23 6 -44.5t2 -43.5 q0 -94 -35.5 -173t-99 -137.5t-151.5 -91.5t-193 -33q-125 0 -218 35t-155.5 91.5t-93 129t-30.5 150.5zM358 874q0 37 14.5 69t38 56.5t55.5 38t69 13.5q74 0 125 -51.5t51 -125.5q0 -37 -13.5 -68.5t-38 -55t-56.5 -38t-68 -14.5q-37 0 -69 14.5t-55.5 38t-38 55 t-14.5 68.5z" />
<glyph unicode="&#xc0;" horiz-adv-x="1503" d="M20 0l547 1452h375l541 -1452h-353l-104 295h-561l-105 -295h-340zM336 1825h371l213 -271h-277zM571 590h353l-174 502z" />
<glyph unicode="&#xc1;" horiz-adv-x="1503" d="M20 0l547 1452h375l541 -1452h-353l-104 295h-561l-105 -295h-340zM571 590h353l-174 502zM596 1554l213 271h370l-307 -271h-276z" />
<glyph unicode="&#xc2;" horiz-adv-x="1503" d="M20 0l547 1452h375l541 -1452h-353l-104 295h-561l-105 -295h-340zM348 1554l250 271h297l253 -271h-288l-119 134l-117 -134h-276zM571 590h353l-174 502z" />
<glyph unicode="&#xc3;" horiz-adv-x="1503" d="M20 0l547 1452h375l541 -1452h-353l-104 295h-561l-105 -295h-340zM383 1550v68q0 55 17 97t46 69.5t68 41t80 13.5q49 0 87.5 -14.5t73.5 -34.5q31 -16 57.5 -30.5t49.5 -14.5t39 14.5t16 44.5v29h178v-70q0 -55 -17.5 -98t-47 -70.5t-67.5 -42t-81 -14.5 q-47 0 -87 15.5t-75 35.5l-10 6q-29 16 -51 28.5t-45 12.5q-20 0 -36.5 -14t-16.5 -45v-27h-178zM571 590h353l-174 502z" />
<glyph unicode="&#xc4;" horiz-adv-x="1503" d="M20 0l547 1452h375l541 -1452h-353l-104 295h-561l-105 -295h-340zM246 1688q0 70 46 116.5t114 46.5q70 0 116.5 -47t46.5 -116q0 -68 -47 -113t-116 -45q-68 0 -114 45t-46 113zM571 590h353l-174 502zM928 1688q0 70 45 116.5t114 46.5q68 0 115 -47t47 -116 q0 -68 -47 -113t-115 -45q-70 0 -114.5 45t-44.5 113z" />
<glyph unicode="&#xc5;" horiz-adv-x="1503" d="M20 0l512 1360q-35 37 -55 85t-20 105q0 61 23.5 113.5t63.5 90.5t93 58.5t111 20.5q57 0 110 -20.5t93 -58.5t63.5 -90t23.5 -114q0 -53 -17 -99t-48 -81l510 -1370h-353l-104 295h-561l-105 -295h-340zM571 590h353l-174 497zM649 1550q0 -47 30 -72.5t71 -25.5 q39 0 67.5 25.5t28.5 72.5t-29 74t-67 27q-41 0 -71 -27t-30 -74z" />
<glyph unicode="&#xc6;" horiz-adv-x="2203" d="M20 0l959 1452h1110v-305h-598v-277h543v-284h-543v-279h600v-307h-924v313h-561l-198 -313h-388zM776 578h391v612z" />
<glyph unicode="&#xc7;" horiz-adv-x="1581" d="M74 723q0 170 60.5 310.5t162.5 239.5t238.5 154.5t287.5 55.5q164 0 283 -47t201 -120t128 -159t64 -164l-305 -96q-8 37 -31.5 84t-66.5 89t-109.5 69.5t-163.5 27.5q-74 0 -147.5 -26.5t-133 -80.5t-96 -138t-36.5 -199q0 -102 34.5 -182t93 -135.5t133 -84 t156.5 -28.5q94 0 162 27.5t113 69.5t70.5 89t35.5 86l310 -88q-16 -70 -57.5 -150.5t-112 -153.5t-174 -128t-244.5 -70l-49 -75q92 -4 145 -53.5t53 -127.5q0 -35 -14 -70.5t-46 -64t-84 -47t-128 -18.5q-90 0 -157.5 37.5t-96.5 74.5l96 121q23 -23 62 -50.5t94 -27.5 q78 0 78 54q0 20 -18.5 35.5t-53.5 15.5q-12 0 -27.5 -2t-27.5 -6l-76 100l65 102q-141 14 -264 73.5t-214 157t-142 228.5t-51 291z" />
<glyph unicode="&#xc8;" horiz-adv-x="1193" d="M158 0v1452h919v-305h-596v-277h541v-284h-541v-279h598v-307h-921zM239 1825h371l213 -271h-277z" />
<glyph unicode="&#xc9;" horiz-adv-x="1193" d="M158 0v1452h919v-305h-596v-277h541v-284h-541v-279h598v-307h-921zM418 1554l213 271h370l-307 -271h-276z" />
<glyph unicode="&#xca;" horiz-adv-x="1193" d="M158 0v1452h919v-305h-596v-277h541v-284h-541v-279h598v-307h-921zM213 1554l250 271h297l253 -271h-288l-119 134l-117 -134h-276z" />
<glyph unicode="&#xcb;" horiz-adv-x="1193" d="M158 0v1452h919v-305h-596v-277h541v-284h-541v-279h598v-307h-921zM233 1688q0 70 46.5 116.5t113.5 46.5q70 0 117 -47t47 -116q0 -68 -47 -113t-117 -45q-68 0 -114 45t-46 113zM676 1688q0 70 46 116.5t114 46.5q70 0 116.5 -47t46.5 -116q0 -68 -47 -113t-116 -45 q-68 0 -114 45t-46 113z" />
<glyph unicode="&#xcc;" horiz-adv-x="641" d="M-101 1825h371l213 -271h-277zM158 0v1452h327v-1452h-327z" />
<glyph unicode="&#xcd;" horiz-adv-x="641" d="M158 0v1452h327v-1452h-327zM160 1554l213 271h370l-307 -271h-276z" />
<glyph unicode="&#xce;" horiz-adv-x="641" d="M-73 1554l250 271h297l253 -271h-288l-119 134l-117 -134h-276zM158 0v1452h327v-1452h-327z" />
<glyph unicode="&#xcf;" horiz-adv-x="641" d="M-49 1688q0 70 45 116.5t113 46.5q70 0 115.5 -47t45.5 -116q0 -68 -46 -113t-115 -45q-68 0 -113 45t-45 113zM158 0v1452h327v-1452h-327zM375 1688q0 70 45 116.5t112 46.5q70 0 116 -47t46 -116q0 -68 -46 -113t-116 -45q-68 0 -112.5 45t-44.5 113z" />
<glyph unicode="&#xd0;" horiz-adv-x="1554" d="M31 635v227h192v590h527q164 0 298 -50t230 -144.5t148.5 -229.5t52.5 -303t-52.5 -302t-148.5 -228.5t-231.5 -144.5t-298.5 -50h-525v635h-192zM547 305h188q84 0 158 24.5t129 76t87 131t32 188.5t-32 188.5t-87 132t-129 77t-158 24.5h-188v-285h295v-227h-295v-330z " />
<glyph unicode="&#xd1;" horiz-adv-x="1574" d="M158 0v1452h393l545 -883v883h323v-1452h-342l-598 954v-954h-321zM439 1550v68q0 55 17 97t46 69.5t68 41t80 13.5q49 0 87.5 -14.5t73.5 -34.5q31 -16 57.5 -30.5t49.5 -14.5t39 14.5t16 44.5v29h178v-70q0 -55 -17.5 -98t-47 -70.5t-67.5 -42t-81 -14.5 q-47 0 -87 15.5t-75 35.5l-10 6q-29 16 -51 28.5t-45 12.5q-20 0 -36.5 -14t-16.5 -45v-27h-178z" />
<glyph unicode="&#xd2;" horiz-adv-x="1656" d="M74 725q0 172 60.5 312.5t163.5 239.5t240.5 152.5t290.5 53.5q154 0 290 -53.5t239.5 -152.5t164 -239.5t60.5 -312.5t-60.5 -311.5t-164 -238.5t-239.5 -152.5t-290 -53.5t-291 53.5t-240 152.5t-163.5 238.5t-60.5 311.5zM385 1825h371l213 -271h-277zM410 727 q0 -115 36.5 -196.5t97 -136t135.5 -80t150 -25.5q76 0 151 25.5t134.5 80t96 136t36.5 196.5q0 113 -36.5 197t-96 137t-134.5 79.5t-151 26.5t-150.5 -26.5t-135 -79.5t-97 -137t-36.5 -197z" />
<glyph unicode="&#xd3;" horiz-adv-x="1656" d="M74 725q0 172 60.5 312.5t163.5 239.5t240.5 152.5t290.5 53.5q154 0 290 -53.5t239.5 -152.5t164 -239.5t60.5 -312.5t-60.5 -311.5t-164 -238.5t-239.5 -152.5t-290 -53.5t-291 53.5t-240 152.5t-163.5 238.5t-60.5 311.5zM410 727q0 -115 36.5 -196.5t97 -136 t135.5 -80t150 -25.5q76 0 151 25.5t134.5 80t96 136t36.5 196.5q0 113 -36.5 197t-96 137t-134.5 79.5t-151 26.5t-150.5 -26.5t-135 -79.5t-97 -137t-36.5 -197zM666 1554l213 271h370l-307 -271h-276z" />
<glyph unicode="&#xd4;" horiz-adv-x="1656" d="M74 725q0 172 60.5 312.5t163.5 239.5t240.5 152.5t290.5 53.5q154 0 290 -53.5t239.5 -152.5t164 -239.5t60.5 -312.5t-60.5 -311.5t-164 -238.5t-239.5 -152.5t-290 -53.5t-291 53.5t-240 152.5t-163.5 238.5t-60.5 311.5zM410 727q0 -115 36.5 -196.5t97 -136 t135.5 -80t150 -25.5q76 0 151 25.5t134.5 80t96 136t36.5 196.5q0 113 -36.5 197t-96 137t-134.5 79.5t-151 26.5t-150.5 -26.5t-135 -79.5t-97 -137t-36.5 -197zM428 1554l250 271h297l253 -271h-288l-119 134l-117 -134h-276z" />
<glyph unicode="&#xd5;" horiz-adv-x="1656" d="M74 725q0 172 60.5 312.5t163.5 239.5t240.5 152.5t290.5 53.5q154 0 290 -53.5t239.5 -152.5t164 -239.5t60.5 -312.5t-60.5 -311.5t-164 -238.5t-239.5 -152.5t-290 -53.5t-291 53.5t-240 152.5t-163.5 238.5t-60.5 311.5zM410 727q0 -115 36.5 -196.5t97 -136 t135.5 -80t150 -25.5q76 0 151 25.5t134.5 80t96 136t36.5 196.5q0 113 -36.5 197t-96 137t-134.5 79.5t-151 26.5t-150.5 -26.5t-135 -79.5t-97 -137t-36.5 -197zM461 1550v68q0 55 17 97t46 69.5t68 41t80 13.5q49 0 87.5 -14.5t73.5 -34.5q31 -16 57.5 -30.5t49.5 -14.5 t39 14.5t16 44.5v29h178v-70q0 -55 -17.5 -98t-47 -70.5t-67.5 -42t-81 -14.5q-47 0 -87 15.5t-75 35.5l-10 6q-29 16 -51 28.5t-45 12.5q-20 0 -36.5 -14t-16.5 -45v-27h-178z" />
<glyph unicode="&#xd6;" horiz-adv-x="1656" d="M74 725q0 172 60.5 312.5t163.5 239.5t240.5 152.5t290.5 53.5q154 0 290 -53.5t239.5 -152.5t164 -239.5t60.5 -312.5t-60.5 -311.5t-164 -238.5t-239.5 -152.5t-290 -53.5t-291 53.5t-240 152.5t-163.5 238.5t-60.5 311.5zM307 1688q0 70 45 116.5t115 46.5 q68 0 115 -47t47 -116q0 -68 -47 -113t-115 -45q-70 0 -115 45t-45 113zM410 727q0 -115 36.5 -196.5t97 -136t135.5 -80t150 -25.5q76 0 151 25.5t134.5 80t96 136t36.5 196.5q0 113 -36.5 197t-96 137t-134.5 79.5t-151 26.5t-150.5 -26.5t-135 -79.5t-97 -137t-36.5 -197 zM1030 1688q0 70 45 116.5t115 46.5t117 -47t47 -116q0 -68 -47 -113t-117 -45t-115 45t-45 113z" />
<glyph unicode="&#xd7;" horiz-adv-x="1187" d="M74 276l334 336l-334 338l184 185l336 -338l336 338l184 -185l-336 -338l336 -336l-184 -188l-336 338l-336 -338z" />
<glyph unicode="&#xd8;" horiz-adv-x="1656" d="M74 725q0 172 60.5 312.5t163.5 239.5t240.5 152.5t290.5 53.5q98 0 188.5 -22.5t170.5 -63.5l143 184l197 -151l-142 -183q92 -98 144.5 -230t52.5 -292q0 -172 -60.5 -311.5t-164 -238.5t-239.5 -152.5t-290 -53.5q-98 0 -190 22.5t-174 63.5l-141 -182l-201 150 l143 184q-90 98 -141 228t-51 290zM410 727q0 -78 17 -139.5t48 -110.5l512 660q-78 31 -158 30q-76 0 -150.5 -26.5t-135 -79.5t-97 -137t-36.5 -197zM668 317q39 -16 79.5 -22t81.5 -6q76 0 151 25.5t134.5 80t96 136t36.5 196.5q0 152 -67 254z" />
<glyph unicode="&#xd9;" horiz-adv-x="1441" d="M145 524v928h324v-901q0 -133 67.5 -198.5t184.5 -65.5t184.5 65.5t67.5 198.5v901h323v-928q0 -137 -45 -240.5t-122.5 -174t-183 -106.5t-224.5 -36q-121 0 -225.5 36t-182 106.5t-123 174t-45.5 240.5zM307 1825h371l213 -271h-277z" />
<glyph unicode="&#xda;" horiz-adv-x="1441" d="M145 524v928h324v-901q0 -133 67.5 -198.5t184.5 -65.5t184.5 65.5t67.5 198.5v901h323v-928q0 -137 -45 -240.5t-122.5 -174t-183 -106.5t-224.5 -36q-121 0 -225.5 36t-182 106.5t-123 174t-45.5 240.5zM533 1554l213 271h370l-307 -271h-276z" />
<glyph unicode="&#xdb;" horiz-adv-x="1441" d="M145 524v928h324v-901q0 -133 67.5 -198.5t184.5 -65.5t184.5 65.5t67.5 198.5v901h323v-928q0 -137 -45 -240.5t-122.5 -174t-183 -106.5t-224.5 -36q-121 0 -225.5 36t-182 106.5t-123 174t-45.5 240.5zM322 1554l250 271h297l253 -271h-288l-119 134l-117 -134h-276z " />
<glyph unicode="&#xdc;" horiz-adv-x="1441" d="M145 524v928h324v-901q0 -133 67.5 -198.5t184.5 -65.5t184.5 65.5t67.5 198.5v901h323v-928q0 -137 -45 -240.5t-122.5 -174t-183 -106.5t-224.5 -36q-121 0 -225.5 36t-182 106.5t-123 174t-45.5 240.5zM311 1688q0 70 45 116.5t115 46.5t117 -47t47 -116 q0 -68 -47 -113t-117 -45t-115 45t-45 113zM813 1688q0 70 45 116.5t113 46.5q70 0 117 -47t47 -116q0 -68 -47.5 -113t-116.5 -45q-68 0 -113 45t-45 113z" />
<glyph unicode="&#xdd;" horiz-adv-x="1378" d="M20 1452h379l297 -539l301 539h361l-510 -846v-606h-324v606zM523 1554l213 271h370l-307 -271h-276z" />
<glyph unicode="&#xde;" horiz-adv-x="1249" d="M158 0v1452h323v-256h215q106 0 198.5 -36t160 -98.5t105.5 -147.5t38 -183q0 -100 -38 -185t-105.5 -147.5t-159.5 -97.5t-199 -35h-215v-266h-323zM483 541h189q92 0 147 51t55 137q0 88 -55 139.5t-147 51.5h-189v-379z" />
<glyph unicode="&#xdf;" horiz-adv-x="1251" d="M137 0v989q0 129 42 223.5t112.5 153.5t162 88t189.5 29q113 0 203 -31t153.5 -84t96 -123.5t32.5 -150.5q0 -59 -14 -106.5t-38.5 -84.5t-57.5 -65.5t-70 -51.5l-33 -20q-23 -16 -35 -28.5t-12 -35.5q2 -23 16.5 -35t47.5 -24l57 -22q111 -43 175.5 -126t64.5 -196 q0 -53 -21.5 -110.5t-67.5 -106.5t-118 -81t-174 -32q-94 0 -159.5 30t-107.5 74t-62.5 96t-20.5 97l243 41q2 -35 26 -70.5t83 -35.5q41 0 65.5 23.5t24.5 56.5t-21.5 55t-74.5 43l-53 20q-41 14 -82 37t-74 56.5t-54.5 78.5t-21.5 105q0 53 14.5 93t35 69.5t45 50 t46.5 35.5l31 20q45 29 67.5 60.5t22.5 72.5q0 47 -41 89t-137 42q-39 0 -75 -12t-64.5 -41t-46 -75t-17.5 -113v-967h-303z" />
<glyph unicode="&#xe0;" horiz-adv-x="1284" d="M63 512q0 113 35 211t99.5 171t156.5 114t205 41q68 0 118 -16.5t84 -40t53.5 -48t27.5 -43.5v117h301v-836q0 -72 3 -119t5 -63h-299q-4 16 -6 52t-2 69v10q-35 -74 -106.5 -117t-168.5 -43q-113 0 -206 40t-159.5 113t-103.5 172t-37 216zM246 1448h354l191 -309h-254z M377 510q0 -63 18.5 -113.5t50 -85.5t73.5 -53t91 -18q47 0 89 18t74 52t50.5 84t18.5 116q0 133 -67.5 200.5t-164.5 67.5q-100 0 -166.5 -67.5t-66.5 -200.5z" />
<glyph unicode="&#xe1;" horiz-adv-x="1284" d="M63 512q0 113 35 211t99.5 171t156.5 114t205 41q68 0 118 -16.5t84 -40t53.5 -48t27.5 -43.5v117h301v-836q0 -72 3 -119t5 -63h-299q-4 16 -6 52t-2 69v10q-35 -74 -106.5 -117t-168.5 -43q-113 0 -206 40t-159.5 113t-103.5 172t-37 216zM377 510q0 -63 18.5 -113.5 t50 -85.5t73.5 -53t91 -18q47 0 89 18t74 52t50.5 84t18.5 116q0 133 -67.5 200.5t-164.5 67.5q-100 0 -166.5 -67.5t-66.5 -200.5zM424 1139l188 309h349l-289 -309h-248z" />
<glyph unicode="&#xe2;" horiz-adv-x="1284" d="M63 512q0 113 35 211t99.5 171t156.5 114t205 41q68 0 118 -16.5t84 -40t53.5 -48t27.5 -43.5v117h301v-836q0 -72 3 -119t5 -63h-299q-4 16 -6 52t-2 69v10q-35 -74 -106.5 -117t-168.5 -43q-113 0 -206 40t-159.5 113t-103.5 172t-37 216zM250 1139l231 309h293 l234 -309h-238l-145 145l-144 -145h-231zM377 510q0 -63 18.5 -113.5t50 -85.5t73.5 -53t91 -18q47 0 89 18t74 52t50.5 84t18.5 116q0 133 -67.5 200.5t-164.5 67.5q-100 0 -166.5 -67.5t-66.5 -200.5z" />
<glyph unicode="&#xe3;" horiz-adv-x="1284" d="M63 512q0 113 35 211t99.5 171t156.5 114t205 41q68 0 118 -16.5t84 -40t53.5 -48t27.5 -43.5v117h301v-836q0 -72 3 -119t5 -63h-299q-4 16 -6 52t-2 69v10q-35 -74 -106.5 -117t-168.5 -43q-113 0 -206 40t-159.5 113t-103.5 172t-37 216zM266 1141v47 q0 131 67.5 195.5t164.5 64.5q47 0 83.5 -14.5t71.5 -32.5q31 -18 57.5 -31.5t55.5 -13.5q68 0 72 90h174v-41q0 -135 -64.5 -200.5t-165.5 -65.5q-47 0 -83.5 14t-71.5 33q-31 16 -58.5 29.5t-56.5 13.5q-31 0 -49.5 -20.5t-20.5 -67.5h-176zM377 510q0 -63 18.5 -113.5 t50 -85.5t73.5 -53t91 -18q47 0 89 18t74 52t50.5 84t18.5 116q0 133 -67.5 200.5t-164.5 67.5q-100 0 -166.5 -67.5t-66.5 -200.5z" />
<glyph unicode="&#xe4;" horiz-adv-x="1284" d="M63 512q0 113 35 211t99.5 171t156.5 114t205 41q68 0 118 -16.5t84 -40t53.5 -48t27.5 -43.5v117h301v-836q0 -72 3 -119t5 -63h-299q-4 16 -6 52t-2 69v10q-35 -74 -106.5 -117t-168.5 -43q-113 0 -206 40t-159.5 113t-103.5 172t-37 216zM240 1294q0 66 45 112t110 46 q66 0 112 -46t46 -112t-46 -110.5t-112 -44.5t-110.5 44.5t-44.5 110.5zM377 510q0 -63 18.5 -113.5t50 -85.5t73.5 -53t91 -18q47 0 89 18t74 52t50.5 84t18.5 116q0 133 -67.5 200.5t-164.5 67.5q-100 0 -166.5 -67.5t-66.5 -200.5zM692 1294q0 66 45 112t111 46t112 -46 t46 -112t-46.5 -110.5t-111.5 -44.5q-66 0 -111 44.5t-45 110.5z" />
<glyph unicode="&#xe5;" horiz-adv-x="1284" d="M63 512q0 113 35 211t99.5 171t156.5 114t205 41q68 0 118 -16.5t84 -40t53.5 -48t27.5 -43.5v117h301v-836q0 -72 3 -119t5 -63h-299q-4 16 -6 52t-2 69v10q-35 -74 -106.5 -117t-168.5 -43q-113 0 -206 40t-159.5 113t-103.5 172t-37 216zM371 1335q0 51 19.5 93t52 73 t75.5 48.5t90 17.5t90 -17.5t76 -48.5t52.5 -73t19.5 -93t-19.5 -93t-52.5 -71.5t-76 -46t-90 -16.5t-90 16.5t-75.5 46t-52 71.5t-19.5 93zM377 510q0 -63 18.5 -113.5t50 -85.5t73.5 -53t91 -18q47 0 89 18t74 52t50.5 84t18.5 116q0 133 -67.5 200.5t-164.5 67.5 q-100 0 -166.5 -67.5t-66.5 -200.5zM532 1335q0 -35 21.5 -56.5t54.5 -21.5t54.5 21.5t21.5 56.5t-21.5 56.5t-54.5 21.5t-54.5 -21.5t-21.5 -56.5z" />
<glyph unicode="&#xe6;" horiz-adv-x="1781" d="M76 281q0 68 23.5 121t64.5 90.5t95 61.5t118 34l246 37q43 6 59 24.5t16 44.5q0 45 -37.5 78t-113.5 33q-86 0 -131 -46t-51 -104l-269 56q4 55 34 114.5t85 108.5t138 82t196 33q123 0 206 -32t132 -85q68 55 149.5 86t171.5 31q236 0 368 -137.5t132 -385.5 q0 -33 -2 -62.5t-4 -33.5h-715q2 -47 22.5 -83t52.5 -62.5t73 -40t86 -13.5q86 0 137 39t74 101l258 -78q-18 -66 -59.5 -125t-101 -103.5t-138 -70t-174.5 -25.5q-113 0 -210.5 42t-168.5 120q-55 -66 -147.5 -114t-221.5 -48q-98 0 -172 25.5t-123 68.5t-73.5 99.5 t-24.5 118.5zM381 299q0 -37 30.5 -69.5t96.5 -32.5q33 0 67.5 9t61.5 32.5t44 62.5t17 98v45l-200 -30q-49 -8 -83 -35t-34 -80zM993 631h414q-2 29 -13.5 59.5t-36 55t-63.5 41t-96 16.5q-49 0 -87 -16.5t-63.5 -41t-39 -55.5t-15.5 -59z" />
<glyph unicode="&#xe7;" horiz-adv-x="1148" d="M63 508q0 119 42 218t115 171t170 112t210 40q104 0 188 -30t145.5 -79t100.5 -113.5t56 -132.5l-279 -84q-8 29 -24.5 56.5t-41 49t-59.5 34t-80 12.5q-49 0 -91 -16.5t-73.5 -49t-50 -80t-18.5 -108.5t19.5 -107.5t51 -79t74.5 -49t92 -16.5q90 0 142.5 47t68.5 105 l275 -84q-16 -59 -48 -115.5t-81 -104t-115 -81t-145 -46.5l-52 -77q92 -4 145.5 -53.5t53.5 -127.5q0 -35 -14.5 -70.5t-46 -64t-84 -47t-127.5 -18.5q-90 0 -158 37.5t-96 74.5l96 121q23 -23 61.5 -50.5t94.5 -27.5q78 0 77 54q0 20 -18 35.5t-53 15.5q-12 0 -27.5 -2 t-28.5 -6l-75 100l67 104q-98 14 -182 59.5t-145.5 115t-96.5 160.5t-35 198z" />
<glyph unicode="&#xe8;" horiz-adv-x="1144" d="M63 512q0 123 42 222.5t113 169t163 107.5t190 38q238 0 374 -137.5t136 -385.5q0 -33 -2 -62.5t-4 -33.5h-708q2 -43 21.5 -79t51 -62.5t72.5 -41t86 -14.5q86 0 134 37t71 97l260 -74q-18 -66 -57 -125t-98.5 -103.5t-138.5 -70t-175 -25.5q-104 0 -200.5 37 t-170 106.5t-117 170t-43.5 229.5zM190 1448h354l191 -309h-254zM373 631h407q-2 29 -13 59.5t-35.5 55t-62.5 41t-94 16.5q-49 0 -85.5 -16.5t-62.5 -41t-39 -55.5t-15 -59z" />
<glyph unicode="&#xe9;" horiz-adv-x="1144" d="M63 512q0 123 42 222.5t113 169t163 107.5t190 38q238 0 374 -137.5t136 -385.5q0 -33 -2 -62.5t-4 -33.5h-708q2 -43 21.5 -79t51 -62.5t72.5 -41t86 -14.5q86 0 134 37t71 97l260 -74q-18 -66 -57 -125t-98.5 -103.5t-138.5 -70t-175 -25.5q-104 0 -200.5 37 t-170 106.5t-117 170t-43.5 229.5zM373 631h407q-2 29 -13 59.5t-35.5 55t-62.5 41t-94 16.5q-49 0 -85.5 -16.5t-62.5 -41t-39 -55.5t-15 -59zM426 1139l188 309h349l-289 -309h-248z" />
<glyph unicode="&#xea;" horiz-adv-x="1144" d="M63 512q0 123 42 222.5t113 169t163 107.5t190 38q238 0 374 -137.5t136 -385.5q0 -33 -2 -62.5t-4 -33.5h-708q2 -43 21.5 -79t51 -62.5t72.5 -41t86 -14.5q86 0 134 37t71 97l260 -74q-18 -66 -57 -125t-98.5 -103.5t-138.5 -70t-175 -25.5q-104 0 -200.5 37 t-170 106.5t-117 170t-43.5 229.5zM201 1139l231 309h293l234 -309h-238l-145 145l-144 -145h-231zM373 631h407q-2 29 -13 59.5t-35.5 55t-62.5 41t-94 16.5q-49 0 -85.5 -16.5t-62.5 -41t-39 -55.5t-15 -59z" />
<glyph unicode="&#xeb;" horiz-adv-x="1144" d="M63 512q0 123 42 222.5t113 169t163 107.5t190 38q238 0 374 -137.5t136 -385.5q0 -33 -2 -62.5t-4 -33.5h-708q2 -43 21.5 -79t51 -62.5t72.5 -41t86 -14.5q86 0 134 37t71 97l260 -74q-18 -66 -57 -125t-98.5 -103.5t-138.5 -70t-175 -25.5q-104 0 -200.5 37 t-170 106.5t-117 170t-43.5 229.5zM199 1294q0 66 45 112t111 46t111.5 -46t45.5 -112t-46 -110.5t-111 -44.5q-66 0 -111 44.5t-45 110.5zM373 631h407q-2 29 -13 59.5t-35.5 55t-62.5 41t-94 16.5q-49 0 -85.5 -16.5t-62.5 -41t-39 -55.5t-15 -59zM652 1294q0 66 45 112 t110 46q66 0 112 -46t46 -112t-46 -110.5t-112 -44.5t-110.5 44.5t-44.5 110.5z" />
<glyph unicode="&#xec;" horiz-adv-x="583" d="M-107 1448h354l191 -309h-254zM137 0v1018h312v-1018h-312z" />
<glyph unicode="&#xed;" horiz-adv-x="583" d="M137 0v1018h312v-1018h-312zM141 1139l188 309h349l-289 -309h-248z" />
<glyph unicode="&#xee;" horiz-adv-x="583" d="M-84 1139l231 309h293l234 -309h-238l-145 145l-144 -145h-231zM137 0v1018h312v-1018h-312z" />
<glyph unicode="&#xef;" horiz-adv-x="583" d="M-68 1294q0 66 45.5 111t110.5 45q66 0 111 -45t45 -111t-45 -110.5t-111 -44.5t-111 44.5t-45 110.5zM137 0v1018h312v-1018h-312zM340 1294q0 66 44 111t110 45t111.5 -45t45.5 -111t-46 -110.5t-111 -44.5q-66 0 -110 44.5t-44 110.5z" />
<glyph unicode="&#xf0;" d="M63 473q0 119 44.5 207t116 146.5t161.5 88t182 29.5q29 0 60.5 -4t61.5 -13t54.5 -21.5t38.5 -28.5q-18 63 -51 115t-74 98l-284 -109l-70 180l170 68q-55 31 -112.5 52.5t-110.5 37.5l94 229q123 -31 233.5 -82t198.5 -118l238 92l71 -185l-153 -59 q98 -119 152.5 -272.5t54.5 -339.5q0 -121 -33 -231.5t-99.5 -195.5t-168 -136.5t-238.5 -51.5q-113 0 -211 38t-170 105.5t-114 160t-42 200.5zM373 477q0 -53 19.5 -96t51 -71.5t72.5 -44t84 -15.5q45 0 86 14.5t73 43t51 70.5t19 97q0 57 -19 100t-51 72t-73 43.5 t-86 14.5q-43 0 -84 -14.5t-72.5 -44.5t-51 -72t-19.5 -97z" />
<glyph unicode="&#xf1;" horiz-adv-x="1218" d="M137 0v1018h301v-117q20 37 53 63.5t71 44t80 26.5t81 9q96 0 165.5 -31.5t116 -87t68 -129t21.5 -157.5v-639h-312v586q0 76 -40 126t-126 50q-78 0 -122.5 -50t-44.5 -128v-584h-312zM250 1141v47q0 131 67.5 195.5t163.5 64.5q47 0 84 -14.5t72 -32.5 q31 -18 57.5 -31.5t55.5 -13.5q68 0 71 90h174v-41q0 -135 -64.5 -200.5t-164.5 -65.5q-47 0 -84 14t-72 33q-31 16 -58.5 29.5t-55.5 13.5q-31 0 -49.5 -20.5t-20.5 -67.5h-176z" />
<glyph unicode="&#xf2;" horiz-adv-x="1208" d="M63 510q0 119 42 217t115 170t171 112t213 40t213 -40t171 -112t115 -170t42 -217t-42 -218t-115 -171t-171 -112t-213 -40t-213 40t-171 112t-115 171t-42 218zM203 1448h354l191 -309h-254zM375 510q0 -63 19.5 -111.5t51 -80t73.5 -47t85 -15.5q45 0 86 15.5t73 47 t51.5 78.5t19.5 113q0 63 -19.5 111.5t-51.5 79t-73 46t-86 15.5q-43 0 -85 -15.5t-73.5 -46t-51 -79t-19.5 -111.5z" />
<glyph unicode="&#xf3;" horiz-adv-x="1208" d="M63 510q0 119 42 217t115 170t171 112t213 40t213 -40t171 -112t115 -170t42 -217t-42 -218t-115 -171t-171 -112t-213 -40t-213 40t-171 112t-115 171t-42 218zM375 510q0 -63 19.5 -111.5t51 -80t73.5 -47t85 -15.5q45 0 86 15.5t73 47t51.5 78.5t19.5 113 q0 63 -19.5 111.5t-51.5 79t-73 46t-86 15.5q-43 0 -85 -15.5t-73.5 -46t-51 -79t-19.5 -111.5zM455 1139l188 309h349l-289 -309h-248z" />
<glyph unicode="&#xf4;" horiz-adv-x="1208" d="M63 510q0 119 42 217t115 170t171 112t213 40t213 -40t171 -112t115 -170t42 -217t-42 -218t-115 -171t-171 -112t-213 -40t-213 40t-171 112t-115 171t-42 218zM229 1139l231 309h293l234 -309h-238l-145 145l-144 -145h-231zM375 510q0 -63 19.5 -111.5t51 -80 t73.5 -47t85 -15.5q45 0 86 15.5t73 47t51.5 78.5t19.5 113q0 63 -19.5 111.5t-51.5 79t-73 46t-86 15.5q-43 0 -85 -15.5t-73.5 -46t-51 -79t-19.5 -111.5z" />
<glyph unicode="&#xf5;" horiz-adv-x="1208" d="M63 510q0 119 42 217t115 170t171 112t213 40t213 -40t171 -112t115 -170t42 -217t-42 -218t-115 -171t-171 -112t-213 -40t-213 40t-171 112t-115 171t-42 218zM236 1141v47q0 131 67.5 195.5t163.5 64.5q47 0 84 -14.5t72 -32.5q31 -18 57.5 -31.5t55.5 -13.5 q68 0 71 90h174v-41q0 -135 -64.5 -200.5t-164.5 -65.5q-47 0 -84 14t-72 33q-31 16 -58.5 29.5t-55.5 13.5q-31 0 -49.5 -20.5t-20.5 -67.5h-176zM375 510q0 -63 19.5 -111.5t51 -80t73.5 -47t85 -15.5q45 0 86 15.5t73 47t51.5 78.5t19.5 113q0 63 -19.5 111.5t-51.5 79 t-73 46t-86 15.5q-43 0 -85 -15.5t-73.5 -46t-51 -79t-19.5 -111.5z" />
<glyph unicode="&#xf6;" horiz-adv-x="1208" d="M63 510q0 119 42 217t115 170t171 112t213 40t213 -40t171 -112t115 -170t42 -217t-42 -218t-115 -171t-171 -112t-213 -40t-213 40t-171 112t-115 171t-42 218zM221 1294q0 66 45 112t111 46t111.5 -46t45.5 -112t-46 -110.5t-111 -44.5q-66 0 -111 44.5t-45 110.5z M375 510q0 -63 19.5 -111.5t51 -80t73.5 -47t85 -15.5q45 0 86 15.5t73 47t51.5 78.5t19.5 113q0 63 -19.5 111.5t-51.5 79t-73 46t-86 15.5q-43 0 -85 -15.5t-73.5 -46t-51 -79t-19.5 -111.5zM674 1294q0 66 45 112t110 46q66 0 112 -46t46 -112t-46 -110.5t-112 -44.5 t-110.5 44.5t-44.5 110.5z" />
<glyph unicode="&#xf7;" horiz-adv-x="1222" d="M94 483v256h1034v-256h-1034zM430 231q0 35 13.5 67t37 55.5t55 36.5t68.5 13q72 0 122 -50t50 -122t-50 -123t-122 -51q-37 0 -68.5 14.5t-55 38t-37 55t-13.5 66.5zM430 993q0 35 13.5 67t37 55.5t55 36.5t68.5 13q72 0 122 -50t50 -122t-50 -123t-122 -51 q-37 0 -68.5 14.5t-55 38t-37 55t-13.5 66.5z" />
<glyph unicode="&#xf8;" horiz-adv-x="1208" d="M63 510q0 119 42 217t115 170t171 112t213 40q154 0 277 -70l110 133l139 -117l-108 -131q59 -70 91 -160t32 -194q0 -119 -42 -218t-115 -171t-171 -112t-213 -40q-74 0 -140.5 17.5t-125.5 48.5l-105 -127l-141 117l103 122q-61 72 -96.5 163t-35.5 200zM375 510 q0 -35 5 -63.5t15 -53.5l293 352q-43 16 -84 17q-43 0 -85 -15.5t-73.5 -46t-51 -79t-19.5 -111.5zM530 268q33 -12 74 -12q45 0 86 15.5t73 47t51.5 78.5t19.5 113q0 55 -17 104z" />
<glyph unicode="&#xf9;" horiz-adv-x="1220" d="M127 375v643h311v-578q0 -74 40 -125t124 -51q78 0 124 48t46 126v580h311v-836q0 -70 4.5 -120t6.5 -62h-299q-4 14 -6.5 48t-2.5 54q-41 -66 -117.5 -95.5t-154.5 -29.5q-92 0 -165 32t-122 86.5t-74.5 126t-25.5 153.5zM240 1448h354l191 -309h-254z" />
<glyph unicode="&#xfa;" horiz-adv-x="1220" d="M127 375v643h311v-578q0 -74 40 -125t124 -51q78 0 124 48t46 126v580h311v-836q0 -70 4.5 -120t6.5 -62h-299q-4 14 -6.5 48t-2.5 54q-41 -66 -117.5 -95.5t-154.5 -29.5q-92 0 -165 32t-122 86.5t-74.5 126t-25.5 153.5zM420 1139l188 309h349l-289 -309h-248z" />
<glyph unicode="&#xfb;" horiz-adv-x="1220" d="M127 375v643h311v-578q0 -74 40 -125t124 -51q78 0 124 48t46 126v580h311v-836q0 -70 4.5 -120t6.5 -62h-299q-4 14 -6.5 48t-2.5 54q-41 -66 -117.5 -95.5t-154.5 -29.5q-92 0 -165 32t-122 86.5t-74.5 126t-25.5 153.5zM231 1139l231 309h293l234 -309h-238l-145 145 l-144 -145h-231z" />
<glyph unicode="&#xfc;" horiz-adv-x="1220" d="M127 375v643h311v-578q0 -74 40 -125t124 -51q78 0 124 48t46 126v580h311v-836q0 -70 4.5 -120t6.5 -62h-299q-4 14 -6.5 48t-2.5 54q-41 -66 -117.5 -95.5t-154.5 -29.5q-92 0 -165 32t-122 86.5t-74.5 126t-25.5 153.5zM231 1294q0 66 45 112t111 46t111.5 -46 t45.5 -112t-46 -110.5t-111 -44.5q-66 0 -111 44.5t-45 110.5zM684 1294q0 66 45 112t110 46q66 0 112 -46t46 -112t-46 -110.5t-112 -44.5t-110.5 44.5t-44.5 110.5z" />
<glyph unicode="&#xfd;" horiz-adv-x="1183" d="M12 1018h348l248 -545l226 545h329l-626 -1409h-328l231 528zM424 1139l188 309h349l-289 -309h-248z" />
<glyph unicode="&#xfe;" horiz-adv-x="1273" d="M137 -389v1872h312v-557q35 47 110.5 81.5t177.5 34.5q111 0 199 -39.5t148.5 -110.5t93 -168t32.5 -212q0 -117 -35.5 -215t-100 -169t-154 -111t-195.5 -40q-98 0 -170 30t-106 73v-469h-312zM444 510q0 -63 18.5 -110.5t50.5 -79t74 -48t87 -16.5t87 15.5t74.5 47 t51 80t18.5 111.5t-18.5 110.5t-51 79t-74.5 47t-87 15.5t-87 -15.5t-74 -47t-50.5 -79t-18.5 -110.5z" />
<glyph unicode="&#xff;" horiz-adv-x="1183" d="M12 1018h348l248 -545l226 545h329l-626 -1409h-328l231 528zM215 1294q0 66 45 112t111 46t111.5 -46t45.5 -112t-46 -110.5t-111 -44.5q-66 0 -111 44.5t-45 110.5zM668 1294q0 66 45 112t110 46q66 0 112 -46t46 -112t-46 -110.5t-112 -44.5t-110.5 44.5t-44.5 110.5z " />
<glyph unicode="&#x100;" horiz-adv-x="1503" d="M20 0l547 1452h375l541 -1452h-353l-104 295h-561l-105 -295h-340zM428 1579v223h637v-223h-637zM571 590h353l-174 502z" />
<glyph unicode="&#x101;" horiz-adv-x="1284" d="M63 512q0 113 35 211t99.5 171t156.5 114t205 41q68 0 118 -16.5t84 -40t53.5 -48t27.5 -43.5v117h301v-836q0 -72 3 -119t5 -63h-299q-4 16 -6 52t-2 69v10q-35 -74 -106.5 -117t-168.5 -43q-113 0 -206 40t-159.5 113t-103.5 172t-37 216zM322 1182v215h585v-215h-585z M377 510q0 -63 18.5 -113.5t50 -85.5t73.5 -53t91 -18q47 0 89 18t74 52t50.5 84t18.5 116q0 133 -67.5 200.5t-164.5 67.5q-100 0 -166.5 -67.5t-66.5 -200.5z" />
<glyph unicode="&#x102;" horiz-adv-x="1503" d="M20 0l547 1452h375l541 -1452h-353l-104 295h-561l-105 -295h-340zM406 1825h231q2 -45 30 -74t81 -29t81.5 29t30.5 74h230q-2 -51 -22.5 -102.5t-62.5 -91.5t-106.5 -64.5t-150.5 -24.5t-149.5 24.5t-105.5 64.5t-63.5 91.5t-23.5 102.5zM571 590h353l-174 502z" />
<glyph unicode="&#x103;" horiz-adv-x="1284" d="M63 512q0 113 35 211t99.5 171t156.5 114t205 41q68 0 118 -16.5t84 -40t53.5 -48t27.5 -43.5v117h301v-836q0 -72 3 -119t5 -63h-299q-4 16 -6 52t-2 69v10q-35 -74 -106.5 -117t-168.5 -43q-113 0 -206 40t-159.5 113t-103.5 172t-37 216zM276 1448h197q4 -41 37 -78 t111 -37t110.5 37t36.5 78h199q-2 -63 -24.5 -120.5t-65.5 -101.5t-106.5 -71t-149.5 -27q-84 0 -148.5 27t-107.5 71t-64.5 101t-24.5 121zM377 510q0 -63 18.5 -113.5t50 -85.5t73.5 -53t91 -18q47 0 89 18t74 52t50.5 84t18.5 116q0 133 -67.5 200.5t-164.5 67.5 q-100 0 -166.5 -67.5t-66.5 -200.5z" />
<glyph unicode="&#x104;" horiz-adv-x="1503" d="M20 0l547 1452h375l541 -1452q-59 -29 -107.5 -79t-48.5 -111q0 -43 27.5 -66t68.5 -23q20 0 35 1.5t25 3.5v-172q-43 -16 -109 -17q-117 0 -187.5 60.5t-70.5 162.5q0 92 45 148.5t103 91.5h-134l-104 295h-561l-105 -295h-340zM571 590h353l-174 497z" />
<glyph unicode="&#x105;" horiz-adv-x="1284" d="M63 512q0 113 35 211t99.5 171t156.5 114t205 41q68 0 118 -16.5t84 -40t53.5 -48t27.5 -43.5v117h301v-836q0 -59 3 -112.5t5 -69.5q-59 -29 -107.5 -79t-48.5 -111q0 -43 28 -66t69 -23q20 0 34.5 1.5t24.5 3.5v-172q-43 -17 -109 -17q-117 0 -187.5 60.5t-70.5 162.5 q0 92 45 149.5t101 90.5h-78q-4 16 -6 52t-2 69v10q-35 -74 -106.5 -117t-168.5 -43q-113 0 -206 40t-159.5 113t-103.5 172t-37 216zM377 510q0 -63 18.5 -113.5t50 -85.5t73.5 -53t91 -18q47 0 89 18t74 52t50.5 84t18.5 116q0 133 -67.5 200.5t-164.5 67.5 q-100 0 -166.5 -67.5t-66.5 -200.5z" />
<glyph unicode="&#x106;" horiz-adv-x="1581" d="M74 723q0 170 60.5 310.5t162.5 239.5t238.5 154.5t287.5 55.5q164 0 283 -47t201 -120t128 -159t64 -164l-305 -96q-8 37 -31.5 84t-66.5 89t-109.5 69.5t-163.5 27.5q-74 0 -147.5 -26.5t-133 -80.5t-96 -138t-36.5 -199q0 -102 34.5 -182t93 -135.5t133 -84 t156.5 -28.5q94 0 162 27.5t113 69.5t70.5 89t35.5 86l310 -88q-18 -76 -64.5 -164t-129.5 -164.5t-206 -128t-291 -51.5q-158 0 -295 54.5t-238 152.5t-160.5 237.5t-59.5 309.5zM666 1554l213 271h370l-307 -271h-276z" />
<glyph unicode="&#x107;" horiz-adv-x="1148" d="M63 508q0 119 42 218t115 171t170 112t210 40q104 0 188 -30t145.5 -79t100.5 -113.5t56 -132.5l-279 -84q-8 29 -24.5 56.5t-41 49t-59.5 34t-80 12.5q-49 0 -91 -16.5t-73.5 -49t-50 -80t-18.5 -108.5t19.5 -107.5t51 -79t74.5 -49t92 -16.5q90 0 142.5 47t68.5 105 l275 -84q-16 -68 -56.5 -131.5t-101.5 -112.5t-143 -80t-185 -31q-115 0 -214 40t-172.5 112t-117 170t-43.5 217zM451 1139l188 309h349l-289 -309h-248z" />
<glyph unicode="&#x108;" horiz-adv-x="1581" d="M74 723q0 170 60.5 310.5t162.5 239.5t238.5 154.5t287.5 55.5q164 0 283 -47t201 -120t128 -159t64 -164l-305 -96q-8 37 -31.5 84t-66.5 89t-109.5 69.5t-163.5 27.5q-74 0 -147.5 -26.5t-133 -80.5t-96 -138t-36.5 -199q0 -102 34.5 -182t93 -135.5t133 -84 t156.5 -28.5q94 0 162 27.5t113 69.5t70.5 89t35.5 86l310 -88q-18 -76 -64.5 -164t-129.5 -164.5t-206 -128t-291 -51.5q-158 0 -295 54.5t-238 152.5t-160.5 237.5t-59.5 309.5zM426 1554l250 271h297l253 -271h-288l-119 134l-117 -134h-276z" />
<glyph unicode="&#x109;" horiz-adv-x="1148" d="M63 508q0 119 42 218t115 171t170 112t210 40q104 0 188 -30t145.5 -79t100.5 -113.5t56 -132.5l-279 -84q-8 29 -24.5 56.5t-41 49t-59.5 34t-80 12.5q-49 0 -91 -16.5t-73.5 -49t-50 -80t-18.5 -108.5t19.5 -107.5t51 -79t74.5 -49t92 -16.5q90 0 142.5 47t68.5 105 l275 -84q-16 -68 -56.5 -131.5t-101.5 -112.5t-143 -80t-185 -31q-115 0 -214 40t-172.5 112t-117 170t-43.5 217zM223 1139l231 309h293l234 -309h-238l-145 145l-144 -145h-231z" />
<glyph unicode="&#x10a;" horiz-adv-x="1581" d="M74 723q0 170 60.5 310.5t162.5 239.5t238.5 154.5t287.5 55.5q164 0 283 -47t201 -120t128 -159t64 -164l-305 -96q-8 37 -31.5 84t-66.5 89t-109.5 69.5t-163.5 27.5q-74 0 -147.5 -26.5t-133 -80.5t-96 -138t-36.5 -199q0 -102 34.5 -182t93 -135.5t133 -84 t156.5 -28.5q94 0 162 27.5t113 69.5t70.5 89t35.5 86l310 -88q-18 -76 -64.5 -164t-129.5 -164.5t-206 -128t-291 -51.5q-158 0 -295 54.5t-238 152.5t-160.5 237.5t-59.5 309.5zM641 1740q0 76 52 127.5t130 51.5q76 0 129 -51.5t53 -127.5q0 -78 -53 -128t-129 -50 q-78 0 -130 50t-52 128z" />
<glyph unicode="&#x10b;" horiz-adv-x="1148" d="M63 508q0 119 42 218t115 171t170 112t210 40q104 0 188 -30t145.5 -79t100.5 -113.5t56 -132.5l-279 -84q-8 29 -24.5 56.5t-41 49t-59.5 34t-80 12.5q-49 0 -91 -16.5t-73.5 -49t-50 -80t-18.5 -108.5t19.5 -107.5t51 -79t74.5 -49t92 -16.5q90 0 142.5 47t68.5 105 l275 -84q-16 -68 -56.5 -131.5t-101.5 -112.5t-143 -80t-185 -31q-115 0 -214 40t-172.5 112t-117 170t-43.5 217zM416 1300q0 76 52 127.5t130 51.5q76 0 129 -51.5t53 -127.5t-53 -126t-129 -50q-78 0 -130 50t-52 126z" />
<glyph unicode="&#x10c;" horiz-adv-x="1581" d="M74 723q0 170 60.5 310.5t162.5 239.5t238.5 154.5t287.5 55.5q164 0 283 -47t201 -120t128 -159t64 -164l-305 -96q-8 37 -31.5 84t-66.5 89t-109.5 69.5t-163.5 27.5q-74 0 -147.5 -26.5t-133 -80.5t-96 -138t-36.5 -199q0 -102 34.5 -182t93 -135.5t133 -84 t156.5 -28.5q94 0 162 27.5t113 69.5t70.5 89t35.5 86l310 -88q-18 -76 -64.5 -164t-129.5 -164.5t-206 -128t-291 -51.5q-158 0 -295 54.5t-238 152.5t-160.5 237.5t-59.5 309.5zM428 1825h286l119 -133l119 133h276l-251 -271h-297z" />
<glyph unicode="&#x10d;" horiz-adv-x="1148" d="M63 508q0 119 42 218t115 171t170 112t210 40q104 0 188 -30t145.5 -79t100.5 -113.5t56 -132.5l-279 -84q-8 29 -24.5 56.5t-41 49t-59.5 34t-80 12.5q-49 0 -91 -16.5t-73.5 -49t-50 -80t-18.5 -108.5t19.5 -107.5t51 -79t74.5 -49t92 -16.5q90 0 142.5 47t68.5 105 l275 -84q-16 -68 -56.5 -131.5t-101.5 -112.5t-143 -80t-185 -31q-115 0 -214 40t-172.5 112t-117 170t-43.5 217zM209 1448h238l145 -148l143 148h232l-230 -309h-297z" />
<glyph unicode="&#x10e;" horiz-adv-x="1486" d="M158 0v1452h526q164 0 298 -50t230.5 -144.5t148.5 -229.5t52 -303t-52 -302t-148.5 -228.5t-231.5 -144.5t-299 -50h-524zM328 1825h286l119 -133l119 133h276l-251 -271h-297zM481 305h189q84 0 157.5 24.5t129 76t87 131t31.5 188.5t-31.5 188.5t-87 132t-129 77 t-157.5 24.5h-189v-842z" />
<glyph unicode="&#x10f;" horiz-adv-x="1566" d="M63 512q0 113 37 210t102.5 169t156 111.5t198.5 39.5q66 0 113 -11t79.5 -26.5t52 -34t29.5 -32.5v545h308v-1301q0 -70 3 -118t5 -64h-299q-2 10 -5 39t-3 59q-35 -53 -108 -87t-165 -34q-109 0 -201 40t-159.5 111t-105.5 169t-38 215zM377 510q0 -63 18.5 -110.5 t50 -79t73.5 -48t87 -16.5t87 16.5t74 48t50.5 78.5t18.5 111q0 63 -18.5 110.5t-50.5 79t-74 47t-87 15.5t-87 -15.5t-73.5 -47t-50 -79t-18.5 -110.5zM1219 1059l59 424h297l-153 -424h-203z" />
<glyph unicode="&#x110;" horiz-adv-x="1554" d="M31 635v227h192v590h527q164 0 298 -50t230 -144.5t148.5 -229.5t52.5 -303t-52.5 -302t-148.5 -228.5t-231.5 -144.5t-298.5 -50h-525v635h-192zM547 305h188q84 0 158 24.5t129 76t87 131t32 188.5t-32 188.5t-87 132t-129 77t-158 24.5h-188v-285h295v-227h-295v-330z " />
<glyph unicode="&#x111;" horiz-adv-x="1308" d="M63 512q0 113 37 210t102.5 169t156 111.5t198.5 39.5q66 0 113 -11t79.5 -26.5t52 -34t29.5 -32.5v186h-221v215h221v144h308v-144h141v-215h-141v-942q0 -66 3 -116t5 -66h-299q-2 10 -5 43t-3 55q-35 -53 -108 -87t-165 -34q-109 0 -201 40t-159.5 111t-105.5 169 t-38 215zM377 510q0 -63 18.5 -110.5t50 -79t73.5 -48t87 -16.5t87 16.5t74 48t50.5 78.5t18.5 111q0 63 -18.5 110.5t-50.5 79t-74 47t-87 15.5t-87 -15.5t-73.5 -47t-50 -79t-18.5 -110.5z" />
<glyph unicode="&#x112;" horiz-adv-x="1193" d="M158 0v1452h919v-305h-596v-277h541v-284h-541v-279h598v-307h-921zM299 1579v223h637v-223h-637z" />
<glyph unicode="&#x113;" horiz-adv-x="1144" d="M63 512q0 123 42 222.5t113 169t163 107.5t190 38q238 0 374 -137.5t136 -385.5q0 -33 -2 -62.5t-4 -33.5h-708q2 -43 21.5 -79t51 -62.5t72.5 -41t86 -14.5q86 0 134 37t71 97l260 -74q-18 -66 -57 -125t-98.5 -103.5t-138.5 -70t-175 -25.5q-104 0 -200.5 37 t-170 106.5t-117 170t-43.5 229.5zM285 1182v215h586v-215h-586zM373 631h407q-2 29 -13 59.5t-35.5 55t-62.5 41t-94 16.5q-49 0 -85.5 -16.5t-62.5 -41t-39 -55.5t-15 -59z" />
<glyph unicode="&#x114;" horiz-adv-x="1193" d="M158 0v1452h919v-305h-596v-277h541v-284h-541v-279h598v-307h-921zM266 1825h231q2 -45 30 -74t81 -29t81.5 29t30.5 74h230q-2 -51 -22.5 -102.5t-62.5 -91.5t-106.5 -64.5t-150.5 -24.5t-149.5 24.5t-105.5 64.5t-63.5 91.5t-23.5 102.5z" />
<glyph unicode="&#x115;" horiz-adv-x="1144" d="M63 512q0 123 42 222.5t113 169t163 107.5t190 38q238 0 374 -137.5t136 -385.5q0 -33 -2 -62.5t-4 -33.5h-708q2 -43 21.5 -79t51 -62.5t72.5 -41t86 -14.5q86 0 134 37t71 97l260 -74q-18 -66 -57 -125t-98.5 -103.5t-138.5 -70t-175 -25.5q-104 0 -200.5 37 t-170 106.5t-117 170t-43.5 229.5zM231 1448h197q4 -41 36.5 -78t110.5 -37t110.5 37t37.5 78h198q-2 -63 -24.5 -120.5t-65.5 -101.5t-106.5 -71t-149.5 -27q-84 0 -148.5 27t-107.5 71t-64.5 101t-23.5 121zM373 631h407q-2 29 -13 59.5t-35.5 55t-62.5 41t-94 16.5 q-49 0 -85.5 -16.5t-62.5 -41t-39 -55.5t-15 -59z" />
<glyph unicode="&#x116;" horiz-adv-x="1193" d="M158 0v1452h919v-305h-596v-277h541v-284h-541v-279h598v-307h-921zM433 1722q0 76 52 127.5t130 51.5q76 0 129 -51.5t53 -127.5q0 -78 -53 -128t-129 -50q-78 0 -130 50t-52 128z" />
<glyph unicode="&#x117;" horiz-adv-x="1144" d="M63 512q0 123 42 222.5t113 169t163 107.5t190 38q238 0 374 -137.5t136 -385.5q0 -33 -2 -62.5t-4 -33.5h-708q2 -43 21.5 -79t51 -62.5t72.5 -41t86 -14.5q86 0 134 37t71 97l260 -74q-18 -66 -57 -125t-98.5 -103.5t-138.5 -70t-175 -25.5q-104 0 -200.5 37 t-170 106.5t-117 170t-43.5 229.5zM373 631h407q-2 29 -13 59.5t-35.5 55t-62.5 41t-94 16.5q-49 0 -85.5 -16.5t-62.5 -41t-39 -55.5t-15 -59zM400 1296q0 76 52 127.5t130 51.5q76 0 129 -51.5t53 -127.5t-53 -126t-129 -50q-78 0 -130 50t-52 126z" />
<glyph unicode="&#x118;" horiz-adv-x="1193" d="M158 0v1452h919v-305h-596v-277h541v-284h-541v-279h598v-307q-59 -29 -107 -79t-48 -111q0 -43 27.5 -66t68.5 -23q20 0 34.5 1.5t24.5 3.5v-172q-43 -16 -108 -17q-117 0 -187.5 60.5t-70.5 162.5q0 92 45 148.5t102 91.5h-702z" />
<glyph unicode="&#x119;" horiz-adv-x="1144" d="M63 512q0 123 42 222.5t113 169t163 107.5t190 38q238 0 374 -137.5t136 -385.5q0 -33 -2 -62.5t-4 -33.5h-708q2 -43 21.5 -79t51 -62.5t72.5 -41t86 -14.5q86 0 134 37t71 97l260 -74q-29 -98 -98.5 -175t-180.5 -118q-29 -10 -57.5 -28.5t-50 -42t-34.5 -51.5t-13 -58 q0 -47 26.5 -73t69.5 -26h23.5t35.5 5v-172q-43 -16 -108 -17q-117 0 -187.5 60.5t-70.5 162.5q0 76 31.5 128.5t76.5 84.5q-94 10 -178 52.5t-147.5 111t-100.5 163.5t-37 212zM373 631h407q-2 29 -13 59.5t-35.5 55t-62.5 41t-94 16.5q-49 0 -85.5 -16.5t-62.5 -41 t-39 -55.5t-15 -59z" />
<glyph unicode="&#x11a;" horiz-adv-x="1193" d="M158 0v1452h919v-305h-596v-277h541v-284h-541v-279h598v-307h-921zM215 1825h286l119 -133l119 133h276l-251 -271h-297z" />
<glyph unicode="&#x11b;" horiz-adv-x="1144" d="M63 512q0 123 42 222.5t113 169t163 107.5t190 38q238 0 374 -137.5t136 -385.5q0 -33 -2 -62.5t-4 -33.5h-708q2 -43 21.5 -79t51 -62.5t72.5 -41t86 -14.5q86 0 134 37t71 97l260 -74q-18 -66 -57 -125t-98.5 -103.5t-138.5 -70t-175 -25.5q-104 0 -200.5 37 t-170 106.5t-117 170t-43.5 229.5zM195 1448h238l145 -148l143 148h232l-230 -309h-297zM373 631h407q-2 29 -13 59.5t-35.5 55t-62.5 41t-94 16.5q-49 0 -85.5 -16.5t-62.5 -41t-39 -55.5t-15 -59z" />
<glyph unicode="&#x11c;" horiz-adv-x="1613" d="M74 725q0 172 60.5 311.5t163.5 238.5t240.5 153.5t290.5 54.5q156 0 272 -42t196.5 -106.5t130 -144.5t73.5 -156l-311 -108q-8 33 -31.5 77t-66.5 83.5t-107.5 66.5t-155.5 27q-74 0 -149.5 -26t-138 -81t-101.5 -141t-39 -207q0 -115 35 -201t95.5 -143t139.5 -87 t167 -30q90 0 154.5 25.5t107.5 62.5t66.5 78t29.5 72h-436v274h739v-776h-262l-20 147q-47 -70 -149.5 -124t-258.5 -54q-152 0 -286 53.5t-233.5 152.5t-157.5 238.5t-58 311.5zM424 1554l250 271h297l253 -271h-288l-119 134l-117 -134h-276z" />
<glyph unicode="&#x11d;" horiz-adv-x="1243" d="M66 -57l274 77q16 -74 73.5 -122t145.5 -48q117 0 184.5 60.5t67.5 200.5v47q-29 -41 -95.5 -78t-176.5 -37q-102 0 -188.5 38t-150 104.5t-99 156.5t-35.5 197q0 100 34.5 190t97 158.5t149.5 108.5t192 40q61 0 109 -12t83 -30.5t57.5 -41t32.5 -43.5v109h297v-891 q0 -111 -31.5 -209t-98 -174t-169 -120t-246.5 -44q-111 0 -199.5 31t-153 82t-104.5 116.5t-50 133.5zM233 1139l231 309h293l234 -309h-238l-145 145l-144 -145h-231zM377 539q0 -104 62.5 -165t156.5 -61q96 0 156.5 60.5t60.5 165.5q0 51 -17.5 93t-47 71.5t-69.5 45 t-83 15.5t-83 -15.5t-70.5 -45t-48 -71.5t-17.5 -93z" />
<glyph unicode="&#x11e;" horiz-adv-x="1613" d="M74 725q0 172 60.5 311.5t163.5 238.5t240.5 153.5t290.5 54.5q156 0 272 -42t196.5 -106.5t130 -144.5t73.5 -156l-311 -108q-8 33 -31.5 77t-66.5 83.5t-107.5 66.5t-155.5 27q-74 0 -149.5 -26t-138 -81t-101.5 -141t-39 -207q0 -115 35 -201t95.5 -143t139.5 -87 t167 -30q90 0 154.5 25.5t107.5 62.5t66.5 78t29.5 72h-436v274h739v-776h-262l-20 147q-47 -70 -149.5 -124t-258.5 -54q-152 0 -286 53.5t-233.5 152.5t-157.5 238.5t-58 311.5zM482 1825h231q2 -45 30 -74t81 -29t81.5 29t30.5 74h230q-2 -51 -22.5 -102.5t-62.5 -91.5 t-106.5 -64.5t-150.5 -24.5t-149.5 24.5t-105.5 64.5t-63.5 91.5t-23.5 102.5z" />
<glyph unicode="&#x11f;" horiz-adv-x="1243" d="M66 -57l274 77q16 -74 73.5 -122t145.5 -48q117 0 184.5 60.5t67.5 200.5v47q-29 -41 -95.5 -78t-176.5 -37q-102 0 -188.5 38t-150 104.5t-99 156.5t-35.5 197q0 100 34.5 190t97 158.5t149.5 108.5t192 40q61 0 109 -12t83 -30.5t57.5 -41t32.5 -43.5v109h297v-891 q0 -111 -31.5 -209t-98 -174t-169 -120t-246.5 -44q-111 0 -199.5 31t-153 82t-104.5 116.5t-50 133.5zM252 1448h197q4 -41 36.5 -78t110.5 -37t110.5 37t37.5 78h198q-2 -63 -24.5 -120.5t-65.5 -101.5t-106.5 -71t-149.5 -27q-84 0 -148.5 27t-107.5 71t-64.5 101 t-23.5 121zM377 539q0 -104 62.5 -165t156.5 -61q96 0 156.5 60.5t60.5 165.5q0 51 -17.5 93t-47 71.5t-69.5 45t-83 15.5t-83 -15.5t-70.5 -45t-48 -71.5t-17.5 -93z" />
<glyph unicode="&#x120;" horiz-adv-x="1613" d="M74 725q0 172 60.5 311.5t163.5 238.5t240.5 153.5t290.5 54.5q156 0 272 -42t196.5 -106.5t130 -144.5t73.5 -156l-311 -108q-8 33 -31.5 77t-66.5 83.5t-107.5 66.5t-155.5 27q-74 0 -149.5 -26t-138 -81t-101.5 -141t-39 -207q0 -115 35 -201t95.5 -143t139.5 -87 t167 -30q90 0 154.5 25.5t107.5 62.5t66.5 78t29.5 72h-436v274h739v-776h-262l-20 147q-47 -70 -149.5 -124t-258.5 -54q-152 0 -286 53.5t-233.5 152.5t-157.5 238.5t-58 311.5zM643 1732q0 76 52 127.5t130 51.5q76 0 129 -51.5t53 -127.5q0 -78 -53 -128t-129 -50 q-78 0 -130 50t-52 128z" />
<glyph unicode="&#x121;" horiz-adv-x="1243" d="M66 -57l274 77q16 -74 73.5 -122t145.5 -48q117 0 184.5 60.5t67.5 200.5v47q-29 -41 -95.5 -78t-176.5 -37q-102 0 -188.5 38t-150 104.5t-99 156.5t-35.5 197q0 100 34.5 190t97 158.5t149.5 108.5t192 40q61 0 109 -12t83 -30.5t57.5 -41t32.5 -43.5v109h297v-891 q0 -111 -31.5 -209t-98 -174t-169 -120t-246.5 -44q-111 0 -199.5 31t-153 82t-104.5 116.5t-50 133.5zM377 539q0 -104 62.5 -165t156.5 -61q96 0 156.5 60.5t60.5 165.5q0 51 -17.5 93t-47 71.5t-69.5 45t-83 15.5t-83 -15.5t-70.5 -45t-48 -71.5t-17.5 -93zM402 1296 q0 76 52 127.5t130 51.5q76 0 129 -51.5t53 -127.5t-53 -126t-129 -50q-78 0 -130 50t-52 126z" />
<glyph unicode="&#x122;" horiz-adv-x="1613" d="M74 725q0 172 60.5 311.5t163.5 238.5t240.5 153.5t290.5 54.5q156 0 272 -42t196.5 -106.5t130 -144.5t73.5 -156l-311 -108q-8 33 -31.5 77t-66.5 83.5t-107.5 66.5t-155.5 27q-74 0 -149.5 -26t-138 -81t-101.5 -141t-39 -207q0 -115 35 -201t95.5 -143t139.5 -87 t167 -30q90 0 154.5 25.5t107.5 62.5t66.5 78t29.5 72h-436v274h739v-776h-262l-20 147q-47 -70 -149.5 -124t-258.5 -54q-152 0 -286 53.5t-233.5 152.5t-157.5 238.5t-58 311.5zM668 -223q0 59 45 100t116 41q82 0 133.5 -55.5t51.5 -132.5q0 -82 -29 -135.5t-72 -85 t-95 -45t-97 -13.5h-9.5t-15.5 2v107q86 0 131 25.5t49 68.5q-6 -4 -21 -9t-42 -5q-72 0 -108.5 40t-36.5 97z" />
<glyph unicode="&#x123;" horiz-adv-x="1243" d="M66 -57l274 77q16 -74 73.5 -122t145.5 -48q117 0 184.5 60.5t67.5 200.5v47q-29 -41 -95.5 -78t-176.5 -37q-102 0 -188.5 38t-150 104.5t-99 156.5t-35.5 197q0 100 34.5 190t97 158.5t149.5 108.5t192 40q61 0 109 -12t83 -30.5t57.5 -41t32.5 -43.5v109h297v-891 q0 -111 -31.5 -209t-98 -174t-169 -120t-246.5 -44q-111 0 -199.5 31t-153 82t-104.5 116.5t-50 133.5zM377 539q0 -104 62.5 -165t156.5 -61q96 0 156.5 60.5t60.5 165.5q0 51 -17.5 93t-47 71.5t-69.5 45t-83 15.5t-83 -15.5t-70.5 -45t-48 -71.5t-17.5 -93zM406 1305 q0 76 29.5 129t74.5 84.5t98.5 46t98.5 14.5h16v-104q-86 0 -131 -30t-49 -63q6 4 21.5 9.5t41.5 5.5q72 0 109 -41.5t37 -98.5q0 -59 -45 -100t-117 -41q-82 0 -133 55.5t-51 133.5z" />
<glyph unicode="&#x124;" horiz-adv-x="1542" d="M158 0v1452h323v-569h580v569h325v-1452h-325v578h-580v-578h-323zM371 1554l250 271h297l253 -271h-288l-119 134l-117 -134h-276z" />
<glyph unicode="&#x125;" horiz-adv-x="1218" d="M137 0v1483h312v-531q47 47 119.5 69.5t140.5 22.5q100 0 172.5 -31.5t120 -87t70 -129t22.5 -157.5v-639h-312v586q0 76 -40 126t-126 50q-74 0 -118.5 -46t-48.5 -118v-598h-312zM226 1574l250 271h297l253 -271h-288l-119 134l-117 -134h-276z" />
<glyph unicode="&#x126;" horiz-adv-x="1583" d="M35 1061v190h141v201h324v-201h579v201h326v-201h143v-190h-143v-1061h-326v578h-579v-578h-324v1061h-141zM500 879h579v182h-579v-182z" />
<glyph unicode="&#x127;" horiz-adv-x="1265" d="M27 1124v215h157v144h312v-144h219v-215h-219v-172q47 47 119.5 69.5t140.5 22.5q100 0 172.5 -31.5t120 -87t70 -129t22.5 -157.5v-639h-312v586q0 76 -39.5 126t-125.5 50q-74 0 -119 -46t-49 -118v-598h-312v1124h-157z" />
<glyph unicode="&#x128;" horiz-adv-x="641" d="M-28 1550v68q0 55 17 97t46 69.5t68 41t80 13.5q49 0 87.5 -14.5t73.5 -34.5q31 -16 57.5 -30.5t49.5 -14.5t39 14.5t16 44.5v29h178v-70q0 -55 -17.5 -98t-47 -70.5t-67.5 -42t-81 -14.5q-47 0 -87 15.5t-75 35.5l-10 6q-29 16 -51 28.5t-45 12.5q-20 0 -36.5 -14 t-16.5 -45v-27h-178zM158 0v1452h327v-1452h-327z" />
<glyph unicode="&#x129;" horiz-adv-x="583" d="M-82 1141v47q0 131 67.5 195.5t163.5 64.5q47 0 84 -14.5t72 -32.5q31 -18 57.5 -31.5t55.5 -13.5q68 0 71 90h174v-41q0 -135 -64.5 -200.5t-164.5 -65.5q-47 0 -84 14t-72 33q-31 16 -58.5 29.5t-55.5 13.5q-31 0 -49.5 -20.5t-20.5 -67.5h-176zM137 0v1018h312v-1018 h-312z" />
<glyph unicode="&#x12a;" horiz-adv-x="641" d="M7 1579v223h637v-223h-637zM158 0v1452h327v-1452h-327z" />
<glyph unicode="&#x12b;" horiz-adv-x="583" d="M2 1182v215h586v-215h-586zM137 0v1018h312v-1018h-312z" />
<glyph unicode="&#x12c;" horiz-adv-x="641" d="M-20 1825h231q2 -45 30 -74t81 -29t81.5 29t30.5 74h230q-2 -51 -22.5 -102.5t-62.5 -91.5t-106.5 -64.5t-150.5 -24.5t-149.5 24.5t-105.5 64.5t-63.5 91.5t-23.5 102.5zM158 0v1452h327v-1452h-327z" />
<glyph unicode="&#x12d;" horiz-adv-x="583" d="M-51 1448h197q4 -41 36.5 -78t110.5 -37t110.5 37t37.5 78h198q-2 -63 -24.5 -120.5t-65.5 -101.5t-106.5 -71t-149.5 -27q-84 0 -148.5 27t-107.5 71t-64.5 101t-23.5 121zM137 0v1018h312v-1018h-312z" />
<glyph unicode="&#x12e;" horiz-adv-x="641" d="M119 -240q0 92 45 148.5t102 91.5h-108v1452h327v-1452q-59 -29 -107 -79t-48 -111q0 -43 27.5 -66t68.5 -23q20 0 34.5 1.5t24.5 3.5v-172q-43 -16 -108 -17q-117 0 -187.5 60.5t-70.5 162.5z" />
<glyph unicode="&#x12f;" horiz-adv-x="583" d="M82 -240q0 92 45 148.5t102 91.5h-92v1018h312v-1018q-59 -29 -107.5 -79t-48.5 -111q0 -43 27.5 -66t68.5 -23q20 0 34.5 1.5t25.5 3.5v-172q-43 -16 -109 -17q-117 0 -187.5 60.5t-70.5 162.5zM111 1329q0 37 14 71t38.5 58.5t57.5 38.5t70 14q78 0 131 -53t53 -129 t-53 -129t-131 -53q-37 0 -70 14.5t-57.5 39t-38.5 58t-14 70.5z" />
<glyph unicode="&#x130;" horiz-adv-x="641" d="M140 1722q0 76 52 127.5t130 51.5q76 0 129 -51.5t53 -127.5q0 -78 -53 -128t-129 -50q-78 0 -130 50t-52 128zM158 0v1452h327v-1452h-327z" />
<glyph unicode="&#x131;" horiz-adv-x="583" d="M137 0v1018h312v-1018h-312z" />
<glyph unicode="&#x132;" horiz-adv-x="1280" d="M145 449l328 51v-35q0 -96 47 -142.5t121 -46.5q78 0 123 52.5t45 134.5v989h326v-997q0 -98 -36 -187.5t-101.5 -155t-155.5 -104.5t-199 -39t-200 34t-156.5 97.5t-103.5 151.5t-38 197zM145 641v811h328v-811h-328z" />
<glyph unicode="&#x133;" horiz-adv-x="1161" d="M111 1329q0 37 14 71t38.5 58.5t57.5 38.5t70 14q78 0 131 -53t53 -129t-53 -129t-131 -53q-37 0 -70 14.5t-57.5 39t-38.5 58t-14 70.5zM137 0v1018h312v-1018h-312zM519 -133q10 -4 33.5 -8t58.5 -4q53 0 78.5 28.5t25.5 75.5v1059h312v-1092q0 -78 -24 -141.5 t-67 -108.5t-105.5 -70.5t-139.5 -25.5q-82 0 -122 12.5t-50 16.5v258zM689 1329q0 78 53 130t127 52q78 0 131 -52t53 -130q0 -76 -53 -129t-131 -53q-37 0 -70 14.5t-57.5 39t-38.5 58t-14 70.5z" />
<glyph unicode="&#x134;" horiz-adv-x="1163" d="M41 449v96l307 53v-133q0 -98 52.5 -143.5t123.5 -45.5q80 0 125 52.5t45 134.5v989h324v-997q0 -98 -36 -187.5t-101.5 -155t-155.5 -104.5t-199 -39t-197.5 34t-152 97.5t-99.5 151.5t-36 197zM457 1554l250 271h297l253 -271h-288l-119 134l-117 -134h-276z" />
<glyph unicode="&#x135;" horiz-adv-x="585" d="M-90 1139l231 309h293l234 -309h-238l-145 145l-144 -145h-231zM-59 -131q14 -4 38.5 -9t53.5 -5q53 0 78.5 28.5t25.5 75.5v1059h312v-1092q0 -78 -24 -141.5t-67 -108.5t-105.5 -70.5t-139.5 -25.5q-70 0 -116 11.5t-56 15.5v262z" />
<glyph unicode="&#x136;" horiz-adv-x="1460" d="M158 0v1452h323v-610l531 610h426l-566 -629l568 -823h-404l-391 571l-164 -182v-389h-323zM592 -213q0 59 45 100t116 41q82 0 133.5 -55.5t51.5 -132.5q0 -82 -29 -135.5t-72 -85t-95 -45t-97 -13.5h-9.5t-15.5 2v107q86 0 131 25.5t49 68.5q-6 -4 -21 -9t-42 -5 q-72 0 -108.5 40t-36.5 97z" />
<glyph unicode="&#x137;" horiz-adv-x="1179" d="M137 0v1483h312v-807l309 342h403l-397 -428l405 -590h-381l-239 358l-100 -108v-250h-312zM476 -223q0 59 45 100t116 41q82 0 133.5 -55.5t51.5 -132.5q0 -82 -29 -135.5t-72 -85t-95 -45t-97 -13.5h-9.5t-15.5 2v107q86 0 131 25.5t49 68.5q-6 -4 -21 -9t-42 -5 q-72 0 -108.5 40t-36.5 97z" />
<glyph unicode="&#x138;" horiz-adv-x="1179" d="M137 0v1020h312v-344l309 342h403l-397 -428l405 -590h-381l-239 358l-100 -108v-250h-312z" />
<glyph unicode="&#x139;" horiz-adv-x="1159" d="M158 0v1452h323v-1143h627v-309h-950zM193 1554l213 271h370l-307 -271h-276z" />
<glyph unicode="&#x13a;" horiz-adv-x="585" d="M136 1574l213 271h370l-307 -271h-276zM137 0v1483h312v-1483h-312z" />
<glyph unicode="&#x13b;" horiz-adv-x="1159" d="M158 0v1452h323v-1143h627v-309h-950zM467 -223q0 59 45 100t116 41q82 0 133.5 -55.5t51.5 -132.5q0 -82 -29 -135.5t-72 -85t-95 -45t-97 -13.5h-9.5t-15.5 2v107q86 0 131 25.5t49 68.5q-6 -4 -21 -9t-42 -5q-72 0 -108.5 40t-36.5 97z" />
<glyph unicode="&#x13c;" horiz-adv-x="585" d="M117 -223q0 59 45 100t116 41q82 0 133.5 -55.5t51.5 -132.5q0 -82 -29 -135.5t-72 -85t-95 -45t-97 -13.5h-9.5t-15.5 2v107q86 0 131 25.5t49 68.5q-6 -4 -21 -9t-42 -5q-72 0 -108.5 40t-36.5 97zM137 0v1483h312v-1483h-312z" />
<glyph unicode="&#x13d;" horiz-adv-x="1159" d="M158 0v1452h323v-1143h627v-309h-950zM647 1112l64 444h311l-162 -444h-213z" />
<glyph unicode="&#x13e;" horiz-adv-x="880" d="M137 0v1483h312v-1483h-312zM534 1059l59 424h297l-153 -424h-203z" />
<glyph unicode="&#x13f;" horiz-adv-x="1159" d="M158 0v1452h323v-1143h627v-309h-950zM635 862q0 72 50 120t122 48t122 -48t50 -120q0 -74 -50 -122t-122 -48t-122 48t-50 122z" />
<glyph unicode="&#x140;" horiz-adv-x="956" d="M137 0v1483h312v-1483h-312zM543 694q0 76 52 127.5t130 51.5q76 0 129 -51.5t53 -127.5t-53 -126t-129 -50q-78 0 -130 50t-52 126z" />
<glyph unicode="&#x141;" horiz-adv-x="1216" d="M29 414v252l186 86v700h324v-551l329 152v-250l-329 -154v-340h626v-309h-950v500z" />
<glyph unicode="&#x142;" horiz-adv-x="710" d="M29 434v252l170 78v719h311v-576l172 80v-250l-172 -80v-657h-311v512z" />
<glyph unicode="&#x143;" horiz-adv-x="1574" d="M158 0v1452h393l545 -883v883h323v-1452h-342l-598 954v-954h-321zM574 1554l213 271h370l-307 -271h-276z" />
<glyph unicode="&#x144;" horiz-adv-x="1218" d="M137 0v1018h301v-117q20 37 53 63.5t71 44t80 26.5t81 9q96 0 165.5 -31.5t116 -87t68 -129t21.5 -157.5v-639h-312v586q0 76 -40 126t-126 50q-78 0 -122.5 -50t-44.5 -128v-584h-312zM418 1139l188 309h349l-289 -309h-248z" />
<glyph unicode="&#x145;" horiz-adv-x="1574" d="M158 0v1452h393l545 -883v883h323v-1452h-342l-598 954v-954h-321zM666 -223q0 59 45 100t116 41q82 0 133.5 -55.5t51.5 -132.5q0 -82 -29 -135.5t-72 -85t-95 -45t-97 -13.5h-9.5t-15.5 2v107q86 0 131 25.5t49 68.5q-6 -4 -21 -9t-42 -5q-72 0 -108.5 40t-36.5 97z " />
<glyph unicode="&#x146;" horiz-adv-x="1218" d="M137 0v1018h301v-117q20 37 53 63.5t71 44t80 26.5t81 9q96 0 165.5 -31.5t116 -87t68 -129t21.5 -157.5v-639h-312v586q0 76 -40 126t-126 50q-78 0 -122.5 -50t-44.5 -128v-584h-312zM455 -215q0 59 45 100t116 41q82 0 133.5 -55.5t51.5 -132.5q0 -82 -29 -135.5 t-72 -85t-95 -45t-97 -13.5h-9.5t-15.5 2v107q86 0 131 25.5t49 68.5q-6 -4 -21 -9t-42 -5q-72 0 -108.5 40t-36.5 97z" />
<glyph unicode="&#x147;" horiz-adv-x="1574" d="M158 0v1452h393l545 -883v883h323v-1452h-342l-598 954v-954h-321zM379 1825h286l119 -133l119 133h276l-251 -271h-297z" />
<glyph unicode="&#x148;" horiz-adv-x="1218" d="M137 0v1018h301v-117q20 37 53 63.5t71 44t80 26.5t81 9q96 0 165.5 -31.5t116 -87t68 -129t21.5 -157.5v-639h-312v586q0 76 -40 126t-126 50q-78 0 -122.5 -50t-44.5 -128v-584h-312zM221 1448h238l145 -148l143 148h232l-230 -309h-297z" />
<glyph unicode="&#x149;" horiz-adv-x="1218" d="M108 1422q0 59 45 101t117 42q84 0 134 -56.5t50 -134.5q0 -86 -29.5 -140t-74.5 -85t-98.5 -41t-98.5 -10h-16v106q86 0 131 25t49 68q-2 -4 -18.5 -9.5t-45.5 -5.5q-72 0 -108.5 40.5t-36.5 99.5zM137 0v1018h301v-117q20 37 53 63.5t71 44t80 26.5t81 9 q96 0 165.5 -31.5t116 -87t68 -129t21.5 -157.5v-639h-312v586q0 76 -40 126t-126 50q-78 0 -122.5 -50t-44.5 -128v-584h-312z" />
<glyph unicode="&#x14a;" horiz-adv-x="1574" d="M158 0v1452h393l545 -874v874h323v-1518q0 -78 -25.5 -143t-73.5 -111.5t-114.5 -72t-146.5 -25.5q-72 0 -123 11.5t-64 17.5v264q14 -4 42 -8t65 -4q63 0 90 29.5t27 72.5v17l-617 972v-954h-321z" />
<glyph unicode="&#x14b;" horiz-adv-x="1218" d="M137 0v1018h301v-117q20 37 53 63.5t71 44t80 26.5t81 9q96 0 165.5 -31.5t116 -87t68 -129t21.5 -157.5v-705q0 -76 -25 -139t-71 -109t-109.5 -72t-140.5 -26q-70 0 -118 10.5t-59 18.5v256q12 -4 38 -8t61 -4q61 0 86.5 29.5t25.5 78.5v617q0 76 -40 126t-126 50 q-78 0 -122.5 -50t-44.5 -128v-584h-312z" />
<glyph unicode="&#x14c;" horiz-adv-x="1656" d="M74 725q0 172 60.5 312.5t163.5 239.5t240.5 152.5t290.5 53.5q154 0 290 -53.5t239.5 -152.5t164 -239.5t60.5 -312.5t-60.5 -311.5t-164 -238.5t-239.5 -152.5t-290 -53.5t-291 53.5t-240 152.5t-163.5 238.5t-60.5 311.5zM410 727q0 -115 36.5 -196.5t97 -136 t135.5 -80t150 -25.5q76 0 151 25.5t134.5 80t96 136t36.5 196.5q0 113 -36.5 197t-96 137t-134.5 79.5t-151 26.5t-150.5 -26.5t-135 -79.5t-97 -137t-36.5 -197zM475 1579v223h711v-223h-711z" />
<glyph unicode="&#x14d;" horiz-adv-x="1208" d="M63 510q0 119 42 217t115 170t171 112t213 40t213 -40t171 -112t115 -170t42 -217t-42 -218t-115 -171t-171 -112t-213 -40t-213 40t-171 112t-115 171t-42 218zM311 1182v215h586v-215h-586zM375 510q0 -63 19.5 -111.5t51 -80t73.5 -47t85 -15.5q45 0 86 15.5t73 47 t51.5 78.5t19.5 113q0 63 -19.5 111.5t-51.5 79t-73 46t-86 15.5q-43 0 -85 -15.5t-73.5 -46t-51 -79t-19.5 -111.5z" />
<glyph unicode="&#x14e;" horiz-adv-x="1656" d="M74 725q0 172 60.5 312.5t163.5 239.5t240.5 152.5t290.5 53.5q154 0 290 -53.5t239.5 -152.5t164 -239.5t60.5 -312.5t-60.5 -311.5t-164 -238.5t-239.5 -152.5t-290 -53.5t-291 53.5t-240 152.5t-163.5 238.5t-60.5 311.5zM410 727q0 -115 36.5 -196.5t97 -136 t135.5 -80t150 -25.5q76 0 151 25.5t134.5 80t96 136t36.5 196.5q0 113 -36.5 197t-96 137t-134.5 79.5t-151 26.5t-150.5 -26.5t-135 -79.5t-97 -137t-36.5 -197zM488 1825h231q2 -45 30 -74t81 -29t81.5 29t30.5 74h230q-2 -51 -22.5 -102.5t-62.5 -91.5t-106.5 -64.5 t-150.5 -24.5t-149.5 24.5t-105.5 64.5t-63.5 91.5t-23.5 102.5z" />
<glyph unicode="&#x14f;" horiz-adv-x="1208" d="M63 510q0 119 42 217t115 170t171 112t213 40t213 -40t171 -112t115 -170t42 -217t-42 -218t-115 -171t-171 -112t-213 -40t-213 40t-171 112t-115 171t-42 218zM260 1448h197q4 -41 36.5 -78t110.5 -37t110.5 37t37.5 78h198q-2 -63 -24.5 -120.5t-65.5 -101.5 t-106.5 -71t-149.5 -27q-84 0 -148.5 27t-107.5 71t-64.5 101t-23.5 121zM375 510q0 -63 19.5 -111.5t51 -80t73.5 -47t85 -15.5q45 0 86 15.5t73 47t51.5 78.5t19.5 113q0 63 -19.5 111.5t-51.5 79t-73 46t-86 15.5q-43 0 -85 -15.5t-73.5 -46t-51 -79t-19.5 -111.5z" />
<glyph unicode="&#x150;" horiz-adv-x="1656" d="M74 725q0 172 60.5 312.5t163.5 239.5t240.5 152.5t290.5 53.5q154 0 290 -53.5t239.5 -152.5t164 -239.5t60.5 -312.5t-60.5 -311.5t-164 -238.5t-239.5 -152.5t-290 -53.5t-291 53.5t-240 152.5t-163.5 238.5t-60.5 311.5zM410 727q0 -115 36.5 -196.5t97 -136 t135.5 -80t150 -25.5q76 0 151 25.5t134.5 80t96 136t36.5 196.5q0 113 -36.5 197t-96 137t-134.5 79.5t-151 26.5t-150.5 -26.5t-135 -79.5t-97 -137t-36.5 -197zM543 1554l98 271h285l-191 -271h-192zM874 1554l133 271h289l-225 -271h-197z" />
<glyph unicode="&#x151;" horiz-adv-x="1208" d="M63 510q0 119 42 217t115 170t171 112t213 40t213 -40t171 -112t115 -170t42 -217t-42 -218t-115 -171t-171 -112t-213 -40t-213 40t-171 112t-115 171t-42 218zM334 1139l108 309h289l-209 -309h-188zM375 510q0 -63 19.5 -111.5t51 -80t73.5 -47t85 -15.5q45 0 86 15.5 t73 47t51.5 78.5t19.5 113q0 63 -19.5 111.5t-51.5 79t-73 46t-86 15.5q-43 0 -85 -15.5t-73.5 -46t-51 -79t-19.5 -111.5zM651 1139l144 309h290l-241 -309h-193z" />
<glyph unicode="&#x152;" horiz-adv-x="2285" d="M74 725q0 172 60.5 312.5t163.5 239.5t240.5 152.5t290.5 53.5q137 0 242 -40t176 -114v123h922v-305h-596v-277h541v-284h-541v-279h598v-307h-924v123q-76 -76 -178 -115t-240 -39q-154 0 -291 53.5t-240 152.5t-163.5 238.5t-60.5 311.5zM410 727q0 -115 36.5 -196.5 t97 -136t135.5 -80t150 -25.5q76 0 151 25.5t134.5 80t96 136t36.5 196.5q0 113 -36.5 197t-96 137t-134.5 79.5t-151 26.5t-150.5 -26.5t-135 -79.5t-97 -137t-36.5 -197z" />
<glyph unicode="&#x153;" horiz-adv-x="1918" d="M63 510q0 119 42 217t115 170t171 112t213 40t213 -39t170 -111q72 72 164 111t195 39q238 0 373.5 -137.5t135.5 -385.5q0 -33 -2 -62.5t-4 -33.5h-708q2 -43 21.5 -79t51 -62.5t72.5 -41t86 -14.5q86 0 134 37t71 97l260 -74q-18 -66 -57 -125t-98.5 -103.5t-138.5 -70 t-175 -25.5q-111 0 -209 39t-172 113q-72 -72 -170 -112t-213 -40t-213 40t-171 112t-115 171t-42 218zM375 510q0 -63 19.5 -111.5t51 -80t73.5 -47t85 -15.5q45 0 86 15.5t73 47t51.5 78.5t19.5 113q0 63 -19.5 111.5t-51.5 79t-73 46t-86 15.5q-43 0 -85 -15.5t-73.5 -46 t-51 -79t-19.5 -111.5zM1147 631h407q-2 29 -13 59.5t-35.5 55t-62.5 41t-93 16.5q-49 0 -86 -16.5t-62.5 -41t-39 -55.5t-15.5 -59z" />
<glyph unicode="&#x154;" horiz-adv-x="1286" d="M158 0v1452h575q106 0 193.5 -35t149 -96t95 -144t33.5 -180q0 -147 -75.5 -254.5t-210.5 -154.5l294 -588h-356l-260 541h-115v-541h-323zM437 1554l213 271h370l-307 -271h-276zM481 819h191q100 0 152.5 49.5t52.5 126.5q0 82 -52.5 129t-152.5 47h-191v-352z" />
<glyph unicode="&#x155;" horiz-adv-x="825" d="M137 0v1018h301v-137q20 43 52 71.5t69 45t75 23.5t68 7q47 0 82 -10v-307q-27 6 -51 8t-47 2q-47 0 -90 -14.5t-76 -47t-52 -86t-19 -129.5v-444h-312zM201 1139l188 309h349l-289 -309h-248z" />
<glyph unicode="&#x156;" horiz-adv-x="1286" d="M158 0v1452h575q106 0 193.5 -35t149 -96t95 -144t33.5 -180q0 -147 -75.5 -254.5t-210.5 -154.5l294 -588h-356l-260 541h-115v-541h-323zM481 819h191q100 0 152.5 49.5t52.5 126.5q0 82 -52.5 129t-152.5 47h-191v-352zM512 -213q0 59 45 100t116 41q82 0 133.5 -55.5 t51.5 -132.5q0 -82 -29 -135.5t-72 -85t-95 -45t-97 -13.5h-9.5t-15.5 2v107q86 0 131 25.5t49 68.5q-6 -4 -21 -9t-42 -5q-72 0 -108.5 40t-36.5 97z" />
<glyph unicode="&#x157;" horiz-adv-x="825" d="M123 -223q0 59 45 100t116 41q82 0 133.5 -55.5t51.5 -132.5q0 -82 -29 -135.5t-72 -85t-95 -45t-97 -13.5h-9.5t-15.5 2v107q86 0 131 25.5t49 68.5q-6 -4 -21 -9t-42 -5q-72 0 -108.5 40t-36.5 97zM137 0v1018h301v-137q20 43 52 71.5t69 45t75 23.5t68 7q47 0 82 -10 v-307q-27 6 -51 8t-47 2q-47 0 -90 -14.5t-76 -47t-52 -86t-19 -129.5v-444h-312z" />
<glyph unicode="&#x158;" horiz-adv-x="1286" d="M158 0v1452h575q106 0 193.5 -35t149 -96t95 -144t33.5 -180q0 -147 -75.5 -254.5t-210.5 -154.5l294 -588h-356l-260 541h-115v-541h-323zM244 1825h286l119 -133l119 133h276l-251 -271h-297zM481 819h191q100 0 152.5 49.5t52.5 126.5q0 82 -52.5 129t-152.5 47h-191 v-352z" />
<glyph unicode="&#x159;" horiz-adv-x="825" d="M55 1448h238l145 -148l143 148h232l-230 -309h-297zM137 0v1018h301v-137q20 43 52 71.5t69 45t75 23.5t68 7q47 0 82 -10v-307q-27 6 -51 8t-47 2q-47 0 -90 -14.5t-76 -47t-52 -86t-19 -129.5v-444h-312z" />
<glyph unicode="&#x15a;" horiz-adv-x="1247" d="M53 434l297 72q4 -49 23.5 -95t56.5 -80t92.5 -54.5t128.5 -20.5q96 0 150.5 42t54.5 110q0 55 -42 93t-114 52l-198 37q-186 35 -291 149.5t-105 276.5q0 102 42 188t114 147.5t166 96.5t199 35q135 0 231 -37t158.5 -93.5t95.5 -125t45 -131.5l-291 -82q-4 25 -17 56.5 t-41 59t-73 47t-110 19.5q-90 0 -144.5 -48t-54.5 -108q0 -53 34 -89t109 -50l195 -37q104 -18 182 -60t131 -99.5t80 -128t27 -148.5q0 -86 -35 -168t-103.5 -146.5t-169 -104.5t-229.5 -40q-152 0 -260 44t-180 112t-109 149.5t-45 159.5zM482 1554l213 271h370l-307 -271 h-276z" />
<glyph unicode="&#x15b;" horiz-adv-x="954" d="M53 289l264 47q4 -53 42 -95t118 -42q59 0 89 26.5t30 61.5q0 29 -21.5 50t-78.5 34l-117 26q-82 18 -139.5 49t-94 72t-53 90t-16.5 103q0 70 28.5 131t81 107t124 73t157.5 27q111 0 186.5 -31t123.5 -77t70.5 -98t26.5 -98l-258 -47q-6 51 -39.5 88t-105.5 37 q-45 0 -78 -23.5t-33 -64.5q0 -33 23 -51t57 -25l135 -26q160 -33 237 -120t77 -200q0 -66 -24.5 -127t-76 -109t-127 -78t-178.5 -30q-121 0 -201.5 34t-130 83t-73 104.5t-25.5 98.5zM334 1139l188 309h349l-289 -309h-248z" />
<glyph unicode="&#x15c;" horiz-adv-x="1247" d="M53 434l297 72q4 -49 23.5 -95t56.5 -80t92.5 -54.5t128.5 -20.5q96 0 150.5 42t54.5 110q0 55 -42 93t-114 52l-198 37q-186 35 -291 149.5t-105 276.5q0 102 42 188t114 147.5t166 96.5t199 35q135 0 231 -37t158.5 -93.5t95.5 -125t45 -131.5l-291 -82q-4 25 -17 56.5 t-41 59t-73 47t-110 19.5q-90 0 -144.5 -48t-54.5 -108q0 -53 34 -89t109 -50l195 -37q104 -18 182 -60t131 -99.5t80 -128t27 -148.5q0 -86 -35 -168t-103.5 -146.5t-169 -104.5t-229.5 -40q-152 0 -260 44t-180 112t-109 149.5t-45 159.5zM254 1554l250 271h297l253 -271 h-288l-119 134l-117 -134h-276z" />
<glyph unicode="&#x15d;" horiz-adv-x="954" d="M53 289l264 47q4 -53 42 -95t118 -42q59 0 89 26.5t30 61.5q0 29 -21.5 50t-78.5 34l-117 26q-82 18 -139.5 49t-94 72t-53 90t-16.5 103q0 70 28.5 131t81 107t124 73t157.5 27q111 0 186.5 -31t123.5 -77t70.5 -98t26.5 -98l-258 -47q-6 51 -39.5 88t-105.5 37 q-45 0 -78 -23.5t-33 -64.5q0 -33 23 -51t57 -25l135 -26q160 -33 237 -120t77 -200q0 -66 -24.5 -127t-76 -109t-127 -78t-178.5 -30q-121 0 -201.5 34t-130 83t-73 104.5t-25.5 98.5zM117 1139l231 309h293l234 -309h-238l-145 145l-144 -145h-231z" />
<glyph unicode="&#x15e;" horiz-adv-x="1247" d="M53 434l297 72q4 -49 23.5 -95t56.5 -80t92.5 -54.5t128.5 -20.5q96 0 150.5 42t54.5 110q0 55 -42 93t-114 52l-198 37q-186 35 -291 149.5t-105 276.5q0 102 42 188t114 147.5t166 96.5t199 35q135 0 231 -37t158.5 -93.5t95.5 -125t45 -131.5l-291 -82q-4 25 -17 56.5 t-41 59t-73 47t-110 19.5q-90 0 -144.5 -48t-54.5 -108q0 -53 34 -89t109 -50l195 -37q104 -18 182 -60t131 -99.5t80 -128t27 -148.5t-29 -152.5t-85 -137t-138 -105.5t-189 -58l-49 -75q92 -4 145.5 -53.5t53.5 -127.5q0 -35 -14.5 -70.5t-46 -64t-84 -47t-127.5 -18.5 q-90 0 -158 37.5t-96 74.5l96 121q23 -23 61.5 -50.5t93.5 -27.5q78 0 78 54q0 20 -18.5 35.5t-52.5 15.5q-12 0 -27.5 -2t-28.5 -6l-75 100l65 102q-127 12 -219 59.5t-153.5 113t-94.5 141t-39 147.5z" />
<glyph unicode="&#x15f;" horiz-adv-x="954" d="M53 289l264 47q4 -53 42 -95t118 -42q59 0 89 26.5t30 61.5q0 29 -21.5 50t-78.5 34l-117 26q-82 18 -139.5 49t-94 72t-53 90t-16.5 103q0 70 28.5 131t81 107t124 73t157.5 27q111 0 186.5 -31t123.5 -77t70.5 -98t26.5 -98l-258 -47q-6 51 -39.5 88t-105.5 37 q-45 0 -78 -23.5t-33 -64.5q0 -33 23 -51t57 -25l135 -26q160 -33 237 -120t77 -200q0 -57 -19.5 -112.5t-57.5 -100.5t-96.5 -77.5t-135.5 -45.5l-52 -77q92 -4 145.5 -53.5t53.5 -127.5q0 -35 -14.5 -70.5t-46 -64t-84 -47t-127.5 -18.5q-90 0 -158 37.5t-96 74.5l96 121 q23 -23 61.5 -50.5t94.5 -27.5q78 0 77 54q0 20 -18 35.5t-53 15.5q-12 0 -27.5 -2t-28.5 -6l-75 100l67 104q-94 12 -158.5 48t-104.5 82.5t-58.5 95.5t-20.5 88z" />
<glyph unicode="&#x160;" horiz-adv-x="1247" d="M53 434l297 72q4 -49 23.5 -95t56.5 -80t92.5 -54.5t128.5 -20.5q96 0 150.5 42t54.5 110q0 55 -42 93t-114 52l-198 37q-186 35 -291 149.5t-105 276.5q0 102 42 188t114 147.5t166 96.5t199 35q135 0 231 -37t158.5 -93.5t95.5 -125t45 -131.5l-291 -82q-4 25 -17 56.5 t-41 59t-73 47t-110 19.5q-90 0 -144.5 -48t-54.5 -108q0 -53 34 -89t109 -50l195 -37q104 -18 182 -60t131 -99.5t80 -128t27 -148.5q0 -86 -35 -168t-103.5 -146.5t-169 -104.5t-229.5 -40q-152 0 -260 44t-180 112t-109 149.5t-45 159.5zM238 1825h286l119 -133l119 133 h276l-251 -271h-297z" />
<glyph unicode="&#x161;" horiz-adv-x="954" d="M53 289l264 47q4 -53 42 -95t118 -42q59 0 89 26.5t30 61.5q0 29 -21.5 50t-78.5 34l-117 26q-82 18 -139.5 49t-94 72t-53 90t-16.5 103q0 70 28.5 131t81 107t124 73t157.5 27q111 0 186.5 -31t123.5 -77t70.5 -98t26.5 -98l-258 -47q-6 51 -39.5 88t-105.5 37 q-45 0 -78 -23.5t-33 -64.5q0 -33 23 -51t57 -25l135 -26q160 -33 237 -120t77 -200q0 -66 -24.5 -127t-76 -109t-127 -78t-178.5 -30q-121 0 -201.5 34t-130 83t-73 104.5t-25.5 98.5zM98 1448h238l145 -148l143 148h232l-230 -309h-297z" />
<glyph unicode="&#x162;" horiz-adv-x="1296" d="M39 1143v309h1218v-309h-448v-1143h-66l-65 -100q92 -4 145.5 -53.5t53.5 -127.5q0 -35 -14.5 -70.5t-46.5 -64t-84 -47t-128 -18.5q-90 0 -157.5 37.5t-96.5 74.5l96 121q23 -23 62 -50.5t94 -27.5q78 0 78 54q0 20 -18.5 35.5t-53.5 15.5q-12 0 -27.5 -2t-27.5 -6 l-76 100l82 129h-74v1143h-446z" />
<glyph unicode="&#x163;" horiz-adv-x="782" d="M23 745v273h51q80 0 118.5 47t38.5 119v131h279v-297h199v-273h-199v-380q0 -63 30.5 -85t82.5 -22q25 0 46 3t36 7v-258q-10 -4 -48.5 -15t-109.5 -13l-53 -82q92 -4 145 -53.5t53 -127.5q0 -35 -14 -70.5t-46 -64t-84 -47t-128 -18.5q-90 0 -157.5 37.5t-96.5 74.5 l96 121q23 -23 61.5 -50.5t94.5 -27.5q78 0 78 54q0 20 -18.5 35.5t-53.5 15.5q-12 0 -27.5 -2t-27.5 -6l-76 100l90 139q-86 37 -133 113t-47 186v436h-180z" />
<glyph unicode="&#x164;" horiz-adv-x="1296" d="M39 1143v309h1218v-309h-448v-1143h-324v1143h-446zM248 1825h286l119 -133l119 133h276l-251 -271h-297z" />
<glyph unicode="&#x165;" horiz-adv-x="960" d="M23 745v273h51q80 0 118.5 47t38.5 119v131h279v-297h199v-273h-199v-380q0 -63 30.5 -85t82.5 -22q25 0 46 3t36 7v-258q-10 -4 -49.5 -16t-112.5 -12q-160 0 -250 87t-90 240v436h-180zM606 1130l59 424h297l-153 -424h-203z" />
<glyph unicode="&#x166;" horiz-adv-x="1296" d="M39 1143v309h1218v-309h-448v-381h262v-232h-262v-530h-324v530h-254v232h254v381h-446z" />
<glyph unicode="&#x167;" horiz-adv-x="811" d="M33 395v213h180v137h-180v273h51q80 0 119 47t39 119v131h278v-297h199v-273h-199v-137h199v-213h-199v-30q0 -63 31 -85t82 -22q25 0 47 2t39 6v-256q-6 -4 -47 -16t-119 -12q-160 0 -250 87t-90 240v86h-180z" />
<glyph unicode="&#x168;" horiz-adv-x="1441" d="M145 524v928h324v-901q0 -133 67.5 -198.5t184.5 -65.5t184.5 65.5t67.5 198.5v901h323v-928q0 -137 -45 -240.5t-122.5 -174t-183 -106.5t-224.5 -36q-121 0 -225.5 36t-182 106.5t-123 174t-45.5 240.5zM359 1550v68q0 55 17 97t46 69.5t68 41t80 13.5q49 0 87.5 -14.5 t73.5 -34.5q31 -16 57.5 -30.5t49.5 -14.5t39 14.5t16 44.5v29h178v-70q0 -55 -17.5 -98t-47 -70.5t-67.5 -42t-81 -14.5q-47 0 -87 15.5t-75 35.5l-10 6q-29 16 -51 28.5t-45 12.5q-20 0 -36.5 -14t-16.5 -45v-27h-178z" />
<glyph unicode="&#x169;" horiz-adv-x="1220" d="M127 375v643h311v-578q0 -74 40 -125t124 -51q78 0 124 48t46 126v580h311v-836q0 -70 4.5 -120t6.5 -62h-299q-4 14 -6.5 48t-2.5 54q-41 -66 -117.5 -95.5t-154.5 -29.5q-92 0 -165 32t-122 86.5t-74.5 126t-25.5 153.5zM244 1141v47q0 131 67.5 195.5t163.5 64.5 q47 0 84 -14.5t72 -32.5q31 -18 57.5 -31.5t55.5 -13.5q68 0 71 90h174v-41q0 -135 -64.5 -200.5t-164.5 -65.5q-47 0 -84 14t-72 33q-31 16 -58.5 29.5t-55.5 13.5q-31 0 -49.5 -20.5t-20.5 -67.5h-176z" />
<glyph unicode="&#x16a;" horiz-adv-x="1441" d="M145 524v928h324v-901q0 -133 67.5 -198.5t184.5 -65.5t184.5 65.5t67.5 198.5v901h323v-928q0 -137 -45 -240.5t-122.5 -174t-183 -106.5t-224.5 -36q-121 0 -225.5 36t-182 106.5t-123 174t-45.5 240.5zM406 1579v223h637v-223h-637z" />
<glyph unicode="&#x16b;" horiz-adv-x="1220" d="M127 375v643h311v-578q0 -74 40 -125t124 -51q78 0 124 48t46 126v580h311v-836q0 -70 4.5 -120t6.5 -62h-299q-4 14 -6.5 48t-2.5 54q-41 -66 -117.5 -95.5t-154.5 -29.5q-92 0 -165 32t-122 86.5t-74.5 126t-25.5 153.5zM313 1182v215h586v-215h-586z" />
<glyph unicode="&#x16c;" horiz-adv-x="1441" d="M145 524v928h324v-901q0 -133 67.5 -198.5t184.5 -65.5t184.5 65.5t67.5 198.5v901h323v-928q0 -137 -45 -240.5t-122.5 -174t-183 -106.5t-224.5 -36q-121 0 -225.5 36t-182 106.5t-123 174t-45.5 240.5zM379 1825h231q2 -45 30 -74t81 -29t81.5 29t30.5 74h230 q-2 -51 -22.5 -102.5t-62.5 -91.5t-106.5 -64.5t-150.5 -24.5t-149.5 24.5t-105.5 64.5t-63.5 91.5t-23.5 102.5z" />
<glyph unicode="&#x16d;" horiz-adv-x="1220" d="M127 375v643h311v-578q0 -74 40 -125t124 -51q78 0 124 48t46 126v580h311v-836q0 -70 4.5 -120t6.5 -62h-299q-4 14 -6.5 48t-2.5 54q-41 -66 -117.5 -95.5t-154.5 -29.5q-92 0 -165 32t-122 86.5t-74.5 126t-25.5 153.5zM254 1448h197q4 -41 36.5 -78t110.5 -37 t110.5 37t37.5 78h198q-2 -63 -24.5 -120.5t-65.5 -101.5t-106.5 -71t-149.5 -27q-84 0 -148.5 27t-107.5 71t-64.5 101t-23.5 121z" />
<glyph unicode="&#x16e;" horiz-adv-x="1441" d="M145 524v928h324v-901q0 -133 67.5 -198.5t184.5 -65.5t184.5 65.5t67.5 198.5v901h323v-928q0 -137 -45 -240.5t-122.5 -174t-183 -106.5t-224.5 -36q-121 0 -225.5 36t-182 106.5t-123 174t-45.5 240.5zM435 1765q0 61 23.5 112.5t63.5 89.5t91 58.5t108 20.5 t109.5 -20.5t92.5 -58.5t63.5 -89.5t23.5 -112.5t-23.5 -112.5t-63.5 -88t-92 -57t-110 -20.5q-57 0 -108 20.5t-91 57t-63.5 88t-23.5 112.5zM623 1765q0 -47 29.5 -71.5t70.5 -24.5q39 0 68 24.5t29 71.5t-29 73t-68 26q-41 0 -70.5 -26t-29.5 -73z" />
<glyph unicode="&#x16f;" horiz-adv-x="1220" d="M127 375v643h311v-578q0 -74 40 -125t124 -51q78 0 124 48t46 126v580h311v-836q0 -70 4.5 -120t6.5 -62h-299q-4 14 -6.5 48t-2.5 54q-41 -66 -117.5 -95.5t-154.5 -29.5q-92 0 -165 32t-122 86.5t-74.5 126t-25.5 153.5zM371 1335q0 51 19.5 93t52.5 73t76 48.5 t90 17.5t90 -17.5t75.5 -48.5t52 -73t19.5 -93t-19.5 -93t-52 -71.5t-75.5 -46t-90 -16.5t-90 16.5t-76 46t-52.5 71.5t-19.5 93zM533 1335q0 -35 21.5 -56.5t54.5 -21.5t54 21.5t21 56.5t-21.5 56.5t-53.5 21.5q-33 0 -54.5 -21.5t-21.5 -56.5z" />
<glyph unicode="&#x170;" horiz-adv-x="1441" d="M145 524v928h324v-901q0 -133 67.5 -198.5t184.5 -65.5t184.5 65.5t67.5 198.5v901h323v-928q0 -137 -45 -240.5t-122.5 -174t-183 -106.5t-224.5 -36q-121 0 -225.5 36t-182 106.5t-123 174t-45.5 240.5zM441 1554l98 271h285l-191 -271h-192zM772 1554l133 271h289 l-225 -271h-197z" />
<glyph unicode="&#x171;" horiz-adv-x="1220" d="M127 375v643h311v-578q0 -74 40 -125t124 -51q78 0 124 48t46 126v580h311v-836q0 -70 4.5 -120t6.5 -62h-299q-4 14 -6.5 48t-2.5 54q-41 -66 -117.5 -95.5t-154.5 -29.5q-92 0 -165 32t-122 86.5t-74.5 126t-25.5 153.5zM309 1139l109 309h289l-209 -309h-189z M627 1139l141 309h293l-242 -309h-192z" />
<glyph unicode="&#x172;" horiz-adv-x="1441" d="M145 524v928h324v-901q0 -133 67.5 -198.5t184.5 -65.5t184.5 65.5t67.5 198.5v901h323v-928q0 -104 -27.5 -189t-75.5 -150.5t-113.5 -111.5t-143.5 -73q-29 -10 -57.5 -28.5t-50 -43t-35 -52.5t-13.5 -58q0 -47 27 -72t70 -25h25t34 5v-172q-43 -17 -109 -17 q-117 0 -187.5 60.5t-70.5 162.5q0 74 31 124t72 85q-111 6 -207 45t-167 109t-112 171t-41 230z" />
<glyph unicode="&#x173;" horiz-adv-x="1220" d="M127 375v643h311v-578q0 -74 40 -125t124 -51q78 0 124 48t46 126v580h311v-836q0 -72 4.5 -119t6.5 -63q-59 -29 -107.5 -79t-48.5 -111q0 -43 27.5 -66t68.5 -23q20 0 34.5 1.5t25.5 3.5v-172q-43 -16 -109 -17q-117 0 -187.5 60.5t-70.5 162.5q0 92 46 149.5t101 90.5 h-79q-4 14 -6.5 48t-2.5 54q-41 -66 -117.5 -95.5t-154.5 -29.5q-92 0 -165 32t-122 86.5t-74.5 126t-25.5 153.5z" />
<glyph unicode="&#x174;" horiz-adv-x="2127" d="M23 1452h344l239 -930l301 930h332l301 -932l236 932h331l-395 -1452h-334l-309 963l-311 -963h-340zM664 1554l250 271h297l253 -271h-288l-119 134l-117 -134h-276z" />
<glyph unicode="&#x175;" horiz-adv-x="1742" d="M23 1018h323l170 -602l201 602h330l198 -604l170 604h305l-315 -1018h-309l-222 657l-217 -657h-315zM500 1139l231 309h293l234 -309h-238l-145 145l-144 -145h-231z" />
<glyph unicode="&#x176;" horiz-adv-x="1378" d="M20 1452h379l297 -539l301 539h361l-510 -846v-606h-324v606zM289 1554l250 271h297l253 -271h-288l-119 134l-117 -134h-276z" />
<glyph unicode="&#x177;" horiz-adv-x="1183" d="M12 1018h348l248 -545l226 545h329l-626 -1409h-328l231 528zM213 1139l231 309h293l234 -309h-238l-145 145l-144 -145h-231z" />
<glyph unicode="&#x178;" horiz-adv-x="1378" d="M20 1452h379l297 -539l301 539h361l-510 -846v-606h-324v606zM285 1688q0 70 45 116.5t114 46.5q70 0 117 -47t47 -116q0 -68 -47 -113t-117 -45t-114.5 45t-44.5 113zM786 1688q0 70 45.5 116.5t112.5 46.5q70 0 117 -47t47 -116q0 -68 -47 -113t-117 -45q-68 0 -113 45 t-45 113z" />
<glyph unicode="&#x179;" horiz-adv-x="1318" d="M74 0v311l700 832h-670v309h1115v-299l-717 -844h725v-309h-1153zM449 1554l213 271h370l-307 -271h-276z" />
<glyph unicode="&#x17a;" horiz-adv-x="1001" d="M74 0v274l448 478h-436v266h834v-256l-469 -494h477v-268h-854zM338 1139l188 309h349l-289 -309h-248z" />
<glyph unicode="&#x17b;" horiz-adv-x="1318" d="M74 0v311l700 832h-670v309h1115v-299l-717 -844h725v-309h-1153zM490 1722q0 76 52 127.5t130 51.5q76 0 129 -51.5t53 -127.5q0 -78 -53 -128t-129 -50q-78 0 -130 50t-52 128z" />
<glyph unicode="&#x17c;" horiz-adv-x="1001" d="M74 0v274l448 478h-436v266h834v-256l-469 -494h477v-268h-854zM324 1296q0 76 52 127.5t130 51.5q76 0 129 -51.5t53 -127.5t-53 -126t-129 -50q-78 0 -130 50t-52 126z" />
<glyph unicode="&#x17d;" horiz-adv-x="1318" d="M74 0v311l700 832h-670v309h1115v-299l-717 -844h725v-309h-1153zM269 1825h286l119 -133l119 133h276l-251 -271h-297z" />
<glyph unicode="&#x17e;" horiz-adv-x="1001" d="M74 0v274l448 478h-436v266h834v-256l-469 -494h477v-268h-854zM131 1448h238l145 -148l143 148h232l-230 -309h-297z" />
<glyph unicode="&#x18f;" horiz-adv-x="1605" d="M66 733v21.5t2 29.5h1128q-4 104 -40 178t-93 122.5t-129 70t-146 21.5q-92 0 -162.5 -28t-119.5 -70t-79 -90t-42 -89l-301 109q23 84 80 169t147 153.5t212 111.5t276 43q156 0 290 -50.5t232 -148.5t154.5 -241.5t56.5 -329.5q0 -170 -57.5 -308.5t-156.5 -235.5 t-234.5 -150.5t-288.5 -53.5q-143 0 -274.5 49.5t-233 145.5t-161.5 239.5t-60 331.5zM449 526q8 -51 34.5 -97t70.5 -82t105.5 -57.5t139.5 -21.5q63 0 124.5 16.5t111.5 48.5t85 80t45 113h-716z" />
<glyph unicode="&#x192;" horiz-adv-x="1083" d="M-61 -61q66 -16 143 -17q18 0 41.5 5t46.5 20.5t42 43t30 70.5l141 697h-190v258h241l35 168q18 88 59 150.5t97.5 103.5t121 60.5t127.5 19.5q39 0 66 -2.5t48.5 -6.5t41 -10t43.5 -14v-266q-33 8 -64.5 12t-72.5 4q-18 0 -42 -5t-46.5 -20.5t-43 -42t-28.5 -71.5 l-16 -80h225v-258h-278l-158 -785q-18 -88 -60.5 -151.5t-97.5 -103.5t-119.5 -59t-128.5 -19q-39 0 -66.5 2t-50 6t-43 9t-44.5 13v269z" />
<glyph unicode="&#x1b5;" horiz-adv-x="1318" d="M74 0v311l254 301h-217v262h436l227 269h-670v309h1115v-299l-238 -279h225v-262h-448l-256 -303h725v-309h-1153z" />
<glyph unicode="&#x1b6;" horiz-adv-x="1001" d="M74 0v219l159 184h-145v213h332l127 146h-459v256h832v-227l-152 -175h154v-213h-338l-127 -145h473v-258h-856z" />
<glyph unicode="&#x1fa;" horiz-adv-x="1503" d="M20 0l512 1360q-35 37 -54 84t-19 104q0 61 23.5 112.5t63.5 89.5t91 58.5t108 20.5t109.5 -20.5t92.5 -58.5t63.5 -89.5t23.5 -112.5q0 -51 -17.5 -95t-45.5 -79l512 -1374h-353l-104 295h-561l-105 -295h-340zM571 590h353l-174 497zM604 1878l213 270h371l-307 -270 h-277zM647 1548q0 -47 30 -71.5t71 -24.5q39 0 67.5 24.5t28.5 71.5t-29 73t-67 26q-41 0 -71 -26t-30 -73z" />
<glyph unicode="&#x1fb;" horiz-adv-x="1284" d="M63 512q0 113 35 211t99.5 171t156.5 114t205 41q68 0 118 -16.5t84 -40t53.5 -48t27.5 -43.5v117h301v-836q0 -72 3 -119t5 -63h-299q-4 16 -6 52t-2 69v10q-35 -74 -106.5 -117t-168.5 -43q-113 0 -206 40t-159.5 113t-103.5 172t-37 216zM377 510q0 -63 18.5 -113.5 t50 -85.5t73.5 -53t91 -18q47 0 89 18t74 52t50.5 84t18.5 116q0 133 -67.5 200.5t-164.5 67.5q-100 0 -166.5 -67.5t-66.5 -200.5zM377 1335q0 51 19.5 93t52 73t75.5 48.5t90 17.5t90.5 -17.5t76 -48.5t52 -73t19.5 -93t-19.5 -93t-52 -71.5t-75.5 -46t-91 -16.5 q-47 0 -90 16.5t-75.5 46t-52 71.5t-19.5 93zM487 1624l189 309h348l-289 -309h-248zM539 1335q0 -35 21.5 -56.5t53.5 -21.5q33 0 54.5 21.5t21.5 56.5t-21.5 56.5t-54.5 21.5t-54 -21.5t-21 -56.5z" />
<glyph unicode="&#x1fc;" horiz-adv-x="2203" d="M20 0l959 1452h1110v-305h-598v-277h543v-284h-543v-279h600v-307h-924v313h-559l-200 -313h-388zM778 578h389v612zM1030 1554l213 271h371l-307 -271h-277z" />
<glyph unicode="&#x1fd;" horiz-adv-x="1781" d="M76 281q0 68 23.5 121t64.5 90.5t95 61.5t118 34l246 37q43 6 59 24.5t16 44.5q0 45 -37.5 78t-113.5 33q-86 0 -131 -46t-51 -104l-269 56q4 55 34 114.5t85 108.5t138 82t196 33q123 0 206 -32t132 -85q68 55 149.5 86t171.5 31q236 0 368 -137.5t132 -385.5 q0 -33 -2 -62.5t-4 -33.5h-715q2 -47 22.5 -83t52.5 -62.5t73 -40t86 -13.5q86 0 137 39t74 101l258 -78q-18 -66 -59.5 -125t-101 -103.5t-138 -70t-174.5 -25.5q-113 0 -210.5 42t-168.5 120q-55 -66 -147.5 -114t-221.5 -48q-98 0 -172 25.5t-123 68.5t-73.5 99.5 t-24.5 118.5zM381 299q0 -37 30.5 -69.5t96.5 -32.5q33 0 67.5 9t61.5 32.5t44 62.5t17 98v45l-200 -30q-49 -8 -83 -35t-34 -80zM737 1139l188 309h349l-289 -309h-248zM993 631h414q-2 29 -13.5 59.5t-36 55t-63.5 41t-96 16.5q-49 0 -87 -16.5t-63.5 -41t-39 -55.5 t-15.5 -59z" />
<glyph unicode="&#x1fe;" horiz-adv-x="1656" d="M74 725q0 172 60.5 312.5t163.5 239.5t240.5 152.5t290.5 53.5q98 0 188.5 -22.5t170.5 -63.5l143 184l197 -151l-142 -183q92 -98 144.5 -230t52.5 -292q0 -172 -60.5 -311.5t-164 -238.5t-239.5 -152.5t-290 -53.5q-98 0 -190 22.5t-174 63.5l-141 -182l-201 150 l143 184q-90 98 -141 228t-51 290zM410 727q0 -78 17 -139.5t48 -110.5l512 660q-78 31 -158 30q-76 0 -150.5 -26.5t-135 -79.5t-97 -137t-36.5 -197zM668 317q39 -16 79.5 -22t81.5 -6q76 0 151 25.5t134.5 80t96 136t36.5 196.5q0 152 -67 254zM678 1554l213 271h370 l-307 -271h-276z" />
<glyph unicode="&#x1ff;" horiz-adv-x="1208" d="M63 510q0 119 42 217t115 170t171 112t213 40q154 0 277 -70l110 133l139 -117l-108 -131q59 -70 91 -160t32 -194q0 -119 -42 -218t-115 -171t-171 -112t-213 -40q-74 0 -140.5 17.5t-125.5 48.5l-105 -127l-141 117l103 122q-61 72 -96.5 163t-35.5 200zM375 510 q0 -35 5 -63.5t15 -53.5l293 352q-43 16 -84 17q-43 0 -85 -15.5t-73.5 -46t-51 -79t-19.5 -111.5zM457 1139l188 309h349l-289 -309h-248zM530 268q33 -12 74 -12q45 0 86 15.5t73 47t51.5 78.5t19.5 113q0 55 -17 104z" />
<glyph unicode="&#x218;" horiz-adv-x="1247" d="M53 434l297 72q4 -49 23.5 -95t56.5 -80t92.5 -54.5t128.5 -20.5q96 0 150.5 42t54.5 110q0 55 -42 93t-114 52l-198 37q-186 35 -291 149.5t-105 276.5q0 102 42 188t114 147.5t166 96.5t199 35q135 0 231 -37t158.5 -93.5t95.5 -125t45 -131.5l-291 -82q-4 25 -17 56.5 t-41 59t-73 47t-110 19.5q-90 0 -144.5 -48t-54.5 -108q0 -53 34 -89t109 -50l195 -37q104 -18 182 -60t131 -99.5t80 -128t27 -148.5q0 -86 -35 -168t-103.5 -146.5t-169 -104.5t-229.5 -40q-152 0 -260 44t-180 112t-109 149.5t-45 159.5zM482 -223q0 59 45 100t116 41 q82 0 133.5 -55.5t51.5 -132.5q0 -82 -29 -135.5t-72 -85t-95 -45t-97 -13.5h-9.5t-15.5 2v107q86 0 131 25.5t49 68.5q-6 -4 -21 -9t-42 -5q-72 0 -108.5 40t-36.5 97z" />
<glyph unicode="&#x219;" horiz-adv-x="954" d="M53 289l264 47q4 -53 42 -95t118 -42q59 0 89 26.5t30 61.5q0 29 -21.5 50t-78.5 34l-117 26q-82 18 -139.5 49t-94 72t-53 90t-16.5 103q0 70 28.5 131t81 107t124 73t157.5 27q111 0 186.5 -31t123.5 -77t70.5 -98t26.5 -98l-258 -47q-6 51 -39.5 88t-105.5 37 q-45 0 -78 -23.5t-33 -64.5q0 -33 23 -51t57 -25l135 -26q160 -33 237 -120t77 -200q0 -66 -24.5 -127t-76 -109t-127 -78t-178.5 -30q-121 0 -201.5 34t-130 83t-73 104.5t-25.5 98.5zM312 -223q0 59 45 100t116 41q82 0 133.5 -55.5t51.5 -132.5q0 -82 -29 -135.5t-72 -85 t-95 -45t-97 -13.5h-9.5t-15.5 2v107q86 0 131 25.5t49 68.5q-6 -4 -21 -9t-42 -5q-72 0 -108.5 40t-36.5 97z" />
<glyph unicode="&#x21a;" horiz-adv-x="1296" d="M39 1143v309h1218v-309h-448v-1143h-324v1143h-446zM480 -223q0 59 45 100t116 41q82 0 133.5 -55.5t51.5 -132.5q0 -82 -29 -135.5t-72 -85t-95 -45t-97 -13.5h-9.5t-15.5 2v107q86 0 131 25.5t49 68.5q-6 -4 -21 -9t-42 -5q-72 0 -108.5 40t-36.5 97z" />
<glyph unicode="&#x21b;" horiz-adv-x="782" d="M23 745v273h51q80 0 118.5 47t38.5 119v131h279v-297h199v-273h-199v-380q0 -63 30.5 -85t82.5 -22q25 0 46 3t36 7v-258q-10 -4 -49.5 -16t-112.5 -12q-160 0 -250 87t-90 240v436h-180zM297 -223q0 59 45 100t116 41q82 0 133.5 -55.5t51.5 -132.5q0 -82 -29 -135.5 t-72 -85t-95 -45t-97 -13.5h-9.5t-15.5 2v107q86 0 131 25.5t49 68.5q-6 -4 -21 -9t-42 -5q-72 0 -108.5 40t-36.5 97z" />
<glyph unicode="&#x237;" horiz-adv-x="585" d="M-59 -131q14 -4 38.5 -9t53.5 -5q53 0 78.5 28.5t25.5 75.5v1059h312v-1092q0 -78 -24 -141.5t-67 -108.5t-105.5 -70.5t-139.5 -25.5q-70 0 -116 11.5t-56 15.5v262z" />
<glyph unicode="&#x259;" horiz-adv-x="1153" d="M63 492q0 18 2.5 49.5t4.5 38.5h723q-4 98 -66.5 154.5t-161.5 56.5q-86 0 -146.5 -42t-82.5 -106l-254 92q20 59 62 115.5t104.5 101.5t143.5 72t181 27q115 0 210.5 -39t163 -110t105.5 -172t38 -224t-41 -222.5t-111 -170t-163 -108.5t-195 -38q-115 0 -209.5 37 t-163 105.5t-106.5 165t-38 217.5zM362 387q2 -31 14.5 -62.5t38 -57t66.5 -42t99 -16.5q51 0 89 16.5t63.5 43t38.5 57t15 61.5h-424z" />
<glyph unicode="&#x2c6;" horiz-adv-x="847" d="M45 1139l231 309h293l234 -309h-238l-145 145l-144 -145h-231z" />
<glyph unicode="&#x2c7;" horiz-adv-x="847" d="M45 1448h238l145 -148l143 148h232l-230 -309h-297z" />
<glyph unicode="&#x2c9;" horiz-adv-x="675" d="M45 1182v215h586v-215h-586z" />
<glyph unicode="&#x2d8;" horiz-adv-x="778" d="M45 1448h197q4 -41 36.5 -78t110.5 -37t110.5 37t37.5 78h198q-2 -63 -24.5 -120.5t-65.5 -101.5t-106.5 -71t-149.5 -27q-84 0 -148.5 27t-107.5 71t-64.5 101t-23.5 121z" />
<glyph unicode="&#x2d9;" horiz-adv-x="411" d="M25 1296q0 76 52 127.5t130 51.5q76 0 129 -51.5t53 -127.5t-53 -126t-129 -50q-78 0 -130 50t-52 126z" />
<glyph unicode="&#x2da;" horiz-adv-x="565" d="M45 1335q0 51 19.5 93t52.5 73t76 48.5t90 17.5t90 -17.5t75.5 -48.5t52 -73t19.5 -93t-19.5 -93t-52 -71.5t-75.5 -46t-90 -16.5t-90 16.5t-76 46t-52.5 71.5t-19.5 93zM207 1335q0 -35 21.5 -56.5t54.5 -21.5t54 21.5t21 56.5t-21.5 56.5t-53.5 21.5q-33 0 -54.5 -21.5 t-21.5 -56.5z" />
<glyph unicode="&#x2db;" horiz-adv-x="450" d="M39 -240q0 59 20.5 103.5t51 77t67.5 54t72 38.5l156 -33q-59 -29 -107.5 -79t-48.5 -111q0 -43 27.5 -66t68.5 -23q20 0 34.5 1.5t25.5 3.5v-172q-43 -17 -109 -17q-117 0 -187.5 60.5t-70.5 162.5z" />
<glyph unicode="&#x2dc;" horiz-adv-x="815" d="M35 1141v47q0 131 67.5 195.5t163.5 64.5q47 0 84 -14.5t72 -32.5q31 -18 57.5 -31.5t55.5 -13.5q68 0 71 90h174v-41q0 -135 -64.5 -200.5t-164.5 -65.5q-47 0 -84 14t-72 33q-31 16 -58.5 29.5t-55.5 13.5q-31 0 -49.5 -20.5t-20.5 -67.5h-176z" />
<glyph unicode="&#x2dd;" horiz-adv-x="839" d="M39 1139l108 309h289l-209 -309h-188zM369 1139l141 309h291l-242 -309h-190z" />
<glyph unicode="&#x394;" horiz-adv-x="1443" d="M0 0l545 1452h354l545 -1452h-1444zM442 303h559l-280 801z" />
<glyph unicode="&#x3a9;" horiz-adv-x="1585" d="M92 842q0 147 57.5 266t153.5 203t223 129t267 45q139 0 266 -45t223 -129t153.5 -203t57.5 -266q0 -102 -26.5 -189.5t-75 -156t-111.5 -118.5t-137 -81h334v-297h-617v449q61 12 115.5 42.5t95.5 76.5t64.5 108.5t23.5 136.5q0 86 -30.5 154.5t-81 114.5t-116.5 71 t-138 25t-137.5 -25t-117 -71t-81 -114.5t-29.5 -154.5q0 -74 23.5 -136.5t64.5 -108.5t95.5 -76.5t113.5 -42.5v-449h-614v297h331q-74 31 -137 81t-110.5 118.5t-75 155.5t-27.5 190z" />
<glyph unicode="&#x3bc;" horiz-adv-x="1241" d="M139 -389v1407h312v-578q0 -74 39.5 -125t123.5 -51q78 0 124 48t46 126v580h312v-836q0 -70 4 -119t6 -63h-299q-4 14 -6 48t-2 54q-41 -66 -118 -95.5t-155 -29.5q-39 0 -75 7v-373h-312z" />
<glyph unicode="&#x3c0;" horiz-adv-x="1329" d="M66 754v264h1185v-264h-153v-410q0 -55 29.5 -73.5t64.5 -18.5q31 0 40 1t23 5v-248q-2 0 -41.5 -14t-111.5 -14q-158 0 -237 86t-79 233v453h-237v-754h-313v754h-170z" />
<glyph unicode="&#x1e80;" horiz-adv-x="2127" d="M23 1452h344l239 -930l301 930h332l301 -932l236 932h331l-395 -1452h-334l-309 963l-311 -963h-340zM643 1825h371l213 -271h-277z" />
<glyph unicode="&#x1e81;" horiz-adv-x="1742" d="M23 1018h323l170 -602l201 602h330l198 -604l170 604h305l-315 -1018h-309l-222 657l-217 -657h-315zM465 1448h354l191 -309h-254z" />
<glyph unicode="&#x1e82;" horiz-adv-x="2127" d="M23 1452h344l239 -930l301 930h332l301 -932l236 932h331l-395 -1452h-334l-309 963l-311 -963h-340zM924 1554l213 271h370l-307 -271h-276z" />
<glyph unicode="&#x1e83;" horiz-adv-x="1742" d="M23 1018h323l170 -602l201 602h330l198 -604l170 604h305l-315 -1018h-309l-222 657l-217 -657h-315zM741 1139l188 309h349l-289 -309h-248z" />
<glyph unicode="&#x1e84;" horiz-adv-x="2127" d="M23 1452h344l239 -930l301 930h332l301 -932l236 932h331l-395 -1452h-334l-309 963l-311 -963h-340zM602 1688q0 70 46 116.5t114 46.5q70 0 117 -47t47 -116q0 -68 -47.5 -113t-116.5 -45q-68 0 -114 45t-46 113zM1214 1688q0 70 45.5 116.5t114.5 46.5q68 0 115 -47 t47 -116q0 -68 -47 -113t-115 -45q-70 0 -115 45t-45 113z" />
<glyph unicode="&#x1e85;" horiz-adv-x="1742" d="M23 1018h323l170 -602l201 602h330l198 -604l170 604h305l-315 -1018h-309l-222 657l-217 -657h-315zM489 1294q0 66 44.5 112t109.5 46q66 0 112 -46t46 -112t-46 -110.5t-112 -44.5t-110 44.5t-44 110.5zM950 1294q0 66 45 112t111 46t112 -46t46 -112t-46.5 -110.5 t-111.5 -44.5q-66 0 -111 44.5t-45 110.5z" />
<glyph unicode="&#x1e8a;" horiz-adv-x="1423" d="M39 0l469 727l-469 725h389l287 -471l286 471h379l-467 -729l471 -723h-393l-286 471l-285 -471h-381zM527 1722q0 76 52 127.5t130 51.5q76 0 129 -51.5t53 -127.5q0 -78 -53 -128t-129 -50q-78 0 -130 50t-52 128z" />
<glyph unicode="&#x1e8b;" horiz-adv-x="1130" d="M23 1018h366l182 -279l179 279h348l-353 -498q86 -123 181.5 -260t183.5 -260h-365l-188 287q-20 -31 -45 -68t-49.5 -75t-48 -75.5t-43.5 -68.5h-342l350 508zM390 1296q0 76 52 127.5t130 51.5q76 0 129 -51.5t53 -127.5t-53 -126t-129 -50q-78 0 -130 50t-52 126z" />
<glyph unicode="&#x1ef2;" horiz-adv-x="1378" d="M20 1452h379l297 -539l301 539h361l-510 -846v-606h-324v606zM282 1825h371l213 -271h-277z" />
<glyph unicode="&#x1ef3;" horiz-adv-x="1183" d="M12 1018h348l248 -545l226 545h329l-626 -1409h-328l231 528zM199 1448h354l191 -309h-254z" />
<glyph unicode="&#x2000;" horiz-adv-x="1074" />
<glyph unicode="&#x2001;" horiz-adv-x="2148" />
<glyph unicode="&#x2002;" horiz-adv-x="1074" />
<glyph unicode="&#x2003;" horiz-adv-x="2148" />
<glyph unicode="&#x2004;" horiz-adv-x="716" />
<glyph unicode="&#x2005;" horiz-adv-x="537" />
<glyph unicode="&#x2006;" horiz-adv-x="358" />
<glyph unicode="&#x2007;" horiz-adv-x="1286" />
<glyph unicode="&#x2008;" horiz-adv-x="669" />
<glyph unicode="&#x2009;" horiz-adv-x="429" />
<glyph unicode="&#x200a;" horiz-adv-x="119" />
<glyph unicode="&#x200b;" horiz-adv-x="0" />
<glyph unicode="&#x2010;" horiz-adv-x="798" d="M92 477v281h615v-281h-615z" />
<glyph unicode="&#x2011;" horiz-adv-x="798" d="M92 477v281h615v-281h-615z" />
<glyph unicode="&#x2012;" horiz-adv-x="798" d="M92 477v281h615v-281h-615z" />
<glyph unicode="&#x2013;" horiz-adv-x="1306" d="M125 483v271h1059v-271h-1059z" />
<glyph unicode="&#x2014;" horiz-adv-x="2199" d="M145 483v271h1911v-271h-1911z" />
<glyph unicode="&#x2018;" horiz-adv-x="493" d="M63 1071q0 106 34 179t84 119t108.5 68.5t109.5 26.5v-139q-27 -4 -56.5 -15.5t-55 -32t-43 -49t-19.5 -63.5q4 2 16.5 6.5t28.5 4.5q78 0 119 -43t41 -111q0 -66 -49 -112t-127 -46q-47 0 -82 17.5t-59.5 47t-37 66.5t-12.5 76z" />
<glyph unicode="&#x2019;" horiz-adv-x="493" d="M63 1305q0 66 49.5 111.5t127.5 45.5q45 0 80.5 -17.5t60.5 -46t37 -66.5t12 -77q0 -106 -34 -178.5t-84 -119t-108.5 -69t-109.5 -26.5v139q27 2 56.5 14.5t54 32t42 47t21.5 64.5q-2 -4 -15 -7t-30 -3q-78 0 -119 45t-41 111z" />
<glyph unicode="&#x201a;" horiz-adv-x="493" d="M63 150q0 66 49.5 111.5t127.5 45.5q45 0 80.5 -17.5t60.5 -47t37 -66.5t12 -76q0 -106 -34 -180t-84 -120t-108.5 -67.5t-109.5 -25.5v137q27 2 56.5 14.5t54 32t42 47t21.5 64.5q-6 -4 -18 -7t-27 -3q-78 0 -119 45t-41 113z" />
<glyph unicode="&#x201c;" horiz-adv-x="923" d="M63 1071q0 106 34 179t84 119t108.5 68.5t109.5 26.5v-139q-27 -4 -56.5 -15.5t-55 -32t-43 -48t-19.5 -62.5q4 2 16.5 6.5t28.5 4.5q78 0 119 -44t41 -112q0 -66 -49 -112t-127 -46q-47 0 -82 17.5t-59.5 47t-37 66.5t-12.5 76zM496 1071q0 106 32.5 179t83 119 t108.5 68.5t109 26.5v-139q-27 -4 -56.5 -15.5t-55 -32t-43 -48t-19.5 -62.5q4 2 16.5 6.5t28.5 4.5q78 0 119 -44t41 -112q0 -66 -49 -112t-127 -46q-47 0 -82 17.5t-58.5 47t-35.5 66.5t-12 76z" />
<glyph unicode="&#x201d;" horiz-adv-x="917" d="M63 1305q0 66 49.5 111.5t127.5 45.5q45 0 80.5 -17.5t60.5 -46t37 -66.5t12 -77q0 -106 -34 -178.5t-84 -119t-108.5 -68t-109.5 -25.5v137q27 2 56.5 14.5t54 32t42 47t21.5 64.5q-4 -2 -15 -6t-30 -4q-78 0 -119 45t-41 111zM489 1305q0 66 49.5 111.5t127.5 45.5 q45 0 79.5 -17.5t59 -46t37 -66.5t12.5 -77q0 -106 -33 -178.5t-83 -119t-108.5 -68t-109.5 -25.5v137q27 2 56.5 14.5t54 32t42 47t21.5 64.5q-6 -4 -17 -7t-28 -3q-78 0 -119 45t-41 111z" />
<glyph unicode="&#x201e;" horiz-adv-x="917" d="M63 150q0 66 49.5 111.5t127.5 45.5q45 0 80.5 -17.5t60.5 -47t37 -66.5t12 -76q0 -106 -34 -180t-84 -120t-108.5 -67.5t-109.5 -25.5v137q27 2 56.5 14.5t54 32t42 47t21.5 64.5q-6 -4 -18 -7t-27 -3q-78 0 -119 45t-41 113zM487 150q0 66 49.5 111.5t127.5 45.5 q45 0 80.5 -17.5t60 -47t37 -66.5t12.5 -76q0 -106 -34 -180t-84 -120t-108.5 -67.5t-109.5 -25.5v137q27 2 56.5 14.5t54 32t42 47t21.5 64.5q-6 -4 -18 -7t-27 -3q-78 0 -119 45t-41 113z" />
<glyph unicode="&#x2020;" horiz-adv-x="874" d="M61 934v233h246v285h258v-285h248v-233h-248v-600h-258v600h-246z" />
<glyph unicode="&#x2021;" horiz-adv-x="956" d="M102 289v233h246v408h-246v233h246v289h258v-289h248v-233h-248v-408h248v-233h-248v-289h-258v289h-246z" />
<glyph unicode="&#x2022;" horiz-adv-x="1150" d="M113 610q0 80 21.5 158t64.5 140.5t109.5 101.5t158.5 39q74 0 145.5 -25t134 -64.5t115.5 -89t94 -98.5q14 -16 32 -37.5t33 -44t26.5 -44.5t11.5 -36q0 -16 -11.5 -36.5t-26.5 -43t-32.5 -44t-32.5 -37.5q-41 -49 -94 -98.5t-115.5 -89.5t-134 -64.5t-145.5 -24.5 q-92 0 -158.5 39t-109.5 101.5t-64.5 140t-21.5 157.5z" />
<glyph unicode="&#x2026;" horiz-adv-x="1875" d="M139 154q0 78 52.5 131t127.5 53q76 0 129.5 -53t53.5 -131q0 -37 -14.5 -70t-39 -57.5t-58.5 -39t-71 -14.5t-69.5 14.5t-57 39t-39 57.5t-14.5 70zM756 154q0 78 52 131t128 53q78 0 130 -53t52 -131q0 -37 -14 -70t-39 -57.5t-57.5 -39t-71.5 -14.5q-37 0 -69.5 14.5 t-57.5 39t-39 57.5t-14 70zM1374 154q0 39 14.5 72.5t39 58t57.5 39t69 14.5q78 0 130.5 -53t52.5 -131q0 -37 -14.5 -70t-39 -57.5t-57.5 -39t-72 -14.5q-37 0 -69.5 14.5t-57 39t-39 57.5t-14.5 70z" />
<glyph unicode="&#x202f;" horiz-adv-x="429" />
<glyph unicode="&#x2030;" horiz-adv-x="2310" d="M80 1012q0 72 27.5 134t74.5 108t109.5 73t134.5 27q70 0 133.5 -27t110.5 -73t74.5 -108.5t27.5 -133.5q0 -74 -27.5 -135.5t-74.5 -106.5t-110.5 -70.5t-135.5 -25.5t-134.5 26.5t-109.5 71.5t-73.5 106.5t-26.5 133.5zM299 0l930 1329h264l-932 -1329h-262zM301 1012 q0 -59 36 -96t89 -37t88 36.5t35 96.5q0 59 -35 96t-88 37t-89 -37t-36 -96zM1012 317q0 72 28.5 133.5t75.5 107.5t110.5 72.5t135.5 26.5q78 0 142.5 -31.5t109.5 -84.5q45 53 110.5 84.5t143.5 31.5q70 0 134 -26.5t111.5 -72.5t76 -107.5t28.5 -133.5q0 -74 -28.5 -136 t-77 -107t-112 -71t-134.5 -26q-78 0 -142.5 30t-109.5 83q-45 -53 -110.5 -83t-143.5 -30q-72 0 -135.5 27t-110.5 73t-74.5 107t-27.5 133zM1233 317q0 -61 38 -98t91 -37t90 38t37 97t-37 95.5t-90 36.5t-91 -36.5t-38 -95.5zM1739 317q0 -61 38 -98t91 -37t90 38t37 97 t-37 95.5t-90 36.5t-91 -36.5t-38 -95.5z" />
<glyph unicode="&#x2039;" horiz-adv-x="661" d="M53 608l287 410h289l-285 -412l283 -397h-291z" />
<glyph unicode="&#x203a;" horiz-adv-x="661" d="M33 209l284 397l-284 412h291l284 -410l-282 -399h-293z" />
<glyph unicode="&#x2042;" horiz-adv-x="1718" d="M66 412l65 192l199 -65v215h211v-215l199 65l66 -192l-200 -67l122 -170l-164 -121l-129 172l-125 -172l-165 121l122 170zM416 1077l65 192l199 -65v215h211v-215l199 65l66 -192l-200 -67l122 -170l-164 -121l-129 172l-125 -172l-165 121l122 170zM783 412l65 192 l199 -65v215h211v-215l199 65l66 -192l-200 -67l122 -170l-164 -121l-129 172l-125 -172l-165 121l122 170z" />
<glyph unicode="&#x2044;" horiz-adv-x="1193" d="M0 0l930 1329h264l-932 -1329h-262z" />
<glyph unicode="&#x2051;" horiz-adv-x="880" d="M66 420l65 192l199 -65v215h211v-215l199 65l66 -192l-200 -67l122 -170l-164 -121l-129 172l-125 -172l-165 121l122 170zM66 1077l65 192l199 -65v215h211v-215l199 65l66 -192l-200 -67l122 -170l-164 -121l-129 172l-125 -172l-165 121l122 170z" />
<glyph unicode="&#x205f;" horiz-adv-x="537" />
<glyph unicode="&#x2070;" horiz-adv-x="899" d="M96 1075q0 70 15.5 138.5t58.5 128.5q43 59 111.5 94t167.5 35q98 0 167.5 -35t112.5 -94t58.5 -128t15.5 -139t-15.5 -138.5t-58.5 -127.5q-43 -57 -112.5 -93t-167.5 -36t-167 36t-112 95q-43 57 -58.5 125.5t-15.5 138.5zM334 1075q0 -37 4 -73.5t16.5 -66.5t35 -47 t59.5 -17t59 17t34.5 47t16.5 66.5t4 73.5t-4 74t-16.5 66.5t-35 47t-58.5 17.5q-37 0 -59.5 -17.5t-35 -47t-16.5 -66.5t-4 -74z" />
<glyph unicode="&#x2074;" horiz-adv-x="897" d="M96 842v229l336 381h248v-436h121v-174h-121v-146h-227v146h-357zM266 1016h187v209z" />
<glyph unicode="&#x2075;" horiz-adv-x="829" d="M96 930l205 37q4 -41 36 -66.5t77 -25.5q41 0 67.5 21.5t26.5 60.5q0 49 -28.5 71.5t-73.5 22.5q-59 0 -97 -41l-188 53l90 389h473v-184h-338l-24 -107q27 20 65.5 30.5t79.5 10.5q123 0 194.5 -63.5t71.5 -179.5q0 -55 -20.5 -105.5t-61.5 -88.5t-100 -59.5t-137 -21.5 q-66 0 -122 19.5t-97 52.5t-67 78t-32 96z" />
<glyph unicode="&#x2076;" horiz-adv-x="858" d="M96 1024q0 104 35 186t96.5 138.5t144.5 86t177 29.5q90 0 188 -28l-39 -180q-27 10 -61.5 16t-75.5 6q-72 0 -138.5 -30.5t-94.5 -114.5q68 57 168 57q111 0 188.5 -59.5t77.5 -178.5q0 -61 -23.5 -111t-67.5 -87t-104.5 -57.5t-134.5 -20.5q-72 0 -133 24.5 t-106.5 69.5t-71 109.5t-25.5 144.5zM338 944q0 -37 26.5 -61.5t67.5 -24.5t68.5 24.5t27.5 61.5q0 41 -27.5 65.5t-68.5 24.5t-67.5 -24.5t-26.5 -65.5z" />
<glyph unicode="&#x2077;" horiz-adv-x="829" d="M96 1262v190h639v-188q-27 -23 -68.5 -67t-84.5 -112.5t-78 -165t-47 -223.5h-246q8 135 49 241t86 177q53 84 117 148h-367z" />
<glyph unicode="&#x2078;" horiz-adv-x="868" d="M104 905q0 66 45.5 115t110.5 66q-66 18 -99.5 66t-33.5 104q0 90 78 151.5t229 61.5q154 0 230.5 -61.5t76.5 -151.5q0 -55 -33.5 -103.5t-99.5 -66.5q63 -16 109.5 -63.5t46.5 -108.5q0 -104 -85 -169t-245 -65q-156 0 -243 61.5t-87 163.5zM334 936q0 -29 22.5 -54.5 t77.5 -25.5t78 25.5t23 54.5q0 27 -24 50.5t-77 23.5t-76.5 -23.5t-23.5 -50.5zM352 1223q0 -25 20.5 -46.5t61.5 -23.5q41 2 61.5 23.5t20.5 46.5q0 23 -19.5 44t-62.5 21t-62.5 -21.5t-19.5 -43.5z" />
<glyph unicode="&#x2079;" horiz-adv-x="858" d="M96 1192q0 61 22.5 112.5t65.5 88.5t103.5 57.5t138.5 20.5q72 0 133.5 -25t105.5 -71t69.5 -110.5t25.5 -144.5q0 -106 -34 -189t-93.5 -139.5t-139 -86t-171.5 -29.5q-47 0 -93.5 8t-93.5 23l35 180q51 -23 127 -23q39 0 77 6.5t70.5 23.5t57 46t37.5 72 q-33 -29 -78 -43.5t-94 -14.5t-98.5 15.5t-87.5 45.5t-61.5 74t-23.5 103zM326 1200q0 -41 26.5 -64.5t67.5 -23.5t67.5 23.5t26.5 64.5q0 37 -26.5 61.5t-67.5 24.5t-67.5 -24.5t-26.5 -61.5z" />
<glyph unicode="&#x2080;" horiz-adv-x="899" d="M96 227q0 70 15.5 138.5t58.5 128.5q43 59 111.5 94t167.5 35q98 0 167.5 -35t112.5 -94t58.5 -128t15.5 -139t-15.5 -138.5t-58.5 -127.5q-43 -57 -112.5 -93t-167.5 -36t-167 36t-112 95q-43 57 -58.5 125.5t-15.5 138.5zM334 227q0 -37 4 -73.5t16.5 -66.5t35 -47 t59.5 -17t59 17t34.5 47t16.5 66.5t4 73.5t-4 74t-16.5 66.5t-35 47t-58.5 17.5q-37 0 -59.5 -17.5t-35 -47t-16.5 -66.5t-4 -74z" />
<glyph unicode="&#x2081;" horiz-adv-x="630" d="M66 191v151q53 0 93 16.5t66.5 41t41 54.5t20.5 56h207v-754h-236v435h-192z" />
<glyph unicode="&#x2082;" horiz-adv-x="811" d="M98 -217q0 104 40 188t147 144l123 69q74 41 73 93q0 20 -16 44.5t-64 24.5q-47 0 -69.5 -28.5t-22.5 -69.5q0 -14 2 -22.5t4 -12.5h-204q-4 12 -6.5 27.5t-2.5 27.5q0 51 18.5 99.5t57.5 84.5t95.5 57.5t134.5 21.5q72 0 128 -20.5t95 -55.5t59.5 -82t20.5 -98 q0 -74 -45 -130.5t-127 -103.5l-138 -80q-10 -6 -10 -10h326v-195h-619v27z" />
<glyph unicode="&#x2083;" horiz-adv-x="841" d="M96 -12l211 37q2 -39 31 -67t76 -28q45 0 70.5 21.5t25.5 54.5q0 43 -28.5 62.5t-65.5 19.5q-33 0 -60 -12l-71 153l161 97h-323v188h596v-190l-174 -105q98 -16 149 -73.5t51 -145.5q0 -51 -22.5 -98t-65.5 -83t-104 -57.5t-139 -21.5q-72 0 -129.5 21.5t-97.5 56.5 t-63.5 79t-27.5 91z" />
<glyph unicode="&#x2084;" horiz-adv-x="897" d="M96 -98v229l336 381h248v-436h121v-174h-121v-146h-227v146h-357zM266 76h187v209z" />
<glyph unicode="&#x2085;" horiz-adv-x="829" d="M96 -10l205 37q4 -41 36 -66.5t77 -25.5q41 0 67.5 21.5t26.5 60.5q0 49 -28.5 71.5t-73.5 22.5q-59 0 -97 -41l-188 53l90 389h473v-184h-338l-24 -107q27 20 65.5 30.5t79.5 10.5q123 0 194.5 -63.5t71.5 -179.5q0 -55 -20.5 -105.5t-61.5 -88.5t-100 -59.5t-137 -21.5 q-66 0 -122 19.5t-97 52.5t-67 78t-32 96z" />
<glyph unicode="&#x2086;" horiz-adv-x="858" d="M96 88q0 104 35 186t96.5 138.5t144.5 86t177 29.5q90 0 188 -28l-39 -180q-27 10 -61.5 16t-75.5 6q-72 0 -138.5 -30.5t-94.5 -114.5q68 57 168 57q111 0 188.5 -59.5t77.5 -178.5q0 -61 -23.5 -111t-67.5 -87t-104.5 -57.5t-134.5 -20.5q-72 0 -133 24.5t-106.5 69.5 t-71 109.5t-25.5 144.5zM338 8q0 -37 26.5 -61.5t67.5 -24.5t68.5 24.5t27.5 61.5q0 41 -27.5 65.5t-68.5 24.5t-67.5 -24.5t-26.5 -65.5z" />
<glyph unicode="&#x2087;" horiz-adv-x="829" d="M96 320v190h639v-188q-27 -23 -68.5 -67t-84.5 -112.5t-78 -165t-47 -223.5h-246q8 135 49 241t86 177q53 84 117 148h-367z" />
<glyph unicode="&#x2088;" horiz-adv-x="868" d="M104 -35q0 66 45.5 115t110.5 66q-66 18 -99.5 66t-33.5 104q0 90 78 151.5t229 61.5q154 0 230.5 -61.5t76.5 -151.5q0 -55 -33.5 -103.5t-99.5 -66.5q63 -16 109.5 -63.5t46.5 -108.5q0 -104 -85 -169t-245 -65q-156 0 -243 61.5t-87 163.5zM334 -4q0 -29 22.5 -54.5 t77.5 -25.5t78 25.5t23 54.5q0 27 -24 50.5t-77 23.5t-76.5 -23.5t-23.5 -50.5zM352 283q0 -25 20.5 -46.5t61.5 -23.5q41 2 61.5 23.5t20.5 46.5q0 23 -19.5 44t-62.5 21t-62.5 -21.5t-19.5 -43.5z" />
<glyph unicode="&#x2089;" horiz-adv-x="858" d="M96 256q0 61 22.5 112.5t65.5 88.5t103.5 57.5t138.5 20.5q72 0 133.5 -25t105.5 -71t69.5 -110.5t25.5 -144.5q0 -106 -34 -189t-93.5 -139.5t-139 -86t-171.5 -29.5q-47 0 -93.5 8t-93.5 23l35 180q51 -23 127 -23q39 0 77 6.5t70.5 23.5t57 46t37.5 72 q-33 -29 -78 -43.5t-94 -14.5t-98.5 15.5t-87.5 45.5t-61.5 74t-23.5 103zM326 264q0 -41 26.5 -64.5t67.5 -23.5t67.5 23.5t26.5 64.5q0 37 -26.5 61.5t-67.5 24.5t-67.5 -24.5t-26.5 -61.5z" />
<glyph unicode="&#x20ac;" horiz-adv-x="1380" d="M125 395v209h143q-2 16 -2 27.5v30.5v24t2 29h-143v207h186q37 100 102.5 181t150.5 138t185.5 88t211.5 31q117 0 199.5 -24.5t152.5 -67.5l-115 -246q-45 31 -105.5 45t-131.5 14q-88 0 -171 -36.5t-137 -122.5h500l-96 -207h-465q-2 -16 -2 -27.5v-25.5v-26.5t2 -31.5 h422l-92 -209h-256q53 -72 129.5 -107.5t169.5 -35.5q78 0 141 21.5t108 56.5l142 -234q-68 -53 -168.5 -91t-222.5 -38q-115 0 -216.5 29t-186.5 84t-149.5 135t-101.5 180h-186z" />
<glyph unicode="&#x2113;" horiz-adv-x="899" d="M53 299v268q29 8 66 18.5t78 26.5v396q0 82 24.5 147.5t68.5 110.5t104.5 68.5t129.5 23.5q147 0 234.5 -87t87.5 -249q0 -74 -25.5 -150.5t-74 -150.5t-118 -140.5t-155.5 -121.5v-43q0 -47 14.5 -77t36 -48.5t46 -25.5t44.5 -7q78 0 120 14.5t69 30.5v-254 q-18 -16 -70.5 -37.5t-157.5 -21.5q-168 0 -268 91t-110 251q-35 -10 -71 -18.5t-73 -14.5zM473 791q43 49 70.5 110t27.5 135q0 31 -14 47.5t-33 16.5q-16 0 -33.5 -14.5t-17.5 -61.5v-233z" />
<glyph unicode="&#x2122;" horiz-adv-x="1810" d="M72 1266v186h616v-186h-203v-561h-209v561h-204zM786 705v747h291l164 -397l156 397h291v-747h-205v454l-168 -454h-156l-170 446v-446h-203z" />
<glyph unicode="&#x2126;" horiz-adv-x="1585" d="M92 842q0 147 57.5 266t153.5 203t223 129t267 45q139 0 266 -45t223 -129t153.5 -203t57.5 -266q0 -102 -26.5 -189.5t-75 -156t-111.5 -118.5t-137 -81h334v-297h-617v449q61 12 115.5 42.5t95.5 76.5t64.5 108.5t23.5 136.5q0 86 -30.5 154.5t-81 114.5t-116.5 71 t-138 25t-137.5 -25t-117 -71t-81 -114.5t-29.5 -154.5q0 -74 23.5 -136.5t64.5 -108.5t95.5 -76.5t113.5 -42.5v-449h-614v297h331q-74 31 -137 81t-110.5 118.5t-75 155.5t-27.5 190z" />
<glyph unicode="&#x2160;" horiz-adv-x="1009" d="M86 0v268h260v793h-260v268h840v-268h-258v-793h258v-268h-840z" />
<glyph unicode="&#x2161;" horiz-adv-x="1624" d="M86 0v268h276v793h-276v268h1454v-268h-274v-793h274v-268h-1454zM684 268h260v793h-260v-793z" />
<glyph unicode="&#x2162;" horiz-adv-x="2185" d="M86 0v268h276v793h-276v268h2015v-268h-274v-793h274v-268h-2015zM684 268h250v793h-250v-793zM1255 268h250v793h-250v-793z" />
<glyph unicode="&#x2163;" horiz-adv-x="2205" d="M86 0v268h270v793h-270v268h2036v-268h-213l-248 -793h461v-268h-2036zM678 268h409l-253 793h-156v-793zM1171 1061l207 -694l203 694h-410z" />
<glyph unicode="&#x2164;" horiz-adv-x="1658" d="M86 0v268h457l-254 793h-203v268h1489v-268h-213l-246 -793h457v-268h-1487zM627 1061l207 -694l202 694h-409z" />
<glyph unicode="&#x2165;" horiz-adv-x="2197" d="M86 0v268h457l-254 793h-203v268h2025v-268h-272v-793h272v-268h-2025zM627 1061l207 -694l202 694h-409zM1118 268h400v793h-154z" />
<glyph unicode="&#x2166;" horiz-adv-x="2760" d="M86 0v268h457l-254 793h-203v268h2589v-268h-273v-793h273v-268h-2589zM627 1061l207 -694l202 694h-409zM1118 268h400v793h-154zM1839 268h242v793h-242v-793z" />
<glyph unicode="&#x2167;" horiz-adv-x="3315" d="M86 0v268h457l-254 793h-203v268h3144v-268h-271v-793h273v-268h-3146zM627 1061l207 -694l202 694h-409zM1116 268h402v793h-156zM1839 268h238v793h-238v-793zM2398 268h240v793h-240v-793z" />
<glyph unicode="&#x2168;" horiz-adv-x="2154" d="M86 0v268h270v793h-270v268h1982v-268h-210l-297 -404l292 -389h215v-268h-1982zM678 268h164l295 391l-299 402h-160v-793zM1219 268h251l-124 174zM1221 1061l129 -182l131 182h-260z" />
<glyph unicode="&#x2169;" horiz-adv-x="1611" d="M86 0v268h213l295 391l-299 402h-209v268h1440v-268h-211l-297 -404l293 -389h215v-268h-1440zM678 268h250l-125 174zM680 1061l129 -182l129 182h-258z" />
<glyph unicode="&#x216c;" horiz-adv-x="1351" d="M86 0v268h227v793h-227v268h797v-268h-248v-793h330v340h303v-608h-1182z" />
<glyph unicode="&#x216d;" horiz-adv-x="1521" d="M86 662q0 154 52 281.5t142.5 220.5t213 144.5t262.5 51.5q129 0 215 -41t141 -100v110h313v-506h-313q-6 33 -26.5 78t-59.5 84t-101.5 66.5t-152.5 27.5q-68 0 -134.5 -24.5t-120.5 -76.5t-88 -131t-34 -185q0 -96 32 -171t84 -127.5t121.5 -80t145.5 -27.5 q88 0 150.5 27.5t103.5 67.5t62.5 85t29.5 80h312v-516h-312v113q-57 -61 -144 -103.5t-218 -42.5q-143 0 -267 51.5t-214.5 142.5t-142.5 219t-52 282z" />
<glyph unicode="&#x216e;" horiz-adv-x="1529" d="M86 0v268h240v793h-240v268h696q154 0 276 -47t208 -134t132 -210t46 -274q0 -154 -46 -277t-132 -209t-209 -132t-277 -46h-694zM647 268h109q76 0 142.5 24.5t115.5 74t76.5 124t27.5 173.5q0 98 -28.5 172.5t-77.5 125t-116 75t-142 24.5h-107v-793z" />
<glyph unicode="&#x216f;" horiz-adv-x="2134" d="M86 0v268h227v793h-227v268h664l317 -801l299 801h684v-268h-225v-793h225v-268h-698v268h153v578l-323 -828h-234l-323 820v-570h139v-268h-678z" />
<glyph unicode="&#x2190;" horiz-adv-x="2211" d="M-29 616l584 504v-368h1542v-269h-1542v-366z" />
<glyph unicode="&#x2191;" horiz-adv-x="1032" d="M55 1071l504 567l498 -567h-363v-1370h-268v1370h-371z" />
<glyph unicode="&#x2192;" horiz-adv-x="2281" d="M43 483v269h1534v372l643 -508l-643 -505v372h-1534z" />
<glyph unicode="&#x2193;" horiz-adv-x="1007" d="M-29 268h375v1368h268v-1368h367l-502 -571z" />
<glyph unicode="&#x2196;" horiz-adv-x="1796" d="M141 725v725h721l-266 -268l1022 -1020l-188 -189l-1022 1020z" />
<glyph unicode="&#x2197;" horiz-adv-x="1533" d="M-123 162l1022 1022l-264 266h721v-725l-266 268l-1022 -1020z" />
<glyph unicode="&#x2198;" horiz-adv-x="1740" d="M86 1290l188 189l1022 -1020l267 268v-725h-721l264 266z" />
<glyph unicode="&#x2199;" horiz-adv-x="1515" d="M66 2v725l266 -268l1022 1020l188 -189l-1022 -1020l266 -268h-720z" />
<glyph unicode="&#x21a9;" horiz-adv-x="1789" d="M-66 549l582 504v-373h735q111 0 173.5 56.5t62.5 131.5q0 82 -62.5 134.5t-173.5 52.5h-417v268h430q113 0 205 -35t158.5 -95t103 -143t36.5 -182q0 -98 -35.5 -182t-101 -145.5t-159 -96t-207.5 -34.5h-748v-361z" />
<glyph unicode="&#x21b0;" horiz-adv-x="1677" d="M66 983l581 502v-369h875v-1116h-269v848h-606v-367z" />
<glyph unicode="&#x21b1;" horiz-adv-x="1564" d="M72 0v1116h884v369l582 -502l-582 -502v367h-616v-848h-268z" />
<glyph unicode="&#x21b2;" horiz-adv-x="1591" d="M-31 471l584 500v-367h614v848h269v-1116h-883v-369z" />
<glyph unicode="&#x21b3;" horiz-adv-x="1755" d="M137 336v1116h269v-848h616v367l582 -500l-582 -504v369h-885z" />
<glyph unicode="&#x21b4;" horiz-adv-x="1622" d="M131 1184v268h1143v-920h368l-495 -563l-504 563h363v652h-875z" />
<glyph unicode="&#x21c6;" horiz-adv-x="2451" d="M141 1155l582 504v-375h1548v-268h-1548v-361zM207 190v269h1550v368l582 -503l-582 -500v366h-1550z" />
<glyph unicode="&#x2202;" horiz-adv-x="1282" d="M66 475q0 115 45 203t115.5 147.5t159.5 90t175 30.5q76 0 130 -11t92 -28.5t60.5 -37t37.5 -35.5q-10 100 -42 167.5t-79 109.5t-108.5 59.5t-129.5 17.5q-43 0 -121.5 -11.5t-181.5 -60.5l-110 252q117 63 228.5 85t201.5 22q66 0 141.5 -12.5t150 -44.5t143 -86 t121 -139t83 -203t30.5 -277q0 -154 -35.5 -289t-110.5 -236.5t-189.5 -161t-272.5 -59.5q-104 0 -200.5 32t-170 96.5t-118.5 158.5t-45 221zM381 463q0 -49 20.5 -88t53 -65.5t73.5 -41t82 -14.5q74 0 125 28.5t84 77t49.5 107.5t20.5 121q-43 43 -103.5 70.5t-148.5 27.5 q-131 0 -193.5 -64.5t-62.5 -158.5z" />
<glyph unicode="&#x2206;" horiz-adv-x="1443" d="M0 0l545 1452h354l545 -1452h-1444zM442 303h559l-280 801z" />
<glyph unicode="&#x220f;" horiz-adv-x="1402" d="M158 0v1452h1089v-1452h-325v1153h-441v-1153h-323z" />
<glyph unicode="&#x2211;" horiz-adv-x="1169" d="M66 0v297l503 426l-503 434v295h1071v-301h-625l496 -428l-514 -422h643v-301h-1071z" />
<glyph unicode="&#x2212;" horiz-adv-x="1214" d="M94 485v254h1026v-254h-1026z" />
<glyph unicode="&#x2215;" horiz-adv-x="950" d="M0 -29l672 1385h278l-674 -1385h-276z" />
<glyph unicode="&#x2219;" horiz-adv-x="600" d="M117 659q0 39 15 73t41 59.5t60.5 40t75.5 14.5q39 0 75 -14.5t61.5 -40t41 -59.5t15.5 -73q0 -82 -56.5 -135t-136.5 -53t-136 53t-56 135z" />
<glyph unicode="&#x221a;" horiz-adv-x="1462" d="M63 1110h287l240 -709l461 1411h473v-251h-283l-518 -1561h-270z" />
<glyph unicode="&#x221e;" horiz-adv-x="2697" d="M143 727q0 164 40 302t118 239.5t195.5 158t275.5 56.5q145 0 278.5 -51.5t249 -131t214 -176t176.5 -186.5q45 47 98 90t111.5 75t122 51.5t128.5 19.5q102 0 178 -33t126.5 -92.5t75 -141.5t24.5 -180t-24.5 -180t-75 -141.5t-126 -92t-178.5 -32.5q-66 0 -129 18 t-121.5 51t-111.5 76t-98 90q-78 -90 -176.5 -186.5t-214 -176t-248.5 -131t-279 -51.5q-158 0 -275.5 56.5t-195.5 158t-118 239.5t-40 302zM455 727q0 -236 85 -353.5t238 -117.5q119 0 222.5 42t194.5 109.5t171 151.5t152 168q-72 84 -152 168t-171 151.5t-194.5 109.5 t-222.5 42q-154 0 -238.5 -117.5t-84.5 -353.5zM1845 727q25 -29 55.5 -58.5t65.5 -54t76 -41t86 -16.5q66 0 100.5 45t34.5 125t-35 125t-100 45q-45 0 -86 -16.5t-76 -41t-65.5 -54t-55.5 -58.5z" />
<glyph unicode="&#x222b;" horiz-adv-x="757" d="M10 -137h111q45 0 73.5 30.5t28.5 88.5v1065q0 188 107.5 297.5t298.5 109.5h119v-272h-109q-47 0 -74.5 -31t-27.5 -88v-1065q0 -188 -107.5 -298t-298.5 -110h-121v273z" />
<glyph unicode="&#x2248;" horiz-adv-x="1243" d="M63 383q57 109 148.5 165t202.5 56q53 0 110.5 -14.5t114.5 -44.5l96 -53q53 -29 105 -29q51 0 97 23.5t81 76.5l162 -135q-57 -109 -148.5 -165t-200.5 -56q-57 0 -113 14.5t-116 46.5l-98 54q-53 27 -101 26q-47 0 -93 -24.5t-81 -73.5zM63 801q55 109 146.5 166 t200.5 57q55 0 112.5 -13.5t116.5 -45.5l96 -54q51 -29 105 -28q51 0 97 23.5t81 74.5l162 -133q-55 -109 -146.5 -165t-199.5 -58q-117 0 -232 63l-98 53q-25 14 -51.5 20.5t-51.5 6.5q-49 0 -94 -26.5t-78 -73.5z" />
<glyph unicode="&#x2260;" horiz-adv-x="1243" d="M115 283v249h334l98 162h-432v250h585l111 180h270l-110 -180h157v-250h-311l-98 -162h409v-249h-563l-121 -197h-270l121 197h-180z" />
<glyph unicode="&#x2264;" horiz-adv-x="1120" d="M106 82v254h900v-254h-900zM106 659v246l900 266v-251l-545 -134l545 -135v-258z" />
<glyph unicode="&#x2265;" horiz-adv-x="1120" d="M115 82v254h899v-254h-899zM115 393v252l544 133l-544 137v256l899 -266v-246z" />
<glyph unicode="&#x22c5;" horiz-adv-x="600" d="M117 659q0 39 15 73t41 59.5t60.5 40t75.5 14.5q39 0 75 -14.5t61.5 -40t41 -59.5t15.5 -73q0 -82 -56.5 -135t-136.5 -53t-136 53t-56 135z" />
<glyph unicode="&#x24c5;" horiz-adv-x="1665" d="M74 725q0 156 59.5 295t162.5 241.5t240.5 163t294.5 60.5q156 0 295.5 -60.5t241.5 -163t162.5 -241.5t60.5 -295q0 -158 -60.5 -295t-162.5 -240.5t-241.5 -163t-295.5 -59.5q-158 0 -295 59.5t-240 163t-162.5 240.5t-59.5 295zM256 725q0 -123 44 -230.5t122 -187.5 t182.5 -126t226.5 -46q123 0 228.5 46t183.5 126t122 187.5t44 230.5t-44 231.5t-122 188.5t-183.5 126t-228.5 46t-227 -46t-182 -126t-122 -188.5t-44 -231.5zM575 315v818h347q59 0 110 -21.5t89 -58.5t59.5 -87.5t21.5 -105.5t-21.5 -104t-59.5 -86t-89 -58.5 t-110 -21.5h-134v-275h-213zM788 762h91q49 0 78.5 25.5t29.5 72.5t-29.5 74t-78.5 27h-91v-199z" />
<glyph unicode="&#x25a0;" horiz-adv-x="1845" d="M199 0v1452h1450v-1452h-1450z" />
<glyph unicode="&#x25a1;" horiz-adv-x="1845" d="M199 0v1452h1450v-1452h-1450zM465 264h909v922h-909v-922z" />
<glyph unicode="&#x25af;" horiz-adv-x="1218" d="M137 0v1452h944v-1452h-944zM391 254h436v944h-436v-944z" />
<glyph unicode="&#x25b2;" horiz-adv-x="1718" d="M0 0l862 1485l856 -1485h-1718z" />
<glyph unicode="&#x25b3;" horiz-adv-x="1716" d="M0 0l858 1485l858 -1485h-1716zM465 266h786l-393 682z" />
<glyph unicode="&#x25ca;" horiz-adv-x="1327" d="M53 725l430 727h361l430 -727l-430 -725h-361zM412 725l252 -434l251 434l-251 436z" />
<glyph unicode="&#x25cb;" horiz-adv-x="1646" d="M66 725q0 158 59 296t161.5 241.5t241 163t295.5 59.5q158 0 296 -59.5t241.5 -163t163 -241.5t59.5 -296t-59.5 -296t-163 -240.5t-241.5 -162t-296 -59.5t-296 59.5t-240.5 162t-161.5 240.5t-59 296zM332 725q0 -102 39 -191.5t105.5 -157t155.5 -106.5t191 -39 q100 0 189.5 39t156 106.5t104.5 157t38 191.5q0 100 -38 190.5t-104.5 158t-155.5 107.5t-190 40q-102 0 -191 -40t-155.5 -107.5t-105.5 -158t-39 -190.5z" />
<glyph unicode="&#x25cf;" horiz-adv-x="1646" d="M66 725q0 158 59 296t161.5 241.5t241 163t295.5 59.5q158 0 296 -59.5t241.5 -163t163 -241.5t59.5 -296t-59.5 -296t-163 -240.5t-241.5 -162t-296 -59.5t-296 59.5t-240.5 162t-161.5 240.5t-59 296z" />
<glyph unicode="&#x25fc;" horiz-adv-x="1013" d="M0 0v1014h1014v-1014h-1014z" />
<glyph unicode="&#x262e;" horiz-adv-x="1662" d="M74 725q0 158 59.5 296t162.5 241.5t240.5 163t294.5 59.5q158 0 296.5 -59.5t240.5 -163t161.5 -241.5t59.5 -296t-59.5 -296t-161.5 -240.5t-240.5 -162t-296.5 -59.5t-295 59.5t-240 162t-162.5 240.5t-59.5 296zM336 725q0 -70 18 -131l342 266v346 q-78 -23 -143.5 -68.5t-113.5 -109t-75.5 -140.5t-27.5 -163zM481 371q47 -45 100.5 -78t114.5 -49v299zM956 242q61 16 115.5 48t102.5 75l-218 178v-301zM956 860l347 -270q20 61 20 135q0 86 -27.5 165t-77 142.5t-117 108.5t-145.5 67v-348z" />
<glyph unicode="&#x2713;" horiz-adv-x="1900" d="M25 641l194 182l424 -463l1045 1125l188 -189l-1241 -1329z" />
<glyph unicode="&#x2715;" horiz-adv-x="1546" d="M33 176l549 551l-549 545l186 184l549 -543l541 543l186 -184l-541 -543l559 -553l-184 -186l-559 553l-551 -553z" />
<glyph unicode="&#x2780;" horiz-adv-x="1683" d="M84 725q0 156 59.5 295t162 241.5t240.5 163t296 60.5q156 0 294 -60.5t241.5 -163t162.5 -241.5t59 -295q0 -158 -59 -295t-162.5 -240.5t-242 -163t-293.5 -59.5q-158 0 -296 59.5t-240.5 163t-162 240.5t-59.5 295zM264 725q0 -123 44 -230.5t122 -187.5t183.5 -126 t228.5 -46q121 0 226.5 46t183 126t121.5 187.5t44 230.5t-44 231.5t-121.5 188.5t-183 126t-226.5 46q-123 0 -228.5 -46t-183.5 -126t-122 -188.5t-44 -231.5zM571 786v152q53 0 93.5 16.5t67 41t40.5 54t21 56.5h206v-754h-235v434h-193z" />
<glyph unicode="&#x2781;" horiz-adv-x="1683" d="M84 725q0 156 59.5 295t162 241.5t240.5 163t296 60.5q156 0 294 -60.5t241.5 -163t162.5 -241.5t59 -295q0 -158 -59 -295t-162.5 -240.5t-242 -163t-293.5 -59.5q-158 0 -296 59.5t-240.5 163t-162 240.5t-59.5 295zM264 725q0 -123 44 -230.5t122 -187.5t183.5 -126 t228.5 -46q121 0 226.5 46t183 126t121.5 187.5t44 230.5t-44 231.5t-121.5 188.5t-183 126t-226.5 46q-123 0 -228.5 -46t-183.5 -126t-122 -188.5t-44 -231.5zM526 377v26q0 104 40 188.5t147 143.5l123 70q74 41 73 92q0 20 -16 45t-64 25q-47 0 -69.5 -29t-22.5 -70 q0 -14 2 -22t4 -12h-204q-4 12 -6.5 27.5t-2.5 27.5q0 51 18.5 99t57.5 84t95.5 57.5t134.5 21.5q72 0 128 -20.5t95 -55.5t59.5 -82t20.5 -98q0 -74 -45 -130t-127 -103l-138 -80q-10 -6 -10 -11h326v-194h-619z" />
<glyph unicode="&#x2782;" horiz-adv-x="1683" d="M84 725q0 156 59.5 295t162 241.5t240.5 163t296 60.5q156 0 294 -60.5t241.5 -163t162.5 -241.5t59 -295q0 -158 -59 -295t-162.5 -240.5t-242 -163t-293.5 -59.5q-158 0 -296 59.5t-240.5 163t-162 240.5t-59.5 295zM264 725q0 -123 44 -230.5t122 -187.5t183.5 -126 t228.5 -46q121 0 226.5 46t183 126t121.5 187.5t44 230.5t-44 231.5t-121.5 188.5t-183 126t-226.5 46q-123 0 -228.5 -46t-183.5 -126t-122 -188.5t-44 -231.5zM520 567l211 37q2 -39 31 -66.5t76 -27.5q45 0 70.5 21.5t25.5 54.5q0 43 -28.5 62.5t-65.5 19.5 q-33 0 -60 -13l-71 154l161 96h-323v189h596v-191l-174 -104q98 -16 149 -73.5t51 -145.5q0 -51 -22.5 -98.5t-65.5 -83.5t-104.5 -57.5t-138.5 -21.5q-72 0 -129.5 21.5t-97.5 56.5t-63.5 79t-27.5 91z" />
<glyph unicode="&#x2783;" horiz-adv-x="1683" d="M84 725q0 156 59.5 295t162 241.5t240.5 163t296 60.5q156 0 294 -60.5t241.5 -163t162.5 -241.5t59 -295q0 -158 -59 -295t-162.5 -240.5t-242 -163t-293.5 -59.5q-158 0 -296 59.5t-240.5 163t-162 240.5t-59.5 295zM264 725q0 -123 44 -230.5t122 -187.5t183.5 -126 t228.5 -46q121 0 226.5 46t183 126t121.5 187.5t44 230.5t-44 231.5t-121.5 188.5t-183 126t-226.5 46q-123 0 -228.5 -46t-183.5 -126t-122 -188.5t-44 -231.5zM471 510v229l336 381h248v-436h121v-174h-121v-145h-228v145h-356zM641 684h186v209z" />
<glyph unicode="&#x2784;" horiz-adv-x="1683" d="M84 725q0 156 59.5 295t162 241.5t240.5 163t296 60.5q156 0 294 -60.5t241.5 -163t162.5 -241.5t59 -295q0 -158 -59 -295t-162.5 -240.5t-242 -163t-293.5 -59.5q-158 0 -296 59.5t-240.5 163t-162 240.5t-59.5 295zM264 725q0 -123 44 -230.5t122 -187.5t183.5 -126 t228.5 -46q121 0 226.5 46t183 126t121.5 187.5t44 230.5t-44 231.5t-121.5 188.5t-183 126t-226.5 46q-123 0 -228.5 -46t-183.5 -126t-122 -188.5t-44 -231.5zM510 565l205 37q4 -41 35.5 -66.5t76.5 -25.5q41 0 68 21.5t27 60.5q0 49 -29 71.5t-74 22.5q-59 0 -96 -41 l-188 53l90 389h473v-184h-338l-25 -106q27 20 66 30.5t80 10.5q123 0 194.5 -63.5t71.5 -180.5q0 -55 -20.5 -105.5t-61.5 -88.5t-100.5 -59.5t-137.5 -21.5q-66 0 -122 19.5t-97 52.5t-66.5 78t-31.5 96z" />
<glyph unicode="&#x2785;" horiz-adv-x="1683" d="M84 725q0 156 59.5 295t162 241.5t240.5 163t296 60.5q156 0 294 -60.5t241.5 -163t162.5 -241.5t59 -295q0 -158 -59 -295t-162.5 -240.5t-242 -163t-293.5 -59.5q-158 0 -296 59.5t-240.5 163t-162 240.5t-59.5 295zM264 725q0 -123 44 -230.5t122 -187.5t183.5 -126 t228.5 -46q121 0 226.5 46t183 126t121.5 187.5t44 230.5t-44 231.5t-121.5 188.5t-183 126t-226.5 46q-123 0 -228.5 -46t-183.5 -126t-122 -188.5t-44 -231.5zM483 682q0 104 35 186t96.5 138.5t144.5 86t177 29.5q90 0 188 -28l-39 -181q-27 10 -61.5 16.5t-75.5 6.5 q-72 0 -138.5 -31t-94.5 -114q68 57 168 57q111 0 188.5 -59.5t77.5 -178.5q0 -61 -23.5 -111t-67.5 -87t-104.5 -57.5t-134.5 -20.5q-72 0 -133 24.5t-106 69.5t-71 109.5t-26 144.5zM725 602q0 -37 26.5 -61.5t67.5 -24.5t68.5 24.5t27.5 61.5q0 41 -27.5 65.5t-68.5 24.5 t-67.5 -24.5t-26.5 -65.5z" />
<glyph unicode="&#x2786;" horiz-adv-x="1683" d="M84 725q0 156 59.5 295t162 241.5t240.5 163t296 60.5q156 0 294 -60.5t241.5 -163t162.5 -241.5t59 -295q0 -158 -59 -295t-162.5 -240.5t-242 -163t-293.5 -59.5q-158 0 -296 59.5t-240.5 163t-162 240.5t-59.5 295zM264 725q0 -123 44 -230.5t122 -187.5t183.5 -126 t228.5 -46q121 0 226.5 46t183 126t121.5 187.5t44 230.5t-44 231.5t-121.5 188.5t-183 126t-226.5 46q-123 0 -228.5 -46t-183.5 -126t-122 -188.5t-44 -231.5zM516 893v190h639v-188q-27 -23 -69 -67t-85 -112.5t-77.5 -164.5t-46.5 -223h-246q8 135 49 240.5t86 176.5 q53 84 117 148h-367z" />
<glyph unicode="&#x2787;" horiz-adv-x="1683" d="M84 725q0 156 59.5 295t162 241.5t240.5 163t296 60.5q156 0 294 -60.5t241.5 -163t162.5 -241.5t59 -295q0 -158 -59 -295t-162.5 -240.5t-242 -163t-293.5 -59.5q-158 0 -296 59.5t-240.5 163t-162 240.5t-59.5 295zM264 725q0 -123 44 -230.5t122 -187.5t183.5 -126 t228.5 -46q121 0 226.5 46t183 126t121.5 187.5t44 230.5t-44 231.5t-121.5 188.5t-183 126t-226.5 46q-123 0 -228.5 -46t-183.5 -126t-122 -188.5t-44 -231.5zM512 563q0 66 45 115t111 65q-66 18 -99.5 66.5t-33.5 103.5q0 90 77.5 151.5t229.5 61.5q154 0 230.5 -61 t76.5 -152q0 -55 -34 -103t-99 -67q63 -16 109 -63t46 -109q0 -104 -84.5 -168.5t-244.5 -64.5q-156 0 -243 61.5t-87 163.5zM741 594q0 -29 23 -54.5t78 -25.5t77.5 25.5t22.5 54.5q0 27 -23.5 50.5t-76.5 23.5t-77 -23.5t-24 -50.5zM760 881q0 -25 20.5 -46.5t61.5 -23.5 q41 2 61.5 23.5t20.5 46.5q0 23 -19.5 44t-62.5 21t-62.5 -21.5t-19.5 -43.5z" />
<glyph unicode="&#x2788;" horiz-adv-x="1683" d="M84 725q0 156 59.5 295t162 241.5t240.5 163t296 60.5q156 0 294 -60.5t241.5 -163t162.5 -241.5t59 -295q0 -158 -59 -295t-162.5 -240.5t-242 -163t-293.5 -59.5q-158 0 -296 59.5t-240.5 163t-162 240.5t-59.5 295zM264 725q0 -123 44 -230.5t122 -187.5t183.5 -126 t228.5 -46q121 0 226.5 46t183 126t121.5 187.5t44 230.5t-44 231.5t-121.5 188.5t-183 126t-226.5 46q-123 0 -228.5 -46t-183.5 -126t-122 -188.5t-44 -231.5zM526 850q0 61 22.5 112.5t65.5 88t103.5 57t138.5 20.5q72 0 133.5 -24.5t105.5 -70.5t69.5 -110.5 t25.5 -144.5q0 -106 -34 -189t-93 -139.5t-139 -86t-172 -29.5q-47 0 -93.5 8t-93.5 23l35 180q51 -23 127 -23q39 0 77 6.5t70.5 23.5t57 46t37.5 72q-33 -29 -78 -43.5t-94 -14.5t-98.5 15.5t-87.5 45t-61.5 74t-23.5 103.5zM756 858q0 -41 26.5 -64.5t67.5 -23.5 t67.5 23.5t26.5 64.5q0 37 -26.5 61.5t-67.5 24.5t-67.5 -24.5t-26.5 -61.5z" />
<glyph unicode="&#xe000;" horiz-adv-x="1456" d="M-39 532h369v920h1143v-268h-875v-652h360l-501 -563z" />
<glyph unicode="&#xe001;" horiz-adv-x="2304" d="M66 725h335q0 158 59.5 296t163 241.5t242 163t295.5 59.5q92 0 180.5 -21.5t165.5 -62.5l-123 -238q-102 55 -223 56q-102 0 -191 -39t-155.5 -106.5t-105.5 -158t-39 -190.5h348l-475 -555zM805 51l123 236q51 -27 107.5 -41.5t115.5 -14.5q100 0 188 39t155 106.5 t104.5 157t37.5 191.5h-346l475 555l478 -555h-334q0 -158 -59.5 -296t-162 -240.5t-240.5 -162t-296 -59.5q-92 0 -180 21.5t-166 62.5z" />
<glyph unicode="&#xe002;" horiz-adv-x="1966" d="M84 725q0 158 59.5 296t163 241.5t241.5 163t296 59.5q156 0 297 -60l-105 -247q-88 41 -192 41q-102 0 -191.5 -39t-156 -106.5t-105.5 -158t-39 -190.5q0 -102 39 -191.5t105.5 -157t155.5 -106.5t192 -39q100 0 188 39t154.5 106.5t104.5 157t38 191.5h-350l475 555 l477 -555h-329q0 -158 -59.5 -296t-162 -240.5t-241 -162t-295.5 -59.5q-158 0 -296 59.5t-241.5 162t-163 240.5t-59.5 296z" />
<glyph unicode="&#xfb00;" horiz-adv-x="1413" />
<glyph unicode="&#xfb01;" horiz-adv-x="1316" />
<glyph unicode="&#xfb02;" horiz-adv-x="1318" />
<glyph unicode="&#xfb03;" horiz-adv-x="1992" />
<glyph unicode="&#xfb04;" horiz-adv-x="1996" />
<glyph unicode="&#xfeff;" horiz-adv-x="0" />
<glyph horiz-adv-x="583" d="M111 1329q0 37 14 71t38.5 58.5t57.5 38.5t70 14q78 0 131 -53t53 -129t-53 -129t-131 -53q-37 0 -70 14.5t-57.5 39t-38.5 58t-14 70.5zM137 0v1018h312v-1018h-312z" />
<glyph horiz-adv-x="1159" d="M158 0v1452h323v-1143h627v-309h-950z" />
<glyph horiz-adv-x="956" d="M137 0v1483h312v-1483h-312zM543 694q0 76 52 127.5t130 51.5q76 0 129 -51.5t53 -127.5t-53 -126t-129 -50q-78 0 -130 50t-52 126z" />
<glyph horiz-adv-x="899" d="M96 952q0 70 15.5 138.5t58.5 128.5q43 59 111.5 94t167.5 35q98 0 167.5 -35t112.5 -94t58.5 -128t15.5 -139t-15.5 -138.5t-58.5 -127.5q-43 -57 -112.5 -93t-167.5 -36t-167 36t-112 95q-43 57 -58.5 125.5t-15.5 138.5zM334 952q0 -37 4 -73.5t16.5 -66.5t35 -47 t59.5 -17t59 17t34.5 47t16.5 66.5t4 73.5t-4 74t-16.5 66.5t-35 47t-58.5 17.5q-37 0 -59.5 -17.5t-35 -47t-16.5 -66.5t-4 -74z" />
<glyph horiz-adv-x="649" d="M66 1010v151q53 0 93 16.5t66.5 41t41 54.5t20.5 56h207v-754h-236v435h-192z" />
<glyph horiz-adv-x="811" d="M98 573v27q0 104 40 188t147 144l123 69q74 41 73 93q0 20 -16 44.5t-64 24.5q-47 0 -69.5 -28.5t-22.5 -69.5q0 -14 2 -22.5t4 -12.5h-204q-4 12 -6.5 27.5t-2.5 27.5q0 51 18.5 99.5t57.5 84.5t95.5 57.5t134.5 21.5q72 0 128 -20.5t95 -55.5t59.5 -82t20.5 -98 q0 -74 -45 -130.5t-127 -103.5l-138 -80q-10 -6 -10 -10h326v-195h-619z" />
<glyph horiz-adv-x="841" d="M96 803l211 37q2 -39 31 -67t76 -28q45 0 70.5 21.5t25.5 54.5q0 43 -28.5 62.5t-65.5 19.5q-33 0 -60 -12l-71 153l161 97h-323v188h596v-190l-174 -105q98 -16 149 -73.5t51 -145.5q0 -51 -22.5 -98t-65.5 -83t-104 -57.5t-139 -21.5q-72 0 -129.5 21.5t-97.5 56.5 t-63.5 79t-27.5 91z" />
<glyph horiz-adv-x="897" d="M96 719v229l336 381h248v-436h121v-174h-121v-146h-227v146h-357zM266 893h187v209z" />
<glyph horiz-adv-x="823" d="M96 807l205 37q4 -41 36 -66.5t77 -25.5q41 0 67.5 21.5t26.5 60.5q0 49 -28.5 71.5t-73.5 22.5q-59 0 -97 -41l-188 53l90 389h473v-184h-338l-24 -107q27 20 65.5 30.5t79.5 10.5q123 0 194.5 -63.5t71.5 -179.5q0 -55 -20.5 -105.5t-61.5 -88.5t-100 -59.5t-137 -21.5 q-66 0 -122 19.5t-97 52.5t-67 78t-32 96z" />
<glyph horiz-adv-x="858" d="M96 901q0 104 35 186t96.5 138.5t144.5 86t177 29.5q90 0 188 -28l-39 -180q-27 10 -61.5 16t-75.5 6q-72 0 -138.5 -30.5t-94.5 -114.5q68 57 168 57q111 0 188.5 -59.5t77.5 -178.5q0 -61 -23.5 -111t-67.5 -87t-104.5 -57.5t-134.5 -20.5q-72 0 -133 24.5t-106.5 69.5 t-71 109.5t-25.5 144.5zM338 821q0 -37 26.5 -61.5t67.5 -24.5t68.5 24.5t27.5 61.5q0 41 -27.5 65.5t-68.5 24.5t-67.5 -24.5t-26.5 -65.5z" />
<glyph horiz-adv-x="829" d="M96 1139v190h639v-188q-27 -23 -68.5 -67t-84.5 -112.5t-78 -165t-47 -223.5h-246q8 135 49 241t86 177q53 84 117 148h-367z" />
<glyph horiz-adv-x="868" d="M104 782q0 66 45.5 115t110.5 66q-66 18 -99.5 66t-33.5 104q0 90 78 151.5t229 61.5q154 0 230.5 -61.5t76.5 -151.5q0 -55 -33.5 -103.5t-99.5 -66.5q63 -16 109.5 -63.5t46.5 -108.5q0 -104 -85 -169t-245 -65q-156 0 -243 61.5t-87 163.5zM334 813q0 -29 22.5 -54.5 t77.5 -25.5t78 25.5t23 54.5q0 27 -24 50.5t-77 23.5t-76.5 -23.5t-23.5 -50.5zM352 1100q0 -25 20.5 -46.5t61.5 -23.5q41 2 61.5 23.5t20.5 46.5q0 23 -19.5 44t-62.5 21t-62.5 -21.5t-19.5 -43.5z" />
<glyph horiz-adv-x="858" d="M96 1069q0 61 22.5 112.5t65.5 88.5t103.5 57.5t138.5 20.5q72 0 133.5 -25t105.5 -71t69.5 -110.5t25.5 -144.5q0 -106 -34 -189t-93.5 -139.5t-139 -86t-171.5 -29.5q-47 0 -93.5 8t-93.5 23l35 180q51 -23 127 -23q39 0 77 6.5t70.5 23.5t57 46t37.5 72 q-33 -29 -78 -43.5t-94 -14.5t-98.5 15.5t-87.5 45.5t-61.5 74t-23.5 103zM326 1077q0 -41 26.5 -64.5t67.5 -23.5t67.5 23.5t26.5 64.5q0 37 -26.5 61.5t-67.5 24.5t-67.5 -24.5t-26.5 -61.5z" />
<glyph horiz-adv-x="899" d="M96 379q0 70 15.5 138.5t58.5 128.5q43 59 111.5 94t167.5 35q98 0 167.5 -35t112.5 -94t58.5 -128t15.5 -139t-15.5 -138.5t-58.5 -127.5q-43 -57 -112.5 -93t-167.5 -36t-167 36t-112 95q-43 57 -58.5 125.5t-15.5 138.5zM334 379q0 -37 4 -73.5t16.5 -66.5t35 -47 t59.5 -17t59 17t34.5 47t16.5 66.5t4 73.5t-4 74t-16.5 66.5t-35 47t-58.5 17.5q-37 0 -59.5 -17.5t-35 -47t-16.5 -66.5t-4 -74z" />
<glyph horiz-adv-x="630" d="M66 437v151q53 0 93 16.5t66.5 41t41 54.5t20.5 56h207v-754h-236v435h-192z" />
<glyph horiz-adv-x="811" d="M98 2v27q0 104 40 188t147 144l123 69q74 41 73 93q0 20 -16 44.5t-64 24.5q-47 0 -69.5 -28.5t-22.5 -69.5q0 -14 2 -22.5t4 -12.5h-204q-4 12 -6.5 27.5t-2.5 27.5q0 51 18.5 99.5t57.5 84.5t95.5 57.5t134.5 21.5q72 0 128 -20.5t95 -55.5t59.5 -82t20.5 -98 q0 -74 -45 -130.5t-127 -103.5l-138 -80q-10 -6 -10 -10h326v-195h-619z" />
<glyph horiz-adv-x="841" d="M96 232l211 37q2 -39 31 -67t76 -28q45 0 70.5 21.5t25.5 54.5q0 43 -28.5 62.5t-65.5 19.5q-33 0 -60 -12l-71 153l161 97h-323v188h596v-190l-174 -105q98 -16 149 -73.5t51 -145.5q0 -51 -22.5 -98t-65.5 -83t-104 -57.5t-139 -21.5q-72 0 -129.5 21.5t-97.5 56.5 t-63.5 79t-27.5 91z" />
<glyph horiz-adv-x="897" d="M96 148v229l336 381h248v-436h121v-174h-121v-146h-227v146h-357zM266 322h187v209z" />
<glyph horiz-adv-x="829" d="M96 234l205 37q4 -41 36 -66.5t77 -25.5q41 0 67.5 21.5t26.5 60.5q0 49 -28.5 71.5t-73.5 22.5q-59 0 -97 -41l-188 53l90 389h473v-184h-338l-24 -107q27 20 65.5 30.5t79.5 10.5q123 0 194.5 -63.5t71.5 -179.5q0 -55 -20.5 -105.5t-61.5 -88.5t-100 -59.5t-137 -21.5 q-66 0 -122 19.5t-97 52.5t-67 78t-32 96z" />
<glyph horiz-adv-x="858" d="M96 332q0 104 35 186t96.5 138.5t144.5 86t177 29.5q90 0 188 -28l-39 -180q-27 10 -61.5 16t-75.5 6q-72 0 -138.5 -30.5t-94.5 -114.5q68 57 168 57q111 0 188.5 -59.5t77.5 -178.5q0 -61 -23.5 -111t-67.5 -87t-104.5 -57.5t-134.5 -20.5q-72 0 -133 24.5t-106.5 69.5 t-71 109.5t-25.5 144.5zM338 252q0 -37 26.5 -61.5t67.5 -24.5t68.5 24.5t27.5 61.5q0 41 -27.5 65.5t-68.5 24.5t-67.5 -24.5t-26.5 -65.5z" />
<glyph horiz-adv-x="829" d="M96 568v190h639v-188q-27 -23 -68.5 -67t-84.5 -112.5t-78 -165t-47 -223.5h-246q8 135 49 241t86 177q53 84 117 148h-367z" />
<glyph horiz-adv-x="868" d="M104 211q0 66 45.5 115t110.5 66q-66 18 -99.5 66t-33.5 104q0 90 78 151.5t229 61.5q154 0 230.5 -61.5t76.5 -151.5q0 -55 -33.5 -103.5t-99.5 -66.5q63 -16 109.5 -63.5t46.5 -108.5q0 -104 -85 -169t-245 -65q-156 0 -243 61.5t-87 163.5zM334 242q0 -29 22.5 -54.5 t77.5 -25.5t78 25.5t23 54.5q0 27 -24 50.5t-77 23.5t-76.5 -23.5t-23.5 -50.5zM352 529q0 -25 20.5 -46.5t61.5 -23.5q41 2 61.5 23.5t20.5 46.5q0 23 -19.5 44t-62.5 21t-62.5 -21.5t-19.5 -43.5z" />
<glyph horiz-adv-x="858" d="M96 498q0 61 22.5 112.5t65.5 88.5t103.5 57.5t138.5 20.5q72 0 133.5 -25t105.5 -71t69.5 -110.5t25.5 -144.5q0 -106 -34 -189t-93.5 -139.5t-139 -86t-171.5 -29.5q-47 0 -93.5 8t-93.5 23l35 180q51 -23 127 -23q39 0 77 6.5t70.5 23.5t57 46t37.5 72 q-33 -29 -78 -43.5t-94 -14.5t-98.5 15.5t-87.5 45.5t-61.5 74t-23.5 103zM326 506q0 -41 26.5 -64.5t67.5 -23.5t67.5 23.5t26.5 64.5q0 37 -26.5 61.5t-67.5 24.5t-67.5 -24.5t-26.5 -61.5z" />
<glyph horiz-adv-x="100" />
<glyph horiz-adv-x="864" d="M102 813q0 94 62.5 147.5t150.5 67.5l166 25q51 8 51 49q0 29 -25.5 50.5t-74.5 21.5q-55 0 -85 -32t-34 -69l-196 41q4 37 23.5 78t57.5 77t96 59.5t140 23.5q88 0 148.5 -22.5t98.5 -61.5t55.5 -89.5t17.5 -105.5v-348q0 -41 3 -70.5t5 -40.5h-205q-2 8 -4 28t-2 50 q-29 -47 -79 -72.5t-120 -25.5q-59 0 -105 18.5t-79 48t-49.5 69.5t-16.5 83zM328 827q0 -29 18.5 -50t63.5 -21t83.5 28.5t38.5 108.5v31l-126 -21q-35 -4 -56.5 -22.5t-21.5 -53.5z" />
<glyph horiz-adv-x="1036" d="M164 614v1039h225v-387q23 33 77 57.5t126 24.5q78 0 139.5 -28t104.5 -78t65.5 -118.5t22.5 -148.5q0 -82 -26 -151.5t-71 -120t-107.5 -78t-135.5 -27.5q-72 0 -123 27.5t-76 66.5v-78h-221zM385 973q0 -86 48 -128t110 -42q59 0 107 41t48 129t-48 129t-107 41 q-61 0 -109.5 -41t-48.5 -129z" />
<glyph horiz-adv-x="944" d="M113 971q0 84 29.5 153.5t80.5 120.5t120 79t149 28q74 0 133 -21.5t102 -56.5t70.5 -80t40.5 -94l-203 -60q-12 41 -45 72t-92 31q-68 0 -114 -45t-46 -127t48 -125t114 -43q59 0 95 29.5t46 70.5l201 -57q-12 -49 -40 -94t-71 -80t-101.5 -56.5t-129.5 -21.5 q-80 0 -150.5 27.5t-123 78t-83 119t-30.5 152.5z" />
<glyph horiz-adv-x="1042" d="M113 975q0 80 25.5 148.5t71.5 117.5t109.5 78t139.5 29q92 0 135 -26t55 -44v375h225v-912q0 -41 1.5 -72.5t3.5 -54.5h-217q-2 4 -4.5 24.5t-2.5 39.5q-25 -35 -75 -57.5t-111 -22.5q-76 0 -140.5 27.5t-112.5 78t-75.5 119t-27.5 152.5zM340 973q0 -86 48 -128 t110 -42q59 0 107 41t48 129t-48 129t-107 41q-61 0 -109.5 -41t-48.5 -129z" />
<glyph horiz-adv-x="923" d="M102 975q0 86 30 155.5t80 118.5t114.5 76t134.5 27q166 0 263 -96.5t97 -270.5q0 -23 -2 -45t-2 -27h-495q4 -55 50 -92t107 -37q55 0 88 23.5t49 64.5l191 -51q-27 -92 -110 -159.5t-220 -67.5q-74 0 -142.5 25.5t-119.5 74.5t-82 120t-31 161zM326 1059h276 q-2 18 -9 38.5t-23.5 37t-42 28t-64.5 11.5q-66 0 -99.5 -39t-37.5 -76z" />
<glyph horiz-adv-x="698" d="M102 1139v190h113v57q0 123 70.5 201t206.5 78q27 0 57.5 -3t46.5 -11v-187q-10 4 -25.5 6.5t-38.5 2.5q-29 0 -60.5 -17.5t-31.5 -69.5v-57h154v-190h-154v-525h-225v525h-113z" />
<glyph horiz-adv-x="956" d="M113 573l198 58q12 -49 52 -79t100 -30q78 0 125 41t47 137v21q-20 -29 -65.5 -52.5t-123.5 -23.5q-72 0 -133 26.5t-105 73t-69.5 110t-25.5 138.5q0 70 24.5 133.5t68.5 111.5t105.5 76.5t134.5 28.5q88 0 134.5 -30.5t60.5 -57.5v74h217v-622q0 -78 -22.5 -148 t-69.5 -123t-120 -83.5t-173 -30.5q-78 0 -141.5 21.5t-109.5 57t-73.5 80.5t-35.5 92zM340 993q0 -72 43 -111.5t104 -39.5q66 0 107 40t41 111q0 70 -44 110t-104 40q-57 0 -102 -40t-45 -110z" />
<glyph horiz-adv-x="1007" d="M164 614v1039h229v-367q33 33 82 47.5t96 14.5q70 0 122 -22.5t85 -61.5t49.5 -91.5t16.5 -109.5v-449h-228v410q0 51 -27.5 85t-82.5 34q-49 0 -79 -31t-34 -78v-420h-229z" />
<glyph horiz-adv-x="589" d="M164 1542q0 55 39 93t92 38t92 -38t39 -93q0 -53 -39 -92t-92 -39t-92 39t-39 92zM180 614v715h230v-715h-230z" />
<glyph horiz-adv-x="690" d="M143 340v190q6 -2 24.5 -5t43.5 -3q70 0 70 70v737h229v-764q0 -109 -65.5 -176t-176.5 -67q-49 0 -81.5 7t-43.5 11zM264 1542q0 55 39 93t92 38t92 -38t39 -93q0 -53 -38.5 -92t-92.5 -39q-53 0 -92 39t-39 92z" />
<glyph horiz-adv-x="970" d="M164 614v1039h229v-555l207 231h293l-277 -299l283 -416h-276l-164 246l-66 -72v-174h-229z" />
<glyph horiz-adv-x="557" d="M164 614v1039h229v-1039h-229z" />
<glyph horiz-adv-x="1447" d="M164 614v715h219v-82q27 47 86 76t117 29q78 0 131 -30t82 -81q41 59 93 85t126 26q51 0 99 -15.5t85 -49.5t59.5 -85t22.5 -125v-463h-219v410q0 49 -26.5 83t-84.5 34q-55 0 -83.5 -35t-28.5 -82v-410h-226v410q0 49 -26.5 83t-83.5 34q-55 0 -84 -35t-29 -82v-410 h-229z" />
<glyph horiz-adv-x="1007" d="M164 614v715h221v-80q29 49 86 74t113 25q68 0 117 -22.5t80.5 -61.5t47 -91.5t15.5 -109.5v-449h-228v410q0 51 -27.5 85t-82.5 34q-53 0 -83 -34t-30 -85v-410h-229z" />
<glyph horiz-adv-x="987" d="M113 973q0 82 29.5 151.5t80.5 120.5t121 79t150 28t149.5 -28t120.5 -79t80.5 -120.5t29.5 -151.5q0 -84 -29.5 -153.5t-80.5 -120t-121 -78t-149 -27.5q-80 0 -150 27.5t-121 78t-80.5 120t-29.5 153.5zM340 973q0 -86 47.5 -128t106.5 -42t107 41t48 129t-48 129 t-107 41t-106.5 -41t-47.5 -129z" />
<glyph horiz-adv-x="1036" d="M164 342v987h221v-69q23 35 77 61.5t130 26.5q78 0 139.5 -28t104.5 -78t65.5 -118.5t22.5 -148.5q0 -82 -26 -151.5t-71 -120t-107.5 -78t-135.5 -27.5q-68 0 -117 19.5t-74 48.5v-324h-229zM389 973q0 -86 48 -128t110 -42q59 0 107 41t48 129t-48 129t-107 41 q-61 0 -109.5 -41t-48.5 -129z" />
<glyph horiz-adv-x="1038" d="M113 975q0 80 25.5 148.5t70.5 117.5t108.5 78t141.5 29q94 0 141 -32t57 -52v65h217v-987h-223v326q-23 -31 -69.5 -50.5t-112.5 -19.5q-78 0 -142.5 27.5t-112.5 78t-74.5 119t-26.5 152.5zM342 973q0 -86 48 -128t108 -42q59 0 108 41t49 129t-49 129t-108 41 t-107.5 -41t-48.5 -129z" />
<glyph horiz-adv-x="636" d="M164 614v715h221v-92q23 51 73 74.5t97 23.5q25 0 40 -1t32 -5v-223q-31 8 -64 8t-63.5 -9t-54 -31.5t-38 -59.5t-14.5 -92v-308h-229z" />
<glyph horiz-adv-x="817" d="M113 819l192 31q2 -35 27.5 -62.5t79.5 -27.5q41 0 60.5 17.5t19.5 39.5q0 18 -14.5 31.5t-53.5 23.5l-78 17q-119 27 -168 87t-49 136q0 49 20.5 93t57.5 76t87 51.5t112 19.5q78 0 132 -21.5t87.5 -54.5t49 -71t17.5 -68l-186 -33q-4 35 -26.5 59.5t-69.5 24.5 q-29 0 -51.5 -15.5t-22.5 -42.5q0 -23 15.5 -35t37.5 -16l92 -18q113 -23 168.5 -84.5t55.5 -140.5q0 -47 -17.5 -90.5t-53.5 -77t-90.5 -54t-127.5 -20.5q-84 0 -141.5 23.5t-92.5 58.5t-51 73.5t-18 69.5z" />
<glyph horiz-adv-x="671" d="M72 1130v199h34q57 0 84 34t27 83v90h205v-207h137v-199h-137v-256q0 -43 20.5 -57t55.5 -14q16 0 32.5 1t28.5 3v-186q-8 -4 -36.5 -11.5t-82.5 -7.5q-115 0 -179 61.5t-64 170.5v296h-125z" />
<glyph horiz-adv-x="962" d="M113 877v452h227v-401q0 -51 27.5 -85t83.5 -34q53 0 82.5 31.5t29.5 83.5v405h230v-588q0 -43 2 -76.5t4 -50.5h-217q-4 10 -5.5 31t-1.5 41q-29 -47 -82 -67.5t-106 -20.5q-66 0 -117 22.5t-85.5 60.5t-53 89t-18.5 107z" />
<glyph horiz-adv-x="874" d="M41 1329h246l162 -432l147 432h238l-271 -715h-229z" />
<glyph horiz-adv-x="1302" d="M51 1329h236l114 -407l138 407h241l133 -409l115 409h223l-221 -715h-225l-152 453l-149 -453h-230z" />
<glyph horiz-adv-x="874" d="M51 1329h268l121 -186l121 186h254l-246 -350l254 -365h-264l-129 193l-123 -193h-250l244 357z" />
<glyph horiz-adv-x="897" d="M43 1329h254l170 -371l151 371h242l-438 -987h-240l162 371z" />
<glyph horiz-adv-x="829" d="M113 614v201l309 322h-299v192h588v-186l-324 -334h330v-195h-604z" />
<glyph />
<glyph d="M20 319v220h211l58 262h-166v217h211l67 311h236l-68 -311h207l68 311h235l-67 -311h170v-217h-215l-58 -262h168v-220h-215l-67 -319h-236l68 319h-207l-68 -319h-235l67 319h-164zM467 539h207l57 262h-207z" />
<glyph d="M82 409l282 63q4 -45 21.5 -86t50 -71.5t81 -49t114.5 -18.5q78 0 127 34.5t49 94.5q0 88 -127 117l-182 42q-173 41 -271 141t-98 247q0 86 30.5 157.5t82.5 125.5t122.5 89.5t149.5 50.5v220h236v-227q83 -18 145.5 -56t105.5 -84.5t68.5 -102t35.5 -106.5l-284 -76 q-4 25 -14 53.5t-33.5 55.5t-61.5 44t-100 17q-86 0 -128.5 -42t-42.5 -91q0 -88 120 -115l178 -39q101 -23 174 -64t119 -93t67.5 -115t21.5 -133q0 -72 -24.5 -137.5t-72.5 -120t-117.5 -93.5t-156.5 -55v-223h-236v219q-108 18 -186.5 63t-131.5 105t-80.5 127.5 t-33.5 131.5z" />
<glyph d="M47 1059q0 61 23.5 114.5t64.5 92.5t94.5 61.5t114.5 22.5q59 0 112.5 -22.5t93.5 -61.5t63.5 -92.5t23.5 -114.5t-23.5 -113.5t-63.5 -91.5t-93.5 -60.5t-114.5 -21.5t-115.5 22.5t-94.5 61.5t-62.5 91.5t-22.5 111.5zM88 219v205l987 674v-207zM240 1059 q0 -51 28.5 -81t75.5 -30q45 0 73.5 31t28.5 80q0 53 -28.5 82.5t-73.5 29.5q-47 0 -75.5 -29.5t-28.5 -82.5zM561 272q0 61 23.5 114.5t64.5 92.5t94.5 61.5t114.5 22.5q59 0 112.5 -22.5t93.5 -61.5t63.5 -92t23.5 -115q0 -61 -23.5 -113.5t-63.5 -91t-93 -60t-115 -21.5 q-61 0 -115.5 22.5t-94.5 61.5t-62.5 91t-22.5 111zM754 272q0 -51 28.5 -80.5t75.5 -29.5q45 0 74 30.5t29 79.5q0 53 -29 83t-74 30q-47 0 -75.5 -30t-28.5 -83z" />
<glyph d="M82 483v254h389v400h262v-400h388v-254h-388v-399h-262v399h-389z" />
<glyph d="M391 199q0 91 64 151t163 60q58 0 104.5 -24t77 -62.5t46.5 -89.5t16 -107q0 -131 -42 -226t-105.5 -159t-139 -96.5t-143.5 -38.5v160q37 6 76 26.5t71.5 51t54 72.5t24.5 94q-20 -15 -63 -15q-95 0 -149.5 58.5t-54.5 144.5z" />
<glyph d="M394 213q0 48 18.5 89.5t50 73.5t73.5 49.5t89 17.5q48 0 90 -17.5t74.5 -49.5t50.5 -73.5t18 -89.5q0 -47 -18 -89t-50.5 -74t-74.5 -51t-90 -19q-47 0 -89 19t-73.5 51t-50 74t-18.5 89z" />
<glyph d="M59 664q0 123 19.5 248.5t87.5 228.5q66 100 177.5 159.5t258.5 59.5q145 0 256 -57.5t178 -159.5q66 -102 86.5 -229.5t20.5 -249.5q0 -123 -20.5 -251t-86.5 -229q-68 -102 -178 -159.5t-256 -57.5q-147 0 -258 57.5t-178 159.5q-66 100 -86.5 228.5t-20.5 251.5z M385 664q0 -76 4 -150t25.5 -132t65.5 -95t122 -37t121 37t64.5 95t25.5 132t4 150t-4 149.5t-25.5 132t-64.5 94t-121 35.5t-122 -35.5t-65.5 -94t-25.5 -132t-4 -149.5z" />
<glyph d="M152 0v268h333v596h-299v215q150 2 239 75t105 175h279v-1061h303v-268h-960z" />
<glyph d="M96 0q0 92 14.5 175t50.5 157t96.5 137t152.5 117l217 127q78 47 111.5 93t33.5 112q0 63 -44 110t-134 47q-94 0 -140 -56t-46 -140q0 -43 12 -82l-303 2q-4 12 -8 46t-4 64q0 88 32.5 170t96 144.5t156 99.5t212.5 37q115 0 206 -35t155.5 -94.5t98.5 -139t34 -167.5 q0 -129 -66.5 -233.5t-195.5 -180.5l-252 -150q-29 -18 -52.5 -39.5t-37.5 -50.5h614v-270h-1010z" />
<glyph d="M51 397l312 58q4 -88 61 -148.5t152 -60.5q94 0 146 54t52 128q0 47 -16 82t-44 56.5t-62.5 31.5t-69.5 10q-33 0 -64.5 -9t-54.5 -21l-139 213l327 268h-555v270h959v-250l-328 -254q76 -6 144.5 -37.5t119 -85t80 -125t29.5 -157.5q0 -88 -36 -169t-102.5 -143.5 t-163.5 -99.5t-220 -37q-117 0 -210 35t-161 93.5t-107.5 135t-48.5 162.5z" />
<glyph d="M59 276v328l545 725h383v-782h187v-271h-187v-276h-321v276h-607zM342 547h324v438z" />
<glyph d="M100 379l299 61q2 -39 17.5 -74.5t43 -63.5t66.5 -44t88 -16q82 0 140.5 50t58.5 142q0 49 -17.5 86t-46 61.5t-66.5 37t-77 12.5q-68 0 -115 -28t-71 -58q-2 0 -47 14t-97.5 31.5t-97.5 32t-47 16.5l149 690h773v-270h-549l-54 -250q39 35 103.5 53.5t122.5 18.5 q102 0 186 -29t144.5 -86t94 -140t33.5 -190q0 -92 -34.5 -177t-101 -149.5t-163 -103.5t-221.5 -39q-111 0 -203 35t-158.5 92.5t-106.5 132t-46 152.5z" />
<glyph d="M74 575q0 178 54 322.5t154.5 247t242 159t315.5 56.5q94 0 164.5 -16.5t109.5 -38.5l-84 -263q-47 18 -103.5 29.5t-115.5 11.5q-74 0 -144.5 -19.5t-129 -61t-98.5 -107.5t-52 -156q35 57 111.5 101.5t195.5 44.5q98 0 178 -33t138.5 -91.5t90.5 -139t32 -177.5 q0 -102 -38 -189t-106.5 -150.5t-164 -99.5t-208.5 -36q-115 0 -214 41t-171.5 120t-114.5 191.5t-42 253.5zM414 432q0 -43 16 -78t43 -60.5t62.5 -39.5t76.5 -14q82 0 140.5 52t58.5 140q0 90 -58.5 142.5t-140.5 52.5q-80 0 -139 -52.5t-59 -142.5z" />
<glyph d="M49 1059v270h1081v-258q-23 -20 -67.5 -61t-100 -105.5t-115 -152.5t-111.5 -201t-91 -250t-53 -301h-336q10 129 36.5 242.5t63.5 212t81 181.5t87 150q102 158 228 273h-703z" />
<glyph d="M88 360q0 102 60.5 192.5t164.5 131.5q-51 18 -89 51t-62.5 73t-37 84t-12.5 83q0 84 36 154.5t100.5 122t153.5 80t198 28.5t198.5 -28.5t154.5 -80t100.5 -122t35.5 -154.5q0 -39 -12 -83t-38 -84t-63.5 -73t-89.5 -51q104 -41 166 -131t62 -193q0 -88 -38 -159.5 t-105.5 -122.5t-162.5 -80t-208 -29t-207 29t-161.5 80t-105.5 122.5t-38 159.5zM403 397q0 -31 12.5 -60.5t37 -53t61.5 -38t86 -14.5t86 14.5t62.5 38t37.5 53.5t12 60q0 31 -11 61.5t-35.5 54.5t-62.5 39t-89 15t-88 -15t-61.5 -39t-36 -54.5t-11.5 -61.5zM430 950 q0 -59 42 -106t128 -49q88 2 129 49t41 106q0 53 -43 98.5t-127 45.5t-127 -45t-43 -99z" />
<glyph d="M63 891q0 100 37 186t104.5 149.5t161 98.5t207.5 35q111 0 207.5 -41t169 -121t113.5 -199.5t41 -277.5q0 -174 -46 -313.5t-136.5 -236.5t-221.5 -149.5t-303 -52.5q-90 0 -173 19.5t-136 50.5l72 260q33 -16 97.5 -34.5t133.5 -18.5q76 0 145.5 18.5t125 57t90 101 t43.5 150.5q-41 -61 -119 -95t-164 -34q-94 0 -176 33t-142.5 91.5t-95.5 140.5t-35 182zM371 901q0 -41 15 -75.5t41 -59.5t60.5 -38t73.5 -13t74 14t60.5 39t41 58.5t15.5 74.5q0 82 -56.5 134t-134.5 52t-134 -52t-56 -134z" />
<glyph d="M394 177q0 45 17.5 84.5t47.5 70t70 47.5t85 17q46 0 86 -17t71 -47.5t48.5 -70t17.5 -84.5q0 -46 -17.5 -86t-48.5 -70.5t-71 -48.5t-86 -18q-45 0 -85 18t-70 48.5t-47.5 70.5t-17.5 86zM394 866q0 45 17.5 84.5t47.5 70t70 47.5t85 17q46 0 86 -17t71 -47.5t48.5 -70 t17.5 -84.5q0 -46 -17.5 -86t-48.5 -70.5t-71 -48.5t-86 -18q-45 0 -85 18t-70 48.5t-47.5 70.5t-17.5 86z" />
<glyph d="M387 192q0 85 60 141t152 56q54 0 97.5 -22t72 -58t43.5 -84t15 -100q0 -123 -39.5 -212t-98.5 -148.5t-130 -90t-134 -36.5v150q34 6 71 25t67 47.5t50.5 68t22.5 87.5q-19 -14 -59 -14q-89 0 -139.5 54.5t-50.5 135.5zM394 863q0 45 17.5 84.5t47.5 70t70 47.5t85 17 q46 0 86 -17t71 -47.5t48.5 -70t17.5 -84.5q0 -46 -17.5 -86t-48.5 -70.5t-71 -48.5t-86 -18q-45 0 -85 18t-70 48.5t-47.5 70.5t-17.5 86z" />
<glyph d="M146 500v221l899 459v-283l-590 -281l590 -284v-287z" />
<glyph d="M95 283v249h1013v-249h-1013zM95 694v250h1013v-250h-1013z" />
<glyph d="M157 45v281l590 282l-590 285v287l900 -457v-221z" />
<glyph d="M125 653q0 94 28.5 174t81 143.5t124 106.5t155.5 62v190h236v-188q74 -14 133 -46t103 -74t72.5 -92t43.5 -104l-266 -77q-16 53 -61.5 97t-131.5 44q-92 0 -156.5 -61.5t-64.5 -174.5t65.5 -172t159.5 -59q86 0 134 43t65 96l262 -78q-29 -109 -120 -198.5t-238 -118.5 v-166h-236v172q-84 20 -155.5 63.5t-124 105.5t-81 141t-28.5 171z" />
<glyph d="M123 0v242q98 35 155.5 96t57.5 154q0 33 -6 67h-199v225h117q-12 37 -20.5 79t-8.5 93q0 76 28.5 148t85 129t139.5 92t192 35q119 0 200.5 -37t132 -93t72 -124t21.5 -131v-10l-269 -39v10q0 76 -36.5 123t-116.5 47q-63 0 -107.5 -39t-44.5 -121q0 -47 9.5 -84 t25.5 -78h360v-225h-288q2 -10 2 -18.5v-18.5q0 -72 -29 -140.5t-98 -115.5h229q66 0 109 41t43 111l270 -17q0 -86 -27.5 -159.5t-78 -128t-120 -84t-155.5 -29.5h-645z" />
<glyph d="M63 156l148 145q-25 41 -39 95.5t-14 111.5q0 111 51 207l-146 147l187 185l151 -152q94 47 203 47q53 0 106.5 -12t94.5 -35l151 152l187 -185l-146 -147q25 -41 39.5 -95.5t14.5 -111.5q0 -59 -14.5 -110.5t-39.5 -98.5l146 -143l-187 -187l-149 152q-94 -47 -203 -47 t-203 47l-151 -152zM414 508q0 -82 52 -134t138 -52t138.5 52t52.5 134t-52.5 134t-138.5 52t-138 -52t-52 -134z" />
<glyph d="M25 1329h348l235 -483l236 483h334l-283 -510h197v-217h-342v-129h342v-217h-342v-256h-301v256h-322v217h322v129h-322v217h174z" />
<glyph horiz-adv-x="1208" d="M156 -35l292 45q0 -90 45 -127t110 -37q59 0 94 33t35 84q0 31 -19.5 59.5t-53.5 45.5l-207 104q-56 29 -109.5 62.5t-93.5 76.5t-63.5 97t-23.5 125q0 98 44 161t105 98q-74 59 -109.5 132.5t-35.5 157.5q0 92 38 165.5t99.5 125.5t140.5 81t163 29q100 0 181.5 -28 t138.5 -79t90 -121t37 -156l-293 -45q0 92 -44 128t-110 36q-59 0 -95 -34t-36 -83q0 -31 19.5 -58.5t54.5 -44.5l207 -106q57 -31 110.5 -63.5t93.5 -75.5t63.5 -98.5t23.5 -127.5q0 -95 -45 -157.5t-105 -99.5q74 -57 111 -131t37 -155q0 -92 -38 -167t-99.5 -127.5 t-141.5 -81t-164 -28.5q-202 0 -319.5 105.5t-127.5 279.5zM443 597q0 -39 12.5 -64.5t53.5 -48.5l209 -109q20 18 35.5 40t15.5 51q0 35 -14 62.5t-55 50.5l-209 110q-23 -20 -35.5 -42.5t-12.5 -49.5z" />
<glyph d="M67 664v256h1030v-656h-266v400h-764z" />
<glyph d="M109 82v254h989v-254h-989zM109 643v254h362v240h263v-240h364v-254h-364v-237h-263v237h-362z" />
<glyph d="M80 276l334 336l-334 338l184 185l336 -338l336 338l184 -185l-336 -338l336 -336l-184 -188l-336 338l-336 -338z" />
<glyph d="M84 485v254h1034v-254h-1034zM420 233q0 35 13 66t37 54.5t55.5 36.5t68.5 13t68.5 -13t55 -36.5t37 -54.5t13.5 -66t-13.5 -66.5t-37 -55t-55 -38t-68.5 -14.5t-68.5 14.5t-55.5 38t-37 55t-13 66.5zM420 995q0 35 13 67t37 55.5t55.5 36.5t68.5 13t68.5 -13t55 -36.5 t37 -55.5t13.5 -67t-13.5 -66.5t-37 -55t-55 -38t-68.5 -14.5t-68.5 14.5t-55.5 38t-37 55t-13 66.5z" />
<glyph d="M7 -61q66 -16 143 -17q18 0 41.5 5t46.5 20.5t42 43t30 70.5l141 697h-190v258h241l35 168q18 88 59 150.5t97.5 103.5t121 60.5t127.5 19.5q39 0 66 -2.5t48.5 -6.5t41 -10t43.5 -14v-266q-33 8 -64.5 12t-72.5 4q-18 0 -42 -5t-46.5 -20.5t-43 -42t-28.5 -71.5l-16 -80 h225v-258h-278l-158 -785q-18 -88 -60.5 -151.5t-97.5 -103.5t-119.5 -59t-128.5 -19q-39 0 -66.5 2t-50 6t-43 9t-44.5 13v269z" />
<glyph />
<glyph />
<glyph d="M47 1098q0 53 20.5 100t56.5 82t83 54.5t100 19.5t100.5 -19.5t83 -54.5t56 -82t20.5 -100q0 -55 -20.5 -101.5t-56 -80t-83 -53t-100.5 -19.5q-55 0 -102 19.5t-82 53t-55.5 81t-20.5 100.5zM86 344v205l1010 692v-207zM215 1098q0 -45 25.5 -73t66.5 -28t66.5 28 t25.5 73q0 43 -25.5 70.5t-66.5 27.5t-66.5 -27.5t-25.5 -70.5zM268 238q0 53 20.5 100t56.5 82t82 54.5t99 19.5t100.5 -19.5t82.5 -54.5q35 35 82 54.5t100 19.5t100 -19.5t83 -54.5t56.5 -82t20.5 -100q0 -55 -20.5 -101.5t-56.5 -80t-83 -53t-100 -19.5t-100.5 18 t-81.5 53q-35 -35 -82 -53t-101 -18q-53 0 -100 19.5t-82 53t-55.5 81t-20.5 100.5zM434 238q0 -45 26.5 -73t65.5 -28q41 0 66.5 28t25.5 73q0 43 -25.5 70.5t-66.5 27.5q-39 0 -65.5 -27.5t-26.5 -70.5zM799 238q0 -45 25.5 -73t66.5 -28t66.5 28t25.5 73q0 43 -25.5 70.5 t-66.5 27.5t-66.5 -26.5t-25.5 -71.5z" />
<glyph d="M94 395v209h127q-2 20 -2 35v23v20t2 33h-127v207h170q37 100 102.5 181t150.5 138t185.5 88t210.5 31q90 0 148.5 -11.5t112.5 -33.5l-78 -264q-74 31 -183 30q-88 0 -171 -36.5t-136 -122.5h455l-57 -207h-461q-2 -20 -2 -32.5v-20.5v-23.5t2 -34.5h430l-55 -209h-302 q53 -72 131 -106.5t168 -34.5q111 0 185 31l74 -262q-41 -23 -112 -39.5t-147 -16.5q-113 0 -215 29t-186 84t-148.5 135t-101.5 180h-170z" />
<glyph d="M90 485v254h1026v-254h-1026z" />
<glyph d="M41 383q55 104 145 162.5t199 58.5q55 0 113.5 -14.5t117.5 -44.5l99 -53q53 -29 104 -29t96.5 23.5t79.5 76.5l164 -135q-57 -109 -148 -165t-202 -56q-57 0 -112.5 14.5t-114.5 46.5l-99 54q-51 27 -104 26q-100 0 -170 -98zM41 801q57 109 148.5 166t201.5 57 q115 0 225 -59l99 -54q53 -29 104 -28q49 0 95.5 22.5t80.5 75.5l164 -133q-57 -109 -147 -165t-201 -58q-115 0 -229 63l-99 53q-51 27 -102 27q-102 0 -172 -100z" />
<glyph d="M92 283v249h334l98 162h-432v250h586l110 180h271l-111 -180h158v-250h-311l-99 -162h410v-249h-563l-121 -197h-270l120 197h-180z" />
<glyph d="M153 82v254h900v-254h-900zM153 659v246l900 266v-251l-545 -134l545 -135v-258z" />
<glyph d="M152 82v254h899v-254h-899zM152 393v252l544 133l-544 137v256l899 -266v-246z" />
<glyph horiz-adv-x="663" d="M76 727q0 170 31.5 312.5t87 262t129 219t155.5 185.5l185 -154q-76 -90 -137.5 -180t-104.5 -189.5t-65.5 -211t-22.5 -244.5t22.5 -245.5t65.5 -211t104.5 -188.5t137.5 -180l-185 -154q-82 86 -155.5 185.5t-129 219t-87 262t-31.5 312.5z" />
<glyph horiz-adv-x="663" d="M0 -98q76 90 137.5 180t104.5 188.5t65.5 211t22.5 245.5t-22.5 244.5t-65.5 211t-104.5 189.5t-137.5 180l184 154q82 -86 156 -185.5t129 -219t87 -262t32 -312.5t-32 -312.5t-87 -262t-129 -219t-156 -185.5z" />
<glyph horiz-adv-x="798" d="M92 579v281h615v-281h-615z" />
<glyph horiz-adv-x="677" d="M158 -242v1930h510v-232h-252v-1460h252v-238h-510z" />
<glyph horiz-adv-x="677" d="M10 -4h254v1460h-254v232h512v-1930h-512v238z" />
<glyph horiz-adv-x="788" d="M92 600v254q86 0 141.5 41t55.5 139v252q0 205 111.5 303.5t295.5 98.5h82v-232h-76q-57 0 -106 -37t-49 -131v-301q0 -94 -52.5 -162.5t-150.5 -97.5q98 -29 150.5 -97.5t52.5 -164.5v-301q0 -47 13 -80t35.5 -52.5t50.5 -27.5t56 -8h76v-232h-82q-184 0 -295.5 98.5 t-111.5 305.5v252q0 98 -55.5 139t-141.5 41z" />
<glyph horiz-adv-x="788" d="M10 -4h76q29 0 56.5 8t50 27.5t37 52.5t14.5 80v301q0 96 51 164.5t149 97.5q-98 29 -149 97.5t-51 162.5v301q0 47 -14.5 80t-37 52.5t-50 27.5t-56.5 8h-76v232h82q186 0 298 -98.5t112 -303.5v-252q0 -98 54 -139t140 -41v-254q-86 0 -140 -41t-54 -139v-252 q0 -207 -111.5 -305.5t-298.5 -98.5h-82v232z" />
<glyph horiz-adv-x="651" d="M139 0l72 997h229l72 -997h-373zM149 1294q0 74 51.5 125.5t125.5 51.5t126 -51.5t52 -125.5q0 -37 -14.5 -68.5t-38 -55t-56.5 -38t-69 -14.5q-37 0 -69 14.5t-56.5 38t-38 55t-13.5 68.5z" />
<glyph horiz-adv-x="1126" d="M53 710l287 410h289l-285 -412l283 -397h-291zM518 710l287 410h291l-285 -412l283 -397h-293z" />
<glyph horiz-adv-x="798" d="M92 583v281h615v-281h-615z" />
<glyph horiz-adv-x="1126" d="M33 311l284 397l-284 412h289l286 -410l-282 -399h-293zM498 1120h290l287 -410l-284 -399h-291l282 397z" />
<glyph horiz-adv-x="1064" d="M46 375q0 123 52 212t142 157l78 57q55 41 88 87t33 112h243q4 -23 6.5 -44.5t2.5 -46.5q0 -72 -32 -147.5t-120 -140.5l-102 -78q-41 -33 -58.5 -69t-17.5 -75q0 -59 45 -106t137 -47q94 0 141.5 57.5t47.5 134.5q0 37 -11 78l293 -24q4 -23 6 -44.5t2 -43.5 q0 -94 -35.5 -173t-99 -137.5t-151.5 -91.5t-193 -33q-125 0 -218 35t-155.5 91.5t-93 129t-30.5 150.5zM381 1296q0 37 14.5 69t38 56.5t55.5 38t69 13.5q74 0 125 -51.5t51 -125.5q0 -37 -13.5 -68.5t-38 -55t-56.5 -38t-68 -14.5q-37 0 -69 14.5t-55.5 38t-38 55 t-14.5 68.5z" />
<glyph horiz-adv-x="1302" d="M125 585v271h1059v-271h-1059z" />
<glyph horiz-adv-x="2195" d="M145 585v271h1911v-271h-1911z" />
<glyph horiz-adv-x="661" d="M53 710l287 410h289l-285 -412l283 -397h-291z" />
<glyph horiz-adv-x="661" d="M33 311l284 397l-284 412h291l284 -410l-282 -399h-293z" />
<glyph horiz-adv-x="1150" d="M113 610q0 80 21.5 158t64.5 140.5t109.5 101.5t158.5 39q74 0 145.5 -25t134 -64.5t115.5 -89t94 -98.5q14 -16 32 -37.5t33 -44t26.5 -44.5t11.5 -36q0 -16 -11.5 -36.5t-26.5 -43t-32.5 -44t-32.5 -37.5q-41 -49 -94 -98.5t-115.5 -89.5t-134 -64.5t-145.5 -24.5 q-92 0 -158.5 39t-109.5 101.5t-64.5 140t-21.5 157.5zM360 610q0 -74 36 -130t104 -56q43 0 85 17.5t79.5 45t68 60t53.5 63.5q-23 31 -53.5 64t-68 60.5t-79.5 45t-85 17.5q-68 0 -104 -56.5t-36 -130.5z" />
<glyph horiz-adv-x="1591" d="M74 725q0 166 59.5 305t161.5 239.5t239.5 157t290.5 56.5q158 0 277 -45t201.5 -115t132 -154t69.5 -161l-319 -86q-8 33 -29.5 76.5t-63.5 83.5t-107.5 69t-160.5 29q-76 0 -150.5 -26t-135 -81t-97 -141t-36.5 -207q0 -111 33.5 -196t92 -142t136 -87t166.5 -30 q57 0 113.5 13.5t104.5 41t82.5 70.5t47.5 101h-477v280h817q4 -33 5 -65.5t1 -67.5q-2 -139 -51.5 -262t-139.5 -214t-217.5 -144.5t-285.5 -53.5q-160 0 -299.5 55.5t-242 155t-160.5 238.5t-58 307z" />
<glyph horiz-adv-x="1591" d="M74 725q0 166 59.5 305t161.5 239.5t239.5 157t290.5 56.5q158 0 277 -45t201.5 -115t132 -154t69.5 -161l-319 -86q-8 33 -29.5 76.5t-63.5 83.5t-107.5 69t-160.5 29q-76 0 -150.5 -26t-135 -81t-97 -141t-36.5 -207q0 -111 33.5 -196t92 -142t136 -87t166.5 -30 q57 0 113.5 13.5t104.5 41t82.5 70.5t47.5 101h-477v280h817q4 -33 5 -65.5t1 -67.5q-2 -139 -51.5 -262t-139.5 -214t-217.5 -144.5t-285.5 -53.5q-160 0 -299.5 55.5t-242 155t-160.5 238.5t-58 307zM455 1554l250 271h297l253 -271h-288l-119 134l-117 -134h-276z" />
<glyph horiz-adv-x="1591" d="M74 725q0 166 59.5 305t161.5 239.5t239.5 157t290.5 56.5q158 0 277 -45t201.5 -115t132 -154t69.5 -161l-319 -86q-8 33 -29.5 76.5t-63.5 83.5t-107.5 69t-160.5 29q-76 0 -150.5 -26t-135 -81t-97 -141t-36.5 -207q0 -111 33.5 -196t92 -142t136 -87t166.5 -30 q57 0 113.5 13.5t104.5 41t82.5 70.5t47.5 101h-477v280h817q4 -33 5 -65.5t1 -67.5q-2 -139 -51.5 -262t-139.5 -214t-217.5 -144.5t-285.5 -53.5q-160 0 -299.5 55.5t-242 155t-160.5 238.5t-58 307zM471 1825h231q2 -45 30 -74t81 -29t81.5 29t30.5 74h230 q-2 -51 -22.5 -102.5t-62.5 -91.5t-106.5 -64.5t-150.5 -24.5t-149.5 24.5t-105.5 64.5t-63.5 91.5t-23.5 102.5z" />
<glyph horiz-adv-x="1591" d="M74 725q0 166 59.5 305t161.5 239.5t239.5 157t290.5 56.5q158 0 277 -45t201.5 -115t132 -154t69.5 -161l-319 -86q-8 33 -29.5 76.5t-63.5 83.5t-107.5 69t-160.5 29q-76 0 -150.5 -26t-135 -81t-97 -141t-36.5 -207q0 -111 33.5 -196t92 -142t136 -87t166.5 -30 q57 0 113.5 13.5t104.5 41t82.5 70.5t47.5 101h-477v280h817q4 -33 5 -65.5t1 -67.5q-2 -139 -51.5 -262t-139.5 -214t-217.5 -144.5t-285.5 -53.5q-160 0 -299.5 55.5t-242 155t-160.5 238.5t-58 307zM648 1732q0 76 52 127.5t130 51.5q76 0 129 -51.5t53 -127.5 q0 -78 -53 -128t-129 -50q-78 0 -130 50t-52 128z" />
<glyph horiz-adv-x="1591" d="M74 725q0 166 59.5 305t161.5 239.5t239.5 157t290.5 56.5q158 0 277 -45t201.5 -115t132 -154t69.5 -161l-319 -86q-8 33 -29.5 76.5t-63.5 83.5t-107.5 69t-160.5 29q-76 0 -150.5 -26t-135 -81t-97 -141t-36.5 -207q0 -111 33.5 -196t92 -142t136 -87t166.5 -30 q57 0 113.5 13.5t104.5 41t82.5 70.5t47.5 101h-477v280h817q4 -33 5 -65.5t1 -67.5q-2 -139 -51.5 -262t-139.5 -214t-217.5 -144.5t-285.5 -53.5q-160 0 -299.5 55.5t-242 155t-160.5 238.5t-58 307zM676 -223q0 59 45 100t116 41q82 0 133.5 -55.5t51.5 -132.5 q0 -82 -29 -135.5t-72 -85t-95 -45t-97 -13.5h-9.5t-15.5 2v107q86 0 131 25.5t49 68.5q-6 -4 -21 -9t-42 -5q-72 0 -108.5 40t-36.5 97z" />
<glyph horiz-adv-x="882" d="M137 0v1018h312v-1018h-312zM451 834q0 43 15 79.5t43 64.5t63.5 43t78.5 15q86 0 144.5 -58t58.5 -144q0 -43 -15.5 -79t-43 -63.5t-64.5 -43t-80 -15.5q-86 0 -143 57.5t-57 143.5z" />
<glyph horiz-adv-x="882" d="M137 0v1018h312v-1018h-312zM229 1139l188 309h349l-289 -309h-248zM451 834q0 43 15 79.5t43 64.5t63.5 43t78.5 15q86 0 144.5 -58t58.5 -144q0 -43 -15.5 -79t-43 -63.5t-64.5 -43t-80 -15.5q-86 0 -143 57.5t-57 143.5z" />
<glyph horiz-adv-x="882" d="M125 -223q0 59 45 100t116 41q82 0 133.5 -55.5t51.5 -132.5q0 -82 -29 -135.5t-72 -85t-95 -45t-97 -13.5h-9.5t-15.5 2v107q86 0 131 25.5t49 68.5q-6 -4 -21 -9t-42 -5q-72 0 -108.5 40t-36.5 97zM137 0v1018h312v-1018h-312zM451 834q0 43 15 79.5t43 64.5t63.5 43 t78.5 15q86 0 144.5 -58t58.5 -144q0 -43 -15.5 -79t-43 -63.5t-64.5 -43t-80 -15.5q-86 0 -143 57.5t-57 143.5z" />
<glyph horiz-adv-x="882" d="M100 1448h238l145 -148l143 148h232l-230 -309h-297zM137 0v1018h312v-1018h-312zM451 834q0 43 15 79.5t43 64.5t63.5 43t78.5 15q86 0 144.5 -58t58.5 -144q0 -43 -15.5 -79t-43 -63.5t-64.5 -43t-80 -15.5q-86 0 -143 57.5t-57 143.5z" />
<glyph horiz-adv-x="1478" d="M106 416q0 74 26 137t68 110.5t95 80t106 44.5q-47 14 -88 44t-70.5 71t-47 89t-17.5 102q0 84 35 154.5t97.5 122.5t148.5 82t190 30q129 0 220.5 -34t149.5 -91.5t88 -130t34 -148.5l-310 -32q-2 76 -45 128t-135 52q-29 0 -58.5 -10.5t-52 -29t-37 -45t-14.5 -61.5 q0 -43 17.5 -73.5t44.5 -50t56.5 -27.5t54.5 -8h22v-260h-8q-41 0 -85 -11.5t-79 -38t-57.5 -67.5t-22.5 -101q0 -37 14.5 -74.5t45 -66.5t78.5 -47t114 -18q109 0 176.5 58t73.5 171h-150v260h609v-260h-136q-4 -100 -43.5 -190.5t-113.5 -159t-180.5 -108.5t-243.5 -40 q-135 0 -240.5 34t-178.5 94.5t-112 141t-39 177.5z" />
<glyph horiz-adv-x="1019" d="M74 0v268h301v596h-299v215q150 2 237.5 75t106.5 175h276v-1061h295v-268h-917z" />
<glyph horiz-adv-x="878" d="M45 1077q0 82 30.5 154t84 125t125 83.5t153.5 30.5t154 -30.5t125 -83.5t85 -125t32 -154t-32 -153.5t-85 -125t-125 -84t-154 -30.5t-153.5 30.5t-125 84t-84 125t-30.5 153.5zM158 1077q0 -59 21.5 -111.5t59 -91t89 -60t110.5 -21.5t110.5 21.5t89.5 60t59.5 91 t21.5 111.5t-21.5 111.5t-59.5 90.5t-89 60.5t-111 22.5q-59 0 -110.5 -22.5t-89 -60.5t-59 -90.5t-21.5 -111.5zM289 883v401h176q59 0 100 -38t41 -97q0 -37 -18.5 -66.5t-50.5 -46.5l73 -153h-127l-53 133h-22v-133h-119zM408 1110h28q51 0 51 39q0 23 -14 31t-37 8h-28 v-78z" />
<glyph horiz-adv-x="444" d="M45 1028l59 424h297l-153 -424h-203z" />
<glyph horiz-adv-x="436" d="M45 1430q0 59 45 101t117 42q84 0 134 -56.5t50 -134.5q0 -86 -29.5 -140t-74.5 -85t-98.5 -41t-98.5 -10h-16v106q86 0 131 25t49 68q-2 -4 -18.5 -9.5t-45.5 -5.5q-72 0 -108.5 40.5t-36.5 99.5z" />
<glyph horiz-adv-x="395" d="M25 1305q0 76 29.5 129t74.5 84.5t98.5 46t98.5 14.5h16v-104q-86 0 -131 -30t-49 -63q6 4 21.5 9.5t41.5 5.5q72 0 109 -41.5t37 -98.5q0 -59 -45 -100t-117 -41q-82 0 -133 55.5t-51 133.5z" />
<glyph horiz-adv-x="720" d="M23 1296q0 63 44 107.5t109 44.5q63 0 107.5 -44t44.5 -108q0 -66 -44 -109.5t-108 -43.5q-66 0 -109.5 43.5t-43.5 109.5zM393 1296q0 63 43 107.5t107 44.5q66 0 109.5 -44t43.5 -108q0 -66 -44 -109.5t-109 -43.5q-63 0 -106.5 43.5t-43.5 109.5z" />
<glyph horiz-adv-x="768" d="M25 1688q0 68 44 113.5t109 45.5q68 0 113 -46t45 -113q0 -66 -45 -110t-113 -44q-66 0 -109.5 44t-43.5 110zM430 1688q0 68 45 113.5t111 45.5q68 0 112.5 -46t44.5 -113q0 -66 -45 -110t-112 -44q-66 0 -111 44t-45 110z" />
<glyph horiz-adv-x="616" d="M10 1825h371l213 -271h-277z" />
<glyph horiz-adv-x="948" d="M33 1688q0 70 46 116.5t114 46.5q70 0 116.5 -47t46.5 -116q0 -68 -47 -113t-116 -45q-68 0 -114 45t-46 113zM592 1688q0 70 45 116.5t115 46.5q68 0 114.5 -47t46.5 -116q0 -68 -47 -113t-114 -45q-70 0 -115 45t-45 113z" />
<glyph horiz-adv-x="684" d="M25 1579v223h637v-223h-637z" />
<glyph horiz-adv-x="616" d="M23 1554l213 271h370l-307 -271h-276z" />
<glyph horiz-adv-x="851" d="M31 1554l250 271h297l253 -271h-288l-119 134l-117 -134h-276z" />
<glyph horiz-adv-x="851" d="M31 1825h286l119 -133l119 133h276l-251 -271h-297z" />
<glyph horiz-adv-x="751" d="M33 1825h231q2 -45 30 -74t81 -29t81.5 29t30.5 74h230q-2 -51 -22.5 -102.5t-62.5 -91.5t-106.5 -64.5t-150.5 -24.5t-149.5 24.5t-105.5 64.5t-63.5 91.5t-23.5 102.5z" />
<glyph horiz-adv-x="411" d="M25 1722q0 76 52 127.5t130 51.5q76 0 129 -51.5t53 -127.5q0 -78 -53 -128t-129 -50q-78 0 -130 50t-52 128z" />
<glyph horiz-adv-x="624" d="M25 1802q0 61 23.5 112.5t63.5 89.5t91 58.5t108 20.5t109.5 -20.5t92.5 -58.5t63.5 -89.5t23.5 -112.5t-23.5 -112.5t-63.5 -88t-92 -57t-110 -20.5q-57 0 -108 20.5t-91 57t-63.5 88t-23.5 112.5zM213 1802q0 -47 29.5 -71.5t70.5 -24.5q39 0 68 24.5t29 71.5t-29 73 t-68 26q-41 0 -70.5 -26t-29.5 -73z" />
<glyph horiz-adv-x="759" d="M25 1550v68q0 55 17 97t46 69.5t68 41t80 13.5q49 0 87.5 -14.5t73.5 -34.5q31 -16 57.5 -30.5t49.5 -14.5t39 14.5t16 44.5v29h178v-70q0 -55 -17.5 -98t-47 -70.5t-67.5 -42t-81 -14.5q-47 0 -87 15.5t-75 35.5l-10 6q-29 16 -51 28.5t-45 12.5q-20 0 -36.5 -14 t-16.5 -45v-27h-178z" />
<glyph horiz-adv-x="800" d="M25 1554l98 271h285l-191 -271h-192zM356 1554l133 271h289l-225 -271h-197z" />
<glyph horiz-adv-x="444" d="M45 1008l64 444h311l-162 -444h-213z" />
<glyph horiz-adv-x="395" d="M25 -223q0 59 45 100t116 41q82 0 133.5 -55.5t51.5 -132.5q0 -82 -29 -135.5t-72 -85t-95 -45t-97 -13.5h-9.5t-15.5 2v107q86 0 131 25.5t49 68.5q-6 -4 -21 -9t-42 -5q-72 0 -108.5 40t-36.5 97z" />
</font>
</defs>
</svg>
