<?xml version="1.0" standalone="no"?>
<!DOCTYPE svg PUBLIC "-//W3C//DTD SVG 1.1//EN" "http://www.w3.org/Graphics/SVG/1.1/DTD/svg11.dtd" >
<svg xmlns="http://www.w3.org/2000/svg">
<metadata></metadata>
<defs>
<font id="vm_circular_chat_ttbook" horiz-adv-x="1146" >
<font-face units-per-em="2048" ascent="1657" descent="-391" />
<missing-glyph horiz-adv-x="512" />
<glyph unicode="&#xd;" horiz-adv-x="512" />
<glyph unicode=" "  horiz-adv-x="512" />
<glyph unicode="&#x09;" horiz-adv-x="512" />
<glyph unicode="&#xa0;" horiz-adv-x="512" />
<glyph unicode="!" horiz-adv-x="636" d="M184 123q0 55 39 95t94 40t95.5 -40t40.5 -95t-40 -94t-96 -39q-55 0 -94 39t-39 94zM197 1452h241l-51 -1036h-137z" />
<glyph unicode="&#x22;" horiz-adv-x="765" d="M82 1227q0 55 35 90t90 35q53 0 88 -35t35 -90q0 -16 -4 -37l-86 -385h-70l-84 383q-4 21 -4 39zM436 1227q0 55 35 90t90 35q53 0 88 -35t35 -90q0 -16 -4 -37l-86 -385h-70l-84 383q-4 21 -4 39z" />
<glyph unicode="#" horiz-adv-x="1511" d="M102 346v156h293l70 327h-262v156h295l73 342h172l-73 -342h291l73 342h172l-73 -342h276v-156h-309l-70 -327h279v-156h-314l-73 -346h-172l73 346h-291l-73 -346h-172l73 346h-258zM567 502h291l70 327h-291z" />
<glyph unicode="$" horiz-adv-x="1218" d="M102 379l195 61q4 -49 21.5 -96t48 -86t75.5 -66.5t107 -37.5v428l-51 10q-158 33 -249 127t-91 246q0 74 28.5 139t80.5 117.5t124 87t158 45.5v215h160v-217q94 -12 161.5 -47t112.5 -82t70.5 -101.5t38.5 -103.5l-185 -68q-4 29 -18.5 61.5t-39 63.5t-59 56.5 t-81.5 37.5v-419l30 -7q172 -35 268.5 -138t96.5 -243q0 -68 -25.5 -133t-75 -118.5t-123 -89t-171.5 -48.5v-213h-160v213q-106 10 -186 50t-135.5 96.5t-86 124t-39.5 135.5zM360 973q0 -66 42 -116t147 -71v390q-90 -16 -139.5 -71.5t-49.5 -131.5zM709 154 q100 18 147 72t47 126q0 66 -47 120t-147 77v-395z" />
<glyph unicode="%" horiz-adv-x="1673" d="M112 1022q0 68 26.5 126t72 102t104.5 69t125 25t126 -25t105 -69t72 -102t27 -126t-27 -127t-72 -103t-105.5 -68.5t-125.5 -24.5q-66 0 -125 24.5t-104.5 68.5t-72 103t-26.5 127zM276 0l954 1327h185l-951 -1327h-188zM282 1022q0 -72 46 -117t112 -45q68 0 113 45 t45 117q0 70 -45.5 115t-112.5 45q-66 0 -112 -45t-46 -115zM923 309q0 68 26.5 126t72 102t104.5 69t125 25t126 -25t105 -69t72 -102t27 -126t-27 -127t-72 -103t-105.5 -68.5t-125.5 -24.5q-66 0 -125 24.5t-104.5 68.5t-72 103t-26.5 127zM1093 309q0 -72 46 -117 t112 -45q68 0 113 45t45 117q0 70 -45.5 115t-112.5 45q-66 0 -112 -45t-46 -115z" />
<glyph unicode="&#x26;" horiz-adv-x="1427" d="M143 346q0 70 18.5 126t52.5 104.5t81 90.5t104 85l21 16l-27 29q-25 27 -55.5 60.5t-57 74.5t-44 88t-17.5 100q0 88 33 155.5t87 114t120.5 70t134.5 23.5q82 0 152.5 -24.5t122 -71t81 -112t29.5 -147.5q0 -53 -17.5 -99t-46 -86t-65.5 -73.5t-76 -62.5l-74 -55 l271 -281l323 360v-264l-196 -227l329 -340h-272l-184 193q-90 -100 -187.5 -159t-220.5 -59q-102 0 -181 32t-132 84t-80 118.5t-27 136.5zM350 362q0 -37 15.5 -72.5t43 -65t67.5 -47t89 -17.5q84 0 147.5 47t123.5 112l6 9l-295 309l-74 -55q-53 -41 -88 -92.5 t-35 -127.5zM418 1133q0 -31 10 -60t26.5 -54.5t36 -48t37.5 -40.5l45 -49l99 73q66 47 87 90t21 91q0 72 -52 124t-132 52q-31 0 -62.5 -11.5t-57 -35t-42 -56t-16.5 -75.5z" />
<glyph unicode="'" horiz-adv-x="411" d="M82 1227q0 55 35 90t90 35q53 0 88 -35t35 -90q0 -16 -4 -37l-86 -385h-70l-84 383q-4 21 -4 39z" />
<glyph unicode="(" horiz-adv-x="618" d="M113 649q0 168 29.5 310.5t81.5 262t124 220t154 184.5l116 -102q-158 -176 -248.5 -390t-90.5 -485q0 -270 91 -485t248 -389l-116 -103q-82 84 -154 184.5t-124 220.5t-81.5 262t-29.5 310z" />
<glyph unicode=")" horiz-adv-x="618" d="M0 -225q156 174 248 389t92 485q0 135 -23.5 256t-67.5 229.5t-107.5 205t-141.5 184.5l117 102q82 -84 153.5 -184.5t123.5 -220t82 -262t30 -310.5t-30 -310t-82 -262t-123.5 -220.5t-153.5 -184.5z" />
<glyph unicode="*" horiz-adv-x="901" d="M72 1116l47 148l250 -88v276h161v-274l252 86l47 -148l-254 -84l168 -215l-125 -94l-169 223l-160 -221l-125 94l162 213z" />
<glyph unicode="+" horiz-adv-x="1161" d="M113 508v162h383v399h168v-399h385v-162h-385v-404h-168v404h-383z" />
<glyph unicode="," horiz-adv-x="602" d="M143 131q0 55 42 96t108 41t116 -48t50 -146q0 -102 -30 -175t-75 -120t-98 -72.5t-100 -32.5v107q37 8 68.5 29.5t53 52.5t35 66.5t13.5 72.5q-4 -4 -16.5 -7t-28.5 -3q-57 0 -97.5 36.5t-40.5 102.5z" />
<glyph unicode="-" horiz-adv-x="739" d="M92 504v168h555v-168h-555z" />
<glyph unicode="." horiz-adv-x="571" d="M143 131q0 59 41 101t101 42q59 0 101 -42t42 -101t-42 -100t-101 -41t-100.5 41t-41.5 100z" />
<glyph unicode="/" horiz-adv-x="888" d="M0 0l702 1452h187l-703 -1452h-186z" />
<glyph unicode="0" horiz-adv-x="1257" d="M102 664q0 137 27 260t92 221q66 98 166 155.5t242 57.5q141 0 241.5 -57.5t165.5 -155.5q66 -98 92.5 -221t26.5 -260t-26.5 -260t-92.5 -222q-66 -98 -166 -155.5t-241 -57.5t-241.5 57.5t-166.5 155.5t-92.5 221.5t-26.5 260.5zM301 664q0 -307 117 -431 q39 -41 89 -63.5t122 -22.5t122 23t89 63q117 123 116 431q0 307 -116 430q-39 41 -89.5 63.5t-121.5 22.5q-72 0 -122 -22.5t-89 -63.5q-117 -123 -117 -430z" />
<glyph unicode="1" horiz-adv-x="722" d="M51 936v141q139 4 229.5 73t112.5 177h176v-1327h-196v936h-322z" />
<glyph unicode="2" horiz-adv-x="1083" d="M72 0q2 82 19.5 153.5t55 137t97 124t143.5 113.5l221 144q94 59 138.5 128.5t44.5 147.5q0 45 -15.5 87t-46.5 75t-78 52.5t-110 19.5q-66 0 -114 -21.5t-80 -58.5t-47 -86t-15 -107q0 -14 1 -28.5t3 -30.5l-201 24q-2 14 -2 27.5v26.5q0 86 30.5 163.5t89 137 t144.5 94.5t195 35q106 0 190 -33t141.5 -88t87 -130t29.5 -157q0 -131 -67.5 -234.5t-182.5 -174.5l-262 -168q-57 -37 -102 -81t-60 -106h682v-186h-929z" />
<glyph unicode="3" horiz-adv-x="1132" d="M76 385l196 45q2 -66 27 -119t64.5 -90t92 -57.5t111.5 -20.5q68 0 121 19.5t88 53.5t53.5 79t18.5 94q0 66 -23.5 113t-62.5 76.5t-87 44t-97 14.5q-59 0 -117 -21l-99 166l392 361h-635v184h901v-180l-379 -350q74 0 146.5 -24.5t131 -75t95.5 -126t37 -178.5 q0 -84 -32 -160.5t-93.5 -136t-150.5 -94.5t-206 -35q-115 0 -205 35t-152 93.5t-97 133t-39 156.5z" />
<glyph unicode="4" horiz-adv-x="1175" d="M72 299v231l569 797h277v-842h227v-186h-227v-299h-195v299h-651zM256 485h467v650z" />
<glyph unicode="5" horiz-adv-x="1122" d="M72 360l192 58q10 -123 92 -199t207 -76q59 0 111.5 18.5t90.5 54.5t60.5 85t22.5 111q0 68 -23.5 120t-62.5 85.5t-91.5 51t-109.5 17.5q-72 0 -135.5 -25.5t-106.5 -70.5q-53 20 -99 39.5t-97 38.5l172 659h700v-184h-567l-98 -381q45 49 118.5 73.5t151.5 24.5 q98 0 180 -30.5t142.5 -87t94.5 -138.5t34 -184q0 -94 -35 -176t-98.5 -143.5t-153.5 -97.5t-201 -36q-106 0 -193 32t-151.5 86t-102.5 126t-44 149z" />
<glyph unicode="6" horiz-adv-x="1187" d="M104 584q0 184 52.5 328.5t144.5 243.5t217 150.5t270 51.5q92 0 166 -20.5t121 -53.5l-61 -164q-37 23 -99.5 40.5t-138.5 17.5q-104 0 -187 -36t-143.5 -99.5t-95.5 -150.5t-41 -190q41 66 129 119t221 53q98 0 181.5 -29.5t145 -88t95 -142.5t33.5 -192 q0 -106 -40 -190.5t-107.5 -142.5t-156.5 -89t-187 -31q-96 0 -188.5 35t-166 108.5t-119 190.5t-45.5 281zM338 422q0 -66 24.5 -117t64.5 -87t91 -55.5t107 -19.5q57 0 109 18.5t92 54.5t62.5 88t22.5 118q0 68 -23.5 120t-62.5 88t-91 54t-109 18t-109.5 -18t-91.5 -54 t-62.5 -88t-23.5 -120z" />
<glyph unicode="7" horiz-adv-x="989" d="M10 1143v184h969v-192q-47 -37 -131 -120t-172 -221.5t-161 -334t-97 -459.5h-207q10 143 40 269t69.5 233.5t88 196.5t97.5 161q113 166 252 283h-748z" />
<glyph unicode="8" d="M92 350q0 123 73 208t179 120q-45 16 -85 47t-68.5 71t-46 89t-17.5 104q0 82 34 149.5t94 117t141 76t177 26.5q94 0 176 -26.5t142.5 -76t94.5 -117t34 -149.5q0 -109 -62.5 -192.5t-154.5 -118.5q106 -35 179 -120t73 -208q0 -80 -33 -149.5t-94.5 -120.5t-150.5 -81 t-204 -30t-203.5 30t-150 81t-94.5 120.5t-33 149.5zM295 367q0 -94 71.5 -159t206.5 -65t207 64.5t72 159.5q0 96 -72.5 161.5t-206.5 65.5q-133 0 -205.5 -65.5t-72.5 -161.5zM328 979q0 -98 69.5 -156.5t175.5 -60.5q106 2 176 60.5t70 156.5q0 90 -66.5 151.5 t-179.5 61.5t-179 -61.5t-66 -151.5z" />
<glyph unicode="9" horiz-adv-x="1189" d="M82 899q0 102 40 187t107.5 145.5t155.5 93.5t186 33t190.5 -36t165 -110.5t116.5 -189.5t44 -274q0 -182 -40.5 -327t-123.5 -245t-207 -153.5t-292 -53.5q-39 0 -82 6.5t-85 16.5t-79 24.5t-61 30.5l65 166q43 -27 109.5 -45t132.5 -18q121 0 207 36.5t141 101 t82 149.5t31 184q-35 -66 -122 -118t-222 -52q-86 0 -169 28.5t-147.5 86t-103.5 140t-39 193.5zM285 903q0 -68 23.5 -120t63.5 -88t91 -54t108 -18q55 0 106.5 19.5t91.5 55t64.5 87.5t24.5 118q0 63 -24.5 115.5t-64.5 88.5t-91 55.5t-107 19.5q-55 0 -107 -19.5 t-92 -55.5t-63.5 -87t-23.5 -117z" />
<glyph unicode=":" horiz-adv-x="593" d="M153 852q0 59 41 101t101 42q59 0 101 -42t42 -101t-42 -100t-101 -41t-100.5 41t-41.5 100zM155 131q0 59 41 101t101 42q59 0 101 -42t42 -101t-42 -100t-101 -41t-100.5 41t-41.5 100z" />
<glyph unicode=";" horiz-adv-x="608" d="M154 126q0 53 40 92t102 39q63 0 110.5 -46t47.5 -139q0 -97 -28.5 -166t-71 -114t-93 -69t-95.5 -31v102q35 8 65 28t50.5 49.5t33.5 63.5t13 69q-4 -4 -16 -7t-27 -3q-54 0 -92.5 35t-38.5 97zM155 852q0 59 41 101t101 42q59 0 101 -42t42 -101t-42 -100t-101 -41 t-100.5 41t-41.5 100z" />
<glyph unicode="&#x3c;" horiz-adv-x="987" d="M72 500v174l843 422v-195l-634 -313l634 -314v-194z" />
<glyph unicode="=" horiz-adv-x="1214" d="M133 309v162h948v-162h-948zM133 709v157h948v-157h-948z" />
<glyph unicode="&#x3e;" horiz-adv-x="987" d="M72 80v194l639 314l-639 313v195l843 -422v-174z" />
<glyph unicode="?" horiz-adv-x="1044" d="M72 1063q0 70 26.5 144.5t82 136t140.5 100.5t203 39q106 0 190.5 -35t141.5 -92.5t87 -132t30 -152.5q0 -123 -59.5 -210t-149.5 -146l-94 -64q-47 -33 -68.5 -85t-21.5 -111v-15.5t2 -23.5h-181q-2 18 -2 34.5v36.5q0 102 39 180t131 140l90 61q53 35 81 88.5t28 112.5 q0 45 -15.5 87t-45 75t-75.5 52.5t-108 19.5q-68 0 -116 -23t-78.5 -59.5t-46 -83.5t-15.5 -97q0 -27 4 -55.5t11 -44.5l-199 25q-12 43 -12 98zM356 123q0 55 39 95t94 40t95.5 -40t40.5 -95t-40 -94t-96 -39q-55 0 -94 39t-39 94z" />
<glyph unicode="@" horiz-adv-x="1691" d="M92 682q0 178 63.5 325.5t172 253t253 164t306.5 58.5q156 0 290 -51.5t232 -140.5t154.5 -212t56.5 -266q0 -115 -30.5 -212t-84 -169t-124 -111.5t-150.5 -39.5q-72 0 -129.5 31.5t-73.5 99.5q-47 -66 -112.5 -101t-131.5 -35q-70 0 -127 25t-99 71t-64.5 110.5 t-22.5 144.5q0 102 33 190t89 151.5t130 99.5t158 36q33 0 66.5 -8.5t63 -24.5t53 -41.5t36.5 -60.5l18 108h162l-111 -514q-6 -31 -6 -57q0 -35 17.5 -59.5t60.5 -24.5t83 31.5t70.5 86t49 124t18.5 147.5q0 113 -41 208t-115.5 164.5t-181 109.5t-235.5 40 q-135 0 -250 -47t-200 -133t-132 -206t-47 -267q0 -135 44 -250t128 -199t205 -131t274 -47q113 0 220.5 35t199.5 109l84 -111q-45 -43 -104.5 -77t-126 -57.5t-137 -35.5t-136.5 -12q-180 0 -330.5 56t-259 158.5t-169 246t-60.5 317.5zM639 649q0 -47 8 -88t28.5 -70.5 t54.5 -47t83 -17.5q51 0 95 24.5t76 68.5t50.5 105.5t20.5 133.5q0 92 -44 142t-128 50q-55 0 -100.5 -25.5t-77 -67.5t-49 -96t-17.5 -112z" />
<glyph unicode="A" horiz-adv-x="1427" d="M20 0l578 1452h231l578 -1452h-217l-158 406h-643l-153 -406h-216zM461 592h500l-252 651z" />
<glyph unicode="B" horiz-adv-x="1232" d="M184 0v1452h473q104 0 185.5 -29.5t137.5 -82t86 -124t30 -157.5q0 -117 -60.5 -198t-156.5 -116q61 -16 110 -49.5t83 -80t51.5 -102.5t17.5 -118q0 -86 -33 -158.5t-92.5 -125t-141 -82t-182.5 -29.5h-508zM385 176h279q123 0 197.5 62.5t74.5 169.5q0 104 -65.5 170.5 t-198.5 66.5h-287v-469zM385 817h250q123 0 190.5 64.5t67.5 167.5q0 104 -70.5 165.5t-195.5 61.5h-242v-459z" />
<glyph unicode="C" horiz-adv-x="1536" d="M92 727q0 182 61.5 322.5t163 236.5t231.5 146.5t265 50.5q125 0 229.5 -33t186.5 -92.5t138 -145.5t85 -190l-186 -66q-41 166 -157 254t-296 88q-98 0 -191.5 -35.5t-166 -107.5t-115.5 -179.5t-43 -248.5t43 -248.5t115.5 -180.5t166 -108.5t191.5 -35.5 q92 0 168 26.5t134.5 72.5t98 110.5t62.5 138.5l178 -66q-29 -102 -86 -188t-138 -147.5t-186.5 -96.5t-230.5 -35q-141 0 -271 50.5t-229.5 146.5t-160 237.5t-60.5 323.5z" />
<glyph unicode="D" horiz-adv-x="1474" d="M184 0v1452h508q137 0 263 -47t220.5 -139t150.5 -228.5t56 -314.5t-56 -313.5t-152.5 -226.5t-222.5 -137t-263 -46h-504zM385 178h297q100 0 190.5 34t158 101.5t106.5 170t39 239.5t-39 240.5t-105.5 172t-156 103.5t-189.5 35h-301v-1096z" />
<glyph unicode="E" horiz-adv-x="1189" d="M184 0v1452h883v-186h-682v-447h619v-188h-619v-445h682v-186h-883z" />
<glyph unicode="F" horiz-adv-x="1128" d="M184 0v1452h883v-186h-682v-467h619v-189h-619v-610h-201z" />
<glyph unicode="G" horiz-adv-x="1566" d="M92 727q0 184 61.5 325.5t163 236.5t230.5 144.5t264 49.5q119 0 222.5 -32t186.5 -89t143 -138t91 -180l-182 -77q-49 158 -170 244.5t-291 86.5q-98 0 -190.5 -34.5t-164 -106.5t-115.5 -179.5t-44 -250.5q0 -145 42 -252.5t112.5 -179.5t162 -107.5t189.5 -35.5 q121 0 205 37.5t137 95t77.5 124t28.5 121.5h-503v181h694v-711h-162l-18 205q-25 -43 -66 -85t-99.5 -76t-133 -54.5t-166.5 -20.5q-137 0 -264 49.5t-225.5 145.5t-157 237.5t-58.5 325.5z" />
<glyph unicode="H" horiz-adv-x="1511" d="M184 0v1452h201v-621h741v621h201v-1452h-201v645h-741v-645h-201z" />
<glyph unicode="I" horiz-adv-x="573" d="M184 0v1452h205v-1452h-205z" />
<glyph unicode="J" horiz-adv-x="1093" d="M41 432v94l201 45v-137q0 -145 69.5 -211.5t180.5 -66.5t174 68.5t63 195.5v1032h201v-1018q0 -96 -30 -180t-87 -147.5t-138 -100.5t-181 -37q-106 0 -190.5 33t-143 94.5t-89 146.5t-30.5 189z" />
<glyph unicode="K" horiz-adv-x="1368" d="M184 0v1452h201v-747l680 747h264l-604 -647l612 -805h-254l-491 659l-207 -221v-438h-201z" />
<glyph unicode="L" horiz-adv-x="1122" d="M184 0v1452h201v-1264h686v-188h-887z" />
<glyph unicode="M" horiz-adv-x="1937" d="M184 0v1452h273l512 -1182l516 1182h268v-1452h-199v1130l-495 -1130h-185l-491 1130v-1130h-199z" />
<glyph unicode="N" horiz-adv-x="1562" d="M184 0v1452h269l725 -1114v1114h200v-1452h-209l-784 1184v-1184h-201z" />
<glyph unicode="O" horiz-adv-x="1642" d="M92 727q0 182 62.5 322.5t165 236.5t233.5 146.5t268 50.5t268.5 -50.5t233.5 -146.5t164.5 -236.5t62.5 -322.5t-62.5 -323.5t-164.5 -237.5t-233.5 -146.5t-268.5 -50.5t-268 50.5t-233.5 146.5t-165 237.5t-62.5 323.5zM297 727q0 -141 44 -248.5t116.5 -180.5 t167 -108.5t196.5 -35.5q100 0 195.5 35.5t168 108.5t117 180.5t44.5 248.5t-44.5 248.5t-117 179.5t-167.5 107.5t-196 35.5q-102 0 -196.5 -35.5t-167 -107.5t-116.5 -179.5t-44 -248.5z" />
<glyph unicode="P" horiz-adv-x="1222" d="M184 0v1452h529q100 0 183 -33t141.5 -91t91 -136t32.5 -170t-32.5 -171t-91 -135.5t-141.5 -89t-183 -32.5h-328v-594h-201zM385 774h291q131 0 205.5 66.5t74.5 179.5q0 117 -74.5 184.5t-205.5 67.5h-291v-498z" />
<glyph unicode="Q" horiz-adv-x="1642" d="M92 727q0 182 62.5 322.5t165 236.5t233.5 146.5t268 50.5t268.5 -50.5t233.5 -146.5t164.5 -236.5t62.5 -322.5q0 -174 -56 -307t-148 -230l170 -190l-138 -121l-176 195q-86 -53 -183 -79t-198 -26q-137 0 -268 50.5t-233.5 146.5t-165 237.5t-62.5 323.5zM297 727 q0 -141 44 -248.5t116.5 -180.5t167 -108.5t196.5 -35.5q139 0 254 63l-252 283l140 121l254 -287q59 72 94 169t35 224q0 141 -44.5 248.5t-117 179.5t-167.5 107.5t-196 35.5q-102 0 -196.5 -35.5t-167 -107.5t-116.5 -179.5t-44 -248.5z" />
<glyph unicode="R" horiz-adv-x="1267" d="M184 0v1452h547q102 0 185 -34t140.5 -92t88.5 -137t31 -169q0 -158 -93.5 -269.5t-259.5 -142.5l346 -608h-233l-332 594h-217v-594h-203zM387 774h307q123 0 199 66.5t76 179.5q0 117 -76 184.5t-199 67.5h-307v-498z" />
<glyph unicode="S" horiz-adv-x="1214" d="M78 401l192 62q6 -61 30 -117.5t68 -99.5t106.5 -68.5t143.5 -25.5q150 0 225 67.5t75 163.5q0 78 -53.5 140.5t-164.5 84.5l-206 45q-156 35 -255.5 134.5t-99.5 263.5q0 86 37 163.5t101.5 137t152.5 95.5t188 36q123 0 210 -34t145.5 -87t91.5 -116.5t45 -123.5 l-180 -63q-6 39 -26.5 83t-57.5 81t-92.5 60.5t-130.5 23.5q-61 0 -112.5 -18.5t-89.5 -51.5t-58.5 -77t-20.5 -95q0 -78 47 -134.5t139 -76.5l217 -47q182 -41 279.5 -147.5t97.5 -260.5q0 -84 -34.5 -161.5t-100 -137t-158 -95.5t-208.5 -36q-131 0 -228.5 39t-164 100.5 t-103.5 138.5t-47 154z" />
<glyph unicode="T" horiz-adv-x="1212" d="M20 1266v186h1172v-186h-485v-1266h-201v1266h-486z" />
<glyph unicode="U" horiz-adv-x="1372" d="M164 496v956h198v-950q0 -166 85 -256t239 -90t238 90t84 256v950h200v-956q0 -129 -40 -227.5t-110.5 -165t-165.5 -100.5t-206 -34t-206 34t-165.5 100.5t-110.5 165t-40 227.5z" />
<glyph unicode="V" horiz-adv-x="1345" d="M20 1452h213l439 -1194l442 1194h211l-559 -1452h-199z" />
<glyph unicode="W" horiz-adv-x="2056" d="M31 1452h207l319 -1137l365 1137h211l372 -1149l314 1149h206l-413 -1452h-207l-379 1178l-375 -1178h-200z" />
<glyph unicode="X" horiz-adv-x="1263" d="M20 0l496 727l-491 725h241l367 -569l373 569h237l-493 -725l487 -727h-240l-366 567l-375 -567h-236z" />
<glyph unicode="Y" horiz-adv-x="1265" d="M20 1452h242l377 -647l377 647h229l-512 -831v-621h-201v621z" />
<glyph unicode="Z" horiz-adv-x="1294" d="M92 0v201l866 1065h-845v186h1089v-195l-870 -1069h880v-188h-1120z" />
<glyph unicode="[" horiz-adv-x="589" d="M184 -303v1911h396v-156h-228v-1602h228v-153h-396z" />
<glyph unicode="\" horiz-adv-x="888" d="M0 1452h190l699 -1452h-191z" />
<glyph unicode="]" horiz-adv-x="589" d="M10 -150h228v1602h-228v156h396v-1911h-396v153z" />
<glyph unicode="^" horiz-adv-x="1067" d="M51 725l398 729h169l398 -729h-203l-278 528l-281 -528h-203z" />
<glyph unicode="_" horiz-adv-x="1110" d="M31 0h1048v-162h-1048v162z" />
<glyph unicode="`" horiz-adv-x="557" d="M70 1411h241l176 -299h-159z" />
<glyph unicode="a" horiz-adv-x="1193" d="M82 500q0 104 34 197.5t95 163t147 110.5t191 41q66 0 116 -14.5t86.5 -38t61.5 -53t37 -60.5v139h190v-803q0 -66 4.5 -117t6.5 -65h-187q-4 16 -7 52t-3 81v17q-35 -72 -111.5 -124.5t-193.5 -52.5q-109 0 -195 41t-146.5 113t-93 167t-32.5 206zM279 500 q0 -76 19 -141.5t56 -112.5t90.5 -75t122.5 -28q66 0 119 28t90 75t56.5 112.5t19.5 141.5q0 154 -75 248t-208 94t-211.5 -94t-78.5 -248z" />
<glyph unicode="b" horiz-adv-x="1214" d="M164 0v1483h190v-637q35 66 119 117t207 51q113 0 197 -40t141 -110.5t86 -165t29 -200.5q0 -111 -31 -206t-89.5 -166t-143.5 -112t-195 -41q-111 0 -192 45t-128 125v-143h-190zM352 498q0 -80 21.5 -145.5t60.5 -111.5t93.5 -71t117.5 -25q133 0 212 96.5t79 256.5 t-78 253t-213 93q-63 0 -117.5 -24.5t-93.5 -68.5t-60.5 -108.5t-21.5 -144.5z" />
<glyph unicode="c" horiz-adv-x="1085" d="M82 494q0 115 38 211t104.5 164.5t157.5 107.5t196 39q98 0 172.5 -27.5t129 -73t87 -101.5t49.5 -112l-174 -73q-10 37 -28.5 73.5t-50.5 66.5t-77 49.5t-108 19.5q-59 0 -112.5 -21.5t-95.5 -64.5t-66.5 -107.5t-24.5 -150.5q0 -84 24.5 -148.5t65.5 -108.5t96 -67 t115 -23q70 0 117.5 20.5t79.5 51.5t50.5 67t26.5 64l170 -74q-18 -53 -53 -107t-90.5 -99t-130 -73t-170.5 -28q-109 0 -200 40t-156.5 110.5t-103.5 166t-38 208.5z" />
<glyph unicode="d" horiz-adv-x="1204" d="M82 496q0 104 34 197t95 164t147 113t191 42q66 0 116 -14.5t86.5 -38t61.5 -53t37 -60.5v637h190v-1301q0 -72 4.5 -121t6.5 -61h-187q-4 16 -7 52t-3 81v17q-35 -72 -111.5 -124.5t-193.5 -52.5q-109 0 -195 40t-146.5 111t-93 166t-32.5 206zM279 496q0 -76 19 -140.5 t56 -111.5t90.5 -74t122.5 -27q66 0 119 28t90 75t56.5 112.5t19.5 141.5q0 154 -75 248t-208 94q-66 0 -120 -25.5t-92 -72t-58 -109.5t-20 -139z" />
<glyph unicode="e" horiz-adv-x="1110" d="M84 496q0 117 39 212t103.5 163.5t150.5 106.5t178 38q113 0 202 -38t148.5 -105.5t91 -163t31.5 -209.5q0 -18 -1 -34.5t-3 -27.5h-741q2 -66 24.5 -121t62.5 -95t94 -61.5t116 -21.5q121 0 184 57.5t92 141.5l166 -57q-20 -66 -60 -122.5t-96.5 -98.5t-128 -66.5 t-157.5 -24.5q-98 0 -188.5 35t-159 102.5t-108.5 166t-40 223.5zM289 594h538q-4 106 -71.5 179t-198.5 73q-61 0 -109.5 -21.5t-82 -57.5t-54 -81t-22.5 -92z" />
<glyph unicode="f" horiz-adv-x="702" d="M41 811v174h182v166q0 82 25.5 145.5t69.5 106.5t102.5 64.5t126.5 21.5q49 0 78.5 -8t36.5 -13v-172q-8 4 -28 8.5t-56 4.5q-25 0 -52.5 -7.5t-51 -26t-38 -51t-14.5 -83.5v-156h237v-174h-237v-811h-199v811h-182z" />
<glyph unicode="g" horiz-adv-x="1183" d="M92 -53l187 43q10 -104 82.5 -173t185.5 -69q156 0 228.5 80t72.5 240v141q-35 -68 -113 -115t-188 -47q-98 0 -181 36t-143.5 98.5t-94.5 150.5t-34 192q0 100 33 187.5t92.5 152t142 102.5t185.5 38q115 0 190.5 -41t112.5 -115v137h190v-911q0 -94 -24.5 -183.5 t-83 -158t-152.5 -110.5t-233 -42q-92 0 -171 27.5t-139.5 77t-98.5 116t-46 146.5zM291 524q0 -145 76.5 -230t207.5 -85q125 0 203 86t78 229t-78 229.5t-203 86.5q-129 0 -206.5 -86t-77.5 -230z" />
<glyph unicode="h" horiz-adv-x="1150" d="M164 0v1483h192v-613q53 78 133 111t166 33q88 0 155 -30t111 -82t65.5 -123.5t21.5 -153.5v-625h-193v592q0 51 -11 96t-39 79t-72 53.5t-107 19.5q-55 0 -97.5 -20.5t-71 -55.5t-44 -82t-17.5 -102v-580h-192z" />
<glyph unicode="i" horiz-adv-x="518" d="M121 1358q0 59 40 99t97 40q59 0 99 -40t40 -99q0 -57 -40 -97t-99 -40q-57 0 -97 40t-40 97zM164 0v985h190v-985h-190z" />
<glyph unicode="j" horiz-adv-x="520" d="M-31 -244q8 -2 23.5 -4t38.5 -2q76 0 104.5 38t28.5 106v1091h192v-1100q0 -135 -71.5 -220t-200.5 -85q-55 0 -79.5 5t-35.5 9v162zM121 1362q0 59 40 99t97 40q59 0 99 -40t40 -99q0 -57 -40 -97t-99 -40q-57 0 -97 40t-40 97z" />
<glyph unicode="k" horiz-adv-x="1075" d="M164 0v1483h190v-934l426 436h267l-420 -416l428 -569h-242l-321 434l-138 -137v-297h-190z" />
<glyph unicode="l" horiz-adv-x="520" d="M164 0v1483h192v-1483h-192z" />
<glyph unicode="m" horiz-adv-x="1755" d="M164 0v985h184v-131q47 82 130 121t169 39q92 0 173 -45t122 -142q59 106 147.5 146.5t182.5 40.5q63 0 124.5 -22.5t109.5 -68.5t77 -117t29 -167v-639h-191v618q0 96 -50 161t-159 65q-102 0 -164.5 -71t-62.5 -177v-596h-192v618q0 96 -49.5 161t-159.5 65 q-104 0 -167 -69.5t-63 -180.5v-594h-190z" />
<glyph unicode="n" horiz-adv-x="1150" d="M164 0v985h188v-141q53 92 135 131t168 39q88 0 155 -30t111 -82t65.5 -123.5t21.5 -153.5v-625h-193v592q0 51 -11 96t-39 79t-72 53.5t-107 19.5q-57 0 -100.5 -21.5t-72 -58.5t-43 -86t-14.5 -105v-569h-192z" />
<glyph unicode="o" horiz-adv-x="1171" d="M82 494q0 113 37 208t104.5 164.5t159.5 109.5t203 40t203 -40t159.5 -109.5t104.5 -165t37 -207.5q0 -113 -37 -209.5t-104.5 -166t-160 -109.5t-202.5 -40q-111 0 -203 40t-159.5 109.5t-104.5 166t-37 209.5zM279 494q0 -86 24.5 -152t67.5 -111t98.5 -67.5 t116.5 -22.5t116.5 22.5t98.5 67.5t67.5 111t24.5 152t-24.5 150.5t-67.5 109.5t-98.5 67.5t-116.5 22.5t-116.5 -22.5t-98.5 -67.5t-67.5 -109.5t-24.5 -150.5z" />
<glyph unicode="p" horiz-adv-x="1214" d="M164 -389v1374h186v-154q41 74 125 125.5t205 51.5q111 0 196 -40t141 -110t86 -164t30 -200q0 -111 -31 -205t-90.5 -165t-144.5 -111t-193 -40q-115 0 -197 47.5t-123 112.5v-522h-190zM352 494q0 -76 20.5 -140.5t59.5 -110.5t93.5 -72t119.5 -26q68 0 121 26t91 72 t58.5 110.5t20.5 140.5q0 74 -20.5 136t-57.5 108t-91 73t-122 27q-66 0 -120 -27t-93 -73t-59.5 -108.5t-20.5 -135.5z" />
<glyph unicode="q" horiz-adv-x="1189" d="M82 496q0 104 31.5 197t91 164t145.5 112t195 41q63 0 114.5 -15.5t91.5 -40t66.5 -56.5t42.5 -64v151h187v-1374h-191v528q-39 -76 -118 -121t-189 -45q-106 0 -192.5 41t-148 113t-94 166t-32.5 203zM279 496q0 -76 20 -140.5t58 -111.5t91.5 -74t118.5 -27 q66 0 119 27t92 74t59.5 111.5t20.5 140.5t-20.5 139t-59.5 108t-92 71t-119 26q-135 0 -211.5 -95t-76.5 -249z" />
<glyph unicode="r" horiz-adv-x="751" d="M164 0v985h188v-172q27 57 63 93t74.5 57.5t79.5 29.5t78 8q20 0 37.5 -2t26.5 -4v-204q-43 6 -84 6q-121 0 -196 -71t-75 -232v-494h-192z" />
<glyph unicode="s" horiz-adv-x="925" d="M72 256l174 61q10 -78 67.5 -131t161.5 -53q82 0 125 39t43 92q0 47 -32.5 80t-94.5 47l-168 37q-117 25 -181.5 98.5t-64.5 178.5q0 63 28 119.5t75 99.5t111.5 67.5t136.5 24.5q100 0 168.5 -29t111.5 -71t64.5 -87t29.5 -77l-170 -64q-4 18 -14 47t-32.5 54.5 t-61.5 44t-96 18.5q-74 0 -119 -40t-45 -91q0 -94 112 -119l160 -35q135 -29 204 -105.5t69 -187.5q0 -53 -23 -106t-67 -98t-111.5 -73t-159.5 -28q-102 0 -175 29t-121 72t-73.5 93t-31.5 93z" />
<glyph unicode="t" horiz-adv-x="727" d="M41 811v174h53q80 0 116 43t36 109v159h176v-311h213v-174h-213v-512q0 -68 30.5 -101.5t106.5 -33.5q18 0 41 2t35 6v-164q-12 -4 -47 -11t-84 -7q-127 0 -201 72.5t-74 207.5v541h-188z" />
<glyph unicode="u" horiz-adv-x="1159" d="M154 365v620h192v-592q0 -51 12.5 -97t39 -81t68.5 -55.5t103 -20.5q117 0 175.5 70t58.5 182v594h192v-803q0 -59 3 -107t8 -75h-185q-4 16 -6 52t-2 67q-41 -78 -123 -114t-168 -36t-154.5 31t-115.5 84t-72.5 125t-25.5 156z" />
<glyph unicode="v" horiz-adv-x="1028" d="M20 985h218l280 -760l283 760h207l-394 -985h-194z" />
<glyph unicode="w" horiz-adv-x="1624" d="M31 985h211l221 -741l256 741h199l256 -741l217 741h202l-319 -985h-199l-262 750l-256 -750h-203z" />
<glyph unicode="x" horiz-adv-x="1005" d="M20 0l367 502l-354 483h233l242 -346l237 346h228l-350 -483q14 -20 42.5 -59.5t64.5 -88.5t74 -103t73.5 -103.5t64.5 -88.5t43 -59h-231l-254 362l-250 -362h-230z" />
<glyph unicode="y" horiz-adv-x="1071" d="M20 985h222l307 -680l295 680h207l-641 -1397h-211l245 521z" />
<glyph unicode="z" horiz-adv-x="954" d="M82 0v168l541 643h-533v174h772v-168l-540 -643h550v-174h-790z" />
<glyph unicode="{" horiz-adv-x="722" d="M92 563v176q45 0 86 11.5t72 36t49 63.5t18 96v281q0 193 94.5 287t274.5 94h27v-154h-27q-115 0 -158 -51t-43 -164v-336q0 -104 -57 -168.5t-156 -83.5q98 -18 155.5 -82.5t57.5 -169.5v-333q0 -113 43 -164.5t158 -51.5h27v-153h-27q-180 0 -274.5 94t-94.5 287v278 q0 57 -18 96.5t-49 64t-72 35.5t-86 11z" />
<glyph unicode="|" horiz-adv-x="536" d="M184 -303v1911h168v-1911h-168z" />
<glyph unicode="}" horiz-adv-x="722" d="M10 -150h27q115 0 158 51.5t43 164.5v333q0 104 57 169t156 83q-98 18 -155.5 83t-57.5 169v336q0 113 -43 164t-158 51h-27v154h27q180 0 274.5 -94.5t94.5 -286.5v-281q0 -57 18 -96t49 -63.5t72 -36t86 -11.5v-176q-45 0 -86 -11t-72 -35.5t-49 -63.5t-18 -97v-278 q0 -193 -94.5 -287t-274.5 -94h-27v153z" />
<glyph unicode="~" horiz-adv-x="1167" d="M72 549q57 94 137 144t174 50q47 0 96 -12t99 -41l94 -51q57 -33 116 -33q57 0 106.5 30t84.5 83l117 -94q-57 -94 -136 -142.5t-172 -48.5q-98 0 -198 55l-94 52q-59 31 -111 30q-57 0 -106.5 -31.5t-90.5 -84.5z" />
<glyph unicode="&#xa1;" horiz-adv-x="567" d="M150 881q0 55 38.5 95t94.5 40q55 0 95 -40t40 -95t-40 -94t-95 -39t-94 39t-39 94zM162 -444l53 1034h137l51 -1034h-241z" />
<glyph unicode="&#xa2;" horiz-adv-x="1110" d="M102 672q0 94 29 174t80 142.5t121.5 103.5t156.5 57v180h156v-176q78 -8 138.5 -35.5t103.5 -67.5t70.5 -88.5t41.5 -95.5l-165 -67q-8 27 -22.5 56.5t-37 55t-54.5 45t-75 29.5v-629q47 8 81 30t58.5 47.5t39 53t20.5 52.5l164 -68q-16 -45 -46 -92t-74 -86 t-105.5 -67.5t-137.5 -37.5v-188h-156v193q-86 14 -157.5 57t-121.5 106.5t-79 143.5t-29 172zM293 672q0 -123 55 -201t141 -106v612q-84 -29 -140 -104.5t-56 -200.5z" />
<glyph unicode="&#xa3;" horiz-adv-x="1214" d="M133 0v195q104 43 164.5 121.5t60.5 164.5q0 45 -8 78h-205v176h144q-23 53 -42.5 111.5t-19.5 130.5q0 82 32 151.5t86 120.5t128 80t160 29q119 0 197.5 -34t128 -87t71 -117.5t25.5 -126.5l-201 -35q-2 115 -62.5 169.5t-154.5 54.5q-41 0 -79 -13.5t-66.5 -39 t-46 -64.5t-17.5 -88q0 -66 20.5 -124t47.5 -118h397v-176h-344q2 -14 3 -27.5t1 -27.5q0 -109 -51 -194t-144 -132h416q51 0 89 18.5t61.5 48t35 68.5t11.5 82l192 -28q0 -80 -23.5 -147.5t-66.5 -116t-106.5 -76t-143.5 -27.5h-690z" />
<glyph unicode="&#xa4;" horiz-adv-x="1191" d="M90 92l150 156q-35 53 -53.5 113t-18.5 128q0 70 20.5 132.5t55.5 115.5l-154 158l123 121l154 -160q53 35 112.5 53.5t124.5 18.5q123 0 227 -64l148 152l123 -121l-144 -150q39 -53 61.5 -118.5t22.5 -137.5t-21.5 -136t-59.5 -115l141 -146l-121 -121l-143 148 q-51 -33 -110.5 -50.5t-123.5 -17.5q-68 0 -129 20.5t-115 55.5l-149 -156zM338 489q0 -59 20.5 -109t57.5 -86t85 -55.5t103 -19.5t103.5 19.5t83 55.5t55 86t20.5 109t-20.5 108.5t-55 85.5t-83 55.5t-103.5 19.5t-103 -19.5t-85 -55.5t-57.5 -85.5t-20.5 -108.5z" />
<glyph unicode="&#xa5;" horiz-adv-x="1191" d="M51 1327h234l321 -534l305 534h230l-334 -553h244v-145h-344v-164h344v-148h-344v-317h-199v317h-346v148h346v164h-346v145h239z" />
<glyph unicode="&#xa6;" horiz-adv-x="536" d="M184 -303v817h168v-817h-168zM184 791v817h168v-817h-168z" />
<glyph unicode="&#xa7;" horiz-adv-x="1173" d="M174 1108q0 86 34 155.5t92 118t134 75t160 26.5q98 0 174 -30t126 -81t76.5 -119.5t26.5 -148.5l-184 -37q0 115 -55.5 184.5t-167.5 69.5q-98 0 -158.5 -53.5t-60.5 -141.5q0 -113 123 -176l211 -110q57 -31 108 -64t91 -73.5t63.5 -93t23.5 -120.5q0 -47 -16.5 -88 t-41 -74.5t-55 -57t-59.5 -36.5q86 -53 133 -131.5t47 -164.5t-33.5 -156t-92 -119t-134 -75.5t-159.5 -26.5q-98 0 -173 27.5t-126.5 77.5t-77 121t-27.5 155l182 36q0 -113 55.5 -184.5t170.5 -71.5q96 0 156.5 50.5t60.5 144.5q0 57 -33 103.5t-88 74.5l-213 111 q-57 29 -108.5 61.5t-90.5 73.5t-62.5 93t-23.5 122q0 47 16.5 89t42 75t56.5 56.5t59 33.5q-88 53 -135 133t-47 166zM369 586q0 -57 29.5 -100.5t101.5 -79.5l205 -111q35 16 66.5 60t31.5 104q0 57 -30 100t-101 80l-205 111q-35 -16 -66.5 -61.5t-31.5 -102.5z" />
<glyph unicode="&#xa8;" horiz-adv-x="776" d="M78 1272q0 49 33.5 84t83.5 35q51 0 85.5 -35t34.5 -84q0 -51 -34.5 -85t-85.5 -34q-49 0 -83 34t-34 85zM461 1272q0 49 33.5 84t85.5 35q49 0 83.5 -35t34.5 -84q0 -51 -34.5 -85t-83.5 -34q-51 0 -85 34t-34 85z" />
<glyph unicode="&#xa9;" horiz-adv-x="1681" d="M92 727q0 156 58.5 293t160 240.5t236.5 163t291 59.5t293 -59.5t238 -163t160.5 -240.5t59.5 -293t-59.5 -294t-160.5 -240.5t-238.5 -163t-292.5 -60.5q-156 0 -291 60.5t-236.5 163t-160 240.5t-58.5 294zM252 727q0 -129 45 -240.5t125 -192.5t186.5 -128t229.5 -47 t229.5 47t186 128t124.5 192.5t45 240.5t-45 239.5t-124.5 192.5t-186 128t-229.5 46t-229.5 -46t-186.5 -128t-125 -192.5t-45 -239.5zM438 731q0 92 31 171t85 135.5t129 88t159 31.5q80 0 141 -22.5t105.5 -59.5t71 -83t40.5 -91l-143 -59q-8 29 -22.5 59.5t-41 54 t-63.5 40t-88 16.5q-47 0 -91 -17.5t-78 -53.5t-54.5 -88t-20.5 -122t20.5 -122t53.5 -88t78 -54t94 -18q57 0 96 16t64.5 41.5t41 54.5t21.5 53l139 -61q-14 -43 -42.5 -87t-74 -81t-106.5 -59.5t-139 -22.5q-88 0 -163 33t-128 90t-84 135t-31 170z" />
<glyph unicode="&#xaa;" horiz-adv-x="876" d="M135 821q0 92 61.5 145.5t149.5 65.5l180 25q31 4 42.5 18.5t11.5 32.5q0 47 -33 81t-107 34q-68 0 -105.5 -38t-43.5 -95l-141 32q4 47 26.5 88t60 72t89 49.5t112.5 18.5q80 0 135.5 -21.5t91 -56.5t51 -82t15.5 -98v-347q0 -35 3 -70.5t5 -41.5h-145q-4 12 -6 34.5 t-2 55.5q-23 -39 -76 -75t-139 -36q-55 0 -98.5 17.5t-74 46.5t-47 66.5t-16.5 78.5zM289 829q0 -37 27.5 -65.5t78.5 -28.5q37 0 71 9.5t59.5 32t40 59t14.5 90.5v30l-195 -30q-41 -6 -68.5 -29t-27.5 -68z" />
<glyph unicode="&#xab;" horiz-adv-x="964" d="M61 594l273 391h190l-268 -391l268 -391h-190zM461 594l272 391h191l-269 -391l269 -391h-191z" />
<glyph unicode="&#xac;" horiz-adv-x="1173" d="M92 705v167h948v-567h-172v400h-776z" />
<glyph unicode="&#xad;" horiz-adv-x="739" d="M92 504v168h555v-168h-555z" />
<glyph unicode="&#xae;" horiz-adv-x="1681" d="M92 727q0 156 58.5 293t160 240.5t236.5 163t291 59.5t293 -59.5t238 -163t160.5 -240.5t59.5 -293t-59.5 -294t-160.5 -240.5t-238.5 -163t-292.5 -60.5q-156 0 -291 60.5t-236.5 163t-160 240.5t-58.5 294zM252 727q0 -129 45 -240.5t125 -192.5t186.5 -128t229.5 -47 t229.5 47t186 128t124.5 192.5t45 240.5t-45 239.5t-124.5 192.5t-186 128t-229.5 46t-229.5 -46t-186.5 -128t-125 -192.5t-45 -239.5zM588 322v823h284q59 0 110.5 -19.5t88.5 -54.5t58.5 -82t21.5 -102q0 -86 -50 -151.5t-130 -92.5l184 -321h-178l-172 307h-62v-307 h-155zM743 764h107q70 0 106.5 31.5t36.5 89.5q0 125 -143 125h-107v-246z" />
<glyph unicode="&#xaf;" horiz-adv-x="702" d="M72 1182v166h559v-166h-559z" />
<glyph unicode="&#xb0;" horiz-adv-x="759" d="M51 1028q0 68 26.5 126t72 102t104.5 69t125 25t126 -25t105 -69t72 -102t27 -126t-27 -127t-72 -103t-105.5 -68.5t-125.5 -24.5q-66 0 -125 24.5t-104.5 68.5t-72 103t-26.5 127zM221 1028q0 -72 46 -117t112 -45q68 0 113 45t45 117q0 70 -45.5 115t-112.5 45 q-66 0 -112 -45t-46 -115z" />
<glyph unicode="&#xb1;" horiz-adv-x="1161" d="M133 104v162h895v-162h-895zM133 633v158h363v278h168v-278h364v-158h-364v-275h-168v275h-363z" />
<glyph unicode="&#xb2;" horiz-adv-x="796" d="M125 705v26q0 92 41 167t133 130l123 76q88 53 88 129q0 41 -28.5 71.5t-82.5 30.5q-53 0 -84.5 -32.5t-31.5 -85.5q0 -6 1 -22.5t5 -31.5h-152q-4 16 -5 34t-1 30q0 49 18.5 92t53.5 76t85 52t113 19t112.5 -19t84.5 -51t53.5 -75t18.5 -90q0 -72 -39 -128t-105 -97 l-147 -93q-23 -16 -41.5 -34.5t-22.5 -40.5h359v-133h-549z" />
<glyph unicode="&#xb3;" horiz-adv-x="843" d="M123 899l137 55q10 -59 54 -95t108 -36q63 0 101 33t38 80q0 63 -44 89t-95 26q-16 0 -31.5 -2t-25.5 -6l-60 114l195 162h-350v133h555v-129l-205 -164q43 -4 83 -19.5t70.5 -43t49 -68.5t18.5 -92t-21.5 -96t-60.5 -79t-93 -53.5t-122 -19.5t-119 18.5t-89 47 t-61.5 66.5t-31.5 79z" />
<glyph unicode="&#xb4;" horiz-adv-x="561" d="M72 1112l178 299h242l-259 -299h-161z" />
<glyph unicode="&#xb5;" horiz-adv-x="1169" d="M164 -389v1374h192v-592q0 -51 12.5 -97t39 -81t68.5 -55.5t104 -20.5q117 0 175 70t58 182v594h193v-803q0 -59 3 -110.5t7 -71.5h-185q-4 16 -6 52t-2 67q-41 -78 -123 -114t-168 -36q-55 0 -97 11.5t-79 29.5v-399h-192z" />
<glyph unicode="&#xb6;" horiz-adv-x="1282" d="M72 1047q0 98 36.5 173.5t100 127t147.5 78t179 26.5h696v-166h-199v-1698h-170v1698h-190v-1698h-170v1069h-33q-80 0 -152.5 30t-127 82t-86 124t-31.5 154z" />
<glyph unicode="&#xb7;" horiz-adv-x="571" d="M143 582q0 59 41 101t101 42q59 0 101 -42t42 -101t-42 -100.5t-101 -41.5t-100.5 41.5t-41.5 100.5z" />
<glyph unicode="&#xb8;" horiz-adv-x="602" d="M66 -352l75 92q18 -20 56.5 -45t91.5 -25q37 0 66.5 16.5t29.5 51.5q0 29 -23.5 47t-66.5 18q-33 0 -59 -10l-68 80l98 156h146l-80 -123q86 0 142 -45t56 -123q0 -37 -14 -70t-43 -58.5t-75 -40.5t-107 -15q-78 0 -136.5 28.5t-88.5 65.5z" />
<glyph unicode="&#xb9;" horiz-adv-x="600" d="M102 1206v107q76 2 127.5 42t61.5 97h145v-747h-157v501h-177z" />
<glyph unicode="&#xba;" horiz-adv-x="991" d="M137 981q0 80 26.5 147.5t74 116.5t114 77t144.5 28t143.5 -28t113.5 -77t74.5 -116.5t26.5 -147.5t-26.5 -147.5t-74.5 -116.5t-114 -77t-143 -28q-78 0 -144.5 28t-114 77t-74 116.5t-26.5 147.5zM291 981q0 -115 61.5 -173t143.5 -58q80 0 141 58t61 173t-61.5 172 t-140.5 57q-82 0 -143.5 -57t-61.5 -172z" />
<glyph unicode="&#xbb;" horiz-adv-x="964" d="M41 203l268 391l-268 391h190l273 -391l-273 -391h-190zM440 203l269 391l-269 391h191l272 -391l-272 -391h-191z" />
<glyph unicode="&#xbc;" horiz-adv-x="1597" d="M112 1081v107q76 2 127.5 42t61.5 97h145v-747h-157v501h-177zM166 0l954 1327h185l-951 -1327h-188zM828 149v150l362 450h174v-467h132v-133h-132v-147h-157v147h-379zM979 282h228v285z" />
<glyph unicode="&#xbd;" horiz-adv-x="1595" d="M112 1081v107q76 2 127.5 42t61.5 97h145v-747h-157v501h-177zM164 0l954 1327h185l-951 -1327h-188zM948 2v26q0 92 41 167t133 130l123 76q88 53 88 129q0 41 -28.5 71.5t-82.5 30.5q-53 0 -84.5 -32.5t-31.5 -85.5q0 -6 1 -22.5t5 -31.5h-152q-4 16 -5 34t-1 30 q0 49 18.5 92t53.5 76t85 52t113 19t112.5 -19t84.5 -51t53.5 -75t18.5 -90q0 -72 -39 -128t-105 -97l-147 -93q-23 -16 -41.5 -34.5t-22.5 -40.5h359v-133h-549z" />
<glyph unicode="&#xbe;" horiz-adv-x="1740" d="M115 774l137 55q10 -59 54 -95t108 -36q63 0 101 33t38 80q0 63 -44 89t-95 26q-16 0 -31.5 -2t-25.5 -6l-60 114l195 162h-350v133h555v-129l-205 -164q43 -4 83 -19.5t70.5 -43t49 -68.5t18.5 -92t-21.5 -96t-60.5 -79t-93 -53.5t-122 -19.5t-119 18.5t-89 47 t-61.5 66.5t-31.5 79zM346 0l954 1327h185l-951 -1327h-188zM971 149v150l362 450h174v-467h132v-133h-132v-147h-157v147h-379zM1122 282h228v285z" />
<glyph unicode="&#xbf;" horiz-adv-x="1044" d="M41 -63q0 123 59.5 209.5t149.5 146.5l94 63q47 33 68.5 85.5t21.5 111.5v19.5t-2 19.5h180q2 -18 2 -34.5v-37.5q0 -102 -38.5 -180t-131.5 -139l-90 -62q-53 -35 -80.5 -88t-27.5 -112q0 -45 15 -87t45 -75t76 -52.5t107 -19.5q68 0 116 22.5t79 59.5t46 84t15 96 q0 27 -4 55.5t-10 45.5l199 -25q12 -43 12 -98q0 -72 -26.5 -145.5t-82 -135t-140.5 -100.5t-204 -39q-109 0 -191.5 34.5t-140 92t-87 132.5t-29.5 153zM387 883q0 55 40 94t95 39t94 -39t39 -94t-38.5 -95t-94.5 -40q-55 0 -95 39.5t-40 95.5z" />
<glyph unicode="&#xc0;" horiz-adv-x="1427" d="M20 0l578 1452h231l578 -1452h-217l-158 406h-643l-153 -406h-216zM334 1798h264l209 -244h-191zM461 592h500l-252 651z" />
<glyph unicode="&#xc1;" horiz-adv-x="1427" d="M20 0l578 1452h231l578 -1452h-217l-158 406h-643l-153 -406h-216zM461 592h500l-252 651zM614 1554l207 244h266l-280 -244h-193z" />
<glyph unicode="&#xc2;" horiz-adv-x="1427" d="M20 0l578 1452h231l578 -1452h-217l-158 406h-643l-153 -406h-216zM352 1554l230 244h246l239 -244h-188l-174 132l-166 -132h-187zM461 592h500l-252 651z" />
<glyph unicode="&#xc3;" horiz-adv-x="1427" d="M20 0l578 1452h231l578 -1452h-217l-158 406h-643l-153 -406h-216zM377 1550v33q0 115 56.5 171t142.5 56q43 0 81 -14t68 -33l31 -18q23 -12 40.5 -20.5t37.5 -8.5q27 0 46.5 15.5t19.5 56.5v16h137v-32q0 -115 -55.5 -171.5t-141.5 -56.5q-45 0 -80 12.5t-65 34.5 l-31 21q-20 12 -37.5 20t-38.5 8q-33 0 -52 -21.5t-19 -68.5h-140zM461 592h500l-252 651z" />
<glyph unicode="&#xc4;" horiz-adv-x="1427" d="M20 0l578 1452h231l578 -1452h-217l-158 406h-643l-153 -406h-216zM291 1677q0 51 34.5 86t86.5 35q51 0 85.5 -34.5t34.5 -86.5q0 -51 -34.5 -86t-85.5 -35t-86 35t-35 86zM461 592h500l-252 651zM887 1677q0 51 34.5 86t86.5 35q51 0 85.5 -34.5t34.5 -86.5 q0 -51 -34.5 -86t-85.5 -35t-86 35t-35 86z" />
<glyph unicode="&#xc5;" horiz-adv-x="1427" d="M20 0l541 1360q-47 35 -74.5 85t-27.5 111q0 51 20.5 97.5t54 79t79.5 52t96 19.5q51 0 97 -19.5t80 -52t54.5 -79t20.5 -97.5q0 -59 -27 -108t-70 -84l543 -1364h-217l-158 406h-643l-153 -406h-216zM461 592h500l-252 651zM602 1556q0 -45 30 -74.5t73 -29.5 q47 0 77.5 29.5t30.5 74.5q0 43 -30.5 75t-77.5 32q-43 0 -73 -32t-30 -75z" />
<glyph unicode="&#xc6;" horiz-adv-x="2101" d="M10 0l967 1452h1001v-186h-682v-447h619v-188h-619v-445h682v-186h-882v401h-570l-258 -401h-258zM641 582h455v704z" />
<glyph unicode="&#xc7;" horiz-adv-x="1536" d="M92 727q0 182 61.5 322.5t163 236.5t231.5 146.5t265 50.5q125 0 229.5 -33t186.5 -92.5t138 -145.5t85 -190l-186 -66q-41 166 -157 254t-296 88q-98 0 -191.5 -35.5t-166 -107.5t-115.5 -179.5t-43 -248.5t43 -248.5t115.5 -180.5t166 -108.5t191.5 -35.5 q90 0 166 26.5t134 72.5t99 110.5t64 138.5l178 -66q-27 -92 -78 -172t-121.5 -140.5t-160.5 -99t-195 -51.5l-43 -67q86 0 142.5 -45t56.5 -123q0 -37 -14.5 -70t-43 -58.5t-74.5 -40.5t-108 -15q-78 0 -136 28.5t-89 65.5l76 92q18 -20 56 -45t91 -25q37 0 66.5 16.5 t29.5 51.5q0 29 -23.5 47t-66.5 18q-33 0 -59 -10l-68 80l62 98q-131 10 -251 64.5t-211 151t-145.5 232.5t-54.5 308z" />
<glyph unicode="&#xc8;" horiz-adv-x="1189" d="M184 0v1452h883v-186h-682v-447h619v-188h-619v-445h682v-186h-883zM305 1798h264l209 -244h-191z" />
<glyph unicode="&#xc9;" horiz-adv-x="1189" d="M184 0v1452h883v-186h-682v-447h619v-188h-619v-445h682v-186h-883zM479 1554l207 244h266l-280 -244h-193z" />
<glyph unicode="&#xca;" horiz-adv-x="1189" d="M184 0v1452h883v-186h-682v-447h619v-188h-619v-445h682v-186h-883zM268 1554l230 244h246l239 -244h-188l-174 132l-166 -132h-187z" />
<glyph unicode="&#xcb;" horiz-adv-x="1189" d="M184 0v1452h883v-186h-682v-447h619v-188h-619v-445h682v-186h-883zM272 1677q0 51 35 86t86 35t86 -34.5t35 -86.5q0 -51 -35 -86t-86 -35t-86 35t-35 86zM745 1677q0 51 35 86t86 35t86 -34.5t35 -86.5q0 -51 -34.5 -86t-86.5 -35q-51 0 -86 35t-35 86z" />
<glyph unicode="&#xcc;" horiz-adv-x="573" d="M-90 1798h264l209 -244h-191zM184 0v1452h205v-1452h-205z" />
<glyph unicode="&#xcd;" horiz-adv-x="573" d="M184 0v1452h205v-1452h-205zM192 1554l207 244h266l-280 -244h-193z" />
<glyph unicode="&#xce;" horiz-adv-x="573" d="M-56 1554l230 244h246l239 -244h-188l-174 132l-166 -132h-187zM184 0v1452h205v-1452h-205z" />
<glyph unicode="&#xcf;" horiz-adv-x="573" d="M23 1677q0 47 30.5 78t77.5 31t79 -31t32 -78t-32 -78.5t-79 -31.5t-77.5 31.5t-30.5 78.5zM184 0v1452h205v-1452h-205zM336 1677q0 47 31.5 78t78.5 31t78 -31t31 -78t-30.5 -78.5t-78.5 -31.5q-47 0 -78.5 31.5t-31.5 78.5z" />
<glyph unicode="&#xd0;" horiz-adv-x="1482" d="M37 666v168h156v618h507q137 0 263.5 -47t220.5 -139t150.5 -228.5t56.5 -314.5t-56.5 -313.5t-153 -226.5t-222 -137t-263.5 -46h-503v666h-156zM393 178h297q100 0 190.5 34t158 101.5t106.5 170t39 239.5t-39 240.5t-105.5 172t-155.5 103.5t-190 35h-301v-440h250 v-168h-250v-488z" />
<glyph unicode="&#xd1;" horiz-adv-x="1562" d="M184 0v1452h269l725 -1114v1114h200v-1452h-209l-784 1184v-1184h-201zM452 1550v33q0 115 56.5 171t142.5 56q43 0 81 -14t68 -33l31 -18q23 -12 40.5 -20.5t37.5 -8.5q27 0 46.5 15.5t19.5 56.5v16h137v-32q0 -115 -55.5 -171.5t-141.5 -56.5q-45 0 -80 12.5t-65 34.5 l-31 21q-20 12 -37.5 20t-38.5 8q-33 0 -52 -21.5t-19 -68.5h-140z" />
<glyph unicode="&#xd2;" horiz-adv-x="1642" d="M92 727q0 182 62.5 322.5t165 236.5t233.5 146.5t268 50.5t268.5 -50.5t233.5 -146.5t164.5 -236.5t62.5 -322.5t-62.5 -323.5t-164.5 -237.5t-233.5 -146.5t-268.5 -50.5t-268 50.5t-233.5 146.5t-165 237.5t-62.5 323.5zM297 727q0 -141 44 -248.5t116.5 -180.5 t167 -108.5t196.5 -35.5q100 0 195.5 35.5t168 108.5t117 180.5t44.5 248.5t-44.5 248.5t-117 179.5t-167.5 107.5t-196 35.5q-102 0 -196.5 -35.5t-167 -107.5t-116.5 -179.5t-44 -248.5zM457 1798h264l209 -244h-191z" />
<glyph unicode="&#xd3;" horiz-adv-x="1642" d="M92 727q0 182 62.5 322.5t165 236.5t233.5 146.5t268 50.5t268.5 -50.5t233.5 -146.5t164.5 -236.5t62.5 -322.5t-62.5 -323.5t-164.5 -237.5t-233.5 -146.5t-268.5 -50.5t-268 50.5t-233.5 146.5t-165 237.5t-62.5 323.5zM297 727q0 -141 44 -248.5t116.5 -180.5 t167 -108.5t196.5 -35.5q100 0 195.5 35.5t168 108.5t117 180.5t44.5 248.5t-44.5 248.5t-117 179.5t-167.5 107.5t-196 35.5q-102 0 -196.5 -35.5t-167 -107.5t-116.5 -179.5t-44 -248.5zM708 1554l207 244h266l-280 -244h-193z" />
<glyph unicode="&#xd4;" horiz-adv-x="1642" d="M92 727q0 182 62.5 322.5t165 236.5t233.5 146.5t268 50.5t268.5 -50.5t233.5 -146.5t164.5 -236.5t62.5 -322.5t-62.5 -323.5t-164.5 -237.5t-233.5 -146.5t-268.5 -50.5t-268 50.5t-233.5 146.5t-165 237.5t-62.5 323.5zM297 727q0 -141 44 -248.5t116.5 -180.5 t167 -108.5t196.5 -35.5q100 0 195.5 35.5t168 108.5t117 180.5t44.5 248.5t-44.5 248.5t-117 179.5t-167.5 107.5t-196 35.5q-102 0 -196.5 -35.5t-167 -107.5t-116.5 -179.5t-44 -248.5zM465 1554l230 244h246l239 -244h-188l-174 132l-166 -132h-187z" />
<glyph unicode="&#xd5;" horiz-adv-x="1642" d="M92 727q0 182 62.5 322.5t165 236.5t233.5 146.5t268 50.5t268.5 -50.5t233.5 -146.5t164.5 -236.5t62.5 -322.5t-62.5 -323.5t-164.5 -237.5t-233.5 -146.5t-268.5 -50.5t-268 50.5t-233.5 146.5t-165 237.5t-62.5 323.5zM297 727q0 -141 44 -248.5t116.5 -180.5 t167 -108.5t196.5 -35.5q100 0 195.5 35.5t168 108.5t117 180.5t44.5 248.5t-44.5 248.5t-117 179.5t-167.5 107.5t-196 35.5q-102 0 -196.5 -35.5t-167 -107.5t-116.5 -179.5t-44 -248.5zM499 1552v33q0 115 56.5 171t142.5 56q43 0 81 -14t68 -33l31 -18 q23 -12 40.5 -20.5t37.5 -8.5q27 0 46.5 15.5t19.5 56.5v16h137v-32q0 -115 -55.5 -171.5t-141.5 -56.5q-45 0 -80 12.5t-65 34.5l-31 21q-20 12 -37.5 20t-38.5 8q-33 0 -52 -21.5t-19 -68.5h-140z" />
<glyph unicode="&#xd6;" horiz-adv-x="1642" d="M92 727q0 182 62.5 322.5t165 236.5t233.5 146.5t268 50.5t268.5 -50.5t233.5 -146.5t164.5 -236.5t62.5 -322.5t-62.5 -323.5t-164.5 -237.5t-233.5 -146.5t-268.5 -50.5t-268 50.5t-233.5 146.5t-165 237.5t-62.5 323.5zM297 727q0 -141 44 -248.5t116.5 -180.5 t167 -108.5t196.5 -35.5q100 0 195.5 35.5t168 108.5t117 180.5t44.5 248.5t-44.5 248.5t-117 179.5t-167.5 107.5t-196 35.5q-102 0 -196.5 -35.5t-167 -107.5t-116.5 -179.5t-44 -248.5zM383 1677q0 51 35 86t86 35t86 -34.5t35 -86.5q0 -51 -35 -86t-86 -35t-86 35 t-35 86zM1020 1677q0 51 35 86t86 35t86 -34.5t35 -86.5q0 -51 -35 -86t-86 -35t-86 35t-35 86z" />
<glyph unicode="&#xd7;" horiz-adv-x="1085" d="M82 229l346 361l-344 356l117 117l342 -356l342 356l116 -115l-346 -358l349 -361l-115 -116l-348 358l-344 -356z" />
<glyph unicode="&#xd8;" horiz-adv-x="1642" d="M92 727q0 182 62.5 322.5t165 236.5t233.5 146.5t268 50.5q104 0 203.5 -29t187.5 -84l148 189l139 -107l-149 -192q92 -96 146 -229.5t54 -303.5q0 -182 -62.5 -323.5t-164.5 -237.5t-233.5 -146.5t-268.5 -50.5q-102 0 -200.5 28t-186.5 81l-139 -182l-143 104l145 188 q-92 96 -148.5 230.5t-56.5 308.5zM297 727q0 -123 31.5 -218t89.5 -167l680 879q-125 78 -277 77q-102 0 -196.5 -35.5t-167 -107.5t-116.5 -179.5t-44 -248.5zM549 225q61 -37 131 -54t141 -17q100 0 195.5 35.5t168 108.5t117 180.5t44.5 248.5q0 119 -32 212t-85 165z " />
<glyph unicode="&#xd9;" horiz-adv-x="1372" d="M164 496v956h198v-950q0 -166 85 -256t239 -90t238 90t84 256v950h200v-956q0 -129 -40 -227.5t-110.5 -165t-165.5 -100.5t-206 -34t-206 34t-165.5 100.5t-110.5 165t-40 227.5zM354 1798h264l209 -244h-191z" />
<glyph unicode="&#xda;" horiz-adv-x="1372" d="M164 496v956h198v-950q0 -166 85 -256t239 -90t238 90t84 256v950h200v-956q0 -129 -40 -227.5t-110.5 -165t-165.5 -100.5t-206 -34t-206 34t-165.5 100.5t-110.5 165t-40 227.5zM538 1554l207 244h266l-280 -244h-193z" />
<glyph unicode="&#xdb;" horiz-adv-x="1372" d="M164 496v956h198v-950q0 -166 85 -256t239 -90t238 90t84 256v950h200v-956q0 -129 -40 -227.5t-110.5 -165t-165.5 -100.5t-206 -34t-206 34t-165.5 100.5t-110.5 165t-40 227.5zM329 1554l230 244h246l239 -244h-188l-174 132l-166 -132h-187z" />
<glyph unicode="&#xdc;" horiz-adv-x="1372" d="M164 496v956h198v-950q0 -166 85 -256t239 -90t238 90t84 256v950h200v-956q0 -129 -40 -227.5t-110.5 -165t-165.5 -100.5t-206 -34t-206 34t-165.5 100.5t-110.5 165t-40 227.5zM340 1677q0 51 35 86t86 35t86 -34.5t35 -86.5q0 -51 -35 -86t-86 -35t-86 35t-35 86z M793 1677q0 51 34.5 86t85.5 35t86 -34.5t35 -86.5q0 -51 -34.5 -86t-86.5 -35q-51 0 -85.5 35t-34.5 86z" />
<glyph unicode="&#xdd;" horiz-adv-x="1265" d="M20 1452h242l377 -647l377 647h229l-512 -831v-621h-201v621zM483 1554l207 244h266l-280 -244h-193z" />
<glyph unicode="&#xde;" horiz-adv-x="1212" d="M184 0v1452h201v-281h317q100 0 184.5 -32.5t146 -89t95 -134t33.5 -170.5q0 -92 -33.5 -169.5t-94 -134t-144.5 -88t-184 -31.5h-320v-322h-201zM385 500h295q131 0 203.5 65.5t72.5 177.5q0 117 -72.5 183.5t-203.5 66.5h-295v-493z" />
<glyph unicode="&#xdf;" horiz-adv-x="1161" d="M164 0v1010q0 113 34.5 200.5t96 148t143.5 92.5t176 32t171 -26.5t132.5 -74t86 -110t30.5 -135.5q0 -59 -15 -106.5t-40 -84.5t-57.5 -64.5t-67.5 -47.5l-59 -37q-29 -16 -46.5 -38t-17.5 -57q0 -41 25.5 -59t68.5 -39l72 -35q86 -41 149.5 -117.5t63.5 -185.5 q0 -51 -19.5 -104t-61.5 -96t-104.5 -70t-148.5 -27q-92 0 -156.5 29t-104.5 72t-57.5 93t-17.5 95l170 45q0 -25 8.5 -55.5t28 -57t51 -44t78.5 -17.5q74 0 109 41t35 80q0 53 -27 88t-80 61l-70 33q-35 16 -72.5 36.5t-69.5 51.5t-52.5 73t-20.5 99q0 74 35 128t94 93 l66 43q51 33 84 75t33 99q0 74 -58.5 128.5t-167.5 54.5q-53 0 -99 -19.5t-82 -58.5t-56.5 -98.5t-20.5 -137.5v-999h-192z" />
<glyph unicode="&#xe0;" horiz-adv-x="1193" d="M82 500q0 104 34 197.5t95 163t147 110.5t191 41q66 0 116 -14.5t86.5 -38t61.5 -53t37 -60.5v139h190v-803q0 -66 4.5 -117t6.5 -65h-187q-4 16 -7 52t-3 81v17q-35 -72 -111.5 -124.5t-193.5 -52.5q-109 0 -195 41t-146.5 113t-93 167t-32.5 206zM229 1411h242 l176 -299h-160zM279 500q0 -76 19 -141.5t56 -112.5t90.5 -75t122.5 -28q66 0 119 28t90 75t56.5 112.5t19.5 141.5q0 154 -75 248t-208 94t-211.5 -94t-78.5 -248z" />
<glyph unicode="&#xe1;" horiz-adv-x="1193" d="M82 500q0 104 34 197.5t95 163t147 110.5t191 41q66 0 116 -14.5t86.5 -38t61.5 -53t37 -60.5v139h190v-803q0 -66 4.5 -117t6.5 -65h-187q-4 16 -7 52t-3 81v17q-35 -72 -111.5 -124.5t-193.5 -52.5q-109 0 -195 41t-146.5 113t-93 167t-32.5 206zM279 500 q0 -76 19 -141.5t56 -112.5t90.5 -75t122.5 -28q66 0 119 28t90 75t56.5 112.5t19.5 141.5q0 154 -75 248t-208 94t-211.5 -94t-78.5 -248zM436 1112l178 299h242l-258 -299h-162z" />
<glyph unicode="&#xe2;" horiz-adv-x="1193" d="M82 500q0 104 34 197.5t95 163t147 110.5t191 41q66 0 116 -14.5t86.5 -38t61.5 -53t37 -60.5v139h190v-803q0 -66 4.5 -117t6.5 -65h-187q-4 16 -7 52t-3 81v17q-35 -72 -111.5 -124.5t-193.5 -52.5q-109 0 -195 41t-146.5 113t-93 167t-32.5 206zM260 1116l213 285h219 l213 -285h-180l-143 166l-144 -166h-178zM279 500q0 -76 19 -141.5t56 -112.5t90.5 -75t122.5 -28q66 0 119 28t90 75t56.5 112.5t19.5 141.5q0 154 -75 248t-208 94t-211.5 -94t-78.5 -248z" />
<glyph unicode="&#xe3;" horiz-adv-x="1193" d="M82 500q0 104 34 197.5t95 163t147 110.5t191 41q66 0 116 -14.5t86.5 -38t61.5 -53t37 -60.5v139h190v-803q0 -66 4.5 -117t6.5 -65h-187q-4 16 -7 52t-3 81v17q-35 -72 -111.5 -124.5t-193.5 -52.5q-109 0 -195 41t-146.5 113t-93 167t-32.5 206zM248 1137v30 q0 115 57 169.5t144 54.5q41 0 74.5 -13.5t62.5 -31.5l28 -19q20 -12 37 -20.5t37 -8.5q31 0 45.5 19.5t14.5 68.5h145v-30q0 -115 -56.5 -169t-142.5 -54q-41 0 -73.5 13t-61.5 32l-29 18q-20 12 -37.5 20.5t-37.5 8.5q-29 0 -44.5 -18.5t-15.5 -69.5h-147zM279 500 q0 -76 19 -141.5t56 -112.5t90.5 -75t122.5 -28q66 0 119 28t90 75t56.5 112.5t19.5 141.5q0 154 -75 248t-208 94t-211.5 -94t-78.5 -248z" />
<glyph unicode="&#xe4;" horiz-adv-x="1193" d="M82 500q0 104 34 197.5t95 163t147 110.5t191 41q66 0 116 -14.5t86.5 -38t61.5 -53t37 -60.5v139h190v-803q0 -66 4.5 -117t6.5 -65h-187q-4 16 -7 52t-3 81v17q-35 -72 -111.5 -124.5t-193.5 -52.5q-109 0 -195 41t-146.5 113t-93 167t-32.5 206zM266 1272q0 49 34 84 t83 35q51 0 86 -35t35 -84q0 -51 -35 -85t-86 -34q-49 0 -83 34t-34 85zM279 500q0 -76 19 -141.5t56 -112.5t90.5 -75t122.5 -28q66 0 119 28t90 75t56.5 112.5t19.5 141.5q0 154 -75 248t-208 94t-211.5 -94t-78.5 -248zM649 1272q0 49 34 84t85 35q49 0 84 -35t35 -84 q0 -51 -35 -85t-84 -34q-51 0 -85 34t-34 85z" />
<glyph unicode="&#xe5;" horiz-adv-x="1193" d="M82 500q0 104 34 197.5t95 163t147 110.5t191 41q66 0 116 -14.5t86.5 -38t61.5 -53t37 -60.5v139h190v-803q0 -66 4.5 -117t6.5 -65h-187q-4 16 -7 52t-3 81v17q-35 -72 -111.5 -124.5t-193.5 -52.5q-109 0 -195 41t-146.5 113t-93 167t-32.5 206zM279 500 q0 -76 19 -141.5t56 -112.5t90.5 -75t122.5 -28q66 0 119 28t90 75t56.5 112.5t19.5 141.5q0 154 -75 248t-208 94t-211.5 -94t-78.5 -248zM334 1313q0 47 18.5 88t50 71.5t72.5 48t86 17.5q47 0 89 -17.5t73 -48t49.5 -71.5t18.5 -88t-18.5 -88t-49.5 -71t-73 -47t-89 -17 q-45 0 -86 17t-72.5 47t-50 71t-18.5 88zM463 1313q0 -41 27.5 -70t68.5 -29q43 0 71.5 29t28.5 70t-28.5 70.5t-71.5 29.5q-41 0 -68.5 -29.5t-27.5 -70.5z" />
<glyph unicode="&#xe6;" horiz-adv-x="1789" d="M102 264q0 66 22.5 118t62.5 89t95.5 59.5t118.5 32.5l285 39q49 8 63.5 29.5t14.5 44.5q0 72 -56.5 125t-168.5 53q-104 0 -165 -57.5t-71 -134.5l-180 34q6 74 46 133.5t98.5 101.5t129 63.5t142.5 21.5q127 0 215 -45t135 -119q66 78 156 121t190 43q113 0 202 -38 t148.5 -105.5t91 -163t31.5 -209.5q0 -14 -1 -34t-3 -28h-741q2 -66 25.5 -120t63.5 -94t93 -62.5t115 -22.5q119 0 182 57.5t92 141.5l168 -57q-20 -66 -61.5 -122.5t-98.5 -98.5t-129 -66.5t-153 -24.5q-125 0 -232.5 54.5t-177.5 158.5q-23 -39 -55.5 -76.5t-79.5 -68.5 t-111.5 -49.5t-148.5 -18.5t-149.5 24.5t-110.5 64.5t-69 93.5t-24 112.5zM299 270q0 -53 44 -96t126 -43q51 0 103.5 15.5t95.5 49t69.5 89t26.5 135.5v47l-322 -45q-66 -10 -104.5 -47t-38.5 -105zM969 594h538q-4 106 -72.5 179t-197.5 73q-61 0 -109.5 -21.5t-82 -57.5 t-54 -81t-22.5 -92z" />
<glyph unicode="&#xe7;" horiz-adv-x="1085" d="M82 494q0 113 38 209t104.5 165.5t157.5 108.5t196 39q98 0 172.5 -27.5t129 -73t87 -101.5t49.5 -112l-174 -73q-10 37 -28.5 73.5t-50.5 66.5t-77 49.5t-108 19.5q-59 0 -112.5 -22.5t-95.5 -65.5t-66.5 -107.5t-24.5 -148.5t24.5 -148.5t65.5 -108.5t96 -67t115 -23 q68 0 115.5 20.5t79.5 51.5t51.5 67t27.5 64l170 -74q-16 -47 -46 -96t-74 -90t-104.5 -71.5t-137.5 -43.5l-48 -71q86 0 142.5 -45t56.5 -123q0 -72 -57.5 -126t-182.5 -54q-78 0 -136 26.5t-89 63.5l76 92q18 -20 56 -45t91 -25q37 0 67 16.5t30 51.5q0 29 -23.5 47 t-66.5 18q-33 0 -60 -10l-67 80l65 102q-96 12 -175 56.5t-137.5 113t-90 158.5t-31.5 193z" />
<glyph unicode="&#xe8;" horiz-adv-x="1110" d="M84 496q0 117 39 212t103.5 163.5t150.5 106.5t178 38q113 0 202 -38t148.5 -105.5t91 -163t31.5 -209.5q0 -18 -1 -34.5t-3 -27.5h-741q2 -66 24.5 -121t62.5 -95t94 -61.5t116 -21.5q121 0 184 57.5t92 141.5l166 -57q-20 -66 -60 -122.5t-96.5 -98.5t-128 -66.5 t-157.5 -24.5q-98 0 -188.5 35t-159 102.5t-108.5 166t-40 223.5zM254 1411h241l176 -299h-159zM289 594h538q-4 106 -71.5 179t-198.5 73q-61 0 -109.5 -21.5t-82 -57.5t-54 -81t-22.5 -92z" />
<glyph unicode="&#xe9;" horiz-adv-x="1110" d="M84 496q0 117 39 212t103.5 163.5t150.5 106.5t178 38q113 0 202 -38t148.5 -105.5t91 -163t31.5 -209.5q0 -18 -1 -34.5t-3 -27.5h-741q2 -66 24.5 -121t62.5 -95t94 -61.5t116 -21.5q121 0 184 57.5t92 141.5l166 -57q-20 -66 -60 -122.5t-96.5 -98.5t-128 -66.5 t-157.5 -24.5q-98 0 -188.5 35t-159 102.5t-108.5 166t-40 223.5zM289 594h538q-4 106 -71.5 179t-198.5 73q-61 0 -109.5 -21.5t-82 -57.5t-54 -81t-22.5 -92zM471 1112l178 299h242l-259 -299h-161z" />
<glyph unicode="&#xea;" horiz-adv-x="1110" d="M84 496q0 117 39 212t103.5 163.5t150.5 106.5t178 38q113 0 202 -38t148.5 -105.5t91 -163t31.5 -209.5q0 -18 -1 -34.5t-3 -27.5h-741q2 -66 24.5 -121t62.5 -95t94 -61.5t116 -21.5q121 0 184 57.5t92 141.5l166 -57q-20 -66 -60 -122.5t-96.5 -98.5t-128 -66.5 t-157.5 -24.5q-98 0 -188.5 35t-159 102.5t-108.5 166t-40 223.5zM250 1116l213 285h219l213 -285h-180l-144 166l-143 -166h-178zM289 594h538q-4 106 -71.5 179t-198.5 73q-61 0 -109.5 -21.5t-82 -57.5t-54 -81t-22.5 -92z" />
<glyph unicode="&#xeb;" horiz-adv-x="1110" d="M84 496q0 117 39 212t103.5 163.5t150.5 106.5t178 38q113 0 202 -38t148.5 -105.5t91 -163t31.5 -209.5q0 -18 -1 -34.5t-3 -27.5h-741q2 -66 24.5 -121t62.5 -95t94 -61.5t116 -21.5q121 0 184 57.5t92 141.5l166 -57q-20 -66 -60 -122.5t-96.5 -98.5t-128 -66.5 t-157.5 -24.5q-98 0 -188.5 35t-159 102.5t-108.5 166t-40 223.5zM258 1272q0 49 33.5 84t83.5 35q51 0 85.5 -35t34.5 -84q0 -51 -34.5 -85t-85.5 -34q-49 0 -83 34t-34 85zM289 594h538q-4 106 -71.5 179t-198.5 73q-61 0 -109.5 -21.5t-82 -57.5t-54 -81t-22.5 -92z M641 1272q0 49 33.5 84t85.5 35q49 0 83.5 -35t34.5 -84q0 -51 -34.5 -85t-83.5 -34q-51 0 -85 34t-34 85z" />
<glyph unicode="&#xec;" horiz-adv-x="518" d="M-65 1411h241l176 -299h-159zM164 0v985h190v-985h-190z" />
<glyph unicode="&#xed;" horiz-adv-x="518" d="M164 0v985h190v-985h-190zM174 1112l178 299h242l-259 -299h-161z" />
<glyph unicode="&#xee;" horiz-adv-x="518" d="M-59 1116l213 285h219l213 -285h-180l-144 166l-143 -166h-178zM164 0v985h190v-985h-190z" />
<glyph unicode="&#xef;" horiz-adv-x="518" d="M6 1272q0 47 31 78.5t78 31.5t78.5 -31.5t31.5 -78.5t-31.5 -78t-78.5 -31t-78 31t-31 78zM164 0v985h190v-985h-190zM295 1272q0 47 30.5 78.5t77.5 31.5t79 -31.5t32 -78.5t-31.5 -78t-79.5 -31q-47 0 -77.5 31t-30.5 78z" />
<glyph unicode="&#xf0;" horiz-adv-x="1167" d="M82 465q0 113 41 203t106.5 153.5t150.5 96t175 32.5q92 0 167 -25.5t120 -76.5q-35 94 -88.5 165.5t-118.5 127.5l-268 -133l-60 129l193 96q-57 33 -114.5 55.5t-115.5 38.5l60 156q59 -14 156.5 -51t199.5 -107l223 113l64 -129l-166 -82q57 -53 108.5 -123t89 -156 t60 -188.5t22.5 -224.5q0 -121 -34.5 -223.5t-99 -178.5t-158 -119t-211.5 -43q-111 0 -203 37t-158.5 103.5t-103.5 156.5t-37 197zM276 465q0 -78 25 -138.5t68 -101.5t98.5 -61.5t116.5 -20.5t116.5 20.5t97.5 61.5t66.5 101.5t24.5 138.5q0 80 -24.5 139.5t-66.5 100 t-97.5 61t-116.5 20.5t-116.5 -21.5t-98.5 -62t-68 -100t-25 -137.5z" />
<glyph unicode="&#xf1;" horiz-adv-x="1150" d="M164 0v985h188v-141q53 92 135 131t168 39q88 0 155 -30t111 -82t65.5 -123.5t21.5 -153.5v-625h-193v592q0 51 -11 96t-39 79t-72 53.5t-107 19.5q-57 0 -100.5 -21.5t-72 -58.5t-43 -86t-14.5 -105v-569h-192zM280 1137v30q0 115 57.5 169.5t143.5 54.5q41 0 75 -13.5 t62 -31.5l29 -19q20 -12 36.5 -20.5t37.5 -8.5q31 0 45 19.5t14 68.5h146v-30q0 -115 -56.5 -169t-142.5 -54q-41 0 -74 13t-61 32l-29 18q-20 12 -37.5 20.5t-38.5 8.5q-29 0 -44 -18.5t-15 -69.5h-148z" />
<glyph unicode="&#xf2;" horiz-adv-x="1171" d="M82 494q0 113 37 208t104.5 164.5t159.5 109.5t203 40t203 -40t159.5 -109.5t104.5 -165t37 -207.5q0 -113 -37 -209.5t-104.5 -166t-160 -109.5t-202.5 -40q-111 0 -203 40t-159.5 109.5t-104.5 166t-37 209.5zM256 1411h241l176 -299h-159zM279 494q0 -86 24.5 -152 t67.5 -111t98.5 -67.5t116.5 -22.5t116.5 22.5t98.5 67.5t67.5 111t24.5 152t-24.5 150.5t-67.5 109.5t-98.5 67.5t-116.5 22.5t-116.5 -22.5t-98.5 -67.5t-67.5 -109.5t-24.5 -150.5z" />
<glyph unicode="&#xf3;" horiz-adv-x="1171" d="M82 494q0 113 37 208t104.5 164.5t159.5 109.5t203 40t203 -40t159.5 -109.5t104.5 -165t37 -207.5q0 -113 -37 -209.5t-104.5 -166t-160 -109.5t-202.5 -40q-111 0 -203 40t-159.5 109.5t-104.5 166t-37 209.5zM279 494q0 -86 24.5 -152t67.5 -111t98.5 -67.5 t116.5 -22.5t116.5 22.5t98.5 67.5t67.5 111t24.5 152t-24.5 150.5t-67.5 109.5t-98.5 67.5t-116.5 22.5t-116.5 -22.5t-98.5 -67.5t-67.5 -109.5t-24.5 -150.5zM471 1112l178 299h242l-259 -299h-161z" />
<glyph unicode="&#xf4;" horiz-adv-x="1171" d="M82 494q0 113 37 208t104.5 164.5t159.5 109.5t203 40t203 -40t159.5 -109.5t104.5 -165t37 -207.5q0 -113 -37 -209.5t-104.5 -166t-160 -109.5t-202.5 -40q-111 0 -203 40t-159.5 109.5t-104.5 166t-37 209.5zM265 1116l213 285h219l213 -285h-180l-144 166l-143 -166 h-178zM279 494q0 -86 24.5 -152t67.5 -111t98.5 -67.5t116.5 -22.5t116.5 22.5t98.5 67.5t67.5 111t24.5 152t-24.5 150.5t-67.5 109.5t-98.5 67.5t-116.5 22.5t-116.5 -22.5t-98.5 -67.5t-67.5 -109.5t-24.5 -150.5z" />
<glyph unicode="&#xf5;" horiz-adv-x="1171" d="M82 494q0 113 37 208t104.5 164.5t159.5 109.5t203 40t203 -40t159.5 -109.5t104.5 -165t37 -207.5q0 -113 -37 -209.5t-104.5 -166t-160 -109.5t-202.5 -40q-111 0 -203 40t-159.5 109.5t-104.5 166t-37 209.5zM266 1137v30q0 115 57.5 169.5t143.5 54.5q41 0 75 -13.5 t62 -31.5l29 -19q20 -12 36.5 -20.5t37.5 -8.5q31 0 45 19.5t14 68.5h146v-30q0 -115 -56.5 -169t-142.5 -54q-41 0 -74 13t-61 32l-29 18q-20 12 -37.5 20.5t-38.5 8.5q-29 0 -44 -18.5t-15 -69.5h-148zM279 494q0 -86 24.5 -152t67.5 -111t98.5 -67.5t116.5 -22.5 t116.5 22.5t98.5 67.5t67.5 111t24.5 152t-24.5 150.5t-67.5 109.5t-98.5 67.5t-116.5 22.5t-116.5 -22.5t-98.5 -67.5t-67.5 -109.5t-24.5 -150.5z" />
<glyph unicode="&#xf6;" horiz-adv-x="1171" d="M82 494q0 113 37 208t104.5 164.5t159.5 109.5t203 40t203 -40t159.5 -109.5t104.5 -165t37 -207.5q0 -113 -37 -209.5t-104.5 -166t-160 -109.5t-202.5 -40q-111 0 -203 40t-159.5 109.5t-104.5 166t-37 209.5zM275 1272q0 49 33.5 84t83.5 35q51 0 85.5 -35t34.5 -84 q0 -51 -34.5 -85t-85.5 -34q-49 0 -83 34t-34 85zM279 494q0 -86 24.5 -152t67.5 -111t98.5 -67.5t116.5 -22.5t116.5 22.5t98.5 67.5t67.5 111t24.5 152t-24.5 150.5t-67.5 109.5t-98.5 67.5t-116.5 22.5t-116.5 -22.5t-98.5 -67.5t-67.5 -109.5t-24.5 -150.5zM658 1272 q0 49 33.5 84t85.5 35q49 0 83.5 -35t34.5 -84q0 -51 -34.5 -85t-83.5 -34q-51 0 -85 34t-34 85z" />
<glyph unicode="&#xf7;" horiz-adv-x="1161" d="M113 504v170h936v-170h-936zM446 225q0 53 40 92t94 39q53 0 92 -38.5t39 -92.5q0 -53 -39 -93t-92 -40t-93.5 40t-40.5 93zM446 952q0 53 40 92t94 39q53 0 92 -38.5t39 -92.5q0 -53 -39 -93t-92 -40t-93.5 40t-40.5 93z" />
<glyph unicode="&#xf8;" horiz-adv-x="1171" d="M82 494q0 113 37 208t104.5 164.5t159.5 109.5t203 40q72 0 136 -17.5t120 -48.5l102 133l123 -98l-104 -135q59 -70 93 -160t34 -196q0 -113 -37 -209.5t-104.5 -166t-160 -109.5t-202.5 -40q-72 0 -136.5 17.5t-117.5 46.5l-101 -129l-122 98l100 131q-59 70 -93 161 t-34 200zM279 494q0 -68 14 -117t37 -90l401 520q-68 37 -145 37q-61 0 -116.5 -22.5t-98.5 -67.5t-67.5 -109.5t-24.5 -150.5zM442 176q62 -35 144 -35q61 0 116.5 22.5t98.5 67.5t67.5 111t24.5 152q0 59 -13.5 110t-35.5 92z" />
<glyph unicode="&#xf9;" horiz-adv-x="1159" d="M154 365v620h192v-592q0 -51 12.5 -97t39 -81t68.5 -55.5t103 -20.5q117 0 175.5 70t58.5 182v594h192v-803q0 -59 3 -107t8 -75h-185q-4 16 -6 52t-2 67q-41 -78 -123 -114t-168 -36t-154.5 31t-115.5 84t-72.5 125t-25.5 156zM267 1411h241l176 -299h-159z" />
<glyph unicode="&#xfa;" horiz-adv-x="1159" d="M154 365v620h192v-592q0 -51 12.5 -97t39 -81t68.5 -55.5t103 -20.5q117 0 175.5 70t58.5 182v594h192v-803q0 -59 3 -107t8 -75h-185q-4 16 -6 52t-2 67q-41 -78 -123 -114t-168 -36t-154.5 31t-115.5 84t-72.5 125t-25.5 156zM447 1112l178 299h242l-259 -299h-161z " />
<glyph unicode="&#xfb;" horiz-adv-x="1159" d="M154 365v620h192v-592q0 -51 12.5 -97t39 -81t68.5 -55.5t103 -20.5q117 0 175.5 70t58.5 182v594h192v-803q0 -59 3 -107t8 -75h-185q-4 16 -6 52t-2 67q-41 -78 -123 -114t-168 -36t-154.5 31t-115.5 84t-72.5 125t-25.5 156zM252 1116l213 285h219l213 -285h-180 l-144 166l-143 -166h-178z" />
<glyph unicode="&#xfc;" horiz-adv-x="1159" d="M154 365v620h192v-592q0 -51 12.5 -97t39 -81t68.5 -55.5t103 -20.5q117 0 175.5 70t58.5 182v594h192v-803q0 -59 3 -107t8 -75h-185q-4 16 -6 52t-2 67q-41 -78 -123 -114t-168 -36t-154.5 31t-115.5 84t-72.5 125t-25.5 156zM262 1272q0 49 33.5 84t83.5 35 q51 0 85.5 -35t34.5 -84q0 -51 -34.5 -85t-85.5 -34q-49 0 -83 34t-34 85zM645 1272q0 49 33.5 84t85.5 35q49 0 83.5 -35t34.5 -84q0 -51 -34.5 -85t-83.5 -34q-51 0 -85 34t-34 85z" />
<glyph unicode="&#xfd;" horiz-adv-x="1071" d="M20 985h222l307 -680l295 680h207l-641 -1397h-211l245 521zM418 1112l178 299h242l-259 -299h-161z" />
<glyph unicode="&#xfe;" horiz-adv-x="1214" d="M164 -389v1872h192v-641q41 70 124 118t200 48q111 0 196 -40t141 -110t86 -164t30 -200q0 -111 -31 -205t-90.5 -165t-144.5 -111t-193 -40q-115 0 -197 47.5t-123 112.5v-522h-190zM352 494q0 -76 20.5 -140.5t59.5 -110.5t93.5 -72t119.5 -26q68 0 121 26t91 72 t58.5 110.5t20.5 140.5q0 74 -20.5 136t-57.5 108t-91 73t-122 27q-66 0 -120 -27t-93 -73t-59.5 -108.5t-20.5 -135.5z" />
<glyph unicode="&#xff;" horiz-adv-x="1071" d="M20 985h222l307 -680l295 680h207l-641 -1397h-211l245 521zM225 1272q0 49 33.5 84t83.5 35q51 0 85.5 -35t34.5 -84q0 -51 -34.5 -85t-85.5 -34q-49 0 -83 34t-34 85zM608 1272q0 49 33.5 84t85.5 35q49 0 83.5 -35t34.5 -84q0 -51 -34.5 -85t-83.5 -34q-51 0 -85 34 t-34 85z" />
<glyph unicode="&#x100;" horiz-adv-x="1427" d="M20 0l578 1452h231l578 -1452h-217l-158 406h-643l-153 -406h-216zM407 1595v170h600v-170h-600zM461 592h500l-252 651z" />
<glyph unicode="&#x101;" horiz-adv-x="1193" d="M82 500q0 104 34 197.5t95 163t147 110.5t191 41q66 0 116 -14.5t86.5 -38t61.5 -53t37 -60.5v139h190v-803q0 -66 4.5 -117t6.5 -65h-187q-4 16 -7 52t-3 81v17q-35 -72 -111.5 -124.5t-193.5 -52.5q-109 0 -195 41t-146.5 113t-93 167t-32.5 206zM268 1182v166h559 v-166h-559zM279 500q0 -76 19 -141.5t56 -112.5t90.5 -75t122.5 -28q66 0 119 28t90 75t56.5 112.5t19.5 141.5q0 154 -75 248t-208 94t-211.5 -94t-78.5 -248z" />
<glyph unicode="&#x102;" horiz-adv-x="1427" d="M20 0l578 1452h231l578 -1452h-217l-158 406h-643l-153 -406h-216zM389 1808h166q2 -18 10.5 -37.5t27 -37t48 -28.5t70.5 -11t69.5 11t47 28.5t26.5 37t11 37.5h165q-4 -49 -24.5 -96t-60.5 -85t-98 -60.5t-136 -22.5t-136.5 22.5t-98.5 60.5t-62.5 85t-24.5 96z M461 592h500l-252 651z" />
<glyph unicode="&#x103;" horiz-adv-x="1193" d="M82 500q0 104 34 197.5t95 163t147 110.5t191 41q66 0 116 -14.5t86.5 -38t61.5 -53t37 -60.5v139h190v-803q0 -66 4.5 -117t6.5 -65h-187q-4 16 -7 52t-3 81v17q-35 -72 -111.5 -124.5t-193.5 -52.5q-109 0 -195 41t-146.5 113t-93 167t-32.5 206zM264 1407h150 q2 -47 36.5 -90t112.5 -43t112 43t38 90h149q0 -55 -19.5 -107.5t-56 -93.5t-93 -65.5t-130.5 -24.5q-72 0 -127 24.5t-93 65.5t-58.5 93.5t-20.5 107.5zM279 500q0 -76 19 -141.5t56 -112.5t90.5 -75t122.5 -28q66 0 119 28t90 75t56.5 112.5t19.5 141.5q0 154 -75 248 t-208 94t-211.5 -94t-78.5 -248z" />
<glyph unicode="&#x104;" horiz-adv-x="1427" d="M20 0l578 1452h231l578 -1452q-29 -14 -59.5 -32.5t-56 -43t-42 -55.5t-16.5 -68q0 -53 33.5 -74.5t74.5 -21.5q25 0 39.5 2t26.5 6v-139q-20 -8 -42 -12t-60 -4q-47 0 -90.5 14t-76 40t-51 64.5t-18.5 87.5q0 88 45 144.5t103 91.5h-27l-158 406h-643l-153 -406h-216z M461 592h500l-252 651z" />
<glyph unicode="&#x105;" horiz-adv-x="1193" d="M82 500q0 104 34 197.5t95 163t147 110.5t191 41q66 0 116 -14.5t86.5 -38t61.5 -53t37 -60.5v139h190v-803q0 -61 3.5 -107t7.5 -75q-29 -14 -59.5 -32.5t-56.5 -43t-42 -55.5t-16 -68q0 -53 33.5 -74.5t74.5 -21.5q25 0 39 2t27 6v-139q-20 -8 -42 -12t-61 -4 q-47 0 -90 14t-75.5 40t-51 64.5t-18.5 87.5q0 90 46 145.5t103 90.5q-4 18 -6 54t-2 79v17q-35 -72 -111.5 -124.5t-193.5 -52.5q-109 0 -195 41t-146.5 113t-93 167t-32.5 206zM279 500q0 -76 19 -141.5t56 -112.5t90.5 -75t122.5 -28q66 0 119 28t90 75t56.5 112.5 t19.5 141.5q0 154 -75 248t-208 94t-211.5 -94t-78.5 -248z" />
<glyph unicode="&#x106;" horiz-adv-x="1536" d="M92 727q0 182 61.5 322.5t163 236.5t231.5 146.5t265 50.5q125 0 229.5 -33t186.5 -92.5t138 -145.5t85 -190l-186 -66q-41 166 -157 254t-296 88q-98 0 -191.5 -35.5t-166 -107.5t-115.5 -179.5t-43 -248.5t43 -248.5t115.5 -180.5t166 -108.5t191.5 -35.5 q92 0 168 26.5t134.5 72.5t98 110.5t62.5 138.5l178 -66q-29 -102 -86 -188t-138 -147.5t-186.5 -96.5t-230.5 -35q-141 0 -271 50.5t-229.5 146.5t-160 237.5t-60.5 323.5zM700 1554l207 244h266l-280 -244h-193z" />
<glyph unicode="&#x107;" horiz-adv-x="1085" d="M82 494q0 115 38 211t104.5 164.5t157.5 107.5t196 39q98 0 172.5 -27.5t129 -73t87 -101.5t49.5 -112l-174 -73q-10 37 -28.5 73.5t-50.5 66.5t-77 49.5t-108 19.5q-59 0 -112.5 -21.5t-95.5 -64.5t-66.5 -107.5t-24.5 -150.5q0 -84 24.5 -148.5t65.5 -108.5t96 -67 t115 -23q70 0 117.5 20.5t79.5 51.5t50.5 67t26.5 64l170 -74q-18 -53 -53 -107t-90.5 -99t-130 -73t-170.5 -28q-109 0 -200 40t-156.5 110.5t-103.5 166t-38 208.5zM475 1112l178 299h242l-259 -299h-161z" />
<glyph unicode="&#x108;" horiz-adv-x="1536" d="M92 727q0 182 61.5 322.5t163 236.5t231.5 146.5t265 50.5q125 0 229.5 -33t186.5 -92.5t138 -145.5t85 -190l-186 -66q-41 166 -157 254t-296 88q-98 0 -191.5 -35.5t-166 -107.5t-115.5 -179.5t-43 -248.5t43 -248.5t115.5 -180.5t166 -108.5t191.5 -35.5 q92 0 168 26.5t134.5 72.5t98 110.5t62.5 138.5l178 -66q-29 -102 -86 -188t-138 -147.5t-186.5 -96.5t-230.5 -35q-141 0 -271 50.5t-229.5 146.5t-160 237.5t-60.5 323.5zM465 1554l230 244h246l239 -244h-188l-174 132l-166 -132h-187z" />
<glyph unicode="&#x109;" horiz-adv-x="1085" d="M82 494q0 115 38 211t104.5 164.5t157.5 107.5t196 39q98 0 172.5 -27.5t129 -73t87 -101.5t49.5 -112l-174 -73q-10 37 -28.5 73.5t-50.5 66.5t-77 49.5t-108 19.5q-59 0 -112.5 -21.5t-95.5 -64.5t-66.5 -107.5t-24.5 -150.5q0 -84 24.5 -148.5t65.5 -108.5t96 -67 t115 -23q70 0 117.5 20.5t79.5 51.5t50.5 67t26.5 64l170 -74q-18 -53 -53 -107t-90.5 -99t-130 -73t-170.5 -28q-109 0 -200 40t-156.5 110.5t-103.5 166t-38 208.5zM254 1116l213 285h219l213 -285h-180l-144 166l-143 -166h-178z" />
<glyph unicode="&#x10a;" horiz-adv-x="1536" d="M92 727q0 182 61.5 322.5t163 236.5t231.5 146.5t265 50.5q125 0 229.5 -33t186.5 -92.5t138 -145.5t85 -190l-186 -66q-41 166 -157 254t-296 88q-98 0 -191.5 -35.5t-166 -107.5t-115.5 -179.5t-43 -248.5t43 -248.5t115.5 -180.5t166 -108.5t191.5 -35.5 q92 0 168 26.5t134.5 72.5t98 110.5t62.5 138.5l178 -66q-29 -102 -86 -188t-138 -147.5t-186.5 -96.5t-230.5 -35q-141 0 -271 50.5t-229.5 146.5t-160 237.5t-60.5 323.5zM682 1675q0 53 38 92t91 39t92 -38.5t39 -92.5q0 -53 -39 -91t-92 -38t-91 38t-38 91z" />
<glyph unicode="&#x10b;" horiz-adv-x="1085" d="M82 494q0 115 38 211t104.5 164.5t157.5 107.5t196 39q98 0 172.5 -27.5t129 -73t87 -101.5t49.5 -112l-174 -73q-10 37 -28.5 73.5t-50.5 66.5t-77 49.5t-108 19.5q-59 0 -112.5 -21.5t-95.5 -64.5t-66.5 -107.5t-24.5 -150.5q0 -84 24.5 -148.5t65.5 -108.5t96 -67 t115 -23q70 0 117.5 20.5t79.5 51.5t50.5 67t26.5 64l170 -74q-18 -53 -53 -107t-90.5 -99t-130 -73t-170.5 -28q-109 0 -200 40t-156.5 110.5t-103.5 166t-38 208.5zM450 1262q0 53 37 90t90 37t90 -37t37 -90t-37 -90t-90 -37t-90 37t-37 90z" />
<glyph unicode="&#x10c;" horiz-adv-x="1536" d="M92 727q0 182 61.5 322.5t163 236.5t231.5 146.5t265 50.5q125 0 229.5 -33t186.5 -92.5t138 -145.5t85 -190l-186 -66q-41 166 -157 254t-296 88q-98 0 -191.5 -35.5t-166 -107.5t-115.5 -179.5t-43 -248.5t43 -248.5t115.5 -180.5t166 -108.5t191.5 -35.5 q92 0 168 26.5t134.5 72.5t98 110.5t62.5 138.5l178 -66q-29 -102 -86 -188t-138 -147.5t-186.5 -96.5t-230.5 -35q-141 0 -271 50.5t-229.5 146.5t-160 237.5t-60.5 323.5zM454 1798h187l166 -131l174 131h188l-239 -244h-246z" />
<glyph unicode="&#x10d;" horiz-adv-x="1085" d="M82 494q0 115 38 211t104.5 164.5t157.5 107.5t196 39q98 0 172.5 -27.5t129 -73t87 -101.5t49.5 -112l-174 -73q-10 37 -28.5 73.5t-50.5 66.5t-77 49.5t-108 19.5q-59 0 -112.5 -21.5t-95.5 -64.5t-66.5 -107.5t-24.5 -150.5q0 -84 24.5 -148.5t65.5 -108.5t96 -67 t115 -23q70 0 117.5 20.5t79.5 51.5t50.5 67t26.5 64l170 -74q-18 -53 -53 -107t-90.5 -99t-130 -73t-170.5 -28q-109 0 -200 40t-156.5 110.5t-103.5 166t-38 208.5zM240 1407h178l143 -166l144 166h180l-209 -291h-227z" />
<glyph unicode="&#x10e;" horiz-adv-x="1474" d="M184 0v1452h508q137 0 263 -47t220.5 -139t150.5 -228.5t56 -314.5t-56 -313.5t-152.5 -226.5t-222.5 -137t-263 -46h-504zM368 1798h187l166 -131l174 131h188l-239 -244h-246zM385 178h297q100 0 190.5 34t158 101.5t106.5 170t39 239.5t-39 240.5t-105.5 172 t-156 103.5t-189.5 35h-301v-1096z" />
<glyph unicode="&#x10f;" horiz-adv-x="1214" d="M82 496q0 104 34 197t95 164t147 113t191 42q66 0 116 -14.5t86.5 -38t61.5 -53t37 -60.5v637h190v-1301q0 -72 4.5 -121t6.5 -61h-187q-4 16 -7 52t-3 81v17q-35 -72 -111.5 -124.5t-193.5 -52.5q-109 0 -195 40t-146.5 111t-93 166t-32.5 206zM279 496q0 -76 19 -140.5 t56 -111.5t90.5 -74t122.5 -27q66 0 119 28t90 75t56.5 112.5t19.5 141.5q0 154 -75 248t-208 94q-66 0 -120 -25.5t-92 -72t-58 -109.5t-20 -139zM1125 1116l57 367h215l-131 -367h-141z" />
<glyph unicode="&#x110;" horiz-adv-x="1482" d="M37 666v168h156v618h507q137 0 263.5 -47t220.5 -139t150.5 -228.5t56.5 -314.5t-56.5 -313.5t-153 -226.5t-222 -137t-263.5 -46h-503v666h-156zM393 178h297q100 0 190.5 34t158 101.5t106.5 170t39 239.5t-39 240.5t-105.5 172t-155.5 103.5t-190 35h-301v-440h250 v-168h-250v-488z" />
<glyph unicode="&#x111;" horiz-adv-x="1214" d="M82 496q0 104 34 197t95 164t147 113t191 42q66 0 116 -14.5t86.5 -38t61.5 -53t37 -60.5v291h-268v155h268v191h190v-191h158v-155h-158v-955q0 -72 4.5 -121t6.5 -61h-187q-4 16 -7 52t-3 81v17q-35 -72 -111.5 -124.5t-193.5 -52.5q-109 0 -195 40t-146.5 111t-93 166 t-32.5 206zM279 496q0 -76 19 -140.5t56 -111.5t90.5 -74t122.5 -27q66 0 119 28t90 75t56.5 112.5t19.5 141.5q0 154 -75 248t-208 94q-66 0 -120 -25.5t-92 -72t-58 -109.5t-20 -139z" />
<glyph unicode="&#x112;" horiz-adv-x="1189" d="M184 0v1452h883v-186h-682v-447h619v-188h-619v-445h682v-186h-883zM319 1595v170h600v-170h-600z" />
<glyph unicode="&#x113;" horiz-adv-x="1110" d="M84 496q0 117 39 212t103.5 163.5t150.5 106.5t178 38q113 0 202 -38t148.5 -105.5t91 -163t31.5 -209.5q0 -18 -1 -34.5t-3 -27.5h-741q2 -66 24.5 -121t62.5 -95t94 -61.5t116 -21.5q121 0 184 57.5t92 141.5l166 -57q-20 -66 -60 -122.5t-96.5 -98.5t-128 -66.5 t-157.5 -24.5q-98 0 -188.5 35t-159 102.5t-108.5 166t-40 223.5zM289 594h538q-4 106 -71.5 179t-198.5 73q-61 0 -109.5 -21.5t-82 -57.5t-54 -81t-22.5 -92zM291 1182v166h559v-166h-559z" />
<glyph unicode="&#x114;" horiz-adv-x="1189" d="M184 0v1452h883v-186h-682v-447h619v-188h-619v-445h682v-186h-883zM307 1808h166q2 -18 10.5 -37.5t27 -37t48 -28.5t70.5 -11t69.5 11t47 28.5t26.5 37t11 37.5h165q-4 -49 -24.5 -96t-60.5 -85t-98 -60.5t-136 -22.5t-136.5 22.5t-98.5 60.5t-62.5 85t-24.5 96z" />
<glyph unicode="&#x115;" horiz-adv-x="1110" d="M84 496q0 117 39 212t103.5 163.5t150.5 106.5t178 38q113 0 202 -38t148.5 -105.5t91 -163t31.5 -209.5q0 -18 -1 -34.5t-3 -27.5h-741q2 -66 24.5 -121t62.5 -95t94 -61.5t116 -21.5q121 0 184 57.5t92 141.5l166 -57q-20 -66 -60 -122.5t-96.5 -98.5t-128 -66.5 t-157.5 -24.5q-98 0 -188.5 35t-159 102.5t-108.5 166t-40 223.5zM271 1407h149q2 -47 37 -90t113 -43t111.5 43t37.5 90h150q0 -55 -19.5 -107.5t-56.5 -93.5t-93 -65.5t-130 -24.5q-72 0 -127.5 24.5t-93 65.5t-58 93.5t-20.5 107.5zM289 594h538q-4 106 -71.5 179 t-198.5 73q-61 0 -109.5 -21.5t-82 -57.5t-54 -81t-22.5 -92z" />
<glyph unicode="&#x116;" horiz-adv-x="1189" d="M184 0v1452h883v-186h-682v-447h619v-188h-619v-445h682v-186h-883zM497 1675q0 53 38 92t91 39t92 -38.5t39 -92.5q0 -53 -39 -91t-92 -38t-91 38t-38 91z" />
<glyph unicode="&#x117;" horiz-adv-x="1110" d="M84 496q0 117 39 212t103.5 163.5t150.5 106.5t178 38q113 0 202 -38t148.5 -105.5t91 -163t31.5 -209.5q0 -18 -1 -34.5t-3 -27.5h-741q2 -66 24.5 -121t62.5 -95t94 -61.5t116 -21.5q121 0 184 57.5t92 141.5l166 -57q-20 -66 -60 -122.5t-96.5 -98.5t-128 -66.5 t-157.5 -24.5q-98 0 -188.5 35t-159 102.5t-108.5 166t-40 223.5zM289 594h538q-4 106 -71.5 179t-198.5 73q-61 0 -109.5 -21.5t-82 -57.5t-54 -81t-22.5 -92zM444 1262q0 53 37 90t90 37t90 -37t37 -90t-37 -90t-90 -37t-90 37t-37 90z" />
<glyph unicode="&#x118;" horiz-adv-x="1189" d="M184 0v1452h883v-186h-682v-447h619v-188h-619v-445h682v-186q-29 -14 -59.5 -32.5t-56 -43t-42 -55.5t-16.5 -68q0 -53 34 -74.5t74 -21.5q25 0 39.5 2t26.5 6v-139q-20 -8 -41.5 -12t-60.5 -4q-47 0 -90.5 14t-76 40t-51 64.5t-18.5 87.5q0 88 45 144.5t103 91.5h-693z " />
<glyph unicode="&#x119;" horiz-adv-x="1110" d="M84 496q0 117 39 212t103.5 163.5t150.5 106.5t178 38q113 0 202 -38t148.5 -105.5t91 -163t31.5 -209.5v-23.5t-4 -38.5h-741q2 -66 25.5 -120t63.5 -94t93 -62.5t115 -22.5q121 0 184 57.5t92 141.5l166 -57q-31 -98 -104.5 -175t-182.5 -112q-66 -23 -109.5 -69 t-43.5 -111q0 -59 33.5 -83t74.5 -24q35 0 66 8v-139q-20 -8 -42 -12t-61 -4q-47 0 -90 14t-75.5 40t-51 64.5t-18.5 88.5q0 72 30.5 121t73.5 83q-90 10 -169 50t-139 107t-95 159t-35 209zM289 594h538q-4 106 -72.5 179t-197.5 73q-61 0 -109.5 -21.5t-82 -57.5t-54 -81 t-22.5 -92z" />
<glyph unicode="&#x11a;" horiz-adv-x="1189" d="M184 0v1452h883v-186h-682v-447h619v-188h-619v-445h682v-186h-883zM284 1798h187l166 -131l174 131h188l-239 -244h-246z" />
<glyph unicode="&#x11b;" horiz-adv-x="1110" d="M84 496q0 117 39 212t103.5 163.5t150.5 106.5t178 38q113 0 202 -38t148.5 -105.5t91 -163t31.5 -209.5q0 -18 -1 -34.5t-3 -27.5h-741q2 -66 24.5 -121t62.5 -95t94 -61.5t116 -21.5q121 0 184 57.5t92 141.5l166 -57q-20 -66 -60 -122.5t-96.5 -98.5t-128 -66.5 t-157.5 -24.5q-98 0 -188.5 35t-159 102.5t-108.5 166t-40 223.5zM248 1407h178l143 -166l144 166h180l-209 -291h-227zM289 594h538q-4 106 -71.5 179t-198.5 73q-61 0 -109.5 -21.5t-82 -57.5t-54 -81t-22.5 -92z" />
<glyph unicode="&#x11c;" horiz-adv-x="1566" d="M92 727q0 184 61.5 325.5t163 236.5t230.5 144.5t264 49.5q119 0 222.5 -32t186.5 -89t143 -138t91 -180l-182 -77q-49 158 -170 244.5t-291 86.5q-98 0 -190.5 -34.5t-164 -106.5t-115.5 -179.5t-44 -250.5q0 -145 42 -252.5t112.5 -179.5t162 -107.5t189.5 -35.5 q121 0 205 37.5t137 95t77.5 124t28.5 121.5h-503v181h694v-711h-162l-18 205q-25 -43 -66 -85t-99.5 -76t-133 -54.5t-166.5 -20.5q-137 0 -264 49.5t-225.5 145.5t-157 237.5t-58.5 325.5zM454 1554l230 244h246l239 -244h-188l-174 132l-166 -132h-187z" />
<glyph unicode="&#x11d;" horiz-adv-x="1183" d="M92 -53l187 43q10 -104 82.5 -173t185.5 -69q156 0 228.5 80t72.5 240v141q-35 -68 -113 -115t-188 -47q-98 0 -181 36t-143.5 98.5t-94.5 150.5t-34 192q0 100 33 187.5t92.5 152t142 102.5t185.5 38q115 0 190.5 -41t112.5 -115v137h190v-911q0 -94 -24.5 -183.5 t-83 -158t-152.5 -110.5t-233 -42q-92 0 -171 27.5t-139.5 77t-98.5 116t-46 146.5zM258 1116l213 285h219l213 -285h-180l-144 166l-143 -166h-178zM291 524q0 -145 76.5 -230t207.5 -85q125 0 203 86t78 229t-78 229.5t-203 86.5q-129 0 -206.5 -86t-77.5 -230z" />
<glyph unicode="&#x11e;" horiz-adv-x="1566" d="M92 727q0 184 61.5 325.5t163 236.5t230.5 144.5t264 49.5q119 0 222.5 -32t186.5 -89t143 -138t91 -180l-182 -77q-49 158 -170 244.5t-291 86.5q-98 0 -190.5 -34.5t-164 -106.5t-115.5 -179.5t-44 -250.5q0 -145 42 -252.5t112.5 -179.5t162 -107.5t189.5 -35.5 q121 0 205 37.5t137 95t77.5 124t28.5 121.5h-503v181h694v-711h-162l-18 205q-25 -43 -66 -85t-99.5 -76t-133 -54.5t-166.5 -20.5q-137 0 -264 49.5t-225.5 145.5t-157 237.5t-58.5 325.5zM477 1808h166q2 -18 10.5 -37.5t27 -37t48 -28.5t70.5 -11t69.5 11t47 28.5 t26.5 37t11 37.5h165q-4 -49 -24.5 -96t-60.5 -85t-98 -60.5t-136 -22.5t-136.5 22.5t-98.5 60.5t-62.5 85t-24.5 96z" />
<glyph unicode="&#x11f;" horiz-adv-x="1183" d="M92 -53l187 43q10 -104 82.5 -173t185.5 -69q156 0 228.5 80t72.5 240v141q-35 -68 -113 -115t-188 -47q-98 0 -181 36t-143.5 98.5t-94.5 150.5t-34 192q0 100 33 187.5t92.5 152t142 102.5t185.5 38q115 0 190.5 -41t112.5 -115v137h190v-911q0 -94 -24.5 -183.5 t-83 -158t-152.5 -110.5t-233 -42q-92 0 -171 27.5t-139.5 77t-98.5 116t-46 146.5zM269 1407h149q2 -47 37 -90t113 -43t111.5 43t37.5 90h150q0 -55 -19.5 -107.5t-56.5 -93.5t-93 -65.5t-130 -24.5q-72 0 -127.5 24.5t-93 65.5t-58 93.5t-20.5 107.5zM291 524 q0 -145 76.5 -230t207.5 -85q125 0 203 86t78 229t-78 229.5t-203 86.5q-129 0 -206.5 -86t-77.5 -230z" />
<glyph unicode="&#x120;" horiz-adv-x="1566" d="M92 727q0 184 61.5 325.5t163 236.5t230.5 144.5t264 49.5q119 0 222.5 -32t186.5 -89t143 -138t91 -180l-182 -77q-49 158 -170 244.5t-291 86.5q-98 0 -190.5 -34.5t-164 -106.5t-115.5 -179.5t-44 -250.5q0 -145 42 -252.5t112.5 -179.5t162 -107.5t189.5 -35.5 q121 0 205 37.5t137 95t77.5 124t28.5 121.5h-503v181h694v-711h-162l-18 205q-25 -43 -66 -85t-99.5 -76t-133 -54.5t-166.5 -20.5q-137 0 -264 49.5t-225.5 145.5t-157 237.5t-58.5 325.5zM678 1675q0 53 38 92t91 39t92 -38.5t39 -92.5q0 -53 -39 -91t-92 -38t-91 38 t-38 91z" />
<glyph unicode="&#x121;" horiz-adv-x="1183" d="M92 -53l187 43q10 -104 82.5 -173t185.5 -69q156 0 228.5 80t72.5 240v141q-35 -68 -113 -115t-188 -47q-98 0 -181 36t-143.5 98.5t-94.5 150.5t-34 192q0 100 33 187.5t92.5 152t142 102.5t185.5 38q115 0 190.5 -41t112.5 -115v137h190v-911q0 -94 -24.5 -183.5 t-83 -158t-152.5 -110.5t-233 -42q-92 0 -171 27.5t-139.5 77t-98.5 116t-46 146.5zM291 524q0 -145 76.5 -230t207.5 -85q125 0 203 86t78 229t-78 229.5t-203 86.5q-129 0 -206.5 -86t-77.5 -230zM442 1262q0 53 37 90t90 37t90 -37t37 -90t-37 -90t-90 -37t-90 37t-37 90 z" />
<glyph unicode="&#x122;" horiz-adv-x="1566" d="M92 727q0 184 61.5 325.5t163 236.5t230.5 144.5t264 49.5q119 0 222.5 -32t186.5 -89t143 -138t91 -180l-182 -77q-49 158 -170 244.5t-291 86.5q-98 0 -190.5 -34.5t-164 -106.5t-115.5 -179.5t-44 -250.5q0 -145 42 -252.5t112.5 -179.5t162 -107.5t189.5 -35.5 q121 0 205 37.5t137 95t77.5 124t28.5 121.5h-503v181h694v-711h-162l-18 205q-25 -43 -66 -85t-99.5 -76t-133 -54.5t-166.5 -20.5q-137 0 -264 49.5t-225.5 145.5t-157 237.5t-58.5 325.5zM676 -180q0 47 37 76.5t84 29.5q45 0 89 -33.5t44 -115.5q0 -59 -20.5 -102.5 t-54 -72t-75.5 -42t-83 -13.5v82q53 0 91 31t42 68q-4 -4 -16.5 -8.5t-26.5 -4.5q-47 0 -79 26t-32 79z" />
<glyph unicode="&#x123;" horiz-adv-x="1183" d="M92 -53l187 43q10 -104 82.5 -173t185.5 -69q156 0 228.5 80t72.5 240v141q-35 -68 -113 -115t-188 -47q-98 0 -181 36t-143.5 98.5t-94.5 150.5t-34 192q0 100 33 187.5t92.5 152t142 102.5t185.5 38q115 0 190.5 -41t112.5 -115v137h190v-911q0 -94 -24.5 -183.5 t-83 -158t-152.5 -110.5t-233 -42q-92 0 -171 27.5t-139.5 77t-98.5 116t-46 146.5zM291 524q0 -145 76.5 -230t207.5 -85q125 0 203 86t78 229t-78 229.5t-203 86.5q-129 0 -206.5 -86t-77.5 -230zM426 1243q0 55 20.5 98t54.5 72t76 44.5t83 15.5v-82q-53 0 -91 -31 t-42 -68q2 2 13 7.5t30 5.5q49 0 79.5 -28t30.5 -77t-34.5 -77.5t-86.5 -28.5q-23 0 -45 8t-42.5 25.5t-33 46t-12.5 69.5z" />
<glyph unicode="&#x124;" horiz-adv-x="1511" d="M184 0v1452h201v-621h741v621h201v-1452h-201v645h-741v-645h-201zM399 1554l230 244h246l239 -244h-188l-174 132l-166 -132h-187z" />
<glyph unicode="&#x125;" horiz-adv-x="1150" d="M164 0v1483h192v-613q53 78 133 111t166 33q88 0 155 -30t111 -82t65.5 -123.5t21.5 -153.5v-625h-193v592q0 51 -11 96t-39 79t-72 53.5t-107 19.5q-55 0 -97.5 -20.5t-71 -55.5t-44 -82t-17.5 -102v-580h-192zM235 1574l230 244h246l239 -244h-188l-174 132l-166 -132 h-187z" />
<glyph unicode="&#x126;" horiz-adv-x="1562" d="M61 1051v153h150v248h201v-248h741v248h201v-248h147v-153h-147v-1051h-201v645h-741v-645h-201v1051h-150zM412 831h741v220h-741v-220z" />
<glyph unicode="&#x127;" horiz-adv-x="1161" d="M-2 1141v155h176v187h193v-187h247v-155h-247v-271q53 78 133 111t166 33q88 0 154.5 -30t110.5 -82t65.5 -123.5t21.5 -153.5v-625h-193v592q0 51 -11 96t-38.5 79t-72 53.5t-107.5 19.5q-55 0 -97 -20.5t-71 -55.5t-44 -82t-17 -102v-580h-193v1141h-176z" />
<glyph unicode="&#x128;" horiz-adv-x="573" d="M-37 1550v33q0 115 56.5 171t142.5 56q43 0 81 -14t68 -33l31 -18q23 -12 40.5 -20.5t37.5 -8.5q27 0 46.5 15.5t19.5 56.5v16h137v-32q0 -115 -55.5 -171.5t-141.5 -56.5q-45 0 -80 12.5t-65 34.5l-31 21q-20 12 -37.5 20t-38.5 8q-33 0 -52 -21.5t-19 -68.5h-140z M184 0v1452h205v-1452h-205z" />
<glyph unicode="&#x129;" horiz-adv-x="518" d="M-62 1137v30q0 115 57.5 169.5t143.5 54.5q41 0 75 -13.5t62 -31.5l29 -19q20 -12 36.5 -20.5t37.5 -8.5q31 0 45 19.5t14 68.5h146v-30q0 -115 -56.5 -169t-142.5 -54q-41 0 -74 13t-61 32l-29 18q-20 12 -37.5 20.5t-38.5 8.5q-29 0 -44 -18.5t-15 -69.5h-148zM164 0 v985h190v-985h-190z" />
<glyph unicode="&#x12a;" horiz-adv-x="573" d="M-10 1595v170h600v-170h-600zM184 0v1452h205v-1452h-205z" />
<glyph unicode="&#x12b;" horiz-adv-x="518" d="M-16 1182v166h559v-166h-559zM164 0v985h190v-985h-190z" />
<glyph unicode="&#x12c;" horiz-adv-x="573" d="M-31 1808h166q2 -18 10.5 -37.5t27 -37t48 -28.5t70.5 -11t69.5 11t47 28.5t26.5 37t11 37.5h165q-4 -49 -24.5 -96t-60.5 -85t-98 -60.5t-136 -22.5t-136.5 22.5t-98.5 60.5t-62.5 85t-24.5 96zM184 0v1452h205v-1452h-205z" />
<glyph unicode="&#x12d;" horiz-adv-x="518" d="M-37 1407h149q2 -47 37 -90t113 -43t111.5 43t37.5 90h150q0 -55 -19.5 -107.5t-56.5 -93.5t-93 -65.5t-130 -24.5q-72 0 -127.5 24.5t-93 65.5t-58 93.5t-20.5 107.5zM164 0v985h190v-985h-190z" />
<glyph unicode="&#x12e;" horiz-adv-x="573" d="M51 -236q0 88 45 144.5t103 91.5h-15v1452h205v-1452q-29 -14 -59.5 -32.5t-56 -43t-42 -55.5t-16.5 -68q0 -53 34 -74.5t75 -21.5q25 0 39 2t26 6v-139q-20 -8 -41.5 -12t-60.5 -4q-47 0 -90 14t-76 40t-51.5 64.5t-18.5 87.5z" />
<glyph unicode="&#x12f;" horiz-adv-x="518" d="M16 -236q0 90 45 145.5t103 90.5v985h190v-985q-29 -14 -59.5 -32.5t-56 -43t-42 -55.5t-16.5 -68q0 -53 34 -74.5t75 -21.5q25 0 39 2t26 6v-139q-20 -8 -41.5 -12t-60.5 -4q-47 0 -90 14t-76 40t-51.5 64.5t-18.5 87.5zM121 1358q0 59 40 99t97 40q59 0 99 -40t40 -99 q0 -57 -40 -97t-99 -40q-57 0 -97 40t-40 97z" />
<glyph unicode="&#x130;" horiz-adv-x="573" d="M155 1675q0 53 38 92t91 39t92 -38.5t39 -92.5q0 -53 -39 -91t-92 -38t-91 38t-38 91zM184 0v1452h205v-1452h-205z" />
<glyph unicode="&#x131;" horiz-adv-x="518" d="M164 0v985h190v-985h-190z" />
<glyph unicode="&#x132;" horiz-adv-x="1216" d="M164 432l205 39v-37q0 -145 67.5 -211.5t177.5 -66.5q111 0 174.5 68.5t63.5 195.5v1032h201v-1018q0 -96 -30 -180t-87 -147.5t-138 -100.5t-182 -37q-106 0 -190 33t-142.5 94.5t-89 146.5t-30.5 189zM164 614v838h205v-838h-205z" />
<glyph unicode="&#x133;" horiz-adv-x="1058" d="M121 1358q0 59 40 99t97 40q59 0 99 -40t40 -99q0 -57 -40 -97t-99 -40q-57 0 -97 40t-40 97zM164 0v985h190v-985h-190zM508 -244q8 -2 23.5 -4t38.5 -2q76 0 104.5 38t28.5 106v1091h192v-1100q0 -135 -71.5 -220t-200.5 -85q-55 0 -79.5 5t-35.5 9v162zM660 1362 q0 59 40 99t97 40q59 0 99 -40t40 -99q0 -57 -40 -97t-99 -40q-57 0 -97 40t-40 97z" />
<glyph unicode="&#x134;" horiz-adv-x="1093" d="M41 432v94l201 45v-137q0 -145 69.5 -211.5t180.5 -66.5t174 68.5t63 195.5v1032h201v-1018q0 -96 -30 -180t-87 -147.5t-138 -100.5t-181 -37q-106 0 -190.5 33t-143 94.5t-89 146.5t-30.5 189zM475 1554l230 244h246l239 -244h-188l-174 132l-166 -132h-187z" />
<glyph unicode="&#x135;" horiz-adv-x="520" d="M-59 1116l213 285h219l213 -285h-180l-144 166l-143 -166h-178zM-31 -246q8 -2 26.5 -3t35.5 -1q76 0 104.5 38t28.5 106v1091h192v-1100q0 -135 -71.5 -220t-200.5 -85q-55 0 -79.5 5t-35.5 9v160z" />
<glyph unicode="&#x136;" horiz-adv-x="1368" d="M184 0v1452h201v-747l680 747h264l-604 -647l612 -805h-254l-491 659l-207 -221v-438h-201zM604 -180q0 47 37 76.5t84 29.5q45 0 89 -33.5t44 -115.5q0 -59 -20.5 -102.5t-54 -72t-75.5 -42t-83 -13.5v82q53 0 91 31t42 68q-4 -4 -16.5 -8.5t-26.5 -4.5q-47 0 -79 26 t-32 79z" />
<glyph unicode="&#x137;" horiz-adv-x="1075" d="M164 0v1483h190v-934l426 436h267l-420 -416l428 -569h-242l-321 434l-138 -137v-297h-190zM471 -180q0 47 37 76.5t84 29.5q45 0 89 -33.5t44 -115.5q0 -59 -20.5 -102.5t-54 -72t-75.5 -42t-83 -13.5v82q53 0 91 31t42 68q-4 -4 -16.5 -8.5t-26.5 -4.5q-47 0 -79 26 t-32 79z" />
<glyph unicode="&#x138;" horiz-adv-x="1075" d="M164 0v985h190v-436l426 436h267l-420 -416l428 -569h-242l-321 434l-138 -137v-297h-190z" />
<glyph unicode="&#x139;" horiz-adv-x="1122" d="M184 0v1452h201v-1264h686v-188h-887zM192 1554l207 244h266l-280 -244h-193z" />
<glyph unicode="&#x13a;" horiz-adv-x="520" d="M164 0v1483h192v-1483h-192zM166 1574l207 244h266l-280 -244h-193z" />
<glyph unicode="&#x13b;" horiz-adv-x="1122" d="M184 0v1452h201v-1264h686v-188h-887zM524 -180q0 47 37 76.5t84 29.5q45 0 89 -33.5t44 -115.5q0 -59 -20.5 -102.5t-54 -72t-75.5 -42t-83 -13.5v82q53 0 91 31t42 68q-4 -4 -16.5 -8.5t-26.5 -4.5q-47 0 -79 26t-32 79z" />
<glyph unicode="&#x13c;" horiz-adv-x="520" d="M133 -180q0 47 37 76.5t84 29.5q45 0 89 -33.5t44 -115.5q0 -59 -20.5 -102.5t-54 -72t-75.5 -42t-83 -13.5v82q53 0 91 31t42 68q-4 -4 -16.5 -8.5t-26.5 -4.5q-47 0 -79 26t-32 79zM164 0v1483h192v-1483h-192z" />
<glyph unicode="&#x13d;" horiz-adv-x="1122" d="M184 0v1452h201v-1264h686v-188h-887zM590 1165l61 389h227l-139 -389h-149z" />
<glyph unicode="&#x13e;" horiz-adv-x="520" d="M164 0v1483h192v-1483h-192zM424 1116l57 367h215l-131 -367h-141z" />
<glyph unicode="&#x13f;" horiz-adv-x="1122" d="M184 0v1452h201v-1264h686v-188h-887zM594 762q0 53 38 92t91 39t92 -39t39 -92t-39 -91t-92 -38t-91 38t-38 91z" />
<glyph unicode="&#x140;" horiz-adv-x="761" d="M164 0v1483h192v-1483h-192zM477 641q0 53 37 90t90 37t90 -37t37 -90t-37 -90t-90 -37t-90 37t-37 90z" />
<glyph unicode="&#x141;" horiz-adv-x="1144" d="M10 506v178l197 86v682h201v-592l321 141v-178l-321 -143v-492h686v-188h-887v592z" />
<glyph unicode="&#x142;" horiz-adv-x="589" d="M10 477v178l183 80v748h192v-662l195 86v-178l-195 -86v-643h-192v557z" />
<glyph unicode="&#x143;" horiz-adv-x="1562" d="M184 0v1452h269l725 -1114v1114h200v-1452h-209l-784 1184v-1184h-201zM627 1554l207 244h266l-280 -244h-193z" />
<glyph unicode="&#x144;" horiz-adv-x="1150" d="M164 0v985h188v-141q53 92 135 131t168 39q88 0 155 -30t111 -82t65.5 -123.5t21.5 -153.5v-625h-193v592q0 51 -11 96t-39 79t-72 53.5t-107 19.5q-57 0 -100.5 -21.5t-72 -58.5t-43 -86t-14.5 -105v-569h-192zM453 1112l178 299h242l-259 -299h-161z" />
<glyph unicode="&#x145;" horiz-adv-x="1562" d="M184 0v1452h269l725 -1114v1114h200v-1452h-209l-784 1184v-1184h-201zM682 -180q0 47 37 76.5t84 29.5q45 0 89 -33.5t44 -115.5q0 -59 -20.5 -102.5t-54 -72t-75.5 -42t-83 -13.5v82q53 0 91 31t42 68q-4 -4 -16.5 -8.5t-26.5 -4.5q-47 0 -79 26t-32 79z" />
<glyph unicode="&#x146;" horiz-adv-x="1150" d="M164 0v985h188v-141q53 92 135 131t168 39q88 0 155 -30t111 -82t65.5 -123.5t21.5 -153.5v-625h-193v592q0 51 -11 96t-39 79t-72 53.5t-107 19.5q-57 0 -100.5 -21.5t-72 -58.5t-43 -86t-14.5 -105v-569h-192zM471 -180q0 47 37 76.5t84 29.5q45 0 89 -33.5t44 -115.5 q0 -59 -20.5 -102.5t-54 -72t-75.5 -42t-83 -13.5v82q53 0 91 31t42 68q-4 -4 -16.5 -8.5t-26.5 -4.5q-47 0 -79 26t-32 79z" />
<glyph unicode="&#x147;" horiz-adv-x="1562" d="M184 0v1452h269l725 -1114v1114h200v-1452h-209l-784 1184v-1184h-201zM430 1798h187l166 -131l174 131h188l-239 -244h-246z" />
<glyph unicode="&#x148;" horiz-adv-x="1150" d="M164 0v985h188v-141q53 92 135 131t168 39q88 0 155 -30t111 -82t65.5 -123.5t21.5 -153.5v-625h-193v592q0 51 -11 96t-39 79t-72 53.5t-107 19.5q-57 0 -100.5 -21.5t-72 -58.5t-43 -86t-14.5 -105v-569h-192zM230 1407h178l143 -166l144 166h180l-209 -291h-227z" />
<glyph unicode="&#x149;" horiz-adv-x="1150" d="M142 1350q0 49 36.5 77.5t84.5 28.5q23 0 46 -8t42.5 -25.5t32 -46t12.5 -69.5q0 -59 -20.5 -102.5t-54.5 -72t-76 -42t-83 -13.5v82q53 0 91 31t42 67q-2 -2 -12 -7t-31 -5q-47 0 -78.5 26t-31.5 79zM164 0v985h188v-141q53 92 135 131t168 39q88 0 155 -30t111 -82 t65.5 -123.5t21.5 -153.5v-625h-193v592q0 51 -11 96t-39 79t-72 53.5t-107 19.5q-57 0 -100.5 -21.5t-72 -58.5t-43 -86t-14.5 -105v-569h-192z" />
<glyph unicode="&#x14a;" horiz-adv-x="1562" d="M184 0v1452h269l725 -1114v1114h200v-1548q0 -135 -72.5 -220t-201.5 -85q-55 0 -82 5t-33 9v162q10 -2 28 -3t34 -1q76 0 101.5 34.5t25.5 102.5v80l-793 1196v-1184h-201z" />
<glyph unicode="&#x14b;" horiz-adv-x="1150" d="M164 0v985h188v-141q53 92 135 131t168 39q88 0 155 -30t111 -82t65.5 -123.5t21.5 -153.5v-740q0 -135 -72 -220t-201 -85q-55 0 -81.5 5t-32.5 9v160q10 -2 27.5 -3t33.5 -1q76 0 104.5 38t28.5 106v698q0 51 -11 96t-39 79t-72 53.5t-107 19.5q-57 0 -100.5 -21.5 t-72 -58.5t-43 -86t-14.5 -105v-569h-192z" />
<glyph unicode="&#x14c;" horiz-adv-x="1642" d="M92 727q0 182 62.5 322.5t165 236.5t233.5 146.5t268 50.5t268.5 -50.5t233.5 -146.5t164.5 -236.5t62.5 -322.5t-62.5 -323.5t-164.5 -237.5t-233.5 -146.5t-268.5 -50.5t-268 50.5t-233.5 146.5t-165 237.5t-62.5 323.5zM297 727q0 -141 44 -248.5t116.5 -180.5 t167 -108.5t196.5 -35.5q100 0 195.5 35.5t168 108.5t117 180.5t44.5 248.5t-44.5 248.5t-117 179.5t-167.5 107.5t-196 35.5q-102 0 -196.5 -35.5t-167 -107.5t-116.5 -179.5t-44 -248.5zM522 1595v170h600v-170h-600z" />
<glyph unicode="&#x14d;" horiz-adv-x="1171" d="M82 494q0 113 37 208t104.5 164.5t159.5 109.5t203 40t203 -40t159.5 -109.5t104.5 -165t37 -207.5q0 -113 -37 -209.5t-104.5 -166t-160 -109.5t-202.5 -40q-111 0 -203 40t-159.5 109.5t-104.5 166t-37 209.5zM279 494q0 -86 24.5 -152t67.5 -111t98.5 -67.5 t116.5 -22.5t116.5 22.5t98.5 67.5t67.5 111t24.5 152t-24.5 150.5t-67.5 109.5t-98.5 67.5t-116.5 22.5t-116.5 -22.5t-98.5 -67.5t-67.5 -109.5t-24.5 -150.5zM308 1182v166h559v-166h-559z" />
<glyph unicode="&#x14e;" horiz-adv-x="1642" d="M92 727q0 182 62.5 322.5t165 236.5t233.5 146.5t268 50.5t268.5 -50.5t233.5 -146.5t164.5 -236.5t62.5 -322.5t-62.5 -323.5t-164.5 -237.5t-233.5 -146.5t-268.5 -50.5t-268 50.5t-233.5 146.5t-165 237.5t-62.5 323.5zM297 727q0 -141 44 -248.5t116.5 -180.5 t167 -108.5t196.5 -35.5q100 0 195.5 35.5t168 108.5t117 180.5t44.5 248.5t-44.5 248.5t-117 179.5t-167.5 107.5t-196 35.5q-102 0 -196.5 -35.5t-167 -107.5t-116.5 -179.5t-44 -248.5zM516 1808h166q2 -18 10.5 -37.5t27 -37t48 -28.5t70.5 -11t69.5 11t47 28.5t26.5 37 t11 37.5h165q-4 -49 -24.5 -96t-60.5 -85t-98 -60.5t-136 -22.5t-136.5 22.5t-98.5 60.5t-62.5 85t-24.5 96z" />
<glyph unicode="&#x14f;" horiz-adv-x="1171" d="M82 494q0 113 37 208t104.5 164.5t159.5 109.5t203 40t203 -40t159.5 -109.5t104.5 -165t37 -207.5q0 -113 -37 -209.5t-104.5 -166t-160 -109.5t-202.5 -40q-111 0 -203 40t-159.5 109.5t-104.5 166t-37 209.5zM279 494q0 -86 24.5 -152t67.5 -111t98.5 -67.5 t116.5 -22.5t116.5 22.5t98.5 67.5t67.5 111t24.5 152t-24.5 150.5t-67.5 109.5t-98.5 67.5t-116.5 22.5t-116.5 -22.5t-98.5 -67.5t-67.5 -109.5t-24.5 -150.5zM287 1407h149q2 -47 37 -90t113 -43t111.5 43t37.5 90h150q0 -55 -19.5 -107.5t-56.5 -93.5t-93 -65.5 t-130 -24.5q-72 0 -127.5 24.5t-93 65.5t-58 93.5t-20.5 107.5z" />
<glyph unicode="&#x150;" horiz-adv-x="1642" d="M92 727q0 182 62.5 322.5t165 236.5t233.5 146.5t268 50.5t268.5 -50.5t233.5 -146.5t164.5 -236.5t62.5 -322.5t-62.5 -323.5t-164.5 -237.5t-233.5 -146.5t-268.5 -50.5t-268 50.5t-233.5 146.5t-165 237.5t-62.5 323.5zM297 727q0 -141 44 -248.5t116.5 -180.5 t167 -108.5t196.5 -35.5q100 0 195.5 35.5t168 108.5t117 180.5t44.5 248.5t-44.5 248.5t-117 179.5t-167.5 107.5t-196 35.5q-102 0 -196.5 -35.5t-167 -107.5t-116.5 -179.5t-44 -248.5zM583 1554l125 244h215l-196 -244h-144zM872 1554l145 244h215l-217 -244h-143z" />
<glyph unicode="&#x151;" horiz-adv-x="1171" d="M82 494q0 113 37 208t104.5 164.5t159.5 109.5t203 40t203 -40t159.5 -109.5t104.5 -165t37 -207.5q0 -113 -37 -209.5t-104.5 -166t-160 -109.5t-202.5 -40q-111 0 -203 40t-159.5 109.5t-104.5 166t-37 209.5zM279 494q0 -86 24.5 -152t67.5 -111t98.5 -67.5 t116.5 -22.5t116.5 22.5t98.5 67.5t67.5 111t24.5 152t-24.5 150.5t-67.5 109.5t-98.5 67.5t-116.5 22.5t-116.5 -22.5t-98.5 -67.5t-67.5 -109.5t-24.5 -150.5zM373 1112l104 299h215l-184 -299h-135zM641 1112l125 299h215l-205 -299h-135z" />
<glyph unicode="&#x152;" horiz-adv-x="2351" d="M92 727q0 182 62.5 322.5t165 236.5t233.5 146.5t268 50.5q145 0 282.5 -55.5t242.5 -165.5v190h882v-186h-682v-447h619v-188h-619v-445h682v-186h-882v190q-104 -111 -241.5 -166t-283.5 -55q-137 0 -268 50.5t-233.5 146.5t-165 237.5t-62.5 323.5zM297 727 q0 -141 44 -248.5t116.5 -180.5t167 -108.5t196.5 -35.5q100 0 195.5 35.5t168 108.5t117 180.5t44.5 248.5t-44.5 248.5t-117 179.5t-167.5 107.5t-196 35.5q-102 0 -196.5 -35.5t-167 -107.5t-116.5 -179.5t-44 -248.5z" />
<glyph unicode="&#x153;" horiz-adv-x="1918" d="M82 494q0 113 37 208t104.5 164.5t159.5 109.5t203 40q129 0 233.5 -54.5t169.5 -146.5q66 94 165 147.5t210 53.5q113 0 202 -38t148.5 -105.5t91 -163t31.5 -209.5q0 -16 -1 -33.5t-3 -28.5h-741q2 -66 25.5 -120t63.5 -94t93 -62.5t115 -22.5q121 0 184 57.5t92 141.5 l166 -57q-20 -66 -60 -122.5t-96.5 -98.5t-128 -66.5t-157.5 -24.5q-121 0 -225.5 50.5t-174.5 148.5q-66 -92 -170 -145.5t-233 -53.5q-111 0 -203 40t-159.5 109.5t-104.5 166t-37 209.5zM279 494q0 -86 24.5 -152t67.5 -111t98.5 -67.5t116.5 -22.5t116.5 22.5t98.5 67.5 t67.5 111t24.5 152t-24.5 150.5t-67.5 109.5t-98.5 67.5t-116.5 22.5t-116.5 -22.5t-98.5 -67.5t-67.5 -109.5t-24.5 -150.5zM1098 594h538q-4 106 -72.5 179t-197.5 73q-61 0 -109.5 -21.5t-82 -57.5t-54 -81t-22.5 -92z" />
<glyph unicode="&#x154;" horiz-adv-x="1267" d="M184 0v1452h547q102 0 185 -34t140.5 -92t88.5 -137t31 -169q0 -158 -93.5 -269.5t-259.5 -142.5l346 -608h-233l-332 594h-217v-594h-203zM387 774h307q123 0 199 66.5t76 179.5q0 117 -76 184.5t-199 67.5h-307v-498zM493 1554l207 244h266l-280 -244h-193z" />
<glyph unicode="&#x155;" horiz-adv-x="751" d="M164 0v985h188v-172q27 57 63 93t74.5 57.5t79.5 29.5t78 8q20 0 37.5 -2t26.5 -4v-204q-43 6 -84 6q-121 0 -196 -71t-75 -232v-494h-192zM291 1112l178 299h242l-259 -299h-161z" />
<glyph unicode="&#x156;" horiz-adv-x="1267" d="M184 0v1452h547q102 0 185 -34t140.5 -92t88.5 -137t31 -169q0 -158 -93.5 -269.5t-259.5 -142.5l346 -608h-233l-332 594h-217v-594h-203zM387 774h307q123 0 199 66.5t76 179.5q0 117 -76 184.5t-199 67.5h-307v-498zM557 -180q0 47 37 76.5t84 29.5q45 0 89 -33.5 t44 -115.5q0 -59 -20.5 -102.5t-54 -72t-75.5 -42t-83 -13.5v82q53 0 91 31t42 68q-4 -4 -16.5 -8.5t-26.5 -4.5q-47 0 -79 26t-32 79z" />
<glyph unicode="&#x157;" horiz-adv-x="751" d="M135 -180q0 47 37 76.5t84 29.5q45 0 89 -33.5t44 -115.5q0 -59 -20.5 -102.5t-54 -72t-75.5 -42t-83 -13.5v82q53 0 91 31t42 68q-4 -4 -16.5 -8.5t-26.5 -4.5q-47 0 -79 26t-32 79zM164 0v985h188v-172q27 57 63 93t74.5 57.5t79.5 29.5t78 8q20 0 37.5 -2t26.5 -4 v-204q-43 6 -84 6q-121 0 -196 -71t-75 -232v-494h-192z" />
<glyph unicode="&#x158;" horiz-adv-x="1267" d="M184 0v1452h547q102 0 185 -34t140.5 -92t88.5 -137t31 -169q0 -158 -93.5 -269.5t-259.5 -142.5l346 -608h-233l-332 594h-217v-594h-203zM270 1798h187l166 -131l174 131h188l-239 -244h-246zM387 774h307q123 0 199 66.5t76 179.5q0 117 -76 184.5t-199 67.5h-307 v-498z" />
<glyph unicode="&#x159;" horiz-adv-x="751" d="M109 1407h178l143 -166l144 166h180l-209 -291h-227zM164 0v985h188v-172q27 57 63 93t74.5 57.5t79.5 29.5t78 8q20 0 37.5 -2t26.5 -4v-204q-43 6 -84 6q-121 0 -196 -71t-75 -232v-494h-192z" />
<glyph unicode="&#x15a;" horiz-adv-x="1214" d="M78 401l192 62q6 -61 30 -117.5t68 -99.5t106.5 -68.5t143.5 -25.5q150 0 225 67.5t75 163.5q0 78 -53.5 140.5t-164.5 84.5l-206 45q-156 35 -255.5 134.5t-99.5 263.5q0 86 37 163.5t101.5 137t152.5 95.5t188 36q123 0 210 -34t145.5 -87t91.5 -116.5t45 -123.5 l-180 -63q-6 39 -26.5 83t-57.5 81t-92.5 60.5t-130.5 23.5q-61 0 -112.5 -18.5t-89.5 -51.5t-58.5 -77t-20.5 -95q0 -78 47 -134.5t139 -76.5l217 -47q182 -41 279.5 -147.5t97.5 -260.5q0 -84 -34.5 -161.5t-100 -137t-158 -95.5t-208.5 -36q-131 0 -228.5 39t-164 100.5 t-103.5 138.5t-47 154zM506 1554l207 244h266l-280 -244h-193z" />
<glyph unicode="&#x15b;" horiz-adv-x="925" d="M72 256l174 61q10 -78 67.5 -131t161.5 -53q82 0 125 39t43 92q0 47 -32.5 80t-94.5 47l-168 37q-117 25 -181.5 98.5t-64.5 178.5q0 63 28 119.5t75 99.5t111.5 67.5t136.5 24.5q100 0 168.5 -29t111.5 -71t64.5 -87t29.5 -77l-170 -64q-4 18 -14 47t-32.5 54.5 t-61.5 44t-96 18.5q-74 0 -119 -40t-45 -91q0 -94 112 -119l160 -35q135 -29 204 -105.5t69 -187.5q0 -53 -23 -106t-67 -98t-111.5 -73t-159.5 -28q-102 0 -175 29t-121 72t-73.5 93t-31.5 93zM365 1112l178 299h242l-259 -299h-161z" />
<glyph unicode="&#x15c;" horiz-adv-x="1214" d="M78 401l192 62q6 -61 30 -117.5t68 -99.5t106.5 -68.5t143.5 -25.5q150 0 225 67.5t75 163.5q0 78 -53.5 140.5t-164.5 84.5l-206 45q-156 35 -255.5 134.5t-99.5 263.5q0 86 37 163.5t101.5 137t152.5 95.5t188 36q123 0 210 -34t145.5 -87t91.5 -116.5t45 -123.5 l-180 -63q-6 39 -26.5 83t-57.5 81t-92.5 60.5t-130.5 23.5q-61 0 -112.5 -18.5t-89.5 -51.5t-58.5 -77t-20.5 -95q0 -78 47 -134.5t139 -76.5l217 -47q182 -41 279.5 -147.5t97.5 -260.5q0 -84 -34.5 -161.5t-100 -137t-158 -95.5t-208.5 -36q-131 0 -228.5 39t-164 100.5 t-103.5 138.5t-47 154zM295 1554l230 244h246l239 -244h-188l-174 132l-166 -132h-187z" />
<glyph unicode="&#x15d;" horiz-adv-x="925" d="M72 256l174 61q10 -78 67.5 -131t161.5 -53q82 0 125 39t43 92q0 47 -32.5 80t-94.5 47l-168 37q-117 25 -181.5 98.5t-64.5 178.5q0 63 28 119.5t75 99.5t111.5 67.5t136.5 24.5q100 0 168.5 -29t111.5 -71t64.5 -87t29.5 -77l-170 -64q-4 18 -14 47t-32.5 54.5 t-61.5 44t-96 18.5q-74 0 -119 -40t-45 -91q0 -94 112 -119l160 -35q135 -29 204 -105.5t69 -187.5q0 -53 -23 -106t-67 -98t-111.5 -73t-159.5 -28q-102 0 -175 29t-121 72t-73.5 93t-31.5 93zM156 1116l213 285h219l213 -285h-180l-144 166l-143 -166h-178z" />
<glyph unicode="&#x15e;" horiz-adv-x="1214" d="M78 406l192 61q6 -61 31 -117.5t69 -100.5t106.5 -70.5t141.5 -26.5q150 0 225 67.5t75 163.5q0 78 -55.5 140.5t-162.5 84.5l-206 45q-156 35 -255.5 134.5t-99.5 263.5q0 86 37 163.5t101.5 137t152.5 95.5t188 36q123 0 210 -34t145.5 -87t91.5 -116.5t45 -123.5 l-180 -63q-6 39 -26.5 83t-57.5 81t-92.5 60.5t-130.5 23.5q-61 0 -112.5 -19.5t-89.5 -52.5t-58.5 -77t-20.5 -93q0 -78 47 -134.5t139 -76.5l217 -47q182 -41 279.5 -147.5t97.5 -260.5q0 -78 -28.5 -149.5t-82 -127.5t-130 -95t-172.5 -52l-45 -69q86 0 142 -45t56 -123 q0 -72 -57 -126t-182 -54q-78 0 -136.5 26.5t-89.5 63.5l76 92q18 -20 56 -45t92 -25q37 0 66.5 16.5t29.5 51.5q0 29 -23.5 47t-66.5 18q-33 0 -60 -10l-67 80l63 98q-117 8 -203 49t-146 101.5t-94 134.5t-42 150z" />
<glyph unicode="&#x15f;" horiz-adv-x="925" d="M72 260l174 62q10 -78 67.5 -133.5t161.5 -55.5q82 0 125 39t43 92q0 47 -32.5 80t-94.5 47l-168 37q-113 25 -179.5 99.5t-66.5 177.5q0 63 28 119.5t75 99.5t111.5 67.5t136.5 24.5q100 0 168.5 -29t111.5 -71t64.5 -87t29.5 -77l-170 -64q-4 18 -14 47t-32.5 54.5 t-61.5 44t-96 18.5q-74 0 -119 -40t-45 -91q0 -92 112 -119l160 -35q135 -29 204 -105.5t69 -187.5q0 -47 -18.5 -96t-55.5 -91t-92.5 -72.5t-130.5 -41.5l-43 -67q86 0 142 -45t56 -123q0 -72 -57 -126t-182 -54q-78 0 -136.5 26.5t-89.5 63.5l76 92q18 -20 56 -45t92 -25 q37 0 66.5 16.5t29.5 51.5q0 29 -23.5 47t-66.5 18q-33 0 -60 -10l-67 80l65 102q-80 10 -138 41t-97 73t-60.5 87t-27.5 84z" />
<glyph unicode="&#x160;" horiz-adv-x="1214" d="M78 401l192 62q6 -61 30 -117.5t68 -99.5t106.5 -68.5t143.5 -25.5q150 0 225 67.5t75 163.5q0 78 -53.5 140.5t-164.5 84.5l-206 45q-156 35 -255.5 134.5t-99.5 263.5q0 86 37 163.5t101.5 137t152.5 95.5t188 36q123 0 210 -34t145.5 -87t91.5 -116.5t45 -123.5 l-180 -63q-6 39 -26.5 83t-57.5 81t-92.5 60.5t-130.5 23.5q-61 0 -112.5 -18.5t-89.5 -51.5t-58.5 -77t-20.5 -95q0 -78 47 -134.5t139 -76.5l217 -47q182 -41 279.5 -147.5t97.5 -260.5q0 -84 -34.5 -161.5t-100 -137t-158 -95.5t-208.5 -36q-131 0 -228.5 39t-164 100.5 t-103.5 138.5t-47 154zM272 1798h187l166 -131l174 131h188l-239 -244h-246z" />
<glyph unicode="&#x161;" horiz-adv-x="925" d="M72 256l174 61q10 -78 67.5 -131t161.5 -53q82 0 125 39t43 92q0 47 -32.5 80t-94.5 47l-168 37q-117 25 -181.5 98.5t-64.5 178.5q0 63 28 119.5t75 99.5t111.5 67.5t136.5 24.5q100 0 168.5 -29t111.5 -71t64.5 -87t29.5 -77l-170 -64q-4 18 -14 47t-32.5 54.5 t-61.5 44t-96 18.5q-74 0 -119 -40t-45 -91q0 -94 112 -119l160 -35q135 -29 204 -105.5t69 -187.5q0 -53 -23 -106t-67 -98t-111.5 -73t-159.5 -28q-102 0 -175 29t-121 72t-73.5 93t-31.5 93zM142 1407h178l143 -166l144 166h180l-209 -291h-227z" />
<glyph unicode="&#x162;" horiz-adv-x="1212" d="M20 1266v186h1172v-186h-485v-1266h-27l-62 -94q86 0 142.5 -45t56.5 -123q0 -37 -14.5 -70t-43 -58.5t-74.5 -40.5t-107 -15q-78 0 -136.5 28.5t-89.5 65.5l76 92q18 -20 56 -45t91 -25q37 0 67 16.5t30 51.5q0 29 -23.5 47t-66.5 18q-33 0 -60 -10l-67 80l80 127h-29 v1266h-486z" />
<glyph unicode="&#x163;" horiz-adv-x="727" d="M41 811v174h53q80 0 116 43t36 109v159h176v-311h213v-174h-213v-512q0 -68 30.5 -101.5t106.5 -33.5q18 0 41 2t35 6v-164q-12 -4 -46 -10t-81 -8l-53 -84q86 0 142 -45t56 -123q0 -37 -14 -70t-43 -58.5t-75 -40.5t-107 -15q-78 0 -136.5 28.5t-89.5 65.5l76 92 q18 -20 56 -45t92 -25q37 0 66.5 16.5t29.5 51.5q0 29 -23.5 47t-66.5 18q-33 0 -60 -10l-67 80l88 139q-72 29 -111 94.5t-39 163.5v541h-188z" />
<glyph unicode="&#x164;" horiz-adv-x="1212" d="M20 1266v186h1172v-186h-485v-1266h-201v1266h-486zM249 1798h187l166 -131l174 131h188l-239 -244h-246z" />
<glyph unicode="&#x165;" horiz-adv-x="727" d="M41 811v174h53q80 0 116 43t36 109v159h176v-311h213v-174h-213v-512q0 -68 30.5 -101.5t106.5 -33.5q18 0 41 2t35 6v-164q-12 -4 -47 -11t-84 -7q-127 0 -201 72.5t-74 207.5v541h-188zM553 1159l57 367h215l-131 -367h-141z" />
<glyph unicode="&#x166;" horiz-adv-x="1212" d="M20 1266v186h1172v-186h-485v-504h225v-166h-225v-596h-201v596h-221v166h221v504h-486z" />
<glyph unicode="&#x167;" horiz-adv-x="727" d="M41 424v156h188v231h-188v174h53q80 0 116 43t36 109v159h176v-311h213v-174h-213v-231h213v-156h-213v-125q0 -68 30.5 -101.5t106.5 -33.5q18 0 41 2t35 6v-164q-12 -4 -47 -11t-84 -7q-127 0 -201 72.5t-74 207.5v154h-188z" />
<glyph unicode="&#x168;" horiz-adv-x="1372" d="M164 496v956h198v-950q0 -166 85 -256t239 -90t238 90t84 256v950h200v-956q0 -129 -40 -227.5t-110.5 -165t-165.5 -100.5t-206 -34t-206 34t-165.5 100.5t-110.5 165t-40 227.5zM354 1550v33q0 115 56.5 171t142.5 56q43 0 81 -14t68 -33l31 -18q23 -12 40.5 -20.5 t37.5 -8.5q27 0 46.5 15.5t19.5 56.5v16h137v-32q0 -115 -55.5 -171.5t-141.5 -56.5q-45 0 -80 12.5t-65 34.5l-31 21q-20 12 -37.5 20t-38.5 8q-33 0 -52 -21.5t-19 -68.5h-140z" />
<glyph unicode="&#x169;" horiz-adv-x="1159" d="M154 365v620h192v-592q0 -51 12.5 -97t39 -81t68.5 -55.5t103 -20.5q117 0 175.5 70t58.5 182v594h192v-803q0 -59 3 -107t8 -75h-185q-4 16 -6 52t-2 67q-41 -78 -123 -114t-168 -36t-154.5 31t-115.5 84t-72.5 125t-25.5 156zM249 1137v30q0 115 57.5 169.5t143.5 54.5 q41 0 75 -13.5t62 -31.5l29 -19q20 -12 36.5 -20.5t37.5 -8.5q31 0 45 19.5t14 68.5h146v-30q0 -115 -56.5 -169t-142.5 -54q-41 0 -74 13t-61 32l-29 18q-20 12 -37.5 20.5t-38.5 8.5q-29 0 -44 -18.5t-15 -69.5h-148z" />
<glyph unicode="&#x16a;" horiz-adv-x="1372" d="M164 496v956h198v-950q0 -166 85 -256t239 -90t238 90t84 256v950h200v-956q0 -129 -40 -227.5t-110.5 -165t-165.5 -100.5t-206 -34t-206 34t-165.5 100.5t-110.5 165t-40 227.5zM387 1595v170h600v-170h-600z" />
<glyph unicode="&#x16b;" horiz-adv-x="1159" d="M154 365v620h192v-592q0 -51 12.5 -97t39 -81t68.5 -55.5t103 -20.5q117 0 175.5 70t58.5 182v594h192v-803q0 -59 3 -107t8 -75h-185q-4 16 -6 52t-2 67q-41 -78 -123 -114t-168 -36t-154.5 31t-115.5 84t-72.5 125t-25.5 156zM295 1182v166h559v-166h-559z" />
<glyph unicode="&#x16c;" horiz-adv-x="1372" d="M164 496v956h198v-950q0 -166 85 -256t239 -90t238 90t84 256v950h200v-956q0 -129 -40 -227.5t-110.5 -165t-165.5 -100.5t-206 -34t-206 34t-165.5 100.5t-110.5 165t-40 227.5zM366 1808h166q2 -18 10.5 -37.5t27 -37t48 -28.5t70.5 -11t69.5 11t47 28.5t26.5 37 t11 37.5h165q-4 -49 -24.5 -96t-60.5 -85t-98 -60.5t-136 -22.5t-136.5 22.5t-98.5 60.5t-62.5 85t-24.5 96z" />
<glyph unicode="&#x16d;" horiz-adv-x="1159" d="M154 365v620h192v-592q0 -51 12.5 -97t39 -81t68.5 -55.5t103 -20.5q117 0 175.5 70t58.5 182v594h192v-803q0 -59 3 -107t8 -75h-185q-4 16 -6 52t-2 67q-41 -78 -123 -114t-168 -36t-154.5 31t-115.5 84t-72.5 125t-25.5 156zM279 1407h149q2 -47 37 -90t113 -43 t111.5 43t37.5 90h150q0 -55 -19.5 -107.5t-56.5 -93.5t-93 -65.5t-130 -24.5q-72 0 -127.5 24.5t-93 65.5t-58 93.5t-20.5 107.5z" />
<glyph unicode="&#x16e;" horiz-adv-x="1372" d="M164 496v956h198v-950q0 -166 85 -256t239 -90t238 90t84 256v950h200v-956q0 -129 -40 -227.5t-110.5 -165t-165.5 -100.5t-206 -34t-206 34t-165.5 100.5t-110.5 165t-40 227.5zM459 1737q0 47 18.5 88t50.5 71.5t72.5 48t86.5 17.5q47 0 89 -17.5t72.5 -48t49 -71.5 t18.5 -88t-18.5 -88t-49 -71t-72.5 -47.5t-89 -17.5q-45 0 -86 17.5t-73 47.5t-50.5 71t-18.5 88zM590 1737q0 -41 27 -68t67 -27q41 0 70 27t29 68t-29 68.5t-70 27.5t-67.5 -27.5t-26.5 -68.5z" />
<glyph unicode="&#x16f;" horiz-adv-x="1159" d="M154 365v620h192v-592q0 -51 12.5 -97t39 -81t68.5 -55.5t103 -20.5q117 0 175.5 70t58.5 182v594h192v-803q0 -59 3 -107t8 -75h-185q-4 16 -6 52t-2 67q-41 -78 -123 -114t-168 -36t-154.5 31t-115.5 84t-72.5 125t-25.5 156zM346 1313q0 47 18.5 88t50 71.5t72.5 48 t86 17.5q47 0 89 -17.5t73 -48t49 -71.5t18 -88t-18 -88t-49 -71t-73 -47t-89 -17q-45 0 -86 17t-72.5 47t-50 71t-18.5 88zM475 1313q0 -41 27.5 -70t68.5 -29q43 0 71.5 29t28.5 70t-28.5 70.5t-71.5 29.5q-41 0 -68.5 -29.5t-27.5 -70.5z" />
<glyph unicode="&#x170;" horiz-adv-x="1372" d="M164 496v956h198v-950q0 -166 85 -256t239 -90t238 90t84 256v950h200v-956q0 -129 -40 -227.5t-110.5 -165t-165.5 -100.5t-206 -34t-206 34t-165.5 100.5t-110.5 165t-40 227.5zM440 1554l125 244h215l-196 -244h-144zM729 1554l145 244h215l-217 -244h-143z" />
<glyph unicode="&#x171;" horiz-adv-x="1159" d="M154 365v620h192v-592q0 -51 12.5 -97t39 -81t68.5 -55.5t103 -20.5q117 0 175.5 70t58.5 182v594h192v-803q0 -59 3 -107t8 -75h-185q-4 16 -6 52t-2 67q-41 -78 -123 -114t-168 -36t-154.5 31t-115.5 84t-72.5 125t-25.5 156zM340 1112l104 299h215l-184 -299h-135z M608 1112l125 299h215l-205 -299h-135z" />
<glyph unicode="&#x172;" horiz-adv-x="1372" d="M164 496v956h198v-950q0 -166 85 -256t239 -90t238 90t84 256v950h200v-956q0 -199 -90 -323t-235 -173q-29 -14 -59.5 -32.5t-56.5 -43t-42 -55.5t-16 -68q0 -53 33.5 -74.5t74.5 -21.5q25 0 39 2t27 6v-139q-20 -8 -42 -12t-61 -4q-47 0 -90 14t-75.5 40t-51 64.5 t-18.5 87.5q0 72 30.5 122.5t73.5 84.5q-102 4 -191 41t-154.5 103.5t-102.5 162t-37 218.5z" />
<glyph unicode="&#x173;" horiz-adv-x="1159" d="M154 365v620h192v-592q0 -51 12.5 -97t39 -81t68.5 -55.5t103 -20.5q117 0 175.5 70t58.5 182v594h192v-803q0 -63 3 -109t8 -73q-29 -14 -60 -32.5t-56.5 -43t-42 -55.5t-16.5 -68q0 -53 34 -74.5t75 -21.5q25 0 39 2t27 6v-139q-20 -8 -42 -12t-61 -4q-47 0 -90 14 t-75.5 40t-51 64.5t-18.5 87.5q0 90 47 147.5t106 92.5q-4 18 -6 52t-2 63q-41 -78 -123 -114t-168 -36t-154.5 31t-115.5 84t-72.5 125t-25.5 156z" />
<glyph unicode="&#x174;" horiz-adv-x="2056" d="M31 1452h207l319 -1137l365 1137h211l372 -1149l314 1149h206l-413 -1452h-207l-379 1178l-375 -1178h-200zM671 1554l230 244h246l239 -244h-188l-174 132l-166 -132h-187z" />
<glyph unicode="&#x175;" horiz-adv-x="1624" d="M31 985h211l221 -741l256 741h199l256 -741l217 741h202l-319 -985h-199l-262 750l-256 -750h-203zM492 1116l213 285h219l213 -285h-180l-144 166l-143 -166h-178z" />
<glyph unicode="&#x176;" horiz-adv-x="1265" d="M20 1452h242l377 -647l377 647h229l-512 -831v-621h-201v621zM276 1554l230 244h246l239 -244h-188l-174 132l-166 -132h-187z" />
<glyph unicode="&#x177;" horiz-adv-x="1071" d="M20 985h222l307 -680l295 680h207l-641 -1397h-211l245 521zM211 1116l213 285h219l213 -285h-180l-144 166l-143 -166h-178z" />
<glyph unicode="&#x178;" horiz-adv-x="1265" d="M20 1452h242l377 -647l377 647h229l-512 -831v-621h-201v621zM276 1677q0 51 35 86t86 35t86 -34.5t35 -86.5q0 -51 -34.5 -86t-86.5 -35q-51 0 -86 35t-35 86zM750 1677q0 51 34.5 86t85.5 35t86 -34.5t35 -86.5q0 -51 -34.5 -86t-86.5 -35q-51 0 -85.5 35t-34.5 86z " />
<glyph unicode="&#x179;" horiz-adv-x="1294" d="M92 0v201l866 1065h-845v186h1089v-195l-870 -1069h880v-188h-1120zM502 1554l207 244h266l-280 -244h-193z" />
<glyph unicode="&#x17a;" horiz-adv-x="954" d="M82 0v168l541 643h-533v174h772v-168l-540 -643h550v-174h-790zM348 1112l178 299h242l-259 -299h-161z" />
<glyph unicode="&#x17b;" horiz-adv-x="1294" d="M92 0v201l866 1065h-845v186h1089v-195l-870 -1069h880v-188h-1120zM524 1675q0 53 38 92t91 39t92 -38.5t39 -92.5q0 -53 -39 -91t-92 -38t-91 38t-38 91z" />
<glyph unicode="&#x17c;" horiz-adv-x="954" d="M82 0v168l541 643h-533v174h772v-168l-540 -643h550v-174h-790zM350 1262q0 53 37 90t90 37t90 -37t37 -90t-37 -90t-90 -37t-90 37t-37 90z" />
<glyph unicode="&#x17d;" horiz-adv-x="1294" d="M92 0v201l866 1065h-845v186h1089v-195l-870 -1069h880v-188h-1120zM305 1798h187l166 -131l174 131h188l-239 -244h-246z" />
<glyph unicode="&#x17e;" horiz-adv-x="954" d="M82 0v168l541 643h-533v174h772v-168l-540 -643h550v-174h-790zM160 1407h178l143 -166l144 166h180l-209 -291h-227z" />
<glyph unicode="&#x18f;" horiz-adv-x="1626" d="M92 719v20.5t2 28.5h1233q-6 133 -52 232.5t-119 166t-167 99t-194 32.5q-90 0 -172 -27.5t-148.5 -74.5t-114 -110.5t-67.5 -135.5l-180 66q29 96 93 181t154.5 148.5t201 100.5t233.5 37q152 0 285.5 -49.5t235 -144.5t160 -236.5t58.5 -327.5t-61.5 -327.5 t-163 -236.5t-230.5 -143.5t-266 -48.5q-135 0 -265 46t-231.5 140.5t-163 234.5t-61.5 329zM301 584q8 -76 37 -138q31 -74 81 -129t112.5 -91t134 -54t147.5 -18q141 0 262 66.5t189 201.5q16 35 29.5 75t23.5 87h-1016z" />
<glyph unicode="&#x192;" horiz-adv-x="985" d="M-61 -133q23 -6 50 -10t64 -4q27 0 56.5 6t56.5 25.5t49.5 56t34.5 100.5l153 774h-225v170h260l47 232q14 78 48 134t80 92t100.5 53t109.5 17q59 0 91 -5t61 -15v-170q-23 6 -49.5 10t-59.5 4q-27 0 -56.5 -5t-56 -24.5t-49 -57.5t-34.5 -101l-33 -164h264v-170h-299 l-168 -842q-16 -78 -49 -134t-79 -92t-100 -53.5t-110 -17.5q-63 0 -96 5.5t-61 15.5v170z" />
<glyph unicode="&#x1b5;" horiz-adv-x="1294" d="M92 0v201l383 471h-297v174h438l342 420h-845v186h1089v-195l-336 -411h246v-174h-387l-393 -484h880v-188h-1120z" />
<glyph unicode="&#x1b6;" horiz-adv-x="954" d="M82 0v168l221 264h-203v156h334l189 223h-533v174h772v-168l-192 -229h178v-156h-309l-217 -258h550v-174h-790z" />
<glyph unicode="&#x1fa;" horiz-adv-x="1427" d="M20 0l547 1374q-39 31 -62.5 75t-23.5 97q0 47 18.5 88t50.5 72t73 48.5t86 17.5q47 0 89 -17.5t72.5 -48.5t49 -72t18.5 -88q0 -51 -21.5 -95t-58.5 -75l549 -1376h-217l-158 406h-643l-153 -406h-216zM461 592h500l-252 651zM612 1546q0 -41 27 -67.5t68 -26.5 t69.5 26.5t28.5 67.5t-28.5 68.5t-69.5 27.5t-68 -27.5t-27 -68.5zM614 1847l207 244h266l-280 -244h-193z" />
<glyph unicode="&#x1fb;" horiz-adv-x="1193" d="M82 500q0 104 34 197.5t95 163t147 110.5t191 41q66 0 116 -14.5t86.5 -38t61.5 -53t37 -60.5v139h190v-803q0 -66 4.5 -117t6.5 -65h-187q-4 16 -7 52t-3 81v17q-35 -72 -111.5 -124.5t-193.5 -52.5q-109 0 -195 41t-146.5 113t-93 167t-32.5 206zM279 500 q0 -76 19 -141.5t56 -112.5t90.5 -75t122.5 -28q66 0 119 28t90 75t56.5 112.5t19.5 141.5q0 154 -75 248t-208 94t-211.5 -94t-78.5 -248zM324 1294q0 47 18 88t50 72t73 48.5t86 17.5q47 0 89 -17.5t72.5 -48.5t49 -72t18.5 -88t-18.5 -88t-49 -70.5t-72.5 -47t-89 -17.5 q-45 0 -86 17.5t-73 47t-50 70.5t-18 88zM453 1294q0 -41 27.5 -69.5t68.5 -28.5q43 0 71.5 28.5t28.5 69.5t-28.5 71t-71.5 30q-41 0 -68.5 -30t-27.5 -71zM467 1575l178 299h242l-258 -299h-162z" />
<glyph unicode="&#x1fc;" horiz-adv-x="2101" d="M10 0l967 1452h1001v-186h-682v-447h619v-188h-619v-445h682v-186h-882v401h-570l-258 -401h-258zM641 582h455v704zM1034 1554l207 244h266l-280 -244h-193z" />
<glyph unicode="&#x1fd;" horiz-adv-x="1789" d="M102 264q0 66 22.5 118t62.5 89t95.5 59.5t118.5 32.5l285 39q49 8 63.5 29.5t14.5 44.5q0 72 -56.5 125t-168.5 53q-104 0 -165 -57.5t-71 -134.5l-180 34q6 74 46 133.5t98.5 101.5t129 63.5t142.5 21.5q127 0 215 -45t135 -119q66 78 156 121t190 43q113 0 202 -38 t148.5 -105.5t91 -163t31.5 -209.5q0 -14 -1 -34t-3 -28h-741q2 -66 25.5 -120t63.5 -94t93 -62.5t115 -22.5q119 0 182 57.5t92 141.5l168 -57q-20 -66 -61.5 -122.5t-98.5 -98.5t-129 -66.5t-153 -24.5q-125 0 -232.5 54.5t-177.5 158.5q-23 -39 -55.5 -76.5t-79.5 -68.5 t-111.5 -49.5t-148.5 -18.5t-149.5 24.5t-110.5 64.5t-69 93.5t-24 112.5zM299 270q0 -53 44 -96t126 -43q51 0 103.5 15.5t95.5 49t69.5 89t26.5 135.5v47l-322 -45q-66 -10 -104.5 -47t-38.5 -105zM805 1112l178 299h242l-259 -299h-161zM969 594h538q-4 106 -72.5 179 t-197.5 73q-61 0 -109.5 -21.5t-82 -57.5t-54 -81t-22.5 -92z" />
<glyph unicode="&#x1fe;" horiz-adv-x="1642" d="M92 727q0 182 62.5 322.5t165 236.5t233.5 146.5t268 50.5q104 0 203.5 -29t187.5 -84l148 189l139 -107l-149 -192q92 -96 146 -229.5t54 -303.5q0 -182 -62.5 -323.5t-164.5 -237.5t-233.5 -146.5t-268.5 -50.5q-102 0 -200.5 28t-186.5 81l-139 -182l-143 104l145 188 q-92 96 -148.5 230.5t-56.5 308.5zM297 727q0 -123 31.5 -218t89.5 -167l680 879q-125 78 -277 77q-102 0 -196.5 -35.5t-167 -107.5t-116.5 -179.5t-44 -248.5zM549 225q61 -37 131 -54t141 -17q100 0 195.5 35.5t168 108.5t117 180.5t44.5 248.5q0 119 -32 212t-85 165z M719 1554l207 244h266l-280 -244h-193z" />
<glyph unicode="&#x1ff;" horiz-adv-x="1171" d="M82 494q0 113 37 208t104.5 164.5t159.5 109.5t203 40q72 0 136 -17.5t120 -48.5l102 133l123 -98l-104 -135q59 -70 93 -160t34 -196q0 -113 -37 -209.5t-104.5 -166t-160 -109.5t-202.5 -40q-72 0 -136.5 17.5t-117.5 46.5l-101 -129l-122 98l100 131q-59 70 -93 161 t-34 200zM279 494q0 -68 14 -117t37 -90l401 520q-68 37 -145 37q-61 0 -116.5 -22.5t-98.5 -67.5t-67.5 -109.5t-24.5 -150.5zM442 176q62 -35 144 -35q61 0 116.5 22.5t98.5 67.5t67.5 111t24.5 152q0 59 -13.5 110t-35.5 92zM506 1112l178 299h242l-259 -299h-161z" />
<glyph unicode="&#x218;" horiz-adv-x="1214" d="M78 401l192 62q6 -61 30 -117.5t68 -99.5t106.5 -68.5t143.5 -25.5q150 0 225 67.5t75 163.5q0 78 -53.5 140.5t-164.5 84.5l-206 45q-156 35 -255.5 134.5t-99.5 263.5q0 86 37 163.5t101.5 137t152.5 95.5t188 36q123 0 210 -34t145.5 -87t91.5 -116.5t45 -123.5 l-180 -63q-6 39 -26.5 83t-57.5 81t-92.5 60.5t-130.5 23.5q-61 0 -112.5 -18.5t-89.5 -51.5t-58.5 -77t-20.5 -95q0 -78 47 -134.5t139 -76.5l217 -47q182 -41 279.5 -147.5t97.5 -260.5q0 -84 -34.5 -161.5t-100 -137t-158 -95.5t-208.5 -36q-131 0 -228.5 39t-164 100.5 t-103.5 138.5t-47 154zM508 -180q0 47 37 76.5t84 29.5q45 0 89 -33.5t44 -115.5q0 -59 -20.5 -102.5t-54 -72t-75.5 -42t-83 -13.5v82q53 0 91 31t42 68q-4 -4 -16.5 -8.5t-26.5 -4.5q-47 0 -79 26t-32 79z" />
<glyph unicode="&#x219;" horiz-adv-x="925" d="M72 256l174 61q10 -78 67.5 -131t161.5 -53q82 0 125 39t43 92q0 47 -32.5 80t-94.5 47l-168 37q-117 25 -181.5 98.5t-64.5 178.5q0 63 28 119.5t75 99.5t111.5 67.5t136.5 24.5q100 0 168.5 -29t111.5 -71t64.5 -87t29.5 -77l-170 -64q-4 18 -14 47t-32.5 54.5 t-61.5 44t-96 18.5q-74 0 -119 -40t-45 -91q0 -94 112 -119l160 -35q135 -29 204 -105.5t69 -187.5q0 -53 -23 -106t-67 -98t-111.5 -73t-159.5 -28q-102 0 -175 29t-121 72t-73.5 93t-31.5 93zM346 -180q0 47 37 76.5t84 29.5q45 0 89 -33.5t44 -115.5q0 -59 -20.5 -102.5 t-54 -72t-75.5 -42t-83 -13.5v82q53 0 91 31t42 68q-4 -4 -16.5 -8.5t-26.5 -4.5q-47 0 -79 26t-32 79z" />
<glyph unicode="&#x21a;" horiz-adv-x="1212" d="M20 1266v186h1172v-186h-485v-1266h-201v1266h-486zM477 -180q0 47 37 76.5t84 29.5q45 0 89 -33.5t44 -115.5q0 -59 -20.5 -102.5t-54 -72t-75.5 -42t-83 -13.5v82q53 0 91 31t42 68q-4 -4 -16.5 -8.5t-26.5 -4.5q-47 0 -79 26t-32 79z" />
<glyph unicode="&#x21b;" horiz-adv-x="727" d="M41 811v174h53q80 0 116 43t36 109v159h176v-311h213v-174h-213v-512q0 -68 30.5 -101.5t106.5 -33.5q18 0 41 2t35 6v-164q-12 -4 -47 -11t-84 -7q-127 0 -201 72.5t-74 207.5v541h-188zM299 -180q0 47 37 76.5t84 29.5q45 0 89 -33.5t44 -115.5q0 -59 -20.5 -102.5 t-54 -72t-75.5 -42t-83 -13.5v82q53 0 91 31t42 68q-4 -4 -16.5 -8.5t-26.5 -4.5q-47 0 -79 26t-32 79z" />
<glyph unicode="&#x237;" horiz-adv-x="520" d="M-31 -246q8 -2 26.5 -3t35.5 -1q76 0 104.5 38t28.5 106v1091h192v-1100q0 -135 -71.5 -220t-200.5 -85q-55 0 -79.5 5t-35.5 9v160z" />
<glyph unicode="&#x259;" horiz-adv-x="1118" d="M82 479v22.5t4 39.5h752q-2 66 -22.5 121t-58.5 96t-91.5 64.5t-118.5 23.5q-117 0 -190.5 -59.5t-102.5 -137.5l-162 58q20 63 62.5 119.5t100.5 98.5t132 66.5t160 24.5q115 0 206 -38t153.5 -107.5t96 -167t33.5 -214.5t-36.5 -212t-101 -163.5t-150.5 -106.5 t-183 -38q-111 0 -201 37t-152 103.5t-96 161t-34 208.5zM287 385q4 -106 76.5 -176t199.5 -70q61 0 109.5 20.5t82 54.5t53 79t23.5 92h-544z" />
<glyph unicode="&#x2c6;" horiz-adv-x="788" d="M72 1116l213 285h219l213 -285h-180l-144 166l-143 -166h-178z" />
<glyph unicode="&#x2c7;" horiz-adv-x="788" d="M72 1407h178l143 -166l144 166h180l-209 -291h-227z" />
<glyph unicode="&#x2c9;" horiz-adv-x="702" d="M72 1182v166h559v-166h-559z" />
<glyph unicode="&#x2d8;" horiz-adv-x="741" d="M72 1407h149q2 -47 37 -90t113 -43t111.5 43t37.5 90h150q0 -55 -19.5 -107.5t-56.5 -93.5t-93 -65.5t-130 -24.5q-72 0 -127.5 24.5t-93 65.5t-58 93.5t-20.5 107.5z" />
<glyph unicode="&#x2d9;" horiz-adv-x="356" d="M51 1262q0 53 37 90t90 37t90 -37t37 -90t-37 -90t-90 -37t-90 37t-37 90z" />
<glyph unicode="&#x2da;" horiz-adv-x="600" d="M72 1313q0 47 18.5 88t50 71.5t72.5 48t86 17.5q47 0 89 -17.5t73 -48t49 -71.5t18 -88t-18 -88t-49 -71t-73 -47t-89 -17q-45 0 -86 17t-72.5 47t-50 71t-18.5 88zM201 1313q0 -41 27.5 -70t68.5 -29q43 0 71.5 29t28.5 70t-28.5 70.5t-71.5 29.5q-41 0 -68.5 -29.5 t-27.5 -70.5z" />
<glyph unicode="&#x2db;" horiz-adv-x="477" d="M68 -236q0 55 19 99.5t50 76t68 54t71 39.5l130 -33q-29 -14 -60 -32.5t-56.5 -43t-42 -55.5t-16.5 -68q0 -53 34 -74.5t75 -21.5q25 0 39 2t27 6v-139q-20 -8 -42 -12t-61 -4q-47 0 -90 14t-76 40t-51 64.5t-18 87.5z" />
<glyph unicode="&#x2dc;" horiz-adv-x="772" d="M63 1137v30q0 115 57.5 169.5t143.5 54.5q41 0 75 -13.5t62 -31.5l29 -19q20 -12 36.5 -20.5t37.5 -8.5q31 0 45 19.5t14 68.5h146v-30q0 -115 -56.5 -169t-142.5 -54q-41 0 -74 13t-61 32l-29 18q-20 12 -37.5 20.5t-38.5 8.5q-29 0 -44 -18.5t-15 -69.5h-148z" />
<glyph unicode="&#x2dd;" horiz-adv-x="751" d="M72 1112l104 299h215l-184 -299h-135zM340 1112l125 299h215l-205 -299h-135z" />
<glyph unicode="&#x394;" horiz-adv-x="1355" d="M0 0l569 1452h215l572 -1452h-1356zM285 184h784l-395 1039z" />
<glyph unicode="&#x3a9;" horiz-adv-x="1630" d="M92 793q0 162 60.5 290.5t160 217t230.5 135.5t272 47t272.5 -47t230.5 -135.5t159.5 -217.5t60.5 -290q0 -119 -37 -218.5t-97.5 -178.5t-136 -133t-155.5 -83h416v-180h-625v270q76 16 153 58.5t138 109t100 156.5t39 201q0 125 -45 219t-118.5 158.5t-167 97.5 t-187.5 33t-187 -33t-167 -97.5t-119 -158.5t-45 -219q0 -111 39 -201t100.5 -156.5t138 -108.5t152.5 -59v-270h-625v180h414q-78 29 -154.5 83t-136 133t-96.5 178.5t-37 218.5z" />
<glyph unicode="&#x3bc;" horiz-adv-x="1169" d="M164 -389v1374h192v-592q0 -51 12.5 -97t39 -81t68.5 -55.5t104 -20.5q117 0 175 70t58 182v594h193v-803q0 -59 3 -110.5t7 -71.5h-185q-4 16 -6 52t-2 67q-41 -78 -123 -114t-168 -36q-55 0 -97 11.5t-79 29.5v-399h-192z" />
<glyph unicode="&#x3c0;" horiz-adv-x="1259" d="M92 817v168h1061v-168h-170v-567q0 -55 32 -77.5t79 -22.5q16 0 31.5 2t31.5 6v-148q-18 -8 -48 -16t-77 -8q-63 0 -108 20.5t-75 54t-44 77.5t-14 91v588h-338v-817h-193v817h-168z" />
<glyph unicode="&#x1e80;" horiz-adv-x="2056" d="M31 1452h207l319 -1137l365 1137h211l372 -1149l314 1149h206l-413 -1452h-207l-379 1178l-375 -1178h-200zM655 1798h264l209 -244h-191z" />
<glyph unicode="&#x1e81;" horiz-adv-x="1624" d="M31 985h211l221 -741l256 741h199l256 -741l217 741h202l-319 -985h-199l-262 750l-256 -750h-203zM480 1411h241l176 -299h-159z" />
<glyph unicode="&#x1e82;" horiz-adv-x="2056" d="M31 1452h207l319 -1137l365 1137h211l372 -1149l314 1149h206l-413 -1452h-207l-379 1178l-375 -1178h-200zM932 1554l207 244h266l-280 -244h-193z" />
<glyph unicode="&#x1e83;" horiz-adv-x="1624" d="M31 985h211l221 -741l256 741h199l256 -741l217 741h202l-319 -985h-199l-262 750l-256 -750h-203zM734 1112l178 299h242l-259 -299h-161z" />
<glyph unicode="&#x1e84;" horiz-adv-x="2056" d="M31 1452h207l319 -1137l365 1137h211l372 -1149l314 1149h206l-413 -1452h-207l-379 1178l-375 -1178h-200zM610 1677q0 51 35 86t86 35t86 -34.5t35 -86.5q0 -51 -35 -86t-86 -35t-86 35t-35 86zM1206 1677q0 51 35 86t86 35t86 -34.5t35 -86.5q0 -51 -35 -86t-86 -35 t-86 35t-35 86z" />
<glyph unicode="&#x1e85;" horiz-adv-x="1624" d="M31 985h211l221 -741l256 741h199l256 -741l217 741h202l-319 -985h-199l-262 750l-256 -750h-203zM461 1272q0 49 33.5 84t83.5 35q51 0 85.5 -35t34.5 -84q0 -51 -34.5 -85t-85.5 -34q-49 0 -83 34t-34 85zM926 1272q0 49 33.5 84t84.5 35q49 0 84 -35t35 -84 q0 -51 -34.5 -85t-84.5 -34q-51 0 -84.5 34t-33.5 85z" />
<glyph unicode="&#x1e8a;" horiz-adv-x="1263" d="M20 0l496 727l-491 725h241l367 -569l373 569h237l-493 -725l487 -727h-240l-366 567l-375 -567h-236zM504 1675q0 53 38 92t91 39t92 -38.5t39 -92.5q0 -53 -39 -91t-92 -38t-91 38t-38 91z" />
<glyph unicode="&#x1e8b;" horiz-adv-x="1005" d="M20 0l367 502l-354 483h233l242 -346l237 346h228l-350 -483q14 -20 42.5 -59.5t64.5 -88.5t74 -103t73.5 -103.5t64.5 -88.5t43 -59h-231l-254 362l-250 -362h-230zM377 1262q0 53 37 90t90 37t90 -37t37 -90t-37 -90t-90 -37t-90 37t-37 90z" />
<glyph unicode="&#x1ef2;" horiz-adv-x="1265" d="M20 1452h242l377 -647l377 647h229l-512 -831v-621h-201v621zM281 1798h264l209 -244h-191z" />
<glyph unicode="&#x1ef3;" horiz-adv-x="1071" d="M20 985h222l307 -680l295 680h207l-641 -1397h-211l245 521zM238 1411h241l176 -299h-159z" />
<glyph unicode="&#x2000;" horiz-adv-x="1045" />
<glyph unicode="&#x2001;" horiz-adv-x="2091" />
<glyph unicode="&#x2002;" horiz-adv-x="1045" />
<glyph unicode="&#x2003;" horiz-adv-x="2091" />
<glyph unicode="&#x2004;" horiz-adv-x="697" />
<glyph unicode="&#x2005;" horiz-adv-x="522" />
<glyph unicode="&#x2006;" horiz-adv-x="348" />
<glyph unicode="&#x2007;" horiz-adv-x="1257" />
<glyph unicode="&#x2008;" horiz-adv-x="571" />
<glyph unicode="&#x2009;" horiz-adv-x="418" />
<glyph unicode="&#x200a;" horiz-adv-x="116" />
<glyph unicode="&#x200b;" horiz-adv-x="0" />
<glyph unicode="&#x2010;" horiz-adv-x="739" d="M92 504v168h555v-168h-555z" />
<glyph unicode="&#x2011;" horiz-adv-x="739" d="M92 504v168h555v-168h-555z" />
<glyph unicode="&#x2012;" horiz-adv-x="739" d="M92 504v168h555v-168h-555z" />
<glyph unicode="&#x2013;" horiz-adv-x="1314" d="M133 504v168h1049v-168h-1049z" />
<glyph unicode="&#x2014;" horiz-adv-x="2258" d="M154 504v168h1951v-168h-1951z" />
<glyph unicode="&#x2018;" horiz-adv-x="446" d="M82 1106q0 90 26.5 155.5t66.5 109.5t88 66.5t91 26.5v-96q-68 -16 -109.5 -75.5t-43.5 -123.5q4 4 14 7.5t27 3.5q51 0 87 -33t36 -92q0 -51 -38 -87t-96 -36q-59 0 -104 43t-45 131z" />
<glyph unicode="&#x2019;" horiz-adv-x="458" d="M82 1343q0 51 40 89t99 38q61 0 108.5 -45t47.5 -135q0 -96 -27.5 -163.5t-69.5 -112.5t-91.5 -67.5t-94.5 -28.5v98q70 16 113 76.5t45 130.5q-4 -4 -14.5 -7.5t-26.5 -3.5q-53 0 -91 35t-38 96z" />
<glyph unicode="&#x201a;" horiz-adv-x="458" d="M82 125q0 51 40 89t99 38q61 0 108.5 -45t47.5 -135q0 -96 -27.5 -164t-69.5 -113t-91.5 -67.5t-94.5 -28.5v98q70 16 113 76.5t45 130.5q-4 -4 -14.5 -7t-26.5 -3q-53 0 -91 35t-38 96z" />
<glyph unicode="&#x201c;" horiz-adv-x="796" d="M82 1116q0 90 26.5 155.5t66.5 109.5t88 66.5t91 27.5v-97q-68 -16 -109.5 -75.5t-43.5 -122.5q4 4 14 7t27 3q51 0 87 -33t36 -92q0 -51 -38 -87t-96 -36q-59 0 -104 43t-45 131zM432 1116q0 90 26.5 155.5t66.5 109.5t88.5 66.5t91.5 27.5v-97q-68 -16 -110 -75.5 t-44 -122.5q4 4 14 7t27 3q51 0 87 -33t36 -92q0 -51 -38 -87t-95 -36q-59 0 -104.5 43t-45.5 131z" />
<glyph unicode="&#x201d;" horiz-adv-x="796" d="M82 1341q0 51 38 87t95 36q59 0 104.5 -43t45.5 -131q0 -90 -27 -155.5t-67 -108.5t-88 -65.5t-91 -28.5v96q33 8 61.5 27.5t48 46t32 59.5t12.5 66q-4 -4 -14.5 -7t-26.5 -3q-51 0 -87 32.5t-36 91.5zM432 1341q0 51 38 87t95 36q59 0 104.5 -43t45.5 -131 q0 -90 -26.5 -155.5t-66.5 -108.5t-88.5 -65.5t-91.5 -28.5v96q33 8 61.5 27.5t48 46t32 59.5t12.5 66q-4 -4 -14.5 -7t-26.5 -3q-51 0 -87 32.5t-36 91.5z" />
<glyph unicode="&#x201e;" horiz-adv-x="796" d="M82 119q0 51 38 87t95 36q59 0 104.5 -43t45.5 -131q0 -90 -27 -156t-67 -109t-88 -65.5t-91 -28.5v96q33 8 61.5 28t48 46.5t32 59t12.5 65.5q-4 -4 -14.5 -7t-26.5 -3q-51 0 -87 33t-36 92zM432 119q0 51 38 87t95 36q59 0 104.5 -43t45.5 -131q0 -90 -26.5 -156 t-66.5 -109t-88.5 -65.5t-91.5 -28.5v96q33 8 61.5 28t48 46.5t32 59t12.5 65.5q-4 -4 -14.5 -7t-26.5 -3q-51 0 -87 33t-36 92z" />
<glyph unicode="&#x2020;" horiz-adv-x="790" d="M51 981v166h260v305h168v-305h260v-166h-260v-649h-168v649h-260z" />
<glyph unicode="&#x2021;" horiz-adv-x="872" d="M92 305v166h260v510h-260v166h260v305h168v-305h260v-166h-260v-510h260v-166h-260v-305h-168v305h-260z" />
<glyph unicode="&#x2022;" horiz-adv-x="1132" d="M113 578q0 82 20.5 160.5t62.5 140t107.5 99.5t157.5 38q68 0 135.5 -24.5t131 -64.5t116.5 -89.5t94 -98.5q14 -16 31.5 -37.5t33 -44t26.5 -44t11 -35.5q0 -16 -11 -37t-26.5 -43.5t-33 -44t-31.5 -37.5q-41 -49 -94 -98.5t-116.5 -89.5t-131.5 -64.5t-135 -24.5 q-92 0 -157.5 37t-107.5 98.5t-62.5 140.5t-20.5 163z" />
<glyph unicode="&#x2026;" horiz-adv-x="1908" d="M184 121q0 55 39 94t94 39t93.5 -39t38.5 -94t-38 -93t-94 -38q-55 0 -94 38t-39 93zM821 121q0 55 39 94t94 39t93 -39t38 -94t-37.5 -93t-93.5 -38q-55 0 -94 38t-39 93zM1460 121q0 55 39 94t94 39t93 -39t38 -94t-37.5 -93t-93.5 -38q-55 0 -94 38t-39 93z" />
<glyph unicode="&#x202f;" horiz-adv-x="418" />
<glyph unicode="&#x2030;" horiz-adv-x="2160" d="M113 1020q0 68 26.5 126t71.5 102t104.5 68.5t124.5 24.5q66 0 126.5 -24.5t105.5 -68.5t71.5 -102.5t26.5 -125.5q0 -68 -26.5 -127t-71.5 -103.5t-105.5 -69t-126.5 -24.5t-125 24.5t-104 69t-71.5 103.5t-26.5 127zM276 0l955 1327h184l-950 -1327h-189zM283 1020 q0 -72 46 -117t111 -45q68 0 113 45t45 117q0 70 -45 115t-113 45q-66 0 -111.5 -45t-45.5 -115zM924 307q0 68 26.5 126.5t71.5 102.5t104.5 68.5t124.5 24.5q76 0 139.5 -33t104.5 -90q41 57 103.5 90t140.5 33q66 0 126 -24.5t105 -68.5t71.5 -102.5t26.5 -126.5 t-26.5 -127t-71.5 -103t-105.5 -68.5t-125.5 -24.5q-78 0 -140.5 32.5t-103.5 87.5q-41 -55 -104.5 -87.5t-139.5 -32.5q-66 0 -125 24.5t-104 68.5t-71.5 103t-26.5 127zM1094 307q0 -72 46 -117t111 -45q68 0 113 45.5t45 116.5q0 70 -45 115t-113 45q-66 0 -111.5 -45 t-45.5 -115zM1581 307q0 -72 46 -117t112 -45q68 0 112.5 45.5t44.5 116.5q0 70 -45 115t-112 45q-66 0 -112 -45t-46 -115z" />
<glyph unicode="&#x2039;" horiz-adv-x="565" d="M61 594l273 391h190l-268 -391l268 -391h-190z" />
<glyph unicode="&#x203a;" horiz-adv-x="565" d="M41 203l268 391l-268 391h190l273 -391l-273 -391h-190z" />
<glyph unicode="&#x2042;" horiz-adv-x="1710" d="M73 404l42 134l225 -80v249h145v-247l227 78l42 -134l-228 -75l151 -194l-113 -84l-152 200l-144 -198l-112 84l145 192zM471 1135l42 134l225 -80v249h145v-247l227 78l42 -134l-228 -75l151 -194l-113 -84l-152 200l-144 -198l-112 84l145 192zM868 404l42 134l225 -80 v249h145v-247l227 78l42 -134l-228 -75l151 -194l-113 -84l-152 200l-144 -198l-112 84l145 192z" />
<glyph unicode="&#x2044;" horiz-adv-x="1138" d="M0 0l954 1327h185l-951 -1327h-188z" />
<glyph unicode="&#x2051;" horiz-adv-x="866" d="M92 404l42 134l225 -80v249h145v-247l227 78l42 -134l-228 -75l151 -194l-113 -84l-152 200l-144 -198l-112 84l145 192zM92 1135l42 134l225 -80v249h145v-247l227 78l42 -134l-228 -75l151 -194l-113 -84l-152 200l-144 -198l-112 84l145 192z" />
<glyph unicode="&#x205f;" horiz-adv-x="522" />
<glyph unicode="&#x2070;" horiz-adv-x="872" d="M123 1077q0 74 15.5 144.5t56.5 126.5q35 47 91 82.5t150 35.5t150.5 -35.5t91.5 -82.5q41 -55 56.5 -126t15.5 -145t-15.5 -143.5t-56.5 -124.5q-35 -47 -91.5 -83t-150.5 -36t-150.5 36t-90.5 83q-41 55 -56.5 124.5t-15.5 143.5zM283 1077q0 -41 5 -86t21.5 -81.5 t46 -60.5t80.5 -24t81 24t46.5 60.5t21.5 81.5t5 86t-5 86t-21.5 82t-46.5 61.5t-81 24.5t-80.5 -23.5t-46 -60.5t-21.5 -82t-5 -88z" />
<glyph unicode="&#x2074;" horiz-adv-x="913" d="M123 852v150l362 450h174v-467h132v-133h-132v-147h-157v147h-379zM274 985h228v285z" />
<glyph unicode="&#x2075;" horiz-adv-x="827" d="M123 879l135 61q14 -53 54 -85t96 -32q59 0 98 33t39 92q0 63 -39 95t-98 32q-41 0 -74 -15t-58 -40l-131 49l101 383h418v-135h-316l-47 -176q29 31 69 44t81 13q115 0 184.5 -65.5t69.5 -178.5q0 -55 -19.5 -103t-57.5 -84t-93.5 -56.5t-126.5 -20.5q-55 0 -103.5 16.5 t-85.5 42t-61.5 59.5t-34.5 71z" />
<glyph unicode="&#x2076;" horiz-adv-x="856" d="M123 1032q0 100 29.5 180t83 137.5t126 88t158.5 30.5q51 0 98.5 -10t77.5 -28l-37 -117q-59 27 -127 26q-98 0 -166.5 -54t-84.5 -161q27 39 78 63.5t108 24.5q119 0 192.5 -67.5t73.5 -190.5q0 -59 -23.5 -107t-63.5 -83t-95 -54.5t-119 -19.5q-57 0 -112.5 20.5 t-99.5 62.5t-70.5 106.5t-26.5 152.5zM293 952q0 -63 44 -96t97 -33t96 33t43 96t-43 96t-96 33t-97 -33t-44 -96z" />
<glyph unicode="&#x2077;" horiz-adv-x="854" d="M123 1317v135h608v-141q-27 -18 -74 -61.5t-96 -116t-90 -178t-55 -250.5h-168q14 154 59 267.5t94 190.5q57 90 125 154h-403z" />
<glyph unicode="&#x2078;" horiz-adv-x="839" d="M123 911q0 55 37 103.5t102 73.5q-55 23 -85 67.5t-30 95.5q0 96 77 155.5t196 59.5t195.5 -59t76.5 -156q0 -51 -29.5 -96t-84.5 -67q66 -25 102.5 -73t36.5 -104q0 -94 -77 -157.5t-220 -63.5t-220 63.5t-77 157.5zM283 924q0 -47 34.5 -75t102.5 -28t102.5 28t34.5 75 q0 45 -36 73.5t-101 28.5q-66 0 -101.5 -28.5t-35.5 -73.5zM303 1247q0 -45 32 -71.5t85 -26.5t85 26.5t32 71.5q0 41 -31 66.5t-86 25.5t-86 -25.5t-31 -66.5z" />
<glyph unicode="&#x2079;" horiz-adv-x="851" d="M123 1204q0 57 23.5 106.5t63.5 84t95 54t119 19.5q57 0 111.5 -20.5t97.5 -62.5t69.5 -106.5t26.5 -152.5q0 -106 -29.5 -187t-82 -136.5t-124 -84t-157.5 -28.5q-51 0 -98.5 10.5t-77.5 28.5l37 121q59 -27 127 -27q98 0 168.5 50.5t82.5 160.5q-27 -39 -78 -63.5 t-108 -24.5q-117 0 -191.5 68.5t-74.5 189.5zM279 1204q0 -63 41.5 -97t97.5 -34q55 0 98 34t43 97t-43 97t-98 34t-97 -33.5t-42 -97.5z" />
<glyph unicode="&#x2080;" horiz-adv-x="872" d="M123 227q0 74 15.5 144.5t56.5 126.5q35 47 91 82.5t150 35.5t150.5 -35.5t91.5 -82.5q41 -55 56.5 -126t15.5 -145t-15.5 -143.5t-56.5 -124.5q-35 -47 -91.5 -83t-150.5 -36t-150.5 36t-90.5 83q-41 55 -56.5 124.5t-15.5 143.5zM283 227q0 -41 5 -86t21.5 -81.5 t46 -60.5t80.5 -24t81 24t46.5 60.5t21.5 81.5t5 86t-5 86t-21.5 82t-46.5 61.5t-81 24.5t-80.5 -23.5t-46 -60.5t-21.5 -82t-5 -88z" />
<glyph unicode="&#x2081;" horiz-adv-x="620" d="M102 356v107q76 2 127.5 42t61.5 97h145v-747h-157v501h-177z" />
<glyph unicode="&#x2082;" horiz-adv-x="796" d="M125 -119q0 92 41 167t133 130l123 76q88 53 88 129q0 41 -28.5 71.5t-82.5 30.5q-53 0 -84.5 -32.5t-31.5 -85.5q0 -6 1 -22.5t5 -31.5h-152q-4 16 -5 34t-1 30q0 49 18.5 92t53.5 76t85 52t113 19t112.5 -19t84.5 -51t53.5 -75t18.5 -90q0 -72 -39 -128t-105 -97 l-147 -93q-23 -16 -41.5 -34.5t-22.5 -40.5h359v-133h-549v26z" />
<glyph unicode="&#x2083;" horiz-adv-x="843" d="M123 51l137 55q10 -59 54 -95t108 -36q63 0 101 33t38 80q0 63 -44 89t-95 26q-16 0 -31.5 -2t-25.5 -6l-60 114l195 162h-350v133h555v-129l-205 -164q43 -4 83 -19.5t70.5 -43t49 -68.5t18.5 -92t-21.5 -96t-60.5 -79t-93 -53.5t-122 -19.5t-119 18.5t-89 47 t-61.5 66.5t-31.5 79z" />
<glyph unicode="&#x2084;" horiz-adv-x="913" d="M123 2v150l362 450h174v-467h132v-133h-132v-147h-157v147h-379zM274 135h228v285z" />
<glyph unicode="&#x2085;" horiz-adv-x="827" d="M123 29l135 61q14 -53 54 -85t96 -32q59 0 98 33t39 92q0 63 -39 95t-98 32q-41 0 -74 -15t-58 -40l-131 49l101 383h418v-135h-316l-47 -176q29 31 69 44t81 13q115 0 184.5 -65.5t69.5 -178.5q0 -55 -19.5 -103t-57.5 -84t-93.5 -56.5t-126.5 -20.5q-55 0 -103.5 16.5 t-85.5 42t-61.5 59.5t-34.5 71z" />
<glyph unicode="&#x2086;" horiz-adv-x="856" d="M123 182q0 100 29.5 180t83 137.5t126 88t158.5 30.5q51 0 98.5 -10t77.5 -28l-37 -117q-59 27 -127 26q-98 0 -166.5 -54t-84.5 -161q27 39 78 63.5t108 24.5q119 0 192.5 -67.5t73.5 -190.5q0 -59 -23.5 -107t-63.5 -83t-95 -54.5t-119 -19.5q-57 0 -112.5 20.5 t-99.5 62.5t-70.5 106.5t-26.5 152.5zM293 102q0 -63 44 -96t97 -33t96 33t43 96t-43 96t-96 33t-97 -33t-44 -96z" />
<glyph unicode="&#x2087;" horiz-adv-x="854" d="M123 467v135h608v-141q-27 -18 -74 -61.5t-96 -116t-90 -178t-55 -250.5h-168q14 154 59 267.5t94 190.5q57 90 125 154h-403z" />
<glyph unicode="&#x2088;" horiz-adv-x="839" d="M123 61q0 55 37 103.5t102 73.5q-55 23 -85 67.5t-30 95.5q0 96 77 155.5t196 59.5t195.5 -59t76.5 -156q0 -51 -29.5 -96t-84.5 -67q66 -25 102.5 -73t36.5 -104q0 -94 -77 -157.5t-220 -63.5t-220 63.5t-77 157.5zM283 74q0 -47 34.5 -75t102.5 -28t102.5 28t34.5 75 q0 45 -36 73.5t-101 28.5q-66 0 -101.5 -28.5t-35.5 -73.5zM303 397q0 -45 32 -71.5t85 -26.5t85 26.5t32 71.5q0 41 -31 66.5t-86 25.5t-86 -25.5t-31 -66.5z" />
<glyph unicode="&#x2089;" horiz-adv-x="851" d="M123 354q0 57 23.5 106.5t63.5 84t95 54t119 19.5q57 0 111.5 -20.5t97.5 -62.5t69.5 -106.5t26.5 -152.5q0 -106 -29.5 -187t-82 -136.5t-124 -84t-157.5 -28.5q-51 0 -98.5 10.5t-77.5 28.5l37 121q59 -27 127 -27q98 0 168.5 50.5t82.5 160.5q-27 -39 -78 -63.5 t-108 -24.5q-117 0 -191.5 68.5t-74.5 189.5zM279 354q0 -63 41.5 -97t97.5 -34q55 0 98 34t43 97t-43 97t-98 34t-97 -33.5t-42 -97.5z" />
<glyph unicode="&#x20ac;" horiz-adv-x="1411" d="M133 414v164h162q-2 16 -3 41.5t-1 46.5q0 20 1 42.5t3 39.5h-162v159h193q37 113 103.5 197t151.5 140t183 85t197 29q104 0 192 -23.5t158 -72.5l-82 -158q-55 41 -123 58.5t-145 17.5q-137 0 -253 -68t-173 -205h600l-80 -159h-559q-6 -37 -7 -82q0 -57 7 -88h485 l-80 -164h-362q57 -135 168.5 -201t246.5 -66q92 0 171 28t135 83l100 -143q-76 -66 -179.5 -106t-226.5 -40q-98 0 -193 29t-179 84t-149.5 138t-102.5 194h-197z" />
<glyph unicode="&#x2113;" horiz-adv-x="833" d="M72 350v180q12 4 52 16.5t87 35.5v454q0 152 75.5 238t198.5 86q131 0 204 -80t73 -227q0 -80 -23.5 -160t-69.5 -155.5t-113 -143.5t-153 -121v-145q0 -84 39 -121t99 -39q57 0 104 15.5t80 43.5v-174q-10 -14 -55 -38.5t-138 -24.5q-166 0 -243.5 93t-77.5 234v68 q-35 -10 -68.5 -19.5t-70.5 -15.5zM403 702q68 61 117 147.5t49 203.5q0 66 -17 98.5t-63 32.5q-35 0 -60.5 -32t-25.5 -114v-336z" />
<glyph unicode="&#x2122;" horiz-adv-x="1759" d="M61 1313v139h615v-139h-230v-608h-155v608h-230zM805 705v747h203l219 -520l219 520h190v-747h-147v477l-207 -477h-121l-200 471v-471h-156z" />
<glyph unicode="&#x2126;" horiz-adv-x="1630" d="M92 793q0 162 60.5 290.5t160 217t230.5 135.5t272 47t272.5 -47t230.5 -135.5t159.5 -217.5t60.5 -290q0 -119 -37 -218.5t-97.5 -178.5t-136 -133t-155.5 -83h416v-180h-625v270q76 16 153 58.5t138 109t100 156.5t39 201q0 125 -45 219t-118.5 158.5t-167 97.5 t-187.5 33t-187 -33t-167 -97.5t-119 -158.5t-45 -219q0 -111 39 -201t100.5 -156.5t138 -108.5t152.5 -59v-270h-625v180h414q-78 29 -154.5 83t-136 133t-96.5 178.5t-37 218.5z" />
<glyph unicode="&#x2160;" horiz-adv-x="1036" d="M113 0v180h307v967h-307v180h811v-180h-308v-967h308v-180h-811z" />
<glyph unicode="&#x2161;" horiz-adv-x="1576" d="M113 0v180h286v967h-286v180h1351v-180h-286v-967h286v-180h-1351zM596 180h385v967h-385v-967z" />
<glyph unicode="&#x2162;" horiz-adv-x="2138" d="M113 0v180h286v967h-286v180h1912v-180h-286v-967h286v-180h-1912zM596 180h375v967h-375v-967zM1167 180h375v967h-375v-967z" />
<glyph unicode="&#x2163;" horiz-adv-x="2060" d="M113 0v180h266v967h-266v180h1833v-180h-236l-334 -967h572v-180h-1835zM575 180h492l-328 967h-164v-967zM948 1147l279 -858l280 858h-559z" />
<glyph unicode="&#x2164;" horiz-adv-x="1644" d="M113 1147v180h1419v-180h-225l-334 -967h551v-180h-1401v180h541l-328 967h-223zM545 1147l278 -858l281 858h-559z" />
<glyph unicode="&#x2165;" horiz-adv-x="2060" d="M113 0v180h561l-328 967h-233v180h1833v-180h-265v-967h267v-180h-1835zM555 1147l279 -858l280 858h-559zM983 180h502v967h-168z" />
<glyph unicode="&#x2166;" horiz-adv-x="2648" d="M113 0v180h559l-326 967h-233v180h2422v-180h-286v-967h286v-180h-2422zM555 1147l276 -858l281 858h-557zM981 180h502v967h-168zM1679 180h373v967h-373v-967z" />
<glyph unicode="&#x2167;" horiz-adv-x="3158" d="M113 0v180h553l-320 967h-233v180h2932v-180h-276v-967h276v-180h-2932zM555 1147l268 -858l271 858h-539zM971 180h499v967h-172zM1667 180h354v967h-354v-967zM2218 180h354v967h-354v-967z" />
<glyph unicode="&#x2168;" horiz-adv-x="1998" d="M113 0v180h266v967h-266v180h1771v-180h-215l-348 -498l330 -469h235v-180h-1773zM575 180h189l338 469l-350 498h-177v-967zM977 1147l233 -344l236 344h-469zM985 180h440l-217 318z" />
<glyph unicode="&#x2169;" horiz-adv-x="1570" d="M113 0v180h223l338 469l-350 498h-211v180h1343v-180h-215l-348 -498l330 -469h235v-180h-1345zM549 1147l233 -344l236 344h-469zM557 180h440l-217 318z" />
<glyph unicode="&#x216c;" horiz-adv-x="1339" d="M113 0v180h266v967h-266v180h749v-180h-287v-967h455v395h197v-575h-1114z" />
<glyph unicode="&#x216d;" horiz-adv-x="1478" d="M113 666q0 168 57 297t150.5 217t212 134t243.5 46q137 0 231.5 -41t157.5 -117v129h197v-463h-197q-16 141 -114.5 226.5t-274.5 85.5q-94 0 -178 -31t-147.5 -94.5t-101.5 -160.5t-38 -228t38 -228.5t101.5 -161t147.5 -94t178 -30.5q100 0 173 29.5t120 75.5 t71.5 103.5t28.5 112.5h197v-473h-197v137q-63 -78 -157 -122t-236 -44q-125 0 -244.5 46t-213 134.5t-149.5 218.5t-56 296z" />
<glyph unicode="&#x216e;" horiz-adv-x="1505" d="M113 0v180h276v967h-276v180h657q121 0 233.5 -42t198.5 -126t138.5 -208t52.5 -289q0 -164 -51.5 -287t-139.5 -207t-202.5 -126t-241.5 -42h-645zM586 180h176q82 0 158.5 29t137 88t97.5 149.5t37 215.5q0 121 -35 212t-93 151t-138 91t-168 31h-172v-967z" />
<glyph unicode="&#x216f;" horiz-adv-x="2189" d="M113 0v180h260v967h-260v180h544l430 -1055l435 1055h555v-180h-271v-967h271v-180h-666v180h203v877l-449 -1057h-155l-445 1057v-877h213v-180h-665z" />
<glyph unicode="&#x2190;" horiz-adv-x="2101" d="M0 588l453 381v-295h1505v-170h-1505v-295z" />
<glyph unicode="&#x2191;" horiz-adv-x="919" d="M82 1137l410 501l407 -501h-324v-1440h-169v1440h-324z" />
<glyph unicode="&#x2192;" horiz-adv-x="2101" d="M70 502v170h1425v350l516 -434l-516 -432v346h-1425z" />
<glyph unicode="&#x2193;" horiz-adv-x="919" d="M-2 184h346v1426h170v-1426h350l-434 -516z" />
<glyph unicode="&#x2196;" horiz-adv-x="1789" d="M113 850v602h598l-238 -240l1112 -1110l-121 -118l-1112 1108z" />
<glyph unicode="&#x2197;" horiz-adv-x="1583" d="M-94 102l1112 1110l-238 240h598v-602l-241 242l-1110 -1108z" />
<glyph unicode="&#x2198;" horiz-adv-x="1789" d="M113 1350l120 118l1110 -1110l242 244v-602h-598l238 240z" />
<glyph unicode="&#x2199;" horiz-adv-x="1564" d="M92 0v602l240 -244l1112 1110l121 -118l-1112 -1110l237 -240h-598z" />
<glyph unicode="&#x21a9;" horiz-adv-x="1705" d="M-4 588l453 381v-295h741q57 0 110.5 17.5t94.5 50t65.5 80.5t24.5 110q0 61 -23.5 109.5t-64.5 81t-96.5 50t-116.5 17.5h-369v170h393q92 0 173 -33t141.5 -90t95.5 -136t35 -169q0 -96 -37 -175t-100.5 -135.5t-145.5 -87t-170 -30.5h-751v-295z" />
<glyph unicode="&#x21b0;" horiz-adv-x="1587" d="M102 1102l453 381v-295h848v-1188h-170v1018h-678v-295z" />
<glyph unicode="&#x21b1;" horiz-adv-x="1474" d="M72 0v1188h950v295l453 -381l-453 -379v295h-780v-1018h-170z" />
<glyph unicode="&#x21b2;" horiz-adv-x="1556" d="M-20 350l452 379v-295h780v1018h170v-1188h-950v-295z" />
<glyph unicode="&#x21b3;" horiz-adv-x="1720" d="M174 264v1188h170v-1018h780v295l453 -379l-453 -381v295h-950z" />
<glyph unicode="&#x21b4;" horiz-adv-x="1667" d="M113 1282v170h1187v-1032h295l-381 -453l-378 453h294v862h-1017z" />
<glyph unicode="&#x21c6;" horiz-adv-x="2265" d="M113 1106l452 381v-295h1546v-170h-1546v-295zM154 264v170h1546v295l452 -381l-452 -379v295h-1546z" />
<glyph unicode="&#x2202;" horiz-adv-x="1251" d="M94 453q0 111 40 197.5t109.5 148t161 94.5t193.5 33q123 0 213 -35t137 -82q-10 131 -47 226t-94 154.5t-133 88.5t-168 29q-49 0 -128 -12.5t-159 -51.5l-65 152q86 49 184 68.5t184 19.5q92 0 202 -31t205 -116t158.5 -234.5t63.5 -388.5q0 -172 -36 -309.5 t-107.5 -233.5t-177 -148.5t-242.5 -52.5q-94 0 -183.5 30t-158 90.5t-110.5 151.5t-42 212zM291 440q0 -72 25.5 -126t68.5 -91t98.5 -56.5t114.5 -19.5q96 0 162.5 42t108.5 107.5t61.5 147.5t19.5 162q-53 74 -140 112t-183 38q-84 0 -146.5 -25.5t-104.5 -69 t-63.5 -100.5t-21.5 -121z" />
<glyph unicode="&#x2206;" horiz-adv-x="1355" d="M0 0l569 1452h215l572 -1452h-1356zM285 184h784l-395 1039z" />
<glyph unicode="&#x220f;" horiz-adv-x="1406" d="M184 0v1452h1039v-1452h-195v1274h-643v-1274h-201z" />
<glyph unicode="&#x2211;" horiz-adv-x="1161" d="M92 0v176l559 555l-559 545v176h1018v-184h-748l551 -537l-569 -547h766v-184h-1018z" />
<glyph unicode="&#x2212;" horiz-adv-x="1091" d="M113 508v162h866v-162h-866z" />
<glyph unicode="&#x2215;" horiz-adv-x="827" d="M0 0l641 1327h186l-641 -1327h-186z" />
<glyph unicode="&#x2219;" horiz-adv-x="571" d="M143 582q0 59 41 101t101 42q59 0 101 -42t42 -101t-42 -100.5t-101 -41.5t-100.5 41.5t-41.5 100.5z" />
<glyph unicode="&#x221a;" horiz-adv-x="1361" d="M72 1083h221l260 -766l481 1461h400v-181h-244l-545 -1597h-186z" />
<glyph unicode="&#x221e;" horiz-adv-x="2650" d="M143 725q0 156 36 293t109.5 239.5t186.5 162t266 59.5q115 0 223.5 -35t212 -98.5t200 -149.5t186.5 -190l125 -144q102 119 216.5 199t249.5 80q170 0 261.5 -110.5t91.5 -305.5t-91.5 -307.5t-261.5 -112.5q-135 0 -249.5 81t-216.5 200l-125 -146 q-90 -104 -186.5 -190t-199 -147.5t-212 -95.5t-224.5 -34q-154 0 -266.5 58.5t-186 161t-109.5 238.5t-36 294zM336 725q0 -127 24.5 -233.5t74.5 -184.5t127 -122t181 -44q195 0 374 119t341 318l121 147l-121 143q-166 197 -344 317t-371 120q-104 0 -181 -44t-127 -121 t-74.5 -183.5t-24.5 -231.5zM1788 725q39 -49 83 -94t90 -79t94 -53.5t97 -19.5q84 0 128 63.5t44 182.5q0 117 -44 180.5t-128 63.5q-49 0 -97 -19.5t-94 -53.5t-90 -78t-83 -93z" />
<glyph unicode="&#x222b;" horiz-adv-x="634" d="M10 -233h64q66 0 107.5 41.5t41.5 123.5v1196q0 152 86 238t240 86h76v-176h-62q-68 0 -107.5 -40t-39.5 -122v-1198q0 -152 -83 -239t-235 -87h-88v177z" />
<glyph unicode="&#x2248;" horiz-adv-x="1165" d="M72 373q59 86 133 130t160 44q53 0 103 -16.5t107 -47.5l95 -51q72 -41 143 -41q100 0 176 90l105 -92q-57 -82 -133 -126t-166 -44q-98 0 -205 62l-96 53q-66 35 -127 35q-106 0 -187 -93zM72 770q59 86 133 130t160 44q53 0 103 -16.5t107 -46.5l95 -52q72 -41 143 -41 q100 0 176 91l105 -93q-57 -82 -133 -126t-166 -44q-98 0 -205 62l-96 53q-66 35 -127 35q-106 0 -187 -92z" />
<glyph unicode="&#x2260;" horiz-adv-x="1214" d="M133 309v162h293l174 238h-467v157h584l149 203h197l-150 -203h168v-157h-284l-174 -238h458v-162h-577l-152 -205h-196l151 205h-174z" />
<glyph unicode="&#x2264;" horiz-adv-x="1110" d="M133 104v162h844v-162h-844zM133 623v174l844 299v-172l-629 -213l629 -213v-172z" />
<glyph unicode="&#x2265;" horiz-adv-x="1110" d="M133 104v162h844v-162h-844zM133 326v172l629 213l-629 213v172l844 -299v-174z" />
<glyph unicode="&#x22c5;" horiz-adv-x="571" d="M143 582q0 59 41 101t101 42q59 0 101 -42t42 -101t-42 -100.5t-101 -41.5t-100.5 41.5t-41.5 100.5z" />
<glyph unicode="&#x24c5;" horiz-adv-x="1681" d="M92 727q0 156 58.5 293t160 240.5t236.5 163t291 59.5t293 -59.5t238 -163t160.5 -240.5t59.5 -293t-59.5 -294t-160.5 -240.5t-238.5 -163t-292.5 -60.5q-156 0 -291 60.5t-236.5 163t-160 240.5t-58.5 294zM252 727q0 -129 45 -240.5t125 -192.5t186.5 -128t229.5 -47 t229.5 47t186 128t124.5 192.5t45 240.5t-45 239.5t-124.5 192.5t-186 128t-229.5 46t-229.5 -46t-186.5 -128t-125 -192.5t-45 -239.5zM588 322v823h325q59 0 110.5 -20.5t88.5 -56.5t58.5 -84t21.5 -103t-21.5 -103.5t-58.5 -84.5t-88 -56.5t-111 -20.5h-170v-294h-155z M743 752h144q70 0 108.5 34.5t38.5 92.5q0 59 -39 95t-108 36h-144v-258z" />
<glyph unicode="&#x25a0;" horiz-adv-x="1886" d="M225 0v1452h1436v-1452h-1436z" />
<glyph unicode="&#x25a1;" horiz-adv-x="1886" d="M225 0v1452h1436v-1452h-1436zM393 154h1100v1142h-1100v-1142z" />
<glyph unicode="&#x25af;" horiz-adv-x="1150" d="M164 0v1452h823v-1452h-823zM326 162h499v1128h-499v-1128z" />
<glyph unicode="&#x25b2;" horiz-adv-x="1714" d="M0 0l860 1483l854 -1483h-1714z" />
<glyph unicode="&#x25b3;" horiz-adv-x="1714" d="M0 0l860 1483l854 -1483h-1714zM287 154h1138l-567 995z" />
<glyph unicode="&#x25ca;" horiz-adv-x="1138" d="M72 725l413 727h168l414 -727l-414 -725h-168zM281 725l288 -496l287 496l-287 498z" />
<glyph unicode="&#x25cb;" horiz-adv-x="1701" d="M92 725q0 158 59.5 296t162 241.5t240.5 163t296 59.5t296 -59.5t241.5 -163t163 -241.5t59.5 -296t-59.5 -296t-163 -240.5t-241.5 -162t-296 -59.5t-296 59.5t-240.5 162t-162 240.5t-59.5 296zM264 725q0 -125 45 -233.5t125 -189.5t186.5 -127t229.5 -46t229.5 46 t186.5 127t125 189.5t45 233.5t-45 233.5t-125 189.5t-186.5 127t-229.5 46t-229.5 -46t-186.5 -127t-125 -189.5t-45 -233.5z" />
<glyph unicode="&#x25cf;" horiz-adv-x="1701" d="M92 725q0 158 59.5 296t162 241.5t240.5 163t296 59.5t296 -59.5t241.5 -163t163 -241.5t59.5 -296t-59.5 -296t-163 -240.5t-241.5 -162t-296 -59.5t-296 59.5t-240.5 162t-162 240.5t-59.5 296z" />
<glyph unicode="&#x25fc;" horiz-adv-x="983" d="M0 0v983h983v-983h-983z" />
<glyph unicode="&#x262e;" horiz-adv-x="1681" d="M92 727q0 156 58.5 293t160 240.5t236.5 163t291 59.5t293 -59.5t238 -163t160.5 -240.5t59.5 -293t-59.5 -294t-160.5 -240.5t-238.5 -163t-292.5 -60.5q-156 0 -291 60.5t-236.5 163t-160 240.5t-58.5 294zM252 727q0 -86 20.5 -165t59.5 -146l420 420v491 q-109 -16 -200 -67.5t-157.5 -130t-104.5 -182t-38 -220.5zM434 281q63 -63 144 -103.5t174 -52.5v473zM920 125q92 12 171.5 52t145.5 102l-317 319v-473zM920 836l421 -424q39 70 60.5 148.5t21.5 166.5q0 117 -38.5 220.5t-106.5 182t-160 130t-198 67.5v-491z" />
<glyph unicode="&#x2713;" horiz-adv-x="1986" d="M51 610l123 117l463 -506l1175 1272l123 -121l-1306 -1407z" />
<glyph unicode="&#x2715;" horiz-adv-x="1548" d="M51 111l602 616l-600 614l123 121l598 -612l598 612l123 -121l-602 -614l604 -616l-121 -121l-602 614l-602 -614z" />
<glyph unicode="&#x2780;" horiz-adv-x="1681" d="M92 727q0 156 58.5 293t160 240.5t236.5 163t291 59.5t293 -59.5t238 -163t160.5 -240.5t59.5 -293t-59.5 -294t-160.5 -240.5t-238.5 -163t-292.5 -60.5q-156 0 -291 60.5t-236.5 163t-160 240.5t-58.5 294zM252 727q0 -129 45 -240.5t125 -192.5t186.5 -128t229.5 -47 t229.5 47t186 128t124.5 192.5t45 240.5t-45 239.5t-124.5 192.5t-186 128t-229.5 46t-229.5 -46t-186.5 -128t-125 -192.5t-45 -239.5zM612 856v107q76 2 127.5 41.5t61.5 97.5h145v-748h-158v502h-176z" />
<glyph unicode="&#x2781;" horiz-adv-x="1681" d="M92 727q0 156 58.5 293t160 240.5t236.5 163t291 59.5t293 -59.5t238 -163t160.5 -240.5t59.5 -293t-59.5 -294t-160.5 -240.5t-238.5 -163t-292.5 -60.5q-156 0 -291 60.5t-236.5 163t-160 240.5t-58.5 294zM252 727q0 -129 45 -240.5t125 -192.5t186.5 -128t229.5 -47 t229.5 47t186 128t124.5 192.5t45 240.5t-45 239.5t-124.5 192.5t-186 128t-229.5 46t-229.5 -46t-186.5 -128t-125 -192.5t-45 -239.5zM553 365v26q0 92 41 167t133 130l123 76q88 53 88 129q0 41 -28.5 71.5t-82.5 30.5q-53 0 -84.5 -32.5t-31.5 -85.5q0 -6 1 -22.5 t5 -31.5h-152q-4 16 -5 33.5t-1 30.5q0 49 18.5 92t53.5 75.5t85 52t113 19.5t112.5 -19.5t84.5 -51t53.5 -74.5t18.5 -90q0 -72 -39 -128t-105 -97l-147 -93q-23 -16 -41 -34.5t-23 -40.5h359v-133h-549z" />
<glyph unicode="&#x2782;" horiz-adv-x="1681" d="M92 727q0 156 58.5 293t160 240.5t236.5 163t291 59.5t293 -59.5t238 -163t160.5 -240.5t59.5 -293t-59.5 -294t-160.5 -240.5t-238.5 -163t-292.5 -60.5q-156 0 -291 60.5t-236.5 163t-160 240.5t-58.5 294zM252 727q0 -129 45 -240.5t125 -192.5t186.5 -128t229.5 -47 t229.5 47t186 128t124.5 192.5t45 240.5t-45 239.5t-124.5 192.5t-186 128t-229.5 46t-229.5 -46t-186.5 -128t-125 -192.5t-45 -239.5zM524 547l138 55q10 -59 54 -95t107 -36t101.5 33t38.5 80q0 63 -44.5 88.5t-95.5 25.5q-16 0 -31.5 -2t-25.5 -6l-59 115l194 162h-350 v133h555v-129l-205 -164q43 -4 83 -19.5t70.5 -43t49 -68.5t18.5 -92t-21.5 -96.5t-60.5 -79t-93 -53t-122 -19.5t-119 18.5t-88.5 47t-61.5 66.5t-32 79z" />
<glyph unicode="&#x2783;" horiz-adv-x="1681" d="M92 727q0 156 58.5 293t160 240.5t236.5 163t291 59.5t293 -59.5t238 -163t160.5 -240.5t59.5 -293t-59.5 -294t-160.5 -240.5t-238.5 -163t-292.5 -60.5q-156 0 -291 60.5t-236.5 163t-160 240.5t-58.5 294zM252 727q0 -129 45 -240.5t125 -192.5t186.5 -128t229.5 -47 t229.5 47t186 128t124.5 192.5t45 240.5t-45 239.5t-124.5 192.5t-186 128t-229.5 46t-229.5 -46t-186.5 -128t-125 -192.5t-45 -239.5zM481 512v150l363 450h174v-467h131v-133h-131v-147h-158v147h-379zM633 645h227v285z" />
<glyph unicode="&#x2784;" horiz-adv-x="1681" d="M92 727q0 156 58.5 293t160 240.5t236.5 163t291 59.5t293 -59.5t238 -163t160.5 -240.5t59.5 -293t-59.5 -294t-160.5 -240.5t-238.5 -163t-292.5 -60.5q-156 0 -291 60.5t-236.5 163t-160 240.5t-58.5 294zM252 727q0 -129 45 -240.5t125 -192.5t186.5 -128t229.5 -47 t229.5 47t186 128t124.5 192.5t45 240.5t-45 239.5t-124.5 192.5t-186 128t-229.5 46t-229.5 -46t-186.5 -128t-125 -192.5t-45 -239.5zM526 522l136 62q14 -53 54 -85t95 -32q59 0 98 32.5t39 92.5q0 63 -39 95t-98 32q-41 0 -73.5 -15.5t-57.5 -39.5l-131 49l100 383h418 v-135h-315l-47 -177q29 31 68.5 44.5t80.5 13.5q115 0 184.5 -65.5t69.5 -178.5q0 -55 -19.5 -103.5t-57.5 -84t-93 -56t-127 -20.5q-55 0 -103.5 16.5t-85 42t-61 59t-35.5 70.5z" />
<glyph unicode="&#x2785;" horiz-adv-x="1681" d="M92 727q0 156 58.5 293t160 240.5t236.5 163t291 59.5t293 -59.5t238 -163t160.5 -240.5t59.5 -293t-59.5 -294t-160.5 -240.5t-238.5 -163t-292.5 -60.5q-156 0 -291 60.5t-236.5 163t-160 240.5t-58.5 294zM252 727q0 -129 45 -240.5t125 -192.5t186.5 -128t229.5 -47 t229.5 47t186 128t124.5 192.5t45 240.5t-45 239.5t-124.5 192.5t-186 128t-229.5 46t-229.5 -46t-186.5 -128t-125 -192.5t-45 -239.5zM508 682q0 100 29.5 180t83 137.5t126 88t158.5 30.5q51 0 98.5 -10t77.5 -29l-37 -116q-59 27 -126 26q-98 0 -167 -54t-85 -161 q27 39 78 63.5t108 24.5q119 0 192.5 -67.5t73.5 -190.5q0 -59 -23.5 -107t-63.5 -83t-95 -54.5t-119 -19.5q-57 0 -112.5 20.5t-99.5 62.5t-70.5 106.5t-26.5 152.5zM678 602q0 -63 44 -96t97 -33t96 33t43 96t-43 96t-96 33t-97 -33t-44 -96z" />
<glyph unicode="&#x2786;" horiz-adv-x="1681" d="M92 727q0 156 58.5 293t160 240.5t236.5 163t291 59.5t293 -59.5t238 -163t160.5 -240.5t59.5 -293t-59.5 -294t-160.5 -240.5t-238.5 -163t-292.5 -60.5q-156 0 -291 60.5t-236.5 163t-160 240.5t-58.5 294zM252 727q0 -129 45 -240.5t125 -192.5t186.5 -128t229.5 -47 t229.5 47t186 128t124.5 192.5t45 240.5t-45 239.5t-124.5 192.5t-186 128t-229.5 46t-229.5 -46t-186.5 -128t-125 -192.5t-45 -239.5zM537 956v136h608v-142q-27 -18 -74 -61t-96 -116t-90 -178.5t-56 -250.5h-167q14 154 59 267.5t94 191.5q57 90 125 153h-403z" />
<glyph unicode="&#x2787;" horiz-adv-x="1681" d="M92 727q0 156 58.5 293t160 240.5t236.5 163t291 59.5t293 -59.5t238 -163t160.5 -240.5t59.5 -293t-59.5 -294t-160.5 -240.5t-238.5 -163t-292.5 -60.5q-156 0 -291 60.5t-236.5 163t-160 240.5t-58.5 294zM252 727q0 -129 45 -240.5t125 -192.5t186.5 -128t229.5 -47 t229.5 47t186 128t124.5 192.5t45 240.5t-45 239.5t-124.5 192.5t-186 128t-229.5 46t-229.5 -46t-186.5 -128t-125 -192.5t-45 -239.5zM539 561q0 55 36.5 103.5t102.5 72.5q-55 23 -85 68t-30 96q0 96 77 155.5t196 59.5t195.5 -59.5t76.5 -155.5q0 -51 -29.5 -96 t-85.5 -68q66 -25 103 -73t37 -103q0 -94 -77 -157.5t-220 -63.5t-220 63.5t-77 157.5zM698 573q0 -47 35 -74.5t103 -27.5t102.5 27.5t34.5 74.5q0 45 -36 74t-101 29q-66 0 -102 -29t-36 -74zM719 897q0 -45 32 -71.5t85 -26.5t84.5 26.5t31.5 71.5q0 41 -30.5 66.5 t-85.5 25.5t-86 -25.5t-31 -66.5z" />
<glyph unicode="&#x2788;" horiz-adv-x="1681" d="M92 727q0 156 58.5 293t160 240.5t236.5 163t291 59.5t293 -59.5t238 -163t160.5 -240.5t59.5 -293t-59.5 -294t-160.5 -240.5t-238.5 -163t-292.5 -60.5q-156 0 -291 60.5t-236.5 163t-160 240.5t-58.5 294zM252 727q0 -129 45 -240.5t125 -192.5t186.5 -128t229.5 -47 t229.5 47t186 128t124.5 192.5t45 240.5t-45 239.5t-124.5 192.5t-186 128t-229.5 46t-229.5 -46t-186.5 -128t-125 -192.5t-45 -239.5zM539 850q0 57 23.5 106.5t63.5 84t95 54t119 19.5q57 0 111.5 -20.5t97.5 -62.5t69.5 -106.5t26.5 -152.5q0 -106 -30 -187t-82 -136.5 t-123.5 -84t-157.5 -28.5q-51 0 -98.5 10t-78.5 29l37 121q59 -27 127 -27q98 0 169 50t83 161q-27 -39 -78 -63.5t-108 -24.5q-117 0 -191.5 68.5t-74.5 189.5zM694 850q0 -63 42 -97t98 -34q55 0 98 34t43 97t-43 97t-98 34t-97.5 -34t-42.5 -97z" />
<glyph unicode="&#xe000;" horiz-adv-x="1667" d="M72 420h295v1032h1187v-170h-1017v-862h294l-378 -453z" />
<glyph unicode="&#xe001;" horiz-adv-x="2211" d="M92 727h268q0 156 60.5 294t163 240.5t240 162t292.5 59.5q102 0 195.5 -24.5t177.5 -72.5l-76 -151q-66 37 -140.5 57.5t-154.5 20.5q-123 0 -229.5 -46t-186 -125t-125 -185.5t-45.5 -229.5h293l-366 -430zM743 66l76 151q66 -37 140.5 -57.5t154.5 -20.5 q123 0 229.5 46t186.5 125t125 185.5t45 229.5h-283l367 430l366 -430h-278q0 -158 -60.5 -295t-163 -239.5t-239.5 -162t-293 -59.5q-102 0 -195.5 24.5t-177.5 72.5z" />
<glyph unicode="&#xe002;" horiz-adv-x="1943" d="M102 725q0 158 59.5 296t162 240.5t239.5 162t295 59.5q102 0 195.5 -24.5t177.5 -72.5l-76 -151q-66 37 -140.5 57.5t-154.5 20.5q-123 0 -229.5 -46t-186 -125t-125 -186.5t-45.5 -230.5t45.5 -230.5t125 -187.5t186 -126t229.5 -46t229.5 46t185.5 126t124 187.5 t45 230.5h-295l367 430l366 -430h-266q0 -158 -59.5 -295t-162 -239.5t-240.5 -162t-296 -59.5t-295 59.5t-239.5 162t-162 239.5t-59.5 295z" />
<glyph unicode="&#xfb00;" horiz-adv-x="1349" />
<glyph unicode="&#xfb01;" horiz-adv-x="1236" />
<glyph unicode="&#xfb02;" horiz-adv-x="1232" />
<glyph unicode="&#xfb03;" horiz-adv-x="1884" />
<glyph unicode="&#xfb04;" horiz-adv-x="1884" />
<glyph unicode="&#xfeff;" horiz-adv-x="0" />
<glyph horiz-adv-x="518" d="M121 1358q0 59 40 99t97 40q59 0 99 -40t40 -99q0 -57 -40 -97t-99 -40q-57 0 -97 40t-40 97zM164 0v985h190v-985h-190z" />
<glyph horiz-adv-x="1122" d="M184 0v1452h201v-1264h686v-188h-887z" />
<glyph horiz-adv-x="761" d="M164 0v1483h192v-1483h-192zM477 641q0 53 37 90t90 37t90 -37t37 -90t-37 -90t-90 -37t-90 37t-37 90z" />
<glyph horiz-adv-x="872" d="M123 952q0 74 15.5 144.5t56.5 126.5q35 47 91 82.5t150 35.5t150.5 -35.5t91.5 -82.5q41 -55 56.5 -126t15.5 -145t-15.5 -143.5t-56.5 -124.5q-35 -47 -91.5 -83t-150.5 -36t-150.5 36t-90.5 83q-41 55 -56.5 124.5t-15.5 143.5zM283 952q0 -41 5 -86t21.5 -81.5 t46 -60.5t80.5 -24t81 24t46.5 60.5t21.5 81.5t5 86t-5 86t-21.5 82t-46.5 61.5t-81 24.5t-80.5 -23.5t-46 -60.5t-21.5 -82t-5 -88z" />
<glyph horiz-adv-x="620" d="M102 1081v107q76 2 127.5 42t61.5 97h145v-747h-157v501h-177z" />
<glyph horiz-adv-x="796" d="M125 580v26q0 92 41 167t133 130l123 76q88 53 88 129q0 41 -28.5 71.5t-82.5 30.5q-53 0 -84.5 -32.5t-31.5 -85.5q0 -6 1 -22.5t5 -31.5h-152q-4 16 -5 34t-1 30q0 49 18.5 92t53.5 76t85 52t113 19t112.5 -19t84.5 -51t53.5 -75t18.5 -90q0 -72 -39 -128t-105 -97 l-147 -93q-23 -16 -41.5 -34.5t-22.5 -40.5h359v-133h-549z" />
<glyph horiz-adv-x="843" d="M123 774l137 55q10 -59 54 -95t108 -36q63 0 101 33t38 80q0 63 -44 89t-95 26q-16 0 -31.5 -2t-25.5 -6l-60 114l195 162h-350v133h555v-129l-205 -164q43 -4 83 -19.5t70.5 -43t49 -68.5t18.5 -92t-21.5 -96t-60.5 -79t-93 -53.5t-122 -19.5t-119 18.5t-89 47 t-61.5 66.5t-31.5 79z" />
<glyph horiz-adv-x="913" d="M123 727v150l362 450h174v-467h132v-133h-132v-147h-157v147h-379zM274 860h228v285z" />
<glyph horiz-adv-x="776" d="M123 754l135 61q14 -53 54 -85t96 -32q59 0 98 33t39 92q0 63 -39 95t-98 32q-41 0 -74 -15t-58 -40l-131 49l101 383h418v-135h-316l-47 -176q29 31 69 44t81 13q115 0 184.5 -65.5t69.5 -178.5q0 -55 -19.5 -103t-57.5 -84t-93.5 -56.5t-126.5 -20.5q-55 0 -103.5 16.5 t-85.5 42t-61.5 59.5t-34.5 71z" />
<glyph horiz-adv-x="856" d="M123 907q0 100 29.5 180t83 137.5t126 88t158.5 30.5q51 0 98.5 -10t77.5 -28l-37 -117q-59 27 -127 26q-98 0 -166.5 -54t-84.5 -161q27 39 78 63.5t108 24.5q119 0 192.5 -67.5t73.5 -190.5q0 -59 -23.5 -107t-63.5 -83t-95 -54.5t-119 -19.5q-57 0 -112.5 20.5 t-99.5 62.5t-70.5 106.5t-26.5 152.5zM293 827q0 -63 44 -96t97 -33t96 33t43 96t-43 96t-96 33t-97 -33t-44 -96z" />
<glyph horiz-adv-x="854" d="M123 1192v135h608v-141q-27 -18 -74 -61.5t-96 -116t-90 -178t-55 -250.5h-168q14 154 59 267.5t94 190.5q57 90 125 154h-403z" />
<glyph horiz-adv-x="839" d="M123 786q0 55 37 103.5t102 73.5q-55 23 -85 67.5t-30 95.5q0 96 77 155.5t196 59.5t195.5 -59t76.5 -156q0 -51 -29.5 -96t-84.5 -67q66 -25 102.5 -73t36.5 -104q0 -94 -77 -157.5t-220 -63.5t-220 63.5t-77 157.5zM283 799q0 -47 34.5 -75t102.5 -28t102.5 28t34.5 75 q0 45 -36 73.5t-101 28.5q-66 0 -101.5 -28.5t-35.5 -73.5zM303 1122q0 -45 32 -71.5t85 -26.5t85 26.5t32 71.5q0 41 -31 66.5t-86 25.5t-86 -25.5t-31 -66.5z" />
<glyph horiz-adv-x="851" d="M123 1075q0 57 23.5 106.5t63.5 84t95 54t119 19.5q57 0 111.5 -20.5t97.5 -62.5t69.5 -106.5t26.5 -152.5q0 -106 -29.5 -187t-82 -136.5t-124 -84t-157.5 -28.5q-51 0 -98.5 10.5t-77.5 28.5l37 121q59 -27 127 -27q98 0 168.5 50.5t82.5 160.5q-27 -39 -78 -63.5 t-108 -24.5q-117 0 -191.5 68.5t-74.5 189.5zM279 1075q0 -63 41.5 -97t97.5 -34q55 0 98 34t43 97t-43 97t-98 34t-97 -33.5t-42 -97.5z" />
<glyph horiz-adv-x="872" d="M123 374q0 74 15.5 144.5t56.5 126.5q35 47 91 82.5t150 35.5t150.5 -35.5t91.5 -82.5q41 -55 56.5 -126t15.5 -145t-15.5 -143.5t-56.5 -124.5q-35 -47 -91.5 -83t-150.5 -36t-150.5 36t-90.5 83q-41 55 -56.5 124.5t-15.5 143.5zM283 374q0 -41 5 -86t21.5 -81.5 t46 -60.5t80.5 -24t81 24t46.5 60.5t21.5 81.5t5 86t-5 86t-21.5 82t-46.5 61.5t-81 24.5t-80.5 -23.5t-46 -60.5t-21.5 -82t-5 -88z" />
<glyph horiz-adv-x="620" d="M102 503v107q76 2 127.5 42t61.5 97h145v-747h-157v501h-177z" />
<glyph horiz-adv-x="796" d="M125 2v26q0 92 41 167t133 130l123 76q88 53 88 129q0 41 -28.5 71.5t-82.5 30.5q-53 0 -84.5 -32.5t-31.5 -85.5q0 -6 1 -22.5t5 -31.5h-152q-4 16 -5 34t-1 30q0 49 18.5 92t53.5 76t85 52t113 19t112.5 -19t84.5 -51t53.5 -75t18.5 -90q0 -72 -39 -128t-105 -97 l-147 -93q-23 -16 -41.5 -34.5t-22.5 -40.5h359v-133h-549z" />
<glyph horiz-adv-x="843" d="M123 199l137 55q10 -59 54 -95t108 -36q63 0 101 33t38 80q0 63 -44 89t-95 26q-16 0 -31.5 -2t-25.5 -6l-60 114l195 162h-350v133h555v-129l-205 -164q43 -4 83 -19.5t70.5 -43t49 -68.5t18.5 -92t-21.5 -96t-60.5 -79t-93 -53.5t-122 -19.5t-119 18.5t-89 47 t-61.5 66.5t-31.5 79z" />
<glyph horiz-adv-x="913" d="M123 149v150l362 450h174v-467h132v-133h-132v-147h-157v147h-379zM274 282h228v285z" />
<glyph horiz-adv-x="827" d="M123 176l135 61q14 -53 54 -85t96 -32q59 0 98 33t39 92q0 63 -39 95t-98 32q-41 0 -74 -15t-58 -40l-131 49l101 383h418v-135h-316l-47 -176q29 31 69 44t81 13q115 0 184.5 -65.5t69.5 -178.5q0 -55 -19.5 -103t-57.5 -84t-93.5 -56.5t-126.5 -20.5q-55 0 -103.5 16.5 t-85.5 42t-61.5 59.5t-34.5 71z" />
<glyph horiz-adv-x="856" d="M123 329q0 100 29.5 180t83 137.5t126 88t158.5 30.5q51 0 98.5 -10t77.5 -28l-37 -117q-59 27 -127 26q-98 0 -166.5 -54t-84.5 -161q27 39 78 63.5t108 24.5q119 0 192.5 -67.5t73.5 -190.5q0 -59 -23.5 -107t-63.5 -83t-95 -54.5t-119 -19.5q-57 0 -112.5 20.5 t-99.5 62.5t-70.5 106.5t-26.5 152.5zM293 249q0 -63 44 -96t97 -33t96 33t43 96t-43 96t-96 33t-97 -33t-44 -96z" />
<glyph horiz-adv-x="854" d="M123 614v135h608v-141q-27 -18 -74 -61.5t-96 -116t-90 -178t-55 -250.5h-168q14 154 59 267.5t94 190.5q57 90 125 154h-403z" />
<glyph horiz-adv-x="839" d="M123 208q0 55 37 103.5t102 73.5q-55 23 -85 67.5t-30 95.5q0 96 77 155.5t196 59.5t195.5 -59t76.5 -156q0 -51 -29.5 -96t-84.5 -67q66 -25 102.5 -73t36.5 -104q0 -94 -77 -157.5t-220 -63.5t-220 63.5t-77 157.5zM283 221q0 -47 34.5 -75t102.5 -28t102.5 28t34.5 75 q0 45 -36 73.5t-101 28.5q-66 0 -101.5 -28.5t-35.5 -73.5zM303 544q0 -45 32 -71.5t85 -26.5t85 26.5t32 71.5q0 41 -31 66.5t-86 25.5t-86 -25.5t-31 -66.5z" />
<glyph horiz-adv-x="851" d="M123 502q0 57 23.5 106.5t63.5 84t95 54t119 19.5q57 0 111.5 -20.5t97.5 -62.5t69.5 -106.5t26.5 -152.5q0 -106 -29.5 -187t-82 -136.5t-124 -84t-157.5 -28.5q-51 0 -98.5 10.5t-77.5 28.5l37 121q59 -27 127 -27q98 0 168.5 50.5t82.5 160.5q-27 -39 -78 -63.5 t-108 -24.5q-117 0 -191.5 68.5t-74.5 189.5zM279 502q0 -63 41.5 -97t97.5 -34q55 0 98 34t43 97t-43 97t-98 34t-97 -33.5t-42 -97.5z" />
<glyph horiz-adv-x="102" />
<glyph horiz-adv-x="876" d="M135 821q0 92 61.5 145.5t149.5 65.5l180 25q31 4 42.5 18.5t11.5 32.5q0 47 -33 81t-107 34q-68 0 -105.5 -38t-43.5 -95l-141 32q4 47 26.5 88t60 72t89 49.5t112.5 18.5q80 0 135.5 -21.5t91 -56.5t51 -82t15.5 -98v-347q0 -35 3 -70.5t5 -41.5h-145q-4 12 -6 34.5 t-2 55.5q-23 -39 -76 -75t-139 -36q-55 0 -98.5 17.5t-74 46.5t-47 66.5t-16.5 78.5zM289 829q0 -37 27.5 -65.5t78.5 -28.5q37 0 71 9.5t59.5 32t40 59t14.5 90.5v30l-195 -30q-41 -6 -68.5 -29t-27.5 -68z" />
<glyph horiz-adv-x="1011" d="M180 633v1038h152v-434q23 43 81 77t142 34q78 0 138.5 -29t100.5 -78t60 -115.5t20 -142.5q0 -78 -22.5 -145.5t-63 -116.5t-102 -78t-137.5 -29t-131.5 31t-87.5 84v-96h-150zM330 983q0 -109 55 -170t141 -61t139.5 61t53.5 170t-53.5 168t-139.5 59t-141 -59 t-55 -168z" />
<glyph horiz-adv-x="946" d="M137 981q0 80 26.5 147.5t74 116.5t112 77t139.5 28q70 0 124.5 -20.5t93 -52.5t63.5 -73t35 -82l-137 -53q-6 25 -19.5 49.5t-35 45t-52.5 32.5t-72 12q-39 0 -74.5 -15t-63 -44t-44 -71t-16.5 -97q0 -111 60.5 -169t140.5 -58q43 0 74.5 13t53 32.5t35 43t19.5 44.5 l137 -53q-12 -39 -39 -79t-65.5 -72t-93 -51.5t-121.5 -19.5q-76 0 -140.5 28t-113 77t-75 116.5t-26.5 147.5z" />
<glyph horiz-adv-x="1013" d="M137 983q0 74 23.5 139.5t67.5 115.5t104.5 79t134.5 29q92 0 141 -34t66 -73v432h151v-911q0 -41 2 -79t4 -48h-147q-2 12 -5 37.5t-3 56.5q-23 -43 -76 -78t-131 -35q-76 0 -137.5 29t-104.5 78t-66.5 116.5t-23.5 145.5zM293 983q0 -104 51 -168.5t141 -64.5 q86 0 138.5 65.5t52.5 167.5q0 104 -52.5 164.5t-138.5 60.5t-139 -61.5t-53 -163.5z" />
<glyph horiz-adv-x="944" d="M135 983q0 82 29 150.5t75 115.5t106.5 74t125.5 27q160 0 249 -99.5t89 -263.5q0 -20 -2 -33.5t-2 -15.5h-514q2 -84 59.5 -138.5t136.5 -54.5q80 0 122 37t61 92l131 -43q-29 -92 -109 -155.5t-205 -63.5q-70 0 -133 25t-112 73t-78 116.5t-29 156.5zM295 1055h356 q-2 66 -47 115t-131 49q-41 0 -72.5 -14.5t-54 -38t-36 -52.5t-15.5 -59z" />
<glyph horiz-adv-x="716" d="M135 1192v137h125v103q0 119 66.5 182t171.5 63q33 0 55 -5t29 -9v-133q-10 4 -22.5 6t-37.5 2q-16 0 -35.5 -5t-35 -17.5t-25.5 -34t-10 -56.5v-96h164v-137h-164v-561h-156v561h-125z" />
<glyph horiz-adv-x="952" d="M137 596l146 35q8 -68 56 -113t124 -45q203 0 203 215v82q-23 -43 -76 -73.5t-131 -30.5q-70 0 -128.5 25.5t-101.5 69.5t-66.5 106.5t-23.5 136.5q0 70 23.5 131t65.5 107t100.5 72.5t130.5 26.5q82 0 134 -28.5t75 -75.5v90h149v-635q0 -68 -18.5 -131t-60.5 -112.5 t-108.5 -79t-164.5 -29.5q-68 0 -125 19.5t-100 54.5t-70 82t-33 100zM295 1004q0 -98 51 -153.5t137 -55.5q84 0 135.5 56t51.5 153q0 92 -52.5 148t-134.5 56q-84 0 -136 -56t-52 -148z" />
<glyph horiz-adv-x="968" d="M180 633v1038h154v-416q37 49 91 71t112 22q63 0 110 -21.5t79 -58.5t47 -87.5t15 -107.5v-440h-153v414q0 68 -33 114.5t-119 46.5q-72 0 -109.5 -48t-39.5 -120v-407h-154z" />
<glyph horiz-adv-x="569" d="M182 1579q0 43 30 73.5t73 30.5t72.5 -30.5t29.5 -73.5t-29.5 -72.5t-72.5 -29.5t-73 29.5t-30 72.5zM209 633v694h151v-694h-151z" />
<glyph horiz-adv-x="608" d="M143 350v127q10 -2 20.5 -3t26.5 -1q51 0 71 25.5t20 70.5v758h153v-768q0 -98 -53 -158.5t-148 -60.5q-39 0 -62.5 4t-27.5 6zM254 1581q0 43 29.5 74t72.5 31t73 -31t30 -74t-30 -72.5t-73 -29.5t-72.5 29.5t-29.5 72.5z" />
<glyph horiz-adv-x="880" d="M180 633v1038h152v-635l280 291h207l-289 -293l295 -401h-190l-213 293l-90 -92v-201h-152z" />
<glyph horiz-adv-x="514" d="M180 633v1038h154v-1038h-154z" />
<glyph horiz-adv-x="1394" d="M180 633v694h146v-90q33 55 91 83t118 28q68 0 124 -31t82 -94q43 72 102.5 98.5t127.5 26.5q45 0 89 -15.5t79 -48.5t55 -83t20 -118v-450h-149v428q0 66 -34 107.5t-105 41.5q-68 0 -110 -46t-42 -115v-416h-151v428q0 66 -33 107.5t-107 41.5q-70 0 -110.5 -46 t-40.5 -117v-414h-152z" />
<glyph horiz-adv-x="968" d="M180 633v694h150v-94q35 59 92 87t117 28q63 0 110 -21.5t78 -58.5t46 -87.5t15 -107.5v-440h-153v414q0 68 -33 114.5t-119 46.5q-72 0 -110.5 -51t-38.5 -123v-401h-154z" />
<glyph horiz-adv-x="991" d="M137 981q0 80 26.5 147.5t74 116.5t114 77t144.5 28t143.5 -28t113.5 -77t74.5 -116.5t26.5 -147.5t-26.5 -147.5t-74.5 -116.5t-114 -77t-143 -28q-78 0 -144.5 28t-114 77t-74 116.5t-26.5 147.5zM291 981q0 -115 61.5 -173t143.5 -58q80 0 141 58t61 173t-61.5 172 t-140.5 57q-82 0 -143.5 -57t-61.5 -172z" />
<glyph horiz-adv-x="1011" d="M180 360v967h150v-100q25 47 83 81.5t142 34.5q76 0 136.5 -27.5t100 -76.5t61 -115.5t21.5 -142.5q0 -78 -22.5 -144.5t-64.5 -115.5t-102 -78t-136 -29q-78 0 -133.5 31t-83.5 72v-357h-152zM330 981q0 -102 55 -165.5t141 -63.5t140.5 62.5t54.5 166.5 q0 100 -53.5 163.5t-141.5 63.5q-86 0 -141 -63.5t-55 -163.5z" />
<glyph horiz-adv-x="976" d="M137 983q0 74 22.5 139.5t65.5 115.5t103.5 79t136.5 29q92 0 144.5 -38t72.5 -79v98h147v-967h-151v361q-27 -47 -81 -77t-128 -30t-135.5 29t-105.5 79t-67.5 116.5t-23.5 144.5zM293 983q0 -104 53 -168.5t139 -64.5t140.5 64.5t54.5 168.5q0 102 -54.5 163.5 t-140.5 61.5t-139 -61.5t-53 -163.5z" />
<glyph horiz-adv-x="589" d="M147 633v694h150v-115q35 76 93.5 100.5t107.5 24.5q12 0 24.5 -1t22.5 -3v-159q-31 6 -60 6q-80 0 -132 -47.5t-52 -161.5v-338h-154z" />
<glyph horiz-adv-x="821" d="M137 819l137 41q4 -51 42 -88t106 -37q53 0 81.5 25.5t28.5 60.5q0 63 -83 82l-111 25q-86 18 -133 72.5t-47 125.5q0 45 19.5 86t53 72t79.5 48.5t100 17.5q72 0 121 -20.5t79.5 -50.5t46 -63.5t19.5 -58.5l-131 -41q-2 14 -10.5 32.5t-23.5 36t-40 29t-61 11.5 q-47 0 -77 -25.5t-30 -58.5q0 -31 19.5 -50.5t54.5 -27.5l108 -23q98 -23 147.5 -77t49.5 -132q0 -39 -16.5 -77.5t-48 -70.5t-81 -51.5t-114.5 -19.5q-74 0 -126 21.5t-86 52.5t-51.5 66.5t-21.5 66.5z" />
<glyph horiz-adv-x="663" d="M113 1190v137h37q55 0 80.5 31t25.5 78v106h139v-215h148v-137h-148v-338q0 -47 21.5 -68.5t70.5 -21.5q27 0 56 6v-129q-8 -4 -36 -9t-63 -5q-92 0 -147 53t-55 149v363h-129z" />
<glyph horiz-adv-x="901" d="M137 889v438h154v-412q0 -68 34.5 -116.5t112.5 -48.5q76 0 115 46t39 117v414h153v-567q0 -43 3.5 -81t5.5 -46h-148q-4 12 -5 37t-1 45q-29 -53 -85 -78t-116 -25q-61 0 -110 21.5t-83 59.5t-51.5 88t-17.5 108z" />
<glyph horiz-adv-x="827" d="M55 1327h170l191 -512l186 512h164l-274 -694h-154z" />
<glyph horiz-adv-x="1234" d="M55 1327h164l148 -496l172 496h157l172 -496l144 496h157l-223 -694h-155l-177 510l-174 -510h-159z" />
<glyph horiz-adv-x="845" d="M76 633l254 352l-250 342h184l160 -231l158 231h178l-246 -340q18 -27 53 -75t73 -102t74 -102.5t54 -74.5h-182l-168 241q-4 -6 -28.5 -41.5t-53.5 -78.5t-54.5 -80t-29.5 -41h-176z" />
<glyph horiz-adv-x="856" d="M55 1327h176l205 -455l197 455h162l-445 -979h-166l170 365z" />
<glyph horiz-adv-x="837" d="M137 633v135l365 424h-357v135h549v-131l-366 -428h372v-135h-563z" />
<glyph />
<glyph d="M16 346v166h217l66 307h-182v166h217l74 342h180l-74 -342h238l73 342h181l-74 -342h198v-166h-233l-66 -307h199v-166h-235l-74 -346h-180l73 346h-237l-74 -346h-180l74 346h-181zM414 512h237l66 307h-238z" />
<glyph d="M83 386l189 59q4 -48 21 -93.5t46.5 -83.5t73 -64.5t104.5 -36.5v416l-50 9q-153 32 -241.5 123.5t-88.5 238.5q0 72 28 135t78 114t120 84.5t154 43.5v209h155v-211q91 -11 156.5 -45t109 -79.5t68.5 -98.5t37 -101l-179 -66q-4 29 -18 60.5t-38 61.5t-57.5 54.5 t-78.5 36.5v-407l29 -6q167 -34 260.5 -134t93.5 -236q0 -66 -25 -129t-73 -115t-119 -86.5t-166 -46.5v-207h-155v207q-103 10 -180.5 48.5t-131.5 93.5t-83.5 120.5t-38.5 131.5zM333 962q0 -64 41 -112.5t143 -69.5v379q-88 -16 -136 -70t-48 -127zM672 167 q97 18 142.5 70.5t45.5 121.5q0 64 -45.5 116.5t-142.5 75.5v-384z" />
<glyph d="M37 1065q0 57 22.5 106.5t60.5 86t89 58t106 21.5t106.5 -21.5t90.5 -58t61.5 -86t22.5 -106.5q0 -59 -22.5 -109.5t-61.5 -87.5t-90 -58.5t-107 -21.5q-55 0 -106 21.5t-89 58.5t-60.5 87.5t-22.5 109.5zM90 248v184l987 674v-188zM193 1065q0 -55 35.5 -91t86.5 -36 q53 0 89 36t36 91q0 53 -35.5 88t-89.5 35q-51 0 -86.5 -35t-35.5 -88zM551 260q0 57 22.5 106.5t60.5 86t89 58t106 21.5t106.5 -21.5t90.5 -58t61.5 -86t22.5 -106.5q0 -59 -22.5 -109.5t-61.5 -87t-90 -58t-107 -21.5q-55 0 -106 21.5t-89 58t-60.5 87t-22.5 109.5z M707 260q0 -55 35.5 -91t86.5 -36q53 0 89 36t36 91q0 53 -35.5 88t-89.5 35q-51 0 -86.5 -35t-35.5 -88z" />
<glyph d="M109 508v162h383v399h168v-399h385v-162h-385v-404h-168v404h-383z" />
<glyph d="M426 151q0 63 48.5 110t124.5 47t133.5 -55t57.5 -168q0 -117 -34.5 -201t-86.5 -138t-113 -83.5t-115 -37.5v123q43 9 79 34t61 60.5t40.5 76.5t15.5 83q-5 -4 -19 -7.5t-33 -3.5q-65 0 -112 42t-47 118z" />
<glyph d="M447 151q0 68 47.5 116t116.5 48q68 0 116 -48t48 -116t-48 -115.5t-116 -47.5t-116 47.5t-48 115.5z" />
<glyph d="M70 664q0 137 21.5 263t84.5 224q63 96 164.5 151.5t232.5 55.5t232.5 -55.5t165.5 -151.5q63 -98 84.5 -224t21.5 -263t-21.5 -263.5t-84.5 -224.5q-63 -96 -164.5 -151.5t-233.5 -55.5q-131 0 -232 55.5t-165 151.5q-63 98 -84.5 224.5t-21.5 263.5zM268 664 q0 -78 8.5 -168t39 -167t91 -129.5t166.5 -52.5t167 52.5t91.5 129.5t39 167t8.5 168q0 76 -8.5 167t-39 167.5t-91 129t-167.5 52.5q-106 0 -166.5 -52.5t-91 -129t-39 -167.5t-8.5 -167z" />
<glyph d="M215 0v180h334v756h-322v141q139 4 229.5 73t112.5 177h176v-1147h320v-180h-850z" />
<glyph d="M109 0q2 82 19.5 153.5t55 137t97 124t143.5 113.5l221 144q94 59 138.5 128.5t44.5 147.5q0 45 -15.5 87t-46.5 75t-78 52.5t-110 19.5q-66 0 -114 -21.5t-80 -58.5t-47 -86t-15 -107q0 -14 1 -28.5t3 -30.5l-201 24q-2 14 -2 27.5v26.5q0 86 30.5 163.5t89 137 t144.5 94.5t195 35q106 0 190 -33t141.5 -88t87 -130t29.5 -157q0 -131 -67.5 -234.5t-182.5 -174.5l-262 -168q-57 -37 -102 -81t-60 -106h682v-186h-929z" />
<glyph d="M64 385l196 45q2 -66 27 -119t64.5 -90t92 -57.5t111.5 -20.5q68 0 121 19.5t88 53.5t53.5 79t18.5 94q0 66 -23.5 113t-62.5 76.5t-87 44t-97 14.5q-59 0 -117 -21l-99 166l392 361h-635v184h901v-180l-379 -350q74 0 146.5 -24.5t131 -75t95.5 -126t37 -178.5 q0 -84 -32 -160.5t-93.5 -136t-150.5 -94.5t-206 -35q-115 0 -205 35t-152 93.5t-97 133t-39 156.5z" />
<glyph d="M76 299v231l569 797h277v-842h206v-186h-206v-299h-195v299h-651zM260 485h467v650z" />
<glyph d="M82 360l192 58q10 -123 92 -199t207 -76q59 0 111.5 18.5t90.5 54.5t60.5 85t22.5 111q0 68 -23.5 120t-62.5 85.5t-91.5 51t-109.5 17.5q-72 0 -135.5 -25.5t-106.5 -70.5q-53 20 -99 39.5t-97 38.5l172 659h700v-184h-567l-98 -381q45 49 118.5 73.5t151.5 24.5 q98 0 180 -30.5t142.5 -87t94.5 -138.5t34 -184q0 -94 -35 -176t-98.5 -143.5t-153.5 -97.5t-201 -36q-106 0 -193 32t-151.5 86t-102.5 126t-44 149z" />
<glyph d="M78 584q0 184 52 328.5t144.5 243.5t217 150.5t270.5 51.5q92 0 165.5 -20.5t121.5 -53.5l-62 -164q-37 23 -99.5 40.5t-137.5 17.5q-104 0 -187.5 -36t-144 -98.5t-95 -149.5t-40.5 -189q41 66 129 117.5t221 51.5q98 0 182 -30.5t144.5 -89t95.5 -142.5t35 -190 q0 -104 -41 -188t-109 -142.5t-157 -90.5t-187 -32q-96 0 -188.5 35t-166 108.5t-118.5 190.5t-45 281zM311 422q0 -66 24.5 -117t64.5 -87t91.5 -55.5t106.5 -19.5q57 0 110.5 18.5t92.5 54.5t62.5 88t23.5 118q0 68 -23.5 120t-63.5 88t-92.5 54t-109.5 18t-109.5 -18 t-91.5 -54t-62.5 -88t-23.5 -120z" />
<glyph d="M68 1143v184h1009v-192q-47 -37 -134 -120t-179 -221.5t-168 -334t-100 -459.5h-207q10 143 40.5 269t71.5 233.5t91.5 196.5t101.5 161q119 166 262 283h-788z" />
<glyph d="M92 350q0 123 73 208t179 120q-45 16 -85 47t-68.5 71t-46 89t-17.5 104q0 82 34 149.5t94 117t141 76t177 26.5q94 0 176 -26.5t142.5 -76t94.5 -117t34 -149.5q0 -109 -62.5 -192.5t-154.5 -118.5q106 -35 179 -120t73 -208q0 -80 -33 -149.5t-94.5 -120.5t-150.5 -81 t-204 -30t-203.5 30t-150 81t-94.5 120.5t-33 149.5zM295 367q0 -94 71.5 -159t206.5 -65t207 64.5t72 159.5q0 96 -72.5 161.5t-206.5 65.5q-133 0 -205.5 -65.5t-72.5 -161.5zM328 979q0 -98 69.5 -156.5t175.5 -60.5q106 2 176 60.5t70 156.5q0 90 -66.5 151.5 t-179.5 61.5t-179 -61.5t-66 -151.5z" />
<glyph d="M55 899q0 102 40 187t107.5 145.5t155.5 93.5t187 33q98 0 190 -36t165 -110.5t117 -189.5t44 -274q0 -182 -41 -327t-124 -245t-207 -153.5t-292 -53.5q-39 0 -82 6.5t-85 16.5t-78.5 24.5t-61.5 30.5l66 166q43 -27 109.5 -45t131.5 -18q121 0 207 36.5t141.5 100 t82 148.5t30.5 183q-35 -66 -122 -116.5t-222 -50.5q-86 0 -169 28.5t-147.5 86t-103.5 140t-39 193.5zM258 903q0 -68 23.5 -120t63.5 -88t91 -54t109 -18q55 0 106 19.5t91 55t64.5 87.5t24.5 118q0 63 -24.5 115.5t-64.5 88.5t-91 55.5t-106 19.5t-107.5 -19.5 t-92.5 -55.5t-63.5 -87t-23.5 -117z" />
<glyph d="M442 136q0 65 45 111t111 46q65 0 111.5 -46t46.5 -111t-46.5 -110t-111.5 -45q-64 0 -110 45t-46 110zM442 914q0 65 45 111t111 46q65 0 111.5 -46t46.5 -111t-46.5 -110t-111.5 -45q-64 0 -110 45t-46 110z" />
<glyph d="M431 143q0 58 44.5 101.5t114.5 43.5t123 -51t53 -155q0 -108 -32 -185t-79.5 -127t-104 -77t-106.5 -35v114q40 8 73 31t56 56t37.5 70.5t14.5 76.5q-5 -4 -18 -7t-30 -3q-61 0 -103.5 38.5t-42.5 108.5zM444 914q0 65 45 111t111 46q65 0 111.5 -46t46.5 -111 t-46.5 -110t-111.5 -45q-64 0 -110 45t-46 110z" />
<glyph d="M152 500v174l843 422v-195l-634 -313l634 -314v-194z" />
<glyph d="M102 309v162h948v-162h-948zM102 709v157h948v-157h-948z" />
<glyph d="M152 80v194l639 314l-639 313v195l843 -422v-174z" />
<glyph d="M129 672q0 94 28.5 174t80 142.5t123 103.5t155.5 57v180h156v-176q78 -8 138 -35.5t103 -67.5t71 -88.5t42 -95.5l-166 -67q-8 27 -22.5 56.5t-37 55t-54 45t-74.5 29.5v-629q47 8 80.5 30t58.5 47.5t39 53t20 52.5l164 -68q-16 -45 -46 -92t-75 -87t-105 -67.5 t-136 -36.5v-188h-156v193q-86 14 -157.5 57t-122 106.5t-79 143.5t-28.5 172zM319 672q0 -123 55.5 -201t141.5 -106v612q-84 -29 -140.5 -105.5t-56.5 -199.5z" />
<glyph d="M111 0v195q104 43 164.5 121.5t60.5 164.5q0 45 -8 78h-205v176h143q-23 51 -42 110.5t-19 131.5q0 82 29.5 151.5t84 120.5t127 80t158.5 29q119 0 197 -34t126 -87t68.5 -117.5t24.5 -126.5l-201 -35q-2 115 -59.5 169.5t-151.5 54.5q-82 0 -142 -52.5t-60 -152.5 q0 -61 19 -120.5t48 -121.5h377v-176h-324q2 -14 3 -27.5t1 -27.5q0 -109 -51 -194t-143 -132h350q51 0 89 18.5t61.5 48t35 68.5t11.5 82l192 -28q0 -80 -23.5 -147.5t-66.5 -116t-106.5 -76t-143.5 -27.5h-624z" />
<glyph d="M70 92l150 156q-35 53 -53.5 113t-18.5 128q0 70 20.5 132.5t55.5 115.5l-154 158l123 121l154 -160q53 35 112.5 53.5t124.5 18.5q123 0 227 -64l148 152l123 -121l-144 -150q39 -53 61.5 -118.5t22.5 -137.5t-21.5 -136t-59.5 -115l141 -146l-121 -121l-143 148 q-51 -33 -110.5 -50.5t-123.5 -17.5q-68 0 -129 20.5t-115 55.5l-149 -156zM318 489q0 -59 20.5 -109t57.5 -86t85 -55.5t103 -19.5t103.5 19.5t83 55.5t55 86t20.5 109t-20.5 108.5t-55 85.5t-83 55.5t-103.5 19.5t-103 -19.5t-85 -55.5t-57.5 -85.5t-20.5 -108.5z" />
<glyph d="M29 1327h233l322 -534l305 534h229l-334 -553h244v-145h-344v-164h344v-148h-344v-317h-199v317h-346v148h346v164h-346v145h240z" />
<glyph horiz-adv-x="1142" d="M166 1111q0 85 33.5 153.5t91 116.5t132.5 74.5t158 26.5q96 0 171.5 -30t124.5 -80t75.5 -118t26.5 -147l-182 -37q0 114 -55 183t-165 69q-97 0 -157 -53t-60 -140q0 -112 122 -174l208 -109q57 -30 107 -63t89.5 -73t63 -92t23.5 -119q0 -46 -16.5 -86.5t-40.5 -73.5 t-54.5 -56.5t-58.5 -36.5q85 -52 131.5 -129.5t46.5 -162.5t-33.5 -154.5t-91 -117.5t-132 -74.5t-157.5 -26.5q-97 0 -171 27.5t-125 76.5t-76 119.5t-27 153.5l180 35q0 -111 54.5 -182t168.5 -71q95 0 154.5 50t59.5 143q0 56 -32.5 102t-86.5 74l-211 110 q-56 28 -107 60t-89.5 73t-61.5 92t-23 120q0 47 16 88.5t41.5 74t56 56t58.5 33.5q-87 52 -133.5 131t-46.5 164zM358 595q0 -56 29.5 -99t100.5 -79l202 -109q35 15 66 58.5t31 103.5q0 56 -29.5 98.5t-99.5 79.5l-203 109q-34 -16 -65.5 -61t-31.5 -101z" />
<glyph d="M59 705v167h948v-567h-172v400h-776z" />
<glyph d="M129 104v162h895v-162h-895zM129 633v158h363v278h168v-278h364v-158h-364v-275h-168v275h-363z" />
<glyph d="M113 229l346 361l-344 356l117 117l342 -356l342 356l116 -115l-346 -358l349 -361l-115 -116l-348 358l-344 -356z" />
<glyph d="M104 504v170h936v-170h-936zM438 225q0 53 40 92t93 39t92 -38.5t39 -92.5q0 -53 -38.5 -93t-92.5 -40q-53 0 -93 40t-40 93zM438 952q0 53 40 92t93 39t92 -38.5t39 -92.5q0 -53 -38.5 -93t-92.5 -40q-53 0 -93 40t-40 93z" />
<glyph d="M56 -133q23 -6 50 -10t64 -4q27 0 56.5 6t56.5 25.5t49.5 56t34.5 100.5l153 774h-225v170h260l47 232q14 78 48 134t80 92t100.5 53t109.5 17q59 0 91 -5t61 -15v-170q-23 6 -49.5 10t-59.5 4q-27 0 -56.5 -5t-56 -24.5t-49 -57.5t-34.5 -101l-33 -164h264v-170h-299 l-168 -842q-16 -78 -49 -134t-79 -92t-100 -53.5t-110 -17.5q-63 0 -96 5.5t-61 15.5v170z" />
<glyph />
<glyph />
<glyph d="M35 1098q0 51 19.5 95t53 77t78.5 51t95 18q49 0 93 -18t77.5 -51t54 -77t20.5 -95t-20.5 -95.5t-54 -77t-77.5 -51t-93 -18.5t-94.5 18.5t-79 51t-53 77t-19.5 95.5zM94 336v184l987 774v-188zM168 1098q0 -49 32.5 -81t80.5 -32q47 0 77.5 32t30.5 81t-30.5 80.5 t-77.5 31.5t-80 -31.5t-33 -80.5zM270 219q0 51 19.5 95t53.5 77t79 51.5t94 18.5q51 0 96 -21.5t78 -56.5q33 35 78 56.5t98 21.5q49 0 93.5 -18.5t78 -51.5t54 -77t20.5 -95t-20.5 -95t-54 -77t-78 -51.5t-93.5 -18.5q-109 0 -176 78q-68 -78 -174 -78q-49 0 -94 18.5 t-79 51.5t-53.5 77t-19.5 95zM403 219q0 -49 33 -81t80 -32t78 32t31 81t-31 81t-78 32t-80 -32t-33 -81zM754 219q0 -49 32.5 -81t79.5 -32t78 32t31 81t-31 81t-78 32t-79.5 -32t-32.5 -81z" />
<glyph d="M88 414v164h152q-2 10 -3 37.5t-1 50.5t1 48t3 34h-152v159h182q37 113 103.5 198t151.5 141.5t183.5 84t196.5 27.5q84 0 129 -9.5t92 -25.5l-47 -168q-23 6 -64.5 15.5t-109.5 9.5q-139 0 -253.5 -66.5t-172.5 -206.5h527l-50 -159h-516q-6 -35 -6 -82q0 -29 1 -51.5 t5 -36.5h482l-50 -164h-389q59 -135 173 -198.5t249 -63.5q68 0 111 9t63 15l47 -168q-47 -16 -92 -25.5t-129 -9.5q-98 0 -194.5 28t-181.5 82t-151.5 137t-103.5 194h-186z" />
<glyph d="M140 508v162h866v-162h-866z" />
<glyph d="M61 373q59 86 133 130t160 44q53 0 103.5 -16.5t107.5 -47.5l94 -51q72 -41 144 -41q100 0 176 90l104 -92q-57 -82 -133 -126t-166 -44q-98 0 -204 62l-97 53q-66 35 -127 35q-106 0 -186 -93zM61 770q59 86 133 130t160 44q53 0 103.5 -16.5t107.5 -46.5l94 -52 q72 -41 144 -41q100 0 176 91l104 -93q-57 -82 -133 -126t-166 -44q-98 0 -204 62l-97 53q-66 35 -127 35q-106 0 -186 -92z" />
<glyph d="M98 309v162h314l174 238h-488v157h604l150 203h197l-150 -203h148v-157h-265l-174 -238h439v-162h-558l-151 -205h-197l152 205h-195z" />
<glyph d="M151 104v162h844v-162h-844zM151 623v174l844 299v-172l-629 -213l629 -213v-172z" />
<glyph d="M151 104v162h844v-162h-844zM151 326v172l629 213l-629 213v172l844 -299v-174z" />
<glyph horiz-adv-x="608" d="M113 721q0 150 30.5 281t83 243.5t122 207.5t147.5 173l112 -100q-78 -86 -139 -175t-103 -187.5t-64.5 -208t-22.5 -234.5q0 -127 22.5 -235.5t64.5 -207t103 -187.5t139 -175l-112 -100q-78 78 -147.5 173t-122 207.5t-83 242.5t-30.5 282z" />
<glyph horiz-adv-x="608" d="M0 -84q78 86 139.5 175t103.5 187.5t64.5 207t22.5 235.5q0 125 -22.5 234.5t-64.5 208t-103.5 187.5t-139.5 175l113 100q78 -78 147.5 -173t121.5 -207.5t83 -243.5t31 -281q0 -152 -31 -282t-83 -242.5t-122 -207.5t-147 -173z" />
<glyph horiz-adv-x="739" d="M92 606v168h555v-168h-555z" />
<glyph horiz-adv-x="589" d="M184 -184v1822h396v-155h-228v-1514h228v-153h-396z" />
<glyph horiz-adv-x="589" d="M10 -31h228v1514h-228v155h396v-1822h-396v153z" />
<glyph horiz-adv-x="722" d="M92 637v176q45 0 86 11.5t72 36t49 63.5t18 96v237q0 193 94.5 287t274.5 94h27v-153h-27q-115 0 -158 -51.5t-43 -163.5v-293q0 -104 -57 -169t-156 -83q98 -18 155.5 -82.5t57.5 -169.5v-289q0 -113 43 -164t158 -51h27v-153h-27q-180 0 -274.5 94t-94.5 287v233 q0 57 -18 96t-49 63.5t-72 36t-86 11.5z" />
<glyph horiz-adv-x="722" d="M10 -31h27q115 0 158 51.5t43 163.5v289q0 104 57 169t156 83q-98 18 -155.5 82.5t-57.5 169.5v293q0 113 -43 164t-158 51h-27v153h27q180 0 274.5 -94t94.5 -287v-237q0 -57 18 -96t49 -63.5t72 -36t86 -11.5v-176q-45 0 -86 -11.5t-72 -36t-49 -63.5t-18 -96v-233 q0 -193 -94.5 -287t-274.5 -94h-27v153z" />
<glyph horiz-adv-x="636" d="M185 1325q0 55 38.5 95t94.5 40q55 0 95 -40t40 -95t-40 -94t-95 -39t-94 39t-39 94zM197 0l53 1034h137l51 -1034h-241z" />
<glyph horiz-adv-x="964" d="M61 696l273 391h190l-268 -391l268 -391h-190zM461 696l272 391h191l-269 -391l269 -391h-191z" />
<glyph horiz-adv-x="739" d="M92 641v168h555v-168h-555z" />
<glyph horiz-adv-x="964" d="M41 305l268 391l-268 391h190l273 -391l-273 -391h-190zM440 305l269 391l-269 391h191l272 -391l-272 -391h-191z" />
<glyph horiz-adv-x="1044" d="M72 386q0 123 59.5 209.5t149.5 146.5l94 63q47 33 68.5 85.5t21.5 111.5v19.5t-2 19.5h180q2 -18 2 -34.5v-37.5q0 -102 -38.5 -180t-131.5 -139l-90 -62q-53 -35 -80.5 -88t-27.5 -112q0 -45 15 -87t45 -75t76 -52.5t107 -19.5q68 0 116 22.5t79 59.5t46 84t15 96 q0 27 -4 55.5t-10 45.5l199 -25q12 -43 12 -98q0 -72 -26.5 -145.5t-82 -135t-140.5 -100.5t-204 -39q-109 0 -191.5 34.5t-140 92t-87 132.5t-29.5 153zM418 1332q0 55 40 94t95 39t94 -39t39 -94t-38.5 -95t-94.5 -40q-55 0 -95 39.5t-40 95.5z" />
<glyph horiz-adv-x="1273" d="M115 606v168h1049v-168h-1049z" />
<glyph horiz-adv-x="2217" d="M136 606v168h1951v-168h-1951z" />
<glyph horiz-adv-x="565" d="M61 696l273 391h190l-268 -391l268 -391h-190z" />
<glyph horiz-adv-x="565" d="M41 305l268 391l-268 391h190l273 -391l-273 -391h-190z" />
<glyph horiz-adv-x="1153" d="M113 578q0 82 20.5 160.5t62.5 140t107.5 99.5t157.5 38q68 0 135.5 -24.5t131 -64.5t116.5 -89.5t94 -98.5q14 -16 31.5 -37.5t33 -44t26.5 -44t11 -35.5q0 -16 -11 -37t-26.5 -43.5t-33 -44t-31.5 -37.5q-41 -49 -94 -98.5t-116.5 -89.5t-131.5 -64.5t-135 -24.5 q-92 0 -157.5 37t-107.5 98.5t-62.5 140.5t-20.5 163zM291 578q0 -53 10 -100.5t32.5 -82.5t55.5 -56.5t80 -21.5q57 0 112.5 26t103.5 64.5t89 84t70 86.5q-29 39 -70 85t-89 84.5t-103.5 64.5t-112.5 26q-47 0 -80 -21.5t-55.5 -56.5t-32.5 -83t-10 -99z" />
<glyph horiz-adv-x="1570" d="M92 727q0 182 62.5 322.5t165 236.5t233.5 146.5t268 50.5q121 0 226.5 -33t189.5 -92.5t142.5 -145.5t86.5 -190l-186 -64q-47 168 -165 254t-294 86q-102 0 -196.5 -34.5t-167 -106.5t-116.5 -179.5t-44 -250.5q0 -145 44 -252.5t116.5 -179.5t167 -107.5t196.5 -35.5 q100 0 182 28.5t140.5 77.5t94.5 115.5t46 140.5h-586v180h789q2 -12 2 -25.5v-25.5q0 -139 -42 -261t-126 -214t-209 -145.5t-291 -53.5q-137 0 -268 50.5t-233.5 146.5t-165 237.5t-62.5 323.5z" />
<glyph horiz-adv-x="1570" d="M92 727q0 182 62.5 322.5t165 236.5t233.5 146.5t268 50.5q121 0 226.5 -33t189.5 -92.5t142.5 -145.5t86.5 -190l-186 -64q-47 168 -165 254t-294 86q-102 0 -196.5 -34.5t-167 -106.5t-116.5 -179.5t-44 -250.5q0 -145 44 -252.5t116.5 -179.5t167 -107.5t196.5 -35.5 q100 0 182 28.5t140.5 77.5t94.5 115.5t46 140.5h-586v180h789q2 -12 2 -25.5v-25.5q0 -139 -42 -261t-126 -214t-209 -145.5t-291 -53.5q-137 0 -268 50.5t-233.5 146.5t-165 237.5t-62.5 323.5zM465 1554l230 244h246l239 -244h-188l-174 132l-166 -132h-187z" />
<glyph horiz-adv-x="1570" d="M92 727q0 182 62.5 322.5t165 236.5t233.5 146.5t268 50.5q121 0 226.5 -33t189.5 -92.5t142.5 -145.5t86.5 -190l-186 -64q-47 168 -165 254t-294 86q-102 0 -196.5 -34.5t-167 -106.5t-116.5 -179.5t-44 -250.5q0 -145 44 -252.5t116.5 -179.5t167 -107.5t196.5 -35.5 q100 0 182 28.5t140.5 77.5t94.5 115.5t46 140.5h-586v180h789q2 -12 2 -25.5v-25.5q0 -139 -42 -261t-126 -214t-209 -145.5t-291 -53.5q-137 0 -268 50.5t-233.5 146.5t-165 237.5t-62.5 323.5zM491 1808h166q2 -18 10.5 -37.5t27 -37t48 -28.5t70.5 -11t69.5 11t47 28.5 t26.5 37t11 37.5h165q-4 -49 -24.5 -96t-60.5 -85t-98 -60.5t-136 -22.5t-136.5 22.5t-98.5 60.5t-62.5 85t-24.5 96z" />
<glyph horiz-adv-x="1570" d="M92 727q0 182 62.5 322.5t165 236.5t233.5 146.5t268 50.5q121 0 226.5 -33t189.5 -92.5t142.5 -145.5t86.5 -190l-186 -64q-47 168 -165 254t-294 86q-102 0 -196.5 -34.5t-167 -106.5t-116.5 -179.5t-44 -250.5q0 -145 44 -252.5t116.5 -179.5t167 -107.5t196.5 -35.5 q100 0 182 28.5t140.5 77.5t94.5 115.5t46 140.5h-586v180h789q2 -12 2 -25.5v-25.5q0 -139 -42 -261t-126 -214t-209 -145.5t-291 -53.5q-137 0 -268 50.5t-233.5 146.5t-165 237.5t-62.5 323.5zM682 1675q0 53 38 92t91 39t92 -38.5t39 -92.5q0 -53 -39 -91t-92 -38 t-91 38t-38 91z" />
<glyph horiz-adv-x="1570" d="M92 727q0 182 62.5 322.5t165 236.5t233.5 146.5t268 50.5q121 0 226.5 -33t189.5 -92.5t142.5 -145.5t86.5 -190l-186 -64q-47 168 -165 254t-294 86q-102 0 -196.5 -34.5t-167 -106.5t-116.5 -179.5t-44 -250.5q0 -145 44 -252.5t116.5 -179.5t167 -107.5t196.5 -35.5 q100 0 182 28.5t140.5 77.5t94.5 115.5t46 140.5h-586v180h789q2 -12 2 -25.5v-25.5q0 -139 -42 -261t-126 -214t-209 -145.5t-291 -53.5q-137 0 -268 50.5t-233.5 146.5t-165 237.5t-62.5 323.5zM706 -180q0 47 37 76.5t84 29.5q45 0 89 -33.5t44 -115.5 q0 -59 -20.5 -102.5t-54 -72t-75.5 -42t-83 -13.5v82q53 0 91 31t42 68q-4 -4 -16.5 -8.5t-26.5 -4.5q-47 0 -79 26t-32 79z" />
<glyph horiz-adv-x="675" d="M164 0v985h192v-985h-192zM358 850q0 61 42 103t104 42q59 0 101 -42t42 -103q0 -59 -42 -101t-101 -42q-61 0 -103.5 42t-42.5 101z" />
<glyph horiz-adv-x="675" d="M164 0v985h192v-985h-192zM185 1112l178 299h242l-259 -299h-161zM358 850q0 61 42 103t104 42q59 0 101 -42t42 -103q0 -59 -42 -101t-101 -42q-61 0 -103.5 42t-42.5 101z" />
<glyph horiz-adv-x="675" d="M135 -180q0 47 37 76.5t84 29.5q45 0 89 -33.5t44 -115.5q0 -59 -20.5 -102.5t-54 -72t-75.5 -42t-83 -13.5v82q53 0 91 31t42 68q-4 -4 -16.5 -8.5t-26.5 -4.5q-47 0 -79 26t-32 79zM164 0v985h192v-985h-192zM358 850q0 61 42 103t104 42q59 0 101 -42t42 -103 q0 -59 -42 -101t-101 -42q-61 0 -103.5 42t-42.5 101z" />
<glyph horiz-adv-x="675" d="M72 1407h178l143 -166l144 166h180l-209 -291h-227zM164 0v985h192v-985h-192zM358 850q0 61 42 103t104 42q59 0 101 -42t42 -103q0 -59 -42 -101t-101 -42q-61 0 -103.5 42t-42.5 101z" />
<glyph horiz-adv-x="1386" d="M133 397q0 80 25.5 145.5t66.5 115t95.5 83t111.5 50.5q-96 35 -161.5 113.5t-65.5 203.5q0 78 32.5 146.5t89 118.5t134.5 80t170 30q117 0 199.5 -34t137 -89t81 -126t32.5 -147l-196 -34q-8 117 -69.5 183.5t-182.5 66.5q-45 0 -86 -15.5t-72 -42t-48 -64.5t-17 -83 q0 -53 21.5 -93t54 -67t71.5 -39t74 -12h26v-185q-51 0 -107 -14t-103.5 -48t-78 -89t-30.5 -137q0 -49 20.5 -96.5t60.5 -83t100.5 -58t139.5 -22.5q150 0 234 87t84 236v21h-184v182h563v-182h-176v-21q0 -104 -34 -196.5t-100.5 -161t-164 -109.5t-224.5 -41 q-119 0 -215 32t-164.5 88t-106.5 135t-38 173z" />
<glyph horiz-adv-x="952" d="M92 0v180h334v756h-322v141q139 4 229.5 73t112.5 177h177v-1147h319v-180h-850z" />
<glyph horiz-adv-x="878" d="M51 1077q0 80 31 150.5t83 123t122.5 83t150.5 30.5t150.5 -30.5t124 -83t84 -123t30.5 -150.5t-30.5 -150.5t-84 -122.5t-124 -83t-150.5 -31t-150.5 31t-122.5 83t-83 122.5t-31 150.5zM152 1077q0 -61 22.5 -114.5t60 -93.5t90 -62.5t113.5 -22.5t113.5 22.5 t91.5 62.5t61.5 93.5t22.5 114.5t-22.5 114.5t-61.5 93.5t-91 62.5t-114 22.5q-61 0 -113.5 -22.5t-90 -62.5t-60 -93.5t-22.5 -114.5zM297 881v401h170q59 0 99 -40t40 -93q0 -39 -20.5 -68.5t-53.5 -46.5l74 -153h-110l-62 133h-31v-133h-106zM403 1100h41q23 0 38.5 13 t15.5 36t-15.5 34t-38.5 11h-41v-94z" />
<glyph horiz-adv-x="415" d="M72 1085l57 367h215l-131 -367h-141z" />
<glyph horiz-adv-x="397" d="M72 1350q0 49 36.5 77.5t84.5 28.5q23 0 46 -8t42.5 -25.5t32 -46t12.5 -69.5q0 -59 -20.5 -102.5t-54.5 -72t-76 -42t-83 -13.5v82q53 0 91 31t42 67q-2 -2 -12 -7t-31 -5q-47 0 -78.5 26t-31.5 79z" />
<glyph horiz-adv-x="352" d="M51 1243q0 55 20.5 98t54.5 72t76 44.5t83 15.5v-82q-53 0 -91 -31t-42 -68q2 2 13 7.5t30 5.5q49 0 79.5 -28t30.5 -77t-34.5 -77.5t-86.5 -28.5q-23 0 -45 8t-42.5 25.5t-33 46t-12.5 69.5z" />
<glyph horiz-adv-x="602" d="M47 1272q0 47 31 78.5t78 31.5t78.5 -31.5t31.5 -78.5t-31.5 -78t-78.5 -31t-78 31t-31 78zM336 1272q0 47 30.5 78.5t77.5 31.5t79 -31.5t32 -78.5t-31.5 -78t-79.5 -31q-47 0 -77.5 31t-30.5 78z" />
<glyph horiz-adv-x="634" d="M51 1677q0 47 31 78t78 31t78.5 -31t31.5 -78t-31.5 -78.5t-78.5 -31.5t-78 31.5t-31 78.5zM365 1677q0 47 31.5 78t78.5 31t78 -31t31 -78t-31 -78.5t-78 -31.5t-78.5 31.5t-31.5 78.5z" />
<glyph horiz-adv-x="559" d="M37 1798h264l209 -244h-191z" />
<glyph horiz-adv-x="833" d="M59 1677q0 51 35 86t86 35t86 -34.5t35 -86.5q0 -51 -35 -86t-86 -35t-86 35t-35 86zM532 1677q0 51 35 86t86 35t86 -34.5t35 -86.5q0 -51 -34.5 -86t-86.5 -35q-51 0 -86 35t-35 86z" />
<glyph horiz-adv-x="702" d="M51 1595v170h600v-170h-600z" />
<glyph horiz-adv-x="559" d="M49 1554l207 244h266l-280 -244h-193z" />
<glyph horiz-adv-x="825" d="M59 1554l230 244h246l239 -244h-188l-174 132l-166 -132h-187z" />
<glyph horiz-adv-x="825" d="M59 1798h187l166 -131l174 131h188l-239 -244h-246z" />
<glyph horiz-adv-x="759" d="M59 1808h166q2 -18 10.5 -37.5t27 -37t48 -28.5t70.5 -11t69.5 11t47 28.5t26.5 37t11 37.5h165q-4 -49 -24.5 -96t-60.5 -85t-98 -60.5t-136 -22.5t-136.5 22.5t-98.5 60.5t-62.5 85t-24.5 96z" />
<glyph horiz-adv-x="362" d="M51 1675q0 53 38 92t91 39t92 -38.5t39 -92.5q0 -53 -39 -91t-92 -38t-91 38t-38 91z" />
<glyph horiz-adv-x="559" d="M51 1737q0 47 18.5 88t50.5 71.5t72.5 48t86.5 17.5q47 0 89 -17.5t72.5 -48t49 -71.5t18.5 -88t-18.5 -88t-49 -71t-72.5 -47.5t-89 -17.5q-45 0 -86 17.5t-73 47.5t-50.5 71t-18.5 88zM182 1737q0 -41 27 -68t67 -27q41 0 70 27t29 68t-29 68.5t-70 27.5t-67.5 -27.5 t-26.5 -68.5z" />
<glyph horiz-adv-x="763" d="M55 1550v33q0 115 56.5 171t142.5 56q43 0 81 -14t68 -33l31 -18q23 -12 40.5 -20.5t37.5 -8.5q27 0 46.5 15.5t19.5 56.5v16h137v-32q0 -115 -55.5 -171.5t-141.5 -56.5q-45 0 -80 12.5t-65 34.5l-31 21q-20 12 -37.5 20t-38.5 8q-33 0 -52 -21.5t-19 -68.5h-140z" />
<glyph horiz-adv-x="751" d="M51 1554l125 244h215l-196 -244h-144zM340 1554l145 244h215l-217 -244h-143z" />
<glyph horiz-adv-x="415" d="M72 1063l61 389h227l-139 -389h-149z" />
<glyph horiz-adv-x="356" d="M51 -180q0 47 37 76.5t84 29.5q45 0 89 -33.5t44 -115.5q0 -59 -20.5 -102.5t-54 -72t-75.5 -42t-83 -13.5v82q53 0 91 31t42 68q-4 -4 -16.5 -8.5t-26.5 -4.5q-47 0 -79 26t-32 79z" />
</font>
</defs>
</svg>
