<?xml version="1.0" encoding="utf-8"?>
<!-- Generator: Adobe Illustrator 15.0.2, SVG Export Plug-In . SVG Version: 6.00 Build 0)  -->
<!DOCTYPE svg PUBLIC "-//W3C//DTD SVG 1.1//EN" "http://www.w3.org/Graphics/SVG/1.1/DTD/svg11.dtd">
<svg version="1.1" id="ZiggoZakelijkLogo" xmlns="http://www.w3.org/2000/svg" xmlns:xlink="http://www.w3.org/1999/xlink" x="0px"
	 y="0px" width="205.824px" height="119.211px" viewBox="0 0 205.824 119.211" enable-background="new 0 0 205.824 119.211"
	 xml:space="preserve">
<path fill="#F48C00" d="M160.815,51.572c0,5.814-1.777,10.869-5.811,14.9c-3.627,3.625-8.207,5.117-13.236,5.117
	c-9.865,0-14.945-7.621-14.945-7.621c2.652-2.652,6.34-4.262,9.951-2.098c0.607,0.363,2.43,1.357,5.033,1.357
	c9.129,0,10.615-8.158,10.615-10.586c-3.164,1.912-6.732,2.863-10.697,2.865h-0.006c-5.156-0.002-9.682-1.633-13.445-4.852
	l-0.047-0.041c-3.693-3.541-5.582-7.91-5.613-12.988c-0.027-1.042-0.027-4.383,0-5.16c0.01-4.993,1.898-9.344,5.613-12.9
	c3.748-3.591,8.289-5.412,13.492-5.413h0.004h0.002c6.914,0,11.99,3.423,14.34,6.271c0.598,0.725,0.945,1.659,0.945,2.671
	c0,1.173-0.475,2.234-1.244,3.003c-0.766,0.769-1.828,1.243-3.002,1.243c-1.16,0-2.271-0.485-2.979-1.221
	c-2.633-2.739-5.139-3.603-8.062-3.604c-2.926,0.001-5.365,0.977-7.455,2.982c-2.076,1.958-3.055,4.185-3.084,7.017
	c-0.047,1.239-0.047,3.873-0.002,5.062c0.023,2.902,0.998,5.162,3.07,7.145c2.16,1.971,4.607,2.936,7.471,2.938
	c2.863-0.002,5.314-0.967,7.488-2.955c1.137-1.09,1.943-2.268,2.441-3.592c0.4-1.064,1.234-3.283,4.057-4.41
	c2.377-0.947,5.105-0.845,5.105-0.845V51.572z M110.737,36.703c-2.823,1.126-3.656,3.345-4.057,4.41
	c-0.498,1.324-1.303,2.502-2.439,3.592c-2.177,1.988-4.627,2.953-7.49,2.955c-2.862-0.002-5.312-0.967-7.471-2.938
	c-2.071-1.982-3.047-4.242-3.07-7.145c-0.044-1.189-0.044-3.823,0.002-5.062c0.029-2.832,1.008-5.059,3.085-7.017
	c2.09-2.006,4.527-2.981,7.453-2.982c2.926,0.001,5.431,0.864,8.065,3.604c0.707,0.735,1.816,1.221,2.976,1.221
	c1.174,0,2.236-0.475,3.004-1.243c0.77-0.769,1.242-1.83,1.242-3.003c0-1.012-0.348-1.946-0.945-2.671
	c-2.35-2.848-7.425-6.271-14.341-6.271H96.75h-0.003c-5.204,0.001-9.744,1.822-13.494,5.413c-3.713,3.557-5.602,7.907-5.613,12.9
	c-0.024,0.776-0.024,4.117,0,5.16c0.032,5.078,1.921,9.447,5.613,12.988l0.05,0.041c3.763,3.219,8.286,4.85,13.444,4.852h0.005
	c3.965-0.002,7.536-0.953,10.697-2.865c0,2.428-1.486,10.586-10.613,10.586c-2.606,0-4.427-0.994-5.034-1.357
	c-3.611-2.164-7.299-0.555-9.951,2.098c0,0,5.081,7.621,14.945,7.621c5.029,0,9.611-1.492,13.235-5.117
	c4.034-4.031,5.811-9.086,5.811-14.9V35.858C115.842,35.858,113.114,35.756,110.737,36.703z M70.87,15.686v31.796
	c0,3.979-4.015,7.688-8.439,7.697V23.384C62.431,19.403,66.445,15.693,70.87,15.686z M16.521,51.701
	c1.071,2.471,2.876,3.479,6.23,3.479h32.047c-0.151-3.078-2.23-7.816-7.457-8.438H28.748l21.421-20.508
	c0.905-0.863,2.935-3.788,1.489-6.937c-1.161-2.531-3.105-3.611-6.502-3.611H18.471c0.11,3.54,1.876,7.767,6.567,8.523h15.248
	L17.752,45.386C16.838,46.265,15.334,48.962,16.521,51.701z M66.224,60.201c0.823,0.824,1.235,1.904,1.235,2.984
	c0,1.287-0.576,2.324-1.235,2.982c-1.256,1.256-2.967,2.562-5.201,3.486c-1.879,0.781-3.939,1.211-6.101,1.211h-19.49H15.943
	c-4.403,0-8.389-1.783-11.274-4.668C1.784,63.31,0,59.326,0,54.921V35.433V15.941c0-4.403,1.784-8.388,4.669-11.273
	C7.555,1.783,11.54,0,15.943,0h19.488h19.49c2.161,0,4.222,0.43,6.101,1.209c2.576,1.068,4.225,2.385,5.815,4.102
	c0.633,0.684,1.235,1.695,1.235,2.984c0,1.079-0.412,2.159-1.235,2.982s-1.904,1.236-2.983,1.236c-1.081,0-2.173-0.426-2.984-1.236
	c-1.124-1.125-1.741-1.703-3.03-2.249c-0.897-0.381-1.884-0.591-2.918-0.591h-19.49H15.943c-2.069,0-3.945,0.841-5.305,2.201
	c-1.358,1.358-2.2,3.233-2.2,5.303v19.491v19.489c0,2.072,0.842,3.945,2.2,5.305c1.359,1.359,3.235,2.201,5.305,2.201h19.488h19.49
	c1.034,0,2.021-0.209,2.918-0.592c0.809-0.342,1.652-0.871,2.417-1.635c0.811-0.811,1.903-1.234,2.983-1.234
	C64.319,58.966,65.4,59.376,66.224,60.201z M205.805,32.5c-0.012-5.023-1.9-9.376-5.611-12.934
	c-3.752-3.591-8.293-5.412-13.498-5.413h-0.002h-0.002c-5.203,0.001-9.744,1.822-13.494,5.413c-3.713,3.557-5.6,7.907-5.613,12.9
	c-0.025,0.776-0.025,4.117,0,5.16c0.031,5.078,1.922,9.447,5.613,12.988l0.049,0.041c3.764,3.219,8.287,4.85,13.445,4.852h0.006
	c5.152-0.002,9.678-1.633,13.447-4.85l0.049-0.043c3.691-3.541,5.578-7.912,5.611-12.969
	C205.831,36.584,205.831,33.243,205.805,32.5z M197.237,37.611c-0.025,2.869-1.002,5.129-3.053,7.094
	c-2.176,1.988-4.627,2.953-7.49,2.955c-2.861-0.002-5.311-0.967-7.471-2.938c-2.07-1.982-3.047-4.242-3.068-7.145
	c-0.045-1.189-0.045-3.823,0.002-5.062c0.029-2.832,1.008-5.059,3.084-7.017c2.09-2.006,4.527-2.981,7.453-2.982
	c2.926,0.001,5.363,0.977,7.463,2.991c2.07,1.949,3.049,4.176,3.08,7.034C197.276,33.701,197.293,36.323,197.237,37.611z
	 M78.266,108.561v-0.081c0,0,0.887-0.888,1.653-1.855l11.337-14.201v-1.815H75.079v2.421h10.449c1.331,0,2.017-0.081,2.017-0.081
	v0.081c0,0-0.847,0.887-1.613,1.855l-11.337,14.241v1.775H91.66v-2.421H80.323C78.992,108.48,78.266,108.561,78.266,108.561z
	 M103.799,90.124c-4.559,0-7.222,2.3-7.222,2.3l1.291,2.098c0,0,2.381-1.937,5.729-1.937c2.904,0,5.043,1.331,5.043,5.245v0.524
	h-1.13c-3.51,0-12.426,0.161-12.426,7.02c0,4.034,3.51,6.012,6.898,6.012c5.084,0,6.778-4.397,6.778-4.397h0.08
	c0,0-0.08,0.686-0.08,1.694v2.219h2.622V97.91C111.384,92.827,108.681,90.124,103.799,90.124z M108.641,101.5
	c0,3.51-2.34,7.545-6.213,7.545c-3.026,0-4.519-1.937-4.519-3.833c0-4.479,6.374-4.6,9.562-4.6h1.17V101.5z M126.026,99.443
	l7.061-8.835h-3.309l-6.092,7.746h-3.228V82.539h-2.743v28.362h2.743v-10.167h3.268l6.778,10.167h3.268l-7.746-11.377V99.443z
	 M146.236,90.124c-5.486,0-10.005,3.994-10.005,10.651c0,6.253,4.559,10.61,10.61,10.61c4.559,0,7.504-2.824,7.504-2.824
	l-1.251-2.098c0,0-2.461,2.461-6.172,2.461c-4.196,0-7.746-2.824-7.867-8.029h15.572c0,0,0.081-0.928,0.081-1.411
	C154.708,94.44,151.844,90.124,146.236,90.124z M139.176,98.636c0.645-4.075,3.59-6.213,6.979-6.213
	c3.025,0,5.607,1.977,5.769,6.213H139.176z M162.491,105.495V82.539h-2.743V106.1c0,4.438,2.985,4.962,4.68,4.962
	c0.524,0,1.009-0.08,1.009-0.08v-2.461c0,0-0.322,0.04-0.686,0.04C163.702,108.561,162.491,108.158,162.491,105.495z
	 M169.913,110.901h2.743V90.608h-2.743V110.901z M169.832,85.968h2.864v-3.43h-2.864V85.968z M179.23,85.968h2.824v-3.43h-2.824
	V85.968z M179.271,111.546c0,4.64-3.066,5.204-4.64,5.204c-0.524,0-0.888-0.04-0.888-0.04v2.38c0,0,0.484,0.121,1.21,0.121
	c2.26,0,7.061-0.807,7.061-7.544v-21.06h-2.743V111.546z M196.94,99.443L204,90.608h-3.309l-6.092,7.746h-3.228V82.539h-2.743
	v28.362h2.743v-10.167h3.268l6.778,10.167h3.268l-7.746-11.377V99.443z"/>
</svg>
